<?xml version="1.0" encoding="UTF-8"?>
<svg width="157px" height="54px" viewBox="0 0 157 54" version="1.1" xmlns="http://www.w3.org/2000/svg" xmlns:xlink="http://www.w3.org/1999/xlink">
	<title>
		导出
	</title>
	<defs>
		<filter id="filter-1">
			<feColorMatrix in="SourceGraphic" type="matrix" values="0 0 0 0 1.000000 0 0 0 0 1.000000 0 0 0 0 1.000000 0 0 0 1.000000 0">
			</feColorMatrix>
		</filter>
		<path d="M87.182525,54.297075 C87.2919,54.297075 87.3465875,54.2606167 87.3465875,54.1877 C87.3465875,54.0418667 87.3648167,53.7502 87.401275,53.3127 C87.4377333,51.2710333 87.5471083,50.0679083 87.7294,49.703325 C87.8023167,49.59395 87.838775,49.5028042 87.838775,49.4298875 C87.838775,49.1382208 87.6564833,48.9923875 87.2919,48.9923875 C87.2554417,48.9923875 87.2007542,48.9741583 87.1278375,48.9377 L87.1278375,48.9377 L86.963775,48.9377 C86.8544,48.9377 86.7267958,48.9741583 86.5809625,49.047075 L86.5809625,49.047075 L82.69815,49.047075 C82.6252333,49.0106167 82.4976292,48.9923875 82.3153375,48.9923875 C82.0965875,48.9923875 81.8778375,49.0106167 81.6590875,49.047075 C81.5132542,49.15645 81.4585667,49.2840542 81.495025,49.4298875 L81.495025,49.4298875 L81.495025,49.8127 C81.4585667,49.8856167 81.4403375,49.9585333 81.4403375,50.03145 C81.4403375,50.140825 81.5314833,50.1955125 81.713775,50.1955125 C81.82315,50.1955125 81.9689833,50.1772833 82.151275,50.140825 L82.151275,50.140825 L82.5340875,50.140825 C82.7528375,50.1043667 83.13565,50.0861375 83.682525,50.0861375 C83.5366917,52.1278042 82.6616917,53.1850958 81.057525,53.2580125 C81.057525,53.2944708 81.1304417,53.4403042 81.276275,53.6955125 C81.3127333,53.7319708 81.3309625,53.7684292 81.3309625,53.8048875 C81.6590875,54.0965542 82.0054417,54.2423875 82.370025,54.2423875 L82.370025,54.2423875 L82.6434625,54.2423875 C83.8830458,53.9142625 84.6669,52.5288458 84.995025,50.0861375 C85.432525,50.0861375 85.8517958,50.1043667 86.2528375,50.140825 L86.2528375,50.140825 L86.088775,53.5861375 L86.088775,53.5861375 L86.088775,53.8048875 C86.0523167,53.9142625 86.0340875,54.0054083 86.0340875,54.078325 C86.0340875,54.2241583 86.1799208,54.2606167 86.4715875,54.1877 L86.4715875,54.1877 L86.63565,54.1877 C86.6721083,54.1877 86.745025,54.2059292 86.8544,54.2423875 C87.0002333,54.2788458 87.1096083,54.297075 87.182525,54.297075 Z M78.432525,50.3048875 C79.3804417,50.0861375 79.9273167,49.8127 80.07315,49.484575 L80.07315,49.484575 L80.07315,49.047075 C79.7085667,49.0106167 79.2346083,48.9741583 78.651275,48.9377 L78.651275,48.9377 L78.5965875,48.9377 C78.2684625,48.9377 78.1044,49.0106167 78.1044,49.15645 L78.1044,49.15645 L78.1044,49.484575 C78.1408583,49.6304083 78.1590875,49.7580125 78.1590875,49.8673875 C78.1226292,50.1590542 78.213775,50.3048875 78.432525,50.3048875 Z M81.713775,52.2736375 C82.4429417,52.1278042 82.8622125,51.7996792 82.9715875,51.2892625 C82.9351292,50.9611375 82.8257542,50.7788458 82.6434625,50.7423875 C82.5340875,50.7423875 82.4247125,50.8153042 82.3153375,50.9611375 C82.3031847,50.9732903 82.2930574,50.9834176 82.2849556,50.9915194 L82.26065,51.015825 C81.82315,51.1981167 81.38565,51.2892625 80.94815,51.2892625 C81.057525,51.9455125 81.3127333,52.2736375 81.713775,52.2736375 Z M78.3778375,52.3830125 C79.3257542,52.0913458 79.8726292,51.7449917 80.0184625,51.34395 L80.0184625,51.34395 L80.0184625,51.015825 C80.0549208,50.9793667 80.0184625,50.9611375 79.9090875,50.9611375 C79.8361708,50.9611375 79.7085667,50.9793667 79.526275,51.015825 C79.2346083,51.0522833 79.0340875,51.0522833 78.9247125,51.015825 C78.8882542,51.015825 78.8153375,50.9975958 78.7059625,50.9611375 L78.7059625,50.9611375 L78.4872125,50.9611375 C78.1590875,50.9611375 77.995025,51.0522833 77.995025,51.234575 C77.995025,51.3074917 78.0132542,51.3986375 78.0497125,51.5080125 C78.0861708,51.6538458 78.1044,51.7632208 78.1044,51.8361375 C78.1044,52.2007208 78.1955458,52.3830125 78.3778375,52.3830125 Z M88.6044,52.7111375 C88.8960667,52.7111375 89.1695042,52.5653042 89.4247125,52.2736375 L89.4247125,52.2736375 L89.5340875,52.1642625 L89.6434625,51.7267625 C89.1330458,51.6903042 88.713775,51.5262417 88.38565,51.234575 C88.3127333,51.0522833 88.1669,50.9611375 87.94815,50.9611375 C87.6929417,50.9975958 87.5471083,51.1616583 87.51065,51.453325 C87.8023167,52.109575 88.1669,52.5288458 88.6044,52.7111375 Z M78.5965875,54.515825 C78.7788792,54.515825 78.9247125,54.4975958 79.0340875,54.4611375 C79.6174208,53.9871792 80.0184625,53.5679083 80.2372125,53.203325 C80.2372125,52.9481167 80.2007542,52.7840542 80.1278375,52.7111375 C80.0184625,52.7111375 79.8361708,52.765825 79.5809625,52.8752 C79.3622125,52.984575 79.1799208,53.0392625 79.0340875,53.0392625 C78.4872125,53.1121792 78.1955458,53.2580125 78.1590875,53.4767625 C78.3049208,54.0600958 78.4507542,54.40645 78.5965875,54.515825 Z M83.026275,59.6017625 C83.13565,59.5653042 83.2085667,59.547075 83.245025,59.547075 C83.3179417,59.547075 83.4273167,59.5653042 83.57315,59.6017625 L83.57315,59.6017625 L83.8465875,59.6017625 C83.9924208,59.5653042 84.0653375,59.5288458 84.0653375,59.4923875 C84.0288792,58.4715542 84.01065,57.46895 84.01065,56.484575 L84.01065,56.484575 L84.01065,56.265825 L84.0653375,56.265825 C85.7424208,58.34395 87.1096083,59.4012417 88.1669,59.4377 C88.6773167,59.4012417 89.151275,59.1642625 89.588775,58.7267625 L89.588775,58.7267625 L89.6434625,58.2892625 C88.6226292,58.2892625 87.6017958,57.90645 86.5809625,57.140825 C86.4715875,57.0679083 86.19815,56.8491583 85.76065,56.484575 L85.76065,56.484575 L85.5419,56.265825 L88.713775,56.265825 C88.8960667,56.265825 88.9872125,56.1746792 88.9872125,55.9923875 L88.9872125,55.9923875 L88.9872125,55.609575 C88.9507542,55.390825 88.932525,55.2267625 88.932525,55.1173875 C88.932525,55.0444708 88.7866917,55.0080125 88.495025,55.0080125 L88.495025,55.0080125 L84.120025,55.0080125 L84.120025,55.0080125 L84.120025,54.734575 C84.1564833,54.4429083 84.0471083,54.297075 83.7919,54.297075 L83.7919,54.297075 L83.1903375,54.297075 C83.0445042,54.2606167 82.9351292,54.2423875 82.8622125,54.2423875 C82.7163792,54.2423875 82.6434625,54.3335333 82.6434625,54.515825 C82.6434625,54.5522833 82.6616917,54.6252 82.69815,54.734575 L82.69815,54.734575 L82.69815,55.0080125 L79.088775,55.0080125 C79.0158583,54.9715542 78.870025,54.953325 78.651275,54.953325 C77.995025,54.84395 77.7033583,55.0809292 77.776275,55.6642625 L77.776275,55.6642625 L77.776275,55.8830125 C77.7398167,55.9559292 77.7215875,56.0288458 77.7215875,56.1017625 C77.7215875,56.2840542 77.8309625,56.3752 78.0497125,56.3752 C78.3413792,56.3752 78.6148167,56.3387417 78.870025,56.265825 C79.2346083,56.2293667 79.7814833,56.2293667 80.51065,56.265825 L80.51065,56.265825 L81.3309625,56.265825 C80.0913792,57.46895 78.5965875,58.1252 76.8465875,58.234575 L76.8465875,58.234575 L77.01065,58.6173875 C77.4116917,59.1642625 77.8309625,59.4194708 78.2684625,59.3830125 C79.9820042,59.2007208 81.4767958,58.1616583 82.7528375,56.265825 C82.7528375,56.6304083 82.7346083,57.1772833 82.69815,57.90645 L82.69815,57.90645 L82.69815,59.4377 C82.69815,59.547075 82.7346083,59.6017625 82.807525,59.6017625 L82.807525,59.6017625 L83.026275,59.6017625 Z M95.932525,52.8752 C96.0783583,52.8752 96.2788792,52.8569708 96.5340875,52.8205125 L96.5340875,52.8205125 L97.026275,52.8205125 C97.13565,52.8205125 97.1721083,52.765825 97.13565,52.65645 L97.13565,52.65645 L97.13565,51.5627 C97.13565,51.1981167 97.1174208,50.9246792 97.0809625,50.7423875 C97.7372125,50.7059292 98.6851292,50.7059292 99.9247125,50.7423875 L99.9247125,50.7423875 L102.713775,50.7423875 C103.989817,50.7059292 104.937733,50.7059292 105.557525,50.7423875 L105.557525,50.7423875 L105.557525,52.547075 C105.557525,52.7293667 105.6669,52.8022833 105.88565,52.765825 L105.88565,52.765825 L105.940337,52.765825 C106.049712,52.765825 106.195546,52.7475958 106.377837,52.7111375 L106.377837,52.7111375 L106.815337,52.7111375 C106.924712,52.7111375 106.961171,52.65645 106.924712,52.547075 L106.924712,52.547075 L106.924712,52.0002 C106.888254,51.7085333 106.870025,51.4897833 106.870025,51.34395 L106.870025,51.34395 L106.870025,51.015825 C106.833567,50.7241583 106.833567,50.5054083 106.870025,50.359575 C107.015858,50.2502 107.088775,50.1225958 107.088775,49.9767625 C107.015858,49.7580125 106.76065,49.59395 106.32315,49.484575 C106.213775,49.484575 106.067942,49.5210333 105.88565,49.59395 C104.7919,49.484575 103.461171,49.4663458 101.893462,49.5392625 C101.893462,49.2475958 101.929921,49.047075 102.002837,48.9377 C102.002837,48.9012417 102.021067,48.8465542 102.057525,48.7736375 L102.057525,48.7736375 L102.057525,48.609575 C102.057525,48.390825 101.94815,48.2996792 101.7294,48.3361375 C101.583567,48.3361375 101.401275,48.3179083 101.182525,48.28145 L101.182525,48.28145 L100.690337,48.28145 C100.508046,48.2449917 100.4169,48.3361375 100.4169,48.5548875 C100.4169,48.6278042 100.435129,48.7736375 100.471587,48.9923875 C100.544504,49.2111375 100.580962,49.3934292 100.580962,49.5392625 L100.580962,49.5392625 L96.69815,49.5392625 C96.4794,49.4663458 96.2788792,49.4298875 96.0965875,49.4298875 C95.7684625,49.5028042 95.5679417,49.6668667 95.495025,49.922075 C95.495025,49.9949917 95.5314833,50.0679083 95.6044,50.140825 C95.6773167,50.2502 95.713775,50.3413458 95.713775,50.4142625 C95.7866917,51.2163458 95.7866917,51.9819708 95.713775,52.7111375 C95.7502333,52.8205125 95.82315,52.8752 95.932525,52.8752 Z M100.334206,59.8763354 L100.471587,59.8752 C101.966379,59.8752 102.713775,58.9455125 102.713775,57.0861375 C102.713775,56.6486375 102.640858,56.2293667 102.495025,55.828325 L102.495025,55.828325 L102.932525,55.6642625 C104.427317,57.7788458 105.539296,58.8543667 106.268462,58.890825 C106.742421,58.8543667 107.161692,58.6538458 107.526275,58.2892625 L107.526275,58.2892625 L107.690337,57.8517625 C106.450754,57.6330125 105.375233,56.922075 104.463775,55.71895 C104.317942,55.5731167 104.190337,55.390825 104.080962,55.172075 L104.080962,55.172075 L105.721587,54.5705125 C106.086171,54.5340542 106.286692,54.40645 106.32315,54.1877 C106.32315,54.1147833 106.286692,54.0236375 106.213775,53.9142625 C106.140858,53.8778042 106.1044,53.8413458 106.1044,53.8048875 C106.1044,53.7684292 106.086171,53.7319708 106.049712,53.6955125 C105.867421,53.3309292 105.703358,53.1486375 105.557525,53.1486375 C105.44815,53.1486375 105.284087,53.2397833 105.065337,53.422075 C104.992421,53.4585333 104.937733,53.4949917 104.901275,53.53145 C104.463775,53.859575 103.515858,54.2788458 102.057525,54.7892625 C101.802317,54.2788458 101.419504,53.859575 100.909087,53.53145 L100.909087,53.53145 L101.237212,53.203325 C101.419504,53.09395 101.547108,53.0028042 101.620025,52.9298875 C101.875233,52.9298875 102.276275,52.9116583 102.82315,52.8752 C103.625233,52.8387417 104.226796,52.8387417 104.627837,52.8752 L104.627837,52.8752 L104.737212,52.9298875 C104.919504,52.9298875 105.01065,52.8569708 105.01065,52.7111375 C105.01065,52.6746792 104.992421,52.6199917 104.955962,52.547075 L104.955962,52.547075 L104.955962,51.890825 C104.955962,51.78145 104.7919,51.7449917 104.463775,51.78145 L104.463775,51.78145 L98.7215875,51.78145 C98.6122125,51.7449917 98.4846083,51.7267625 98.338775,51.7267625 C98.1564833,51.7267625 97.9559625,51.7449917 97.7372125,51.78145 C97.5913792,51.890825 97.5366917,52.0184292 97.57315,52.1642625 L97.57315,52.1642625 L97.57315,52.4923875 C97.5366917,52.6017625 97.5184625,52.6929083 97.5184625,52.765825 C97.5184625,52.9481167 97.6278375,53.0392625 97.8465875,53.0392625 C98.0653375,53.0392625 98.2658583,53.0210333 98.44815,52.984575 C98.4846083,52.9481167 98.5210667,52.9298875 98.557525,52.9298875 C98.7033583,52.9298875 98.88565,52.9116583 99.1044,52.8752 L99.1044,52.8752 L99.651275,52.8752 C99.3960667,53.09395 99.1226292,53.2762417 98.8309625,53.422075 C98.0288792,53.8231167 97.026275,54.0236375 95.82315,54.0236375 L95.82315,54.0236375 L95.6590875,54.0236375 L95.713775,54.40645 C95.7502333,54.4429083 95.7866917,54.4975958 95.82315,54.5705125 C96.1148167,54.9715542 96.3882542,55.172075 96.6434625,55.172075 C97.4455458,55.172075 98.1929417,55.0262417 98.88565,54.734575 C99.2866917,54.5887417 99.6148167,54.4246792 99.870025,54.2423875 C99.9794,54.3153042 100.088775,54.40645 100.19815,54.515825 C98.7033583,55.5002 97.2085667,55.9923875 95.713775,55.9923875 L95.713775,55.9923875 L95.38565,55.9923875 C95.5314833,56.7944708 95.9872125,57.2319708 96.7528375,57.3048875 C97.8465875,57.1590542 99.2320042,56.5210333 100.909087,55.390825 C100.982004,55.5002 101.036692,55.609575 101.07315,55.71895 C100.890858,55.828325 100.745025,55.9377 100.63565,56.047075 C99.0679417,57.2137417 97.3544,57.8335333 95.495025,57.90645 L95.495025,57.90645 L95.276275,57.90645 L95.3309625,58.234575 C95.7684625,58.8179083 96.1877333,59.109575 96.588775,59.109575 C97.026275,59.109575 97.57315,59.0002 98.2294,58.78145 C99.5419,58.1981167 100.580962,57.6147833 101.346587,57.03145 L101.346587,57.03145 L101.346587,57.1955125 C101.346587,58.1434292 100.982004,58.6173875 100.252837,58.6173875 C99.9247125,58.6173875 99.5965875,58.5627 99.2684625,58.453325 C99.2684625,59.4377 99.6695042,59.9116583 100.471587,59.8752 L100.334206,59.8763354 Z M113.596587,51.890825 C114.216379,51.890825 114.872629,51.3804083 115.565337,50.359575 C116.440337,51.015825 116.968983,51.3986375 117.151275,51.5080125 C117.333567,51.3257208 117.534087,50.9975958 117.752837,50.5236375 C117.752837,50.4507208 117.661692,50.359575 117.4794,50.2502 C117.005442,50.03145 116.567942,49.7580125 116.1669,49.4298875 C116.203358,49.3569708 116.221587,49.2840542 116.221587,49.2111375 C116.148671,48.9923875 115.857004,48.7918667 115.346587,48.609575 C115.200754,48.609575 115.07315,48.7736375 114.963775,49.1017625 C114.599192,50.1590542 113.833567,50.7606167 112.6669,50.90645 C112.958567,51.5627 113.268462,51.890825 113.596587,51.890825 Z M118.190337,55.1173875 C118.299712,55.1173875 118.445546,55.0809292 118.627837,55.0080125 C118.810129,54.9715542 119.01065,54.953325 119.2294,54.953325 L119.2294,54.953325 L119.830962,54.953325 C120.377837,54.9897833 120.778879,54.9897833 121.034087,54.953325 C121.179921,54.953325 121.252837,54.9168667 121.252837,54.84395 L121.252837,54.84395 L121.252837,54.2423875 C121.471587,54.5705125 121.745025,54.7528042 122.07315,54.7892625 C122.437733,54.7892625 122.838775,54.4793667 123.276275,53.859575 C123.786692,54.5522833 124.169504,54.8986375 124.424712,54.8986375 C124.679921,54.8986375 124.989817,54.7528042 125.3544,54.4611375 L125.3544,54.4611375 L125.463775,54.078325 C124.843983,53.8960333 124.278879,53.4949917 123.768462,52.8752 C124.169504,51.9272833 124.461171,51.0705125 124.643462,50.3048875 C124.789296,50.1225958 124.862212,49.9403042 124.862212,49.7580125 L124.862212,49.7580125 L124.862212,49.59395 C124.752837,49.4481167 124.643462,49.3752 124.534087,49.3752 C124.424712,49.1929083 124.297108,49.1017625 124.151275,49.1017625 C124.078358,49.1017625 124.005442,49.15645 123.932525,49.265825 L123.932525,49.265825 L122.838775,49.265825 C122.7294,49.265825 122.565337,49.2475958 122.346587,49.2111375 C122.127837,49.1746792 121.963775,49.15645 121.8544,49.15645 C121.599192,49.15645 121.489817,49.4663458 121.526275,50.0861375 L121.526275,50.0861375 L121.526275,50.1955125 C121.526275,50.3048875 121.544504,50.359575 121.580962,50.359575 L121.580962,50.359575 L122.565337,50.359575 C123.002837,50.3231167 123.349192,50.3048875 123.6044,50.3048875 C123.567942,50.4507208 123.513254,50.6694708 123.440337,50.9611375 C123.294504,51.3986375 123.185129,51.7267625 123.112212,51.9455125 L123.112212,51.9455125 L123.002837,51.7267625 C122.820546,51.3986375 122.711171,51.1616583 122.674712,51.015825 C122.638254,50.9793667 122.601796,50.9246792 122.565337,50.8517625 C122.492421,50.5965542 122.383046,50.46895 122.237212,50.46895 C121.872629,50.578325 121.617421,50.7423875 121.471587,50.9611375 C121.325754,50.7788458 121.161692,50.6694708 120.9794,50.6330125 C120.906483,50.6330125 120.833567,50.6512417 120.76065,50.6877 L120.76065,50.6877 L120.32315,50.6877 L120.32315,49.9767625 C120.9794,49.9767625 121.307525,49.9403042 121.307525,49.8673875 L121.307525,49.8673875 L121.307525,49.047075 C121.307525,48.9741583 121.234608,48.9377 121.088775,48.9377 L121.088775,48.9377 L118.57315,48.9377 C118.518462,48.9194708 118.474029,48.9046596 118.439849,48.8932664 L118.4054,48.8822 L118.308462,48.863325 C118.216588,48.845825 118.150962,48.8348875 118.111587,48.8305125 L118.080962,48.828325 C117.862212,48.8647833 117.734608,48.9923875 117.69815,49.2111375 C117.69815,49.3205125 117.716379,49.4116583 117.752837,49.484575 C117.789296,49.5210333 117.807525,49.5392625 117.807525,49.5392625 C117.839694,49.667939 117.857671,50.2933445 117.861456,51.415479 L117.862212,52.6017625 C117.862212,52.8569708 117.843983,53.2215542 117.807525,53.6955125 L117.807525,53.6955125 L117.807525,54.6798875 C117.807525,54.9715542 117.935129,55.1173875 118.190337,55.1173875 Z M119.44815,50.6877 L118.901275,50.6877 L118.901275,49.922075 L118.901275,49.922075 L119.44815,49.922075 L119.44815,50.6877 L119.44815,50.6877 Z M121.143462,54.0236375 L120.32315,54.0236375 L120.32315,53.2580125 L121.034087,53.2580125 C121.289296,53.2580125 121.4169,53.1668667 121.4169,52.984575 L121.4169,52.984575 L121.4169,52.547075 C121.380442,52.3647833 121.362212,52.2371792 121.362212,52.1642625 L121.362212,52.1642625 L121.362212,51.234575 C121.398671,51.234575 121.4169,51.2163458 121.4169,51.1798875 C121.453358,51.1434292 121.471587,51.1252 121.471587,51.1252 C121.544504,51.34395 121.927317,51.9637417 122.620025,52.984575 C122.146067,53.6043667 121.653879,53.9507208 121.143462,54.0236375 L121.143462,54.0236375 Z M120.377837,52.328325 L118.901275,52.328325 L118.901275,52.328325 L118.901275,51.6173875 L120.432525,51.6173875 L120.432525,51.6173875 L120.432525,51.9455125 C120.396067,52.1278042 120.377837,52.2554083 120.377837,52.328325 L120.377837,52.328325 Z M113.596587,59.21895 C113.815337,59.21895 114.034087,59.1460333 114.252837,59.0002 C114.653879,58.8179083 115.218983,58.7267625 115.94815,58.7267625 C116.896067,58.6903042 117.370025,58.2892625 117.370025,57.5236375 C117.370025,57.4142625 117.333567,57.359575 117.26065,57.359575 L117.26065,57.359575 L117.205962,57.359575 C117.169504,57.3960333 117.133046,57.4142625 117.096587,57.4142625 C116.987212,57.4871792 116.622629,57.5600958 116.002837,57.6330125 L116.002837,57.6330125 L116.002837,55.172075 L116.002837,55.172075 L116.496924,55.1713155 C117.078991,55.1657454 117.370025,55.1295403 117.370025,55.0627 L117.370025,55.0627 L117.370025,54.84395 C117.406483,54.3699917 117.333567,54.1330125 117.151275,54.1330125 L117.151275,54.1330125 L116.002837,54.1330125 L116.002837,53.1486375 C116.877837,53.1486375 117.297108,53.09395 117.26065,52.984575 L117.26065,52.984575 L117.26065,52.765825 C117.297108,52.2918667 117.187733,52.0548875 116.932525,52.0548875 C116.640858,52.0548875 116.221587,52.0731167 115.674712,52.109575 L115.674712,52.109575 L114.471587,52.109575 C114.398671,52.0731167 114.289296,52.0548875 114.143462,52.0548875 L114.143462,52.0548875 L113.705962,52.0548875 C113.596587,52.2371792 113.5419,52.547075 113.5419,52.984575 C113.5419,53.1304083 113.614817,53.203325 113.76065,53.203325 C114.088775,53.203325 114.453358,53.1668667 114.8544,53.09395 L114.8544,53.09395 L114.8544,54.1330125 L114.307525,54.1330125 C114.19815,54.0965542 114.088775,54.078325 113.9794,54.078325 C113.833567,54.078325 113.687733,54.0965542 113.5419,54.1330125 C113.396067,54.2788458 113.32315,54.5887417 113.32315,55.0627 C113.359608,55.172075 113.432525,55.2449917 113.5419,55.28145 C113.76065,55.28145 114.052317,55.2449917 114.4169,55.172075 C114.599192,55.1356167 114.745025,55.1173875 114.8544,55.1173875 L114.8544,55.1173875 L114.8544,55.9377 C114.890858,56.8127 114.872629,57.4142625 114.799712,57.7423875 C114.508046,57.7788458 114.252837,57.8335333 114.034087,57.90645 C113.961171,57.8335333 113.76065,57.8699917 113.432525,58.015825 C113.359608,58.1252 113.32315,58.234575 113.32315,58.34395 C113.396067,58.890825 113.487212,59.1824917 113.596587,59.21895 Z M119.44815,53.96895 L118.901275,53.96895 L118.901275,53.96895 L118.901275,53.2580125 L119.44815,53.2580125 L119.44815,53.96895 Z M118.0164,55.9012 L118.026275,55.8830125 C117.989817,56.0288458 117.971587,56.1382208 117.971587,56.2111375 L117.971587,56.2111375 L117.971587,56.5392625 C117.935129,56.7215542 117.9169,56.8491583 117.9169,56.922075 C117.953358,57.03145 118.026275,57.0861375 118.13565,57.0861375 C118.3544,57.0861375 118.682525,57.0679083 119.120025,57.03145 C119.521067,56.9949917 119.830962,56.9767625 120.049712,56.9767625 L120.049712,56.9767625 L120.651275,56.9767625 L120.651275,56.9767625 L120.651275,57.3048875 C120.687733,57.5965542 120.687733,57.8153042 120.651275,57.9611375 L120.651275,57.9611375 L118.13565,57.9611375 C118.099192,57.9246792 118.008046,57.90645 117.862212,57.90645 C117.752837,57.90645 117.625233,57.9246792 117.4794,57.9611375 C117.370025,58.1069708 117.315337,58.453325 117.315337,59.0002 C117.315337,59.1460333 117.370025,59.21895 117.4794,59.21895 C117.625233,59.21895 117.771067,59.2007208 117.9169,59.1642625 C117.953358,59.1278042 117.989817,59.109575 118.026275,59.109575 C119.01065,58.9637417 120.049712,58.9090542 121.143462,58.9455125 L121.143462,58.9455125 L121.526275,58.9455125 C121.8544,58.9455125 122.346587,58.9819708 123.002837,59.0548875 C123.330962,59.0913458 123.567942,59.109575 123.713775,59.109575 C123.786692,59.109575 123.896067,59.1460333 124.0419,59.21895 C124.370025,59.2918667 124.588775,59.328325 124.69815,59.328325 C125.026275,59.21895 125.263254,58.8543667 125.409087,58.234575 L125.409087,58.234575 L125.409087,57.8517625 C125.153879,57.9246792 124.9169,57.9793667 124.69815,58.015825 L124.69815,58.015825 L121.8544,58.015825 L121.8544,56.9767625 L122.7294,56.9767625 C124.005442,57.0496792 124.643462,57.0132208 124.643462,56.8673875 L124.643462,56.8673875 L124.643462,56.6486375 C124.679921,56.1017625 124.625233,55.828325 124.4794,55.828325 L124.4794,55.828325 L121.909087,55.828325 C121.945546,55.71895 121.963775,55.609575 121.963775,55.5002 C121.963775,55.2085333 121.599192,55.0809292 120.870025,55.1173875 L120.870025,55.1173875 L120.76065,55.1173875 C120.614817,55.0809292 120.560129,55.1903042 120.596587,55.4455125 L120.596587,55.4455125 L120.596587,55.828325 L118.846587,55.828325 C118.810129,55.7918667 118.682525,55.7736375 118.463775,55.7736375 L118.463775,55.7736375 L118.080962,55.7736375 L118.080962,55.7736375 L118.031855,55.8718518 L118.031855,55.8718518 L118.0164,55.9012 Z M116.440337,57.2502 C116.877837,57.1043667 117.26065,56.7762417 117.588775,56.265825 C117.588775,56.1199917 117.4794,56.0106167 117.26065,55.9377 C117.187733,55.7554083 117.060129,55.6460333 116.877837,55.609575 L116.877837,55.609575 L116.659087,55.609575 C116.659087,55.6460333 116.622629,55.7371792 116.549712,55.8830125 C116.513254,56.0288458 116.476796,56.1382208 116.440337,56.2111375 C116.440337,56.2840542 116.38565,56.3934292 116.276275,56.5392625 C116.1669,56.6850958 116.093983,56.8127 116.057525,56.922075 C116.093983,57.03145 116.221587,57.140825 116.440337,57.2502 Z M114.362212,57.46895 C114.617421,57.3960333 114.745025,57.2137417 114.745025,56.922075 C114.63565,56.6304083 114.489817,56.3569708 114.307525,56.1017625 C114.271067,55.8465542 114.161692,55.7371792 113.9794,55.7736375 C113.5419,55.9923875 113.268462,56.2475958 113.159087,56.5392625 C113.232004,56.7215542 113.341379,56.8309292 113.487212,56.8673875 C113.633046,56.9403042 113.778879,57.0679083 113.924712,57.2502 C114.034087,57.3231167 114.125233,57.3960333 114.19815,57.46895 L114.19815,57.46895 L114.362212,57.46895 Z M138.588775,59.7111375 C139.317942,59.7111375 139.700754,59.65645 139.737212,59.547075 L139.737212,59.547075 L139.737212,58.1252 L140.2294,58.1252 C141.5419,58.1616583 142.19815,58.1069708 142.19815,57.9611375 L142.19815,57.9611375 L142.19815,57.8517625 C142.19815,57.3048875 142.143462,57.03145 142.034087,57.03145 L142.034087,57.03145 L139.682525,57.03145 L139.682525,57.03145 L139.682525,56.5392625 L139.682525,56.5392625 L142.034087,56.5392625 C142.179921,56.5392625 142.252837,56.5028042 142.252837,56.4298875 L142.252837,56.4298875 L142.252837,56.15645 C142.289296,55.71895 142.179921,55.5002 141.924712,55.5002 L141.924712,55.5002 L140.830962,55.5002 C140.867421,55.4272833 140.940337,55.3179083 141.049712,55.172075 C141.122629,55.0262417 141.177317,54.9168667 141.213775,54.84395 C141.5419,54.84395 141.906483,54.8804083 142.307525,54.953325 L142.307525,54.953325 L142.362212,54.953325 C142.763254,54.8804083 143.018462,54.5522833 143.127837,53.96895 L143.127837,53.96895 L143.127837,53.640825 C142.799712,53.6772833 142.453358,53.6955125 142.088775,53.6955125 L142.088775,53.6955125 L139.627837,53.6955125 L139.627837,53.203325 L139.627837,53.203325 L142.034087,53.203325 C142.216379,53.203325 142.307525,53.1668667 142.307525,53.09395 L142.307525,53.09395 L142.307525,52.8205125 C142.343983,52.3830125 142.216379,52.1642625 141.924712,52.1642625 L141.924712,52.1642625 L139.627837,52.1642625 L139.627837,52.1642625 L139.627837,51.7267625 L139.627837,51.7267625 L141.5419,51.7267625 C141.687733,51.7632208 141.815337,51.78145 141.924712,51.78145 C142.362212,51.8179083 142.526275,51.6538458 142.4169,51.2892625 L142.4169,51.2892625 L142.4169,49.5392625 C142.4169,49.4663458 142.453358,49.3934292 142.526275,49.3205125 C142.562733,49.2475958 142.580962,49.1929083 142.580962,49.15645 C142.544504,48.9012417 142.325754,48.7371792 141.924712,48.6642625 C141.815337,48.6642625 141.705962,48.7007208 141.596587,48.7736375 C140.976796,48.7371792 140.393462,48.71895 139.846587,48.71895 L139.846587,48.71895 L138.205962,48.71895 C137.659087,48.71895 137.093983,48.7371792 136.51065,48.7736375 C136.364817,48.7007208 136.200754,48.6642625 136.018462,48.6642625 C135.763254,48.7371792 135.599192,48.8647833 135.526275,49.047075 C135.526275,49.1199917 135.562733,49.2111375 135.63565,49.3205125 C135.672108,49.3934292 135.690337,49.4481167 135.690337,49.484575 L135.690337,49.484575 L135.690337,51.1798875 C135.653879,51.3257208 135.63565,51.4350958 135.63565,51.5080125 C135.672108,51.7267625 135.799712,51.8361375 136.018462,51.8361375 C136.237212,51.8361375 136.437733,51.7996792 136.620025,51.7267625 L136.620025,51.7267625 L138.424712,51.7267625 L138.424712,52.21895 L136.7294,52.21895 C136.620025,52.1824917 136.474192,52.1642625 136.2919,52.1642625 L136.2919,52.1642625 L135.8544,52.1642625 C135.745025,52.3100958 135.690337,52.6199917 135.690337,53.09395 C135.690337,53.203325 135.781483,53.2580125 135.963775,53.2580125 C136.182525,53.2580125 136.492421,53.2397833 136.893462,53.203325 L136.893462,53.203325 L138.424712,53.203325 L138.424712,53.203325 L138.424712,53.6955125 L138.424712,53.6955125 L136.565337,53.6955125 C136.455962,53.6590542 136.328358,53.640825 136.182525,53.640825 C136.000233,53.640825 135.817942,53.6590542 135.63565,53.6955125 C135.489817,53.8778042 135.4169,54.2241583 135.4169,54.734575 C135.453358,54.84395 135.526275,54.9168667 135.63565,54.953325 C135.781483,54.953325 135.945546,54.9168667 136.127837,54.84395 C136.237212,54.8074917 136.310129,54.7892625 136.346587,54.7892625 C136.528879,54.7892625 136.711171,54.7710333 136.893462,54.734575 C136.929921,54.84395 137.002837,55.0262417 137.112212,55.28145 C137.148671,55.390825 137.185129,55.4819708 137.221587,55.5548875 L137.221587,55.5548875 L136.893462,55.5548875 C136.784087,55.5184292 136.656483,55.5002 136.51065,55.5002 L136.51065,55.5002 L136.07315,55.5002 C135.963775,55.6824917 135.909087,55.9923875 135.909087,56.4298875 C135.872629,56.5757208 135.945546,56.6304083 136.127837,56.59395 L136.127837,56.59395 L136.893462,56.59395 C137.294504,56.5574917 137.586171,56.5392625 137.768462,56.5392625 L137.768462,56.5392625 L138.4794,56.5392625 L138.4794,57.03145 L136.94815,57.03145 C136.838775,56.9949917 136.711171,56.9767625 136.565337,56.9767625 L136.565337,56.9767625 L136.346587,56.9767625 C136.237212,57.0132208 136.146067,57.03145 136.07315,57.03145 C135.963775,57.2137417 135.909087,57.5236375 135.909087,57.9611375 C135.909087,58.1069708 136.000233,58.1798875 136.182525,58.1798875 C136.401275,58.1798875 136.692942,58.1616583 137.057525,58.1252 L137.057525,58.1252 L138.4794,58.1252 C138.442942,58.5627 138.424712,59.0366583 138.424712,59.547075 C138.461171,59.65645 138.515858,59.7111375 138.588775,59.7111375 Z M131.205962,51.453325 C131.388254,51.453325 131.643462,51.4350958 131.971587,51.3986375 C132.336171,51.3621792 132.591379,51.34395 132.737212,51.34395 L132.737212,51.34395 L133.502837,51.34395 C134.778879,51.3804083 135.4169,51.3257208 135.4169,51.1798875 L135.4169,51.1798875 L135.4169,51.015825 C135.453358,50.5054083 135.325754,50.2502 135.034087,50.2502 L135.034087,50.2502 L133.940337,50.2502 C134.013254,49.8491583 134.049712,49.4663458 134.049712,49.1017625 C134.049712,48.9194708 133.995025,48.7918667 133.88565,48.71895 C133.703358,48.7554083 133.484608,48.7554083 133.2294,48.71895 L133.2294,48.71895 L132.901275,48.71895 C132.682525,48.71895 132.591379,48.8647833 132.627837,49.15645 C132.627837,49.5210333 132.664296,49.8491583 132.737212,50.140825 L132.737212,50.140825 L132.737212,50.2502 L132.13565,50.2502 C132.062733,50.2137417 131.9169,50.1955125 131.69815,50.1955125 C131.515858,50.1955125 131.315337,50.2137417 131.096587,50.2502 C131.096587,50.2866583 131.078358,50.3231167 131.0419,50.359575 C130.968983,50.46895 130.932525,50.5418667 130.932525,50.578325 L130.932525,50.578325 L130.932525,50.90645 C130.896067,51.0522833 130.877837,51.1616583 130.877837,51.234575 C130.877837,51.3804083 130.987212,51.453325 131.205962,51.453325 Z M139.409087,50.7423875 L138.643462,50.7423875 L138.643462,49.7580125 L139.409087,49.7580125 L139.409087,50.7423875 Z M137.659087,50.7423875 L136.838775,50.7423875 L136.838775,49.7580125 L136.838775,49.7580125 L137.659087,49.7580125 L137.659087,50.7423875 Z M141.268462,50.7423875 L140.393462,50.7423875 L140.393462,49.7580125 L140.393462,49.7580125 L141.268462,49.7580125 L141.268462,50.7423875 Z M131.424712,53.1486375 C131.607004,53.1486375 131.843983,53.1304083 132.13565,53.09395 C132.463775,53.0574917 132.700754,53.0392625 132.846587,53.0392625 C133.539296,53.0392625 134.213775,53.0574917 134.870025,53.09395 C135.052317,53.09395 135.143462,53.0574917 135.143462,52.984575 L135.143462,52.984575 L135.143462,52.65645 C135.179921,52.21895 135.034087,52.0002 134.705962,52.0002 C134.450754,52.0002 134.049712,52.0184292 133.502837,52.0548875 L133.502837,52.0548875 L132.409087,52.0548875 C132.226796,52.0184292 132.080962,52.0002 131.971587,52.0002 L131.971587,52.0002 L131.370025,52.0002 C131.26065,52.109575 131.205962,52.2371792 131.205962,52.3830125 L131.205962,52.3830125 L131.205962,52.65645 C131.169504,52.8022833 131.151275,52.9116583 131.151275,52.984575 C131.151275,53.09395 131.242421,53.1486375 131.424712,53.1486375 Z M131.370025,54.84395 C131.515858,54.84395 131.734608,54.8257208 132.026275,54.7892625 C132.317942,54.7528042 132.518462,54.734575 132.627837,54.734575 L132.627837,54.734575 L133.393462,54.734575 C134.523671,54.7710333 135.125233,54.7528042 135.19815,54.6798875 L135.19815,54.6798875 L135.19815,54.4611375 C135.234608,53.9871792 135.125233,53.7502 134.870025,53.7502 L134.870025,53.7502 L132.299712,53.7502 C132.190337,53.7137417 132.062733,53.6955125 131.9169,53.6955125 C131.69815,53.6955125 131.497629,53.7137417 131.315337,53.7502 C131.169504,53.8960333 131.096587,54.2059292 131.096587,54.6798875 C131.096587,54.7892625 131.187733,54.84395 131.370025,54.84395 Z M139.627837,55.5548875 L138.424712,55.5548875 C138.388254,55.4455125 138.333567,55.2996792 138.26065,55.1173875 C138.187733,54.8986375 138.133046,54.7528042 138.096587,54.6798875 L138.096587,54.6798875 L139.955962,54.6798875 C139.919504,54.7528042 139.864817,54.8986375 139.7919,55.1173875 C139.718983,55.2996792 139.664296,55.4455125 139.627837,55.5548875 L139.627837,55.5548875 Z M131.9169,59.2736375 C132.026275,59.2736375 132.099192,59.2554083 132.13565,59.21895 C132.208567,59.21895 132.281483,59.2007208 132.3544,59.1642625 L132.3544,59.1642625 L133.01065,59.1642625 C133.557525,59.1278042 133.958567,59.1278042 134.213775,59.1642625 C134.359608,59.2371792 134.5419,59.2554083 134.76065,59.21895 L134.76065,59.21895 L135.034087,59.21895 C135.179921,59.1824917 135.252837,59.0731167 135.252837,58.890825 L135.252837,58.890825 L135.252837,58.1798875 C135.216379,57.8882208 135.19815,57.6694708 135.19815,57.5236375 L135.19815,57.5236375 L135.19815,56.2111375 C135.234608,56.1382208 135.271067,56.0835333 135.307525,56.047075 C135.380442,55.9741583 135.4169,55.9194708 135.4169,55.8830125 C135.380442,55.6642625 135.19815,55.5184292 134.870025,55.4455125 C134.651275,55.4455125 134.505442,55.4819708 134.432525,55.5548875 C133.922108,55.5184292 133.411692,55.5002 132.901275,55.5002 L132.901275,55.5002 L132.3544,55.5002 C132.13565,55.4637417 131.953358,55.4455125 131.807525,55.4455125 C131.552317,55.4819708 131.388254,55.5913458 131.315337,55.7736375 C131.315337,55.8830125 131.351796,55.9923875 131.424712,56.1017625 C131.461171,56.2840542 131.4794,56.6850958 131.4794,57.3048875 C131.4794,57.7059292 131.461171,58.1069708 131.424712,58.5080125 C131.424712,58.5444708 131.406483,58.5991583 131.370025,58.672075 C131.333567,58.7449917 131.315337,58.7996792 131.315337,58.8361375 C131.351796,59.0913458 131.552317,59.2371792 131.9169,59.2736375 Z M133.995025,58.0705125 L132.682525,58.0705125 L132.682525,56.484575 L132.682525,56.484575 L133.120025,56.484575 C133.521067,56.4481167 133.812733,56.4481167 133.995025,56.484575 L133.995025,56.484575 L133.995025,58.0705125 Z M155.213775,59.7111375 C155.432525,59.7111375 155.523671,59.6382208 155.487212,59.4923875 C155.487212,58.8361375 155.468983,58.1981167 155.432525,57.578325 L155.432525,57.578325 L156.362212,57.578325 C156.763254,57.6147833 157.091379,57.6330125 157.346587,57.6330125 L157.346587,57.6330125 L157.401275,57.6330125 C157.583567,57.6330125 157.674712,57.578325 157.674712,57.46895 L157.674712,57.46895 L157.674712,57.359575 L157.674712,57.359575 L157.633697,57.2775438 C157.624582,57.2593146 157.620025,57.2502 157.620025,57.2502 C157.620025,57.1043667 157.638254,56.9585333 157.674712,56.8127 C157.674712,56.5574917 157.492421,56.4298875 157.127837,56.4298875 L157.127837,56.4298875 L155.432525,56.4298875 L155.432525,56.4298875 L155.432525,52.984575 C156.708567,55.5002 158.093983,57.0679083 159.588775,57.6877 L159.588775,57.6877 L159.69815,57.6877 C159.880442,57.7241583 160.008046,57.7241583 160.080962,57.6877 C160.482004,57.6147833 160.864817,57.3413458 161.2294,56.8673875 L161.2294,56.8673875 L161.393462,56.4298875 C159.424712,56.2111375 157.747629,54.7892625 156.362212,52.1642625 C157.601796,52.2007208 158.513254,52.2554083 159.096587,52.328325 L159.096587,52.328325 L159.4794,52.328325 C160.062733,52.1824917 160.409087,51.8179083 160.518462,51.234575 L160.518462,51.234575 L160.518462,51.0705125 C160.482004,50.9611375 160.463775,50.8699917 160.463775,50.797075 C160.208567,50.90645 159.843983,50.9611375 159.370025,50.9611375 L159.370025,50.9611375 L155.432525,50.9611375 L155.432525,50.9611375 L155.432525,49.703325 C155.5419,49.484575 155.578358,49.2840542 155.5419,49.1017625 C155.614817,48.7007208 155.432525,48.5184292 154.995025,48.5548875 C154.88565,48.5913458 154.721587,48.5913458 154.502837,48.5548875 L154.502837,48.5548875 L154.2294,48.5548875 C154.047108,48.5548875 153.955962,48.609575 153.955962,48.71895 C153.955962,48.8647833 153.974192,49.0835333 154.01065,49.3752 C154.047108,49.6304083 154.065337,49.8127 154.065337,49.922075 L154.065337,49.922075 L154.065337,50.9611375 L150.51065,50.9611375 C150.437733,50.9246792 150.2919,50.90645 150.07315,50.90645 L150.07315,50.90645 L149.909087,50.90645 C149.690337,50.90645 149.544504,50.9246792 149.471587,50.9611375 C149.289296,51.0705125 149.216379,51.3804083 149.252837,51.890825 L149.252837,51.890825 L149.252837,52.109575 C149.252837,52.2918667 149.343983,52.3830125 149.526275,52.3830125 C149.817942,52.3830125 150.091379,52.3465542 150.346587,52.2736375 C151.367421,52.2007208 152.315337,52.1642625 153.190337,52.1642625 C152.023671,54.7163458 150.419504,56.1382208 148.377837,56.4298875 L148.377837,56.4298875 L148.5419,56.8673875 C148.870025,57.3413458 149.252837,57.6147833 149.690337,57.6877 C149.763254,57.7241583 149.890858,57.7241583 150.07315,57.6877 L150.07315,57.6877 L150.182525,57.6877 C150.802317,57.46895 151.349192,57.1043667 151.82315,56.59395 L151.82315,56.59395 L151.82315,56.7580125 C151.82315,56.8673875 151.804921,56.9949917 151.768462,57.140825 L151.768462,57.140825 L151.768462,57.46895 C151.768462,57.6147833 151.877837,57.6877 152.096587,57.6877 L152.096587,57.6877 L152.424712,57.6877 C152.607004,57.6512417 152.752837,57.6330125 152.862212,57.6330125 C153.190337,57.5965542 153.57315,57.578325 154.01065,57.578325 C154.047108,58.0887417 154.01065,58.5991583 153.901275,59.109575 L153.901275,59.109575 L153.901275,59.4923875 C153.901275,59.6382208 154.01065,59.7111375 154.2294,59.7111375 L154.2294,59.7111375 L155.213775,59.7111375 Z M154.01065,56.4298875 L153.026275,56.4298875 C152.989817,56.3569708 152.862212,56.3205125 152.643462,56.3205125 C152.424712,56.3205125 152.224192,56.3387417 152.0419,56.3752 C152.843983,55.5366583 153.518462,54.515825 154.065337,53.3127 C154.065337,54.2606167 154.047108,55.1538458 154.01065,55.9923875 L154.01065,55.9923875 L154.01065,56.4298875 Z" id="path-2">
		</path>
	</defs>
	<g id="页面-1" stroke="none" stroke-width="1" fill="none" fill-rule="evenodd">
		<g filter="url(#filter-1)" id="定稿">
			<g transform="translate(-6.000000, -6.000000)">
				<g id="编组" transform="translate(5.000000, 7.000000)" fill="#FEFEFE" fill-rule="nonzero">
					<path d="M21.7,3.1 C21.7,3.1 21.7,3.1 21.7,3.1 C21.8,3.1 21.9,3.2 22,3.2 C22.2,3.4 22.4,3.6 22.7,3.8 C23,4 23.3,4.2 23.5,4.5 C23.6,4.6 23.8,4.8 23.8,5 C23.8,5.3 22.8,6.2 22.5,6.4 C22.3,6.5 22,6.6 21.7,6.7 C21.4,6.8 21.1,7.1 20.8,7.2 C20.4,7.4 20,7.6 19.6,7.9 C19.6,7.9 19.5,8 19.5,8 C19.5,8 19.5,8.1 19.6,8.1 C19.7,8.2 20,8.2 20.1,8.3 C20.6,8.3 21.1,8.4 21.6,8.1 C21.8,8 22,7.9 22.2,7.8 C22.4,7.7 22.7,7.8 22.9,7.8 C23.2,7.8 23.4,7.6 23.7,7.7 C24.1,7.7 24.5,7.9 24.7,8.2 C25.1,8.8 24.7,9.9 24.5,10.6 C24.5,10.7 24.6,10.8 24.6,10.8 C24.8,11 25,11.1 25.2,11.2 C25.5,11.4 26,11.8 26.2,12.2 C26.3,12.3 26.3,12.5 26.2,12.6 C26.1,12.9 25.4,13.6 25.1,13.8 C24.8,14 24.5,14 24.2,14.1 C23.9,14.2 23.7,14.3 23.4,14.5 C23.2,14.6 22.9,14.7 22.6,14.8 C22.5,14.9 22.2,15 22.2,15.1 C22.2,15.2 22.3,15.3 22.4,15.4 C22.5,15.5 22.6,15.7 22.8,15.8 C22.9,15.9 23.1,15.9 23.2,16 C23.7,16.2 24,16.4 24.2,16.8 C24.1,17 24,17.2 23.9,17.5 C23.8,17.8 24.3,18.2 24.2,18.8 C24.1,19.7 22.8,19.4 22.3,19.9 C21.9,20.3 22.3,20.9 22.4,21.4 C22.5,21.6 22.5,21.8 22.4,22 C22.8,22 23.3,22 23.7,22 C23.9,22 24.2,22 24.4,22 C24.7,22 24.9,21.8 25.1,21.7 C25.5,21.6 26,21.7 26.4,21.7 C26.7,21.7 26.9,21.6 27.2,21.6 C27.4,21.6 27.7,21.7 27.9,21.8 C28,21.9 28.1,22.1 28.2,22.2 C28.3,22.6 28,23.1 27.8,23.4 C27.6,23.7 27.2,23.9 26.8,24 C26.1,24.3 25.7,24.3 24.9,24.3 C24.7,24.3 24.4,24.3 24.2,24.3 C24,24.3 23.7,24.2 23.5,24.2 C23.1,24.1 22.8,24.2 22.4,24.2 C22.4,24.5 22.4,24.6 22.4,24.8 C22.4,25.1 22.5,25.3 22.5,25.6 C22.5,25.9 22.4,26.2 22.4,26.6 C22.4,26.9 22.4,27.2 22.4,27.5 C22.4,27.9 22.1,29.1 21.9,29.5 C21.8,29.8 21.5,30.2 21.3,30.4 C21.2,30.5 21,30.6 20.8,30.5 C20.2,30.4 19.4,29.4 19,29.1 C18.7,28.8 18.3,28.7 18,28.4 C17.9,28.3 17.2,27.6 17.2,27.6 C17.1,27.6 17.1,27.7 17,27.6 C17,27.6 16.9,27.5 16.9,27.5 L16.9,27.5 C16.9,27.5 16.9,27.6 16.9,27.6 C16.9,27.8 16.7,28 16.7,28.2 C16.6,28.6 16.5,29 16.4,29.3 C16.3,29.7 16.1,30 16.1,30.4 C16.1,30.5 16,30.7 16,30.8 C16,31.1 16,31.4 15.9,31.6 C15.9,31.6 15.9,31.6 15.9,31.6 C15.7,31.6 15,31.5 14.8,31.4 C14.7,31.3 14.6,31.2 14.5,31.1 C14.3,30.7 13.9,29.7 13.8,29.3 C13.7,28.9 13.7,26.5 13.8,26.1 C13.9,25.5 14.6,23.5 14.9,23 C14.6,23.1 14.3,23.2 14.1,23.3 C13.4,23.6 13.2,23.9 12.3,23.8 C12,23.8 11.7,23.7 11.6,23.5 C11.4,23.3 11.4,23 11.5,22.7 C11.6,22.2 12,21.5 12.3,21 C12.5,20.7 12.8,20.4 13.1,20.1 C13.5,19.7 13.9,19.2 14.4,18.9 C14.8,18.5 15.3,18.2 15.7,17.8 C15.9,17.6 16.1,17.4 16.4,17.2 C16.8,16.9 17.1,16.6 17.4,16.3 C17.6,16.1 17.9,15.9 18.2,15.7 C18.5,15.5 18.7,15.2 19,14.9 C19.3,14.7 19.6,14.6 19.8,14.3 C19.8,14.1 19.8,14 19.8,13.8 C18.9,13.8 19.1,13.9 18.4,14.1 C18.1,14.2 17.8,14.2 17.5,14.3 C17.1,14.5 16.7,14.7 16.3,14.9 C16,15 15.8,15.2 15.5,15.3 C15.1,15.4 14.8,15.4 14.4,15.7 C14,16 13.6,16.4 13.1,16.7 C12.8,16.9 12.5,17.2 12.2,17.4 C11.9,17.6 11.7,17.8 11.4,18 C11.1,18.3 10.8,18.5 10.6,18.8 C10.2,19.1 9.8,19.4 9.4,19.7 C8.9,20 8.4,19.8 7.9,20.2 C7.6,20.5 7.1,20.9 7,21.2 C6.7,21.9 7.1,22 6.4,22.7 C6.1,22.7 5.9,22.7 5.6,22.6 C5.3,22.6 5.1,22.6 4.8,22.6 C4.4,22.5 4.1,22.4 3.6,22.5 C2.9,22.5 2,22.9 1.3,22.6 C1,22.5 0.7,22.2 0.6,21.9 C0.5,21.7 0.6,21.6 0.6,21.4 C0.9,20.8 1.8,20.3 2.3,20 C2.6,19.8 3,19.7 3.3,19.6 C3.9,19.5 4.7,19.7 5.3,19.4 C5.6,19.2 5.9,19 6.2,18.8 C6.7,18.5 7.2,18.3 7.6,18 C7.8,17.8 8,17.6 8.3,17.5 C8.5,17.4 8.8,17.3 9,17.1 L10.7,16.2 C11,16.1 11.2,15.9 11.4,15.8 C11.6,15.7 11.8,15.6 12.1,15.5 C12.5,15.3 12.9,15 13.3,14.8 C13.6,14.7 13.9,14.6 14.1,14.5 C14.3,14.4 14.5,14.2 14.8,14 C15.1,13.9 15.4,13.9 15.6,13.7 C15.8,13.6 15.9,13.5 16.1,13.4 C16.3,13.3 16.4,13.3 16.6,13.3 C16.9,13.2 17.1,13 17.3,12.8 C17.7,12.6 18.1,12.4 18.4,12.1 C18.6,11.9 18.8,11.7 18.9,11.5 C19,11.3 19.2,11.2 19.3,11 C19.4,10.9 19.3,10.7 19.3,10.6 C19.2,10.4 19.3,10.3 19.4,10.2 C19,10.3 18.7,10.3 18.4,10.6 C18.3,10.7 18.2,10.8 18,10.9 C17.8,11 17.5,11.1 17.3,11.2 C16.9,11.4 16.5,11.7 16.2,11.9 C15.7,12.3 15.3,12.9 14.8,13.3 C14.6,13.5 14.3,13.5 14.1,13.7 C13.9,13.8 13.8,14 13.6,14.2 C13.5,14.3 13.3,14.4 13.1,14.4 C12.7,14.3 12.4,13.9 12.2,13.6 C12.1,13.4 12,13.1 11.8,13 C11.6,12.8 11.3,12.7 11,12.7 C11,12.6 11,12.4 11,12.3 C11,12.3 11,12.3 11,12.3 C10.9,12.1 10.8,12 10.7,11.9 C11.2,10.9 11.4,11.4 12,11 C12.3,10.8 12.6,10.4 12.9,10.2 C13.2,10 13.4,10 13.7,9.8 C14,9.7 14.2,9.5 14.4,9.3 C14.4,9.2 14.4,9 14.4,8.9 C14.1,9 14,9 13.8,9 C13.4,9 13.1,9 12.7,8.9 C12.4,8.8 12.1,8.6 12,8.3 C12.1,8 12.4,7.7 12.7,7.5 C12.9,7.4 13.2,7.3 13.5,7.3 C14.3,7 15.3,6.8 16,6.4 C16.4,6.2 16.8,5.9 17.3,5.7 C18,5.3 18.6,5.1 19.3,4.7 L21.2,3.6 C21.3,3.4 21.5,3.2 21.7,3.1 Z M17.8,26.1 L19.1,26.1 C19.1,25.6 19.3,25.4 19.4,25 C19.5,24.7 19.5,24.4 19.6,24.1 C19.6,23.9 19.6,23.6 19.6,23.4 C19.6,23.2 19.8,22.3 19.7,22.1 C19.6,22.1 19.6,22.1 19.6,22.1 C19.4,22.3 19,22.9 18.9,23.1 C18.8,23.3 18.8,23.4 18.7,23.6 C18.6,23.8 18.5,24 18.4,24.1 C18.3,24.3 18.2,24.6 18.1,24.8 C17.9,25.2 17.6,25.6 17.6,26 C17.7,26.1 17.7,26.1 17.8,26.1 Z M9.1,17.6 C8.9,17.7 8.2,17.9 8.1,18.2 C8.1,18.2 8.1,18.2 8.1,18.2 C8.2,18.2 8.2,18.2 8.3,18.2 C8.4,18.2 8.4,18.2 8.5,18.2 C8.7,18.1 9.1,18 9.2,17.8 C9.2,17.7 9.2,17.6 9.1,17.6 C9.2,17.6 9.1,17.6 9.1,17.6 Z M19.7,17.3 C19.3,17.4 18.8,17.5 18.6,17.9 C18.6,18 18.5,18 18.5,18.1 C18.6,18.3 18.6,18.4 18.8,18.5 C19.1,18.5 19.5,18.1 19.7,17.9 C19.8,17.8 19.9,17.6 20,17.5 C19.9,17.4 19.8,17.3 19.7,17.3 L19.7,17.3 Z M11.5,17.3 C11.4,17.3 11.3,17.3 11.2,17.3 C10.8,17.4 10.3,17.5 9.9,17.7 C9.6,17.8 9.5,18.1 9.2,18.3 C8.8,18.6 8.1,18.6 7.8,19.1 C7.7,19.3 7.9,19.8 7.9,20 L8.4,20 C8.6,20 9.3,19.6 9.4,19.5 C9.4,19.5 9.4,19.4 9.5,19.4 L9.5,19.4 C9.4,19.4 9.3,19.4 9.3,19.5 C9.3,19.5 9.3,19.4 9.3,19.3 C9.4,18.9 9.8,18.6 10.1,18.4 C10.5,18.2 10.9,17.9 11.3,17.6 C11.4,17.5 11.4,17.4 11.5,17.3 Z" id="形状">
					</path>
					<path d="M33,1.5 C33.4,1.7 33.8,1.8 34.1,2 C34.3,2.1 34.5,2.2 34.7,2.3 C35.2,2.5 35.7,2.3 36.2,2.8 C36.5,3.1 36.5,3.6 36.5,4 C36.5,4.7 36.2,5 35.7,5.4 C35.5,5.5 35.3,5.6 35.2,5.7 C34.8,6 34.5,6.3 34.1,6.5 C33.9,6.6 33.7,6.6 33.5,6.8 C33.2,7 32.9,7.3 32.7,7.6 C32.3,8 31.9,8.6 31.6,9.1 C31.4,9.3 31.3,9.6 31.1,9.8 C30.5,10.7 30.5,11.4 30.5,12.4 C31,12.3 31.4,12.1 31.8,11.9 C32,11.8 32.2,11.8 32.3,11.7 C32.5,11.6 32.7,11.5 32.8,11.3 C33.1,11.1 33.5,10.9 33.8,10.7 C34.1,10.6 34.4,10.5 34.7,10.4 C35.1,10.2 35.5,9.9 36,9.8 C36.3,9.7 36.6,9.7 36.8,9.6 C36.9,9.5 37,9.4 37.1,9.4 C37.3,9.2 37.6,9.2 37.8,9.2 C38,9.1 38.3,9 38.5,9 C38.8,8.9 39.1,9 39.4,9 C39.6,9 39.8,8.9 40.1,8.9 C40.4,8.9 40.7,8.9 41,8.9 C41.4,8.9 41.8,8.8 42.2,8.9 C42.5,8.9 42.7,9.1 42.8,9.3 C43,9.6 43,9.9 43,10.2 C43,10.4 42.9,10.5 42.8,10.6 C42.6,10.9 42.3,11.2 42,11.4 C41.4,12 40.8,12.6 40.2,13.2 C39.8,13.7 39.8,14.1 39.2,14.5 C38.8,14.4 38.4,13.8 37.9,13.5 C37.8,13.5 37.7,13.4 37.6,13.4 C37.4,13.4 37.3,13.4 37.1,13.4 C36.8,13.4 36.5,13.6 36.3,13.7 C36,13.8 35.6,13.7 35.3,13.8 C35.1,13.9 34.9,14.1 34.8,14.2 C34.6,14.3 34.4,14.5 34.2,14.6 C33.9,14.8 33.6,15.1 33.3,15.4 C33.1,15.6 32.9,15.7 32.6,15.9 C32,16.4 30.4,18 30.4,18.7 C30.4,19 30.5,19.2 30.5,19.5 C30.5,19.9 30.5,20.3 30.5,20.7 C30.5,21.1 30.5,21.6 30.5,22 C30.5,22.2 30.4,22.4 30.2,22.5 C30.1,22.6 29.9,22.6 29.8,22.6 C29.2,22.4 28.1,20.8 27.8,20.3 C27.7,20.1 27.7,19.8 27.5,19.5 C27.4,19.3 27.1,19.2 27,19.1 C27,18.8 27.3,18.7 27.3,18.5 C27.3,18.3 27.2,18.1 27.2,17.9 C27.2,17.6 27.2,17.4 27.1,17.1 C27.1,16.8 27,16.5 27,16.2 C27,15.8 27,15.5 27,15.1 C27,14.8 27,14.4 27,14.1 C27.1,13.6 27.2,13.2 27.3,12.7 C27.3,12.4 27.3,12.1 27.4,11.8 C27.6,11.2 27.9,10.7 28.1,10.1 C28.2,9.9 28.3,9.6 28.4,9.4 C28.5,9.1 28.7,8.8 28.9,8.5 C29,8.3 29.2,8.1 29.3,7.8 C29.4,7.6 29.5,7.3 29.7,7.1 C29.9,6.9 30.1,6.7 30.2,6.5 C30.4,6.3 30.5,6.1 30.7,5.9 C31.1,5.4 31.7,5 32.1,4.5 C32.5,4 32.9,3.4 33.1,2.8 C33.2,2.1 32.9,1.8 33,1.5 Z" id="路径">
					</path>
					<path d="M37.6,15 C37.7,15 37.9,15 38,15.1 C38.3,15.2 38.5,15.3 38.7,15.6 C38.9,15.9 39,16.4 39.1,16.7 C39.1,16.9 39.1,17.2 39.2,17.4 C39.2,17.7 39.3,17.9 39.3,18.2 C39.3,18.6 39.3,19 39.3,19.4 C39.3,19.8 39.5,20.1 39.6,20.5 C39.6,20.8 39.6,21 39.7,21.3 C39.7,21.5 39.8,21.7 39.8,21.9 C39.8,22.3 39.8,22.6 39.8,23 C39.9,23.5 40.1,23.8 40.2,24.3 C40.3,24.5 40.2,24.8 40.3,25 C40.4,25.5 40.5,26.1 40.6,26.6 C40.6,27 40.6,27.3 40.6,27.7 C40.6,28.1 40.6,28.4 40.6,28.8 C40.5,29.7 40.1,30.5 39.8,31.3 C39.7,31.5 39.7,31.8 39.6,32 C39.5,32.4 38.8,33.2 38.5,33.5 C38.2,33.9 38,34.3 37.8,34.7 C37.3,35.4 35.9,36.5 35.2,36.8 C34.8,37 34.1,37 33.7,36.9 C33.5,36.8 33.4,36.7 33.2,36.6 C33,36.5 32.5,36.2 32.4,36 C32.3,35.6 33.2,34.7 33.5,34.5 C33.9,34.2 34.4,33.9 34.8,33.5 C35,33.3 35.1,33 35.3,32.8 C35.6,32.4 35.9,32.1 36.2,31.7 C36.4,31.3 36.6,30.9 36.8,30.5 C36.9,30.2 37.1,29.9 37.2,29.6 C37.3,29.3 37.4,28.9 37.4,28.6 C37.4,28.4 37.4,28.1 37.4,27.9 L37.4,26.7 C37.4,26.2 37.4,25.7 37.4,25.2 C37.4,24.9 37.2,24.7 37.2,24.4 C37,23.9 37,23.6 37,23.4 C36.9,23.1 36.9,22.8 36.8,22.5 C36.7,22.2 36.7,21.9 36.7,21.6 C36.7,21.3 36.8,21 36.7,20.8 C36.7,20.6 36.6,20.3 36.5,20.1 C36.5,19.9 36.5,19.7 36.4,19.6 C36.4,19.4 36.3,19.3 36.3,19.1 C36.2,18.9 36.2,18.7 36.2,18.5 C36.1,18.1 35.9,17.8 35.8,17.4 C35.7,17.2 35.7,17 35.7,16.8 C35.6,16.4 35.5,16 35.7,15.6 C36,15.1 36.5,15.2 37,15.1 C37.2,15.1 37.4,15 37.6,15 Z" id="路径">
					</path>
					<path d="M16.8,0.7 C17.4,0.7 18.2,0.6 18.7,0.8 C19.3,0.9 19.6,1.1 19.9,1.6 C19.9,1.8 19.9,1.9 19.9,2 C19.6,2.5 18.9,3.2 18.5,3.5 C18.3,3.6 18.2,3.7 18,3.7 C17.6,3.4 17.4,2.9 17.1,2.6 C16.9,2.3 16.5,2.2 16.2,2 C16,1.9 15.6,1.7 15.5,1.5 C15.5,1.4 15.5,1.4 15.5,1.4 C15.7,1.1 16.5,0.7 16.8,0.7 Z" id="路径">
					</path>
				</g>
				<g id="编组" transform="translate(55.000000, 9.000000)" fill="#FEFEFE" fill-rule="nonzero">
					<path d="M16,11.2 C16.2,11.3 16.4,11.4 16.5,11.5 C16.8,11.8 16.6,12.2 16.6,12.6 C16.7,12.7 16.8,12.8 16.8,12.9 C16.8,13 16.8,13 16.8,13.1 C16.8,13.1 16.7,13 16.6,12.9 C16.5,12.9 16.5,12.9 16.4,12.9 C16.3,13 16.3,13.4 16.3,13.5 C16.3,13.9 16.2,14.3 16.1,14.7 C16,15 15.9,15.3 15.9,15.6 C16.1,15.6 16.2,15.6 16.4,15.6 C16.6,15.6 16.7,15.5 16.9,15.4 C17.1,15.3 17.3,15.3 17.5,15.2 C17.7,15.1 17.8,15 18,15 C18.2,14.9 18.4,14.8 18.6,14.7 C18.8,14.6 19,14.5 19.2,14.4 C19.5,14.3 19.9,14.2 20.2,14.1 C20.4,14 20.6,13.9 20.9,13.8 C21.1,13.8 21.3,13.8 21.4,13.8 C22,13.7 22.6,13.5 23.3,13.4 C23.7,13.3 24.1,13.1 24.4,13 C24.5,13 24.7,13 24.8,13 C25.2,13 25.5,13.1 25.8,13.1 C26,13.1 26.2,13.1 26.4,13.2 C26.5,13.3 26.7,13.4 26.8,13.5 C27.1,13.8 27.6,14.7 27.7,15.1 C27.8,15.5 27.8,16.5 27.7,16.9 C27.6,17.3 27.5,17.7 27.5,18.1 C27.5,18.3 27.5,18.6 27.5,18.8 C27.5,19 27.4,19.2 27.4,19.5 C27.4,19.9 27.4,20.6 27.4,21.1 C27.4,21.5 27.5,21.8 27.5,22.2 C27.5,22.6 27.3,22.8 27.2,23.2 C27.1,23.4 27.1,23.7 27,23.9 C26.9,24.1 26.8,24.2 26.7,24.4 C26.6,24.6 26.5,24.7 26.5,24.9 C26.4,25 26.3,25.2 26.3,25.3 C26.2,25.5 26.2,25.7 26.1,25.9 C26,26.3 25.8,26.7 25.6,27.1 C25.5,27.3 25.3,27.5 25.1,27.8 C25,28 24.9,28.2 24.8,28.3 C24.6,28.6 24.2,28.9 23.9,29.2 C23.7,29.3 23.5,29.5 23.4,29.6 C23.2,29.7 23.1,29.9 22.9,30 C22.7,30.2 22.4,30.3 22.2,30.5 C22,30.6 21.9,30.8 21.7,31 C21.5,31.1 21.3,31.2 21,31.2 C20.2,31.5 19.6,31.7 18.8,31.9 C18.6,31.9 18.3,32 18.1,32 C17.8,32 17.6,32 17.3,32 C17.1,32 16.8,32 16.6,32 C16.3,32 16.1,31.9 15.9,31.8 C15.7,31.7 15.5,31.7 15.3,31.6 C14.9,31.4 14.6,31 14.3,30.7 C14.2,30.6 14.1,30.5 14,30.4 C14,30.4 13.9,30.3 13.9,30.3 C13.9,30.3 13.9,30.2 14,30.2 C14.2,30.2 14.6,30.5 14.8,30.6 C15.2,30.8 15.9,31.2 16.3,31.3 C16.5,31.3 16.7,31.3 16.8,31.4 C17.7,31.5 17.8,31.3 18.6,31 C18.9,30.9 19.1,30.9 19.4,30.8 C19.6,30.7 19.9,30.4 20.1,30.3 C20.5,30 21,29.8 21.4,29.5 C21.6,29.3 21.7,29 21.9,28.8 C22.2,28.4 22.6,28.1 22.9,27.8 C23.2,27.4 23.3,26.9 23.5,26.5 C23.6,26.2 23.7,25.9 23.8,25.6 C23.9,25.3 23.9,25 24,24.8 C24.2,24.3 24.5,23.9 24.7,23.4 C24.8,22.9 24.7,22.4 24.8,21.9 C24.8,21.5 25,21.1 25,20.7 C25,20.5 25,20.3 25.1,20.1 C25.1,19.9 25.2,19.7 25.2,19.5 C25.2,19.3 25.2,19.1 25.1,19 C25,18.5 25,18.1 24.9,17.7 C24.7,17.4 24.4,17.1 24.2,16.9 C24,16.7 23.9,16.5 23.8,16.3 C23.4,16.3 23.1,16.3 22.7,16.4 C22.2,16.5 21.8,16.8 21.3,16.9 C20.7,17 20,17 19.4,17.2 C19,17.3 18.6,17.6 18.2,17.8 C17.9,17.9 17.7,18 17.4,18.1 C16.9,18.3 16.5,18.5 16,18.7 C15.7,18.8 15.4,18.9 15.1,19.1 C14.8,19.2 14.6,19.4 14.3,19.6 C13.9,19.8 13.5,20 13.1,20.2 C12.8,20.3 12.6,20.5 12.3,20.6 C12.2,20.6 12.1,20.6 12,20.6 C11.8,20.5 11.6,20.4 11.5,20.2 C11.3,19.9 11.4,19.5 11.4,19.2 C11.5,18.9 12,17.9 12.2,17.6 C12.3,17.4 12.4,17.3 12.5,17.2 C12.6,17 12.7,16.8 12.9,16.6 C13.1,16.4 13.3,16.3 13.5,16.1 C13.7,15.9 14,15.7 14.2,15.5 C14.3,15.4 14.4,15.3 14.5,15.1 C14.8,14.8 15.1,14.4 15.3,14.1 C15.6,13.6 15.5,13.3 15.6,12.8 C15.8,11.7 16,11.5 16,11.2 Z" id="路径">
					</path>
					<path d="M11.5,13.7 L11.5,13.7 C11.5,14.2 11.2,14.5 11.1,14.9 C11,15.1 10.9,15.3 10.9,15.5 C10.9,15.6 10.8,15.8 10.8,15.9 C10.7,16.1 10.6,16.2 10.6,16.4 C10.5,16.6 10.6,16.9 10.6,17.1 C10.6,17.5 10.5,17.9 10.4,18.3 C10.2,18.8 10,19.1 9.6,19.5 C9.4,19.8 9,20.2 8.9,20.5 C8.7,21.1 8.9,21.7 8.7,22.3 C8.6,22.6 8.5,22.9 8.4,23.2 C8.3,23.5 8.2,23.8 8,24.1 C7.9,24.3 7.8,24.5 7.7,24.7 C7.6,24.9 7.5,25.1 7.5,25.3 C7.4,25.6 7.3,25.8 7.2,26.1 C7.2,26.3 7.2,26.4 7.2,26.6 C7.4,26.9 7.7,27 7.8,27.2 C7.9,27.5 7.9,27.9 7.8,28.1 C7.6,28.6 7.4,29.1 7.2,29.7 C7.1,29.9 7,30.1 6.9,30.3 C6.7,30.5 6.5,30.6 6.4,30.8 C6.3,31 6.1,31.2 5.9,31.3 C5.6,31.4 5,31.3 4.8,31.2 C4.5,31.1 4.2,30.8 4,30.5 C3.9,30.2 3.8,29.7 4,29.4 C4.1,29.3 4.1,29.1 4.2,29 C4.3,28.8 4.3,28.5 4.4,28.3 C4.5,28.1 4.6,28 4.7,27.8 C4.9,27.5 5.1,27.1 5.2,26.7 C5.3,26.4 5.3,26.2 5.4,25.9 C5.4,25.8 5.5,25.6 5.5,25.5 C5.6,25.2 5.6,24 5.5,23.7 L5.5,23.7 C5.5,23.7 5.5,23.7 5.5,23.6 C5.4,23.5 5.3,23.5 5.2,23.4 C5,23.3 4.7,23.3 4.5,23.2 C4.2,23.1 4,22.9 3.7,22.9 C3.5,22.9 3.2,22.9 3,22.9 C2.6,22.9 2,22.9 1.7,22.6 C1.6,22.5 1.4,22.4 1.3,22.3 C1,22 0.7,21.6 0.7,21.1 C0.7,20.6 1.1,19.6 1.4,19.2 C1.6,18.9 1.9,18.7 2.1,18.4 C2.4,18.1 2.6,17.7 2.8,17.3 C3,17 3.4,16.7 3.6,16.4 C3.8,16.2 3.9,16.1 4,15.9 C4.2,15.7 4.5,15.6 4.7,15.4 L4.9,15.5 C4.8,15.7 4.6,15.8 4.5,16 C4.2,16.5 4.5,17.1 4.5,17.7 C4.5,18.1 4.2,18.5 4.1,19 C4.1,19.2 4.1,19.3 4.2,19.5 C4.6,20 5.4,19.8 5.9,19.9 C6.1,19.9 6.3,20 6.6,20 C6.8,20 7.2,20.1 7.4,20 C7.6,19.9 7.8,19.7 7.9,19.6 C8.1,19.4 8.3,19.2 8.4,19 C8.5,18.9 8.6,18.7 8.7,18.5 L9.3,17.5 C9.4,17.3 9.6,17.1 9.7,16.8 C9.8,16.6 9.9,16.4 10,16.2 C10.1,16 10.4,15.8 10.5,15.6 C10.7,15.2 10.7,14.8 10.9,14.4 C11,14.2 11.2,14.1 11.2,14 C11.3,14.1 11.3,13.9 11.5,13.7 C11.5,13.8 11.5,13.8 11.5,13.7 Z" id="路径">
					</path>
					<path d="M6.2,0.2 C6.8,0.3 7.4,0.9 7.8,1.3 C8,1.5 8.1,1.8 8.3,2 C8.4,2.2 8.5,2.3 8.6,2.5 C9,3.1 9,3.7 9,4.4 C9,4.7 8.9,5.5 8.7,5.8 C8.5,6.3 7.6,7 7.1,7.2 C6.8,7.3 6.5,7.2 6.2,7.5 C5.9,7.8 5.7,8.3 5.7,8.8 C6,8.9 6.3,9.1 6.5,9.3 C6.6,9.4 6.7,9.6 6.9,9.7 C7.1,9.8 7.3,9.9 7.4,10.1 C7.8,10.3 8.1,10.7 8.3,11.1 C8.4,11.3 8.9,12 8.8,12.2 C8.8,12.4 8.6,12.5 8.5,12.6 C8.2,12.9 7.8,13 7.5,13.2 C7,13.6 6.5,14.1 5.9,14.4 C5.7,14.5 5.5,14.6 5.4,14.7 C5.5,14.5 5.6,14.3 5.7,14.2 C6,13.7 6.3,13.5 6.5,12.9 C6.1,12.9 5.8,12.9 5.4,12.9 C5.1,12.9 4.7,12.8 4.4,12.7 C4.1,12.6 3.8,12.6 3.6,12.5 C3.5,12.5 3.4,12.4 3.2,12.3 C2.7,12 1.9,11.4 1.8,10.8 C1.8,10.6 1.8,10.3 1.9,10.1 C2,9.9 2.2,9.7 2.4,9.4 C2.6,9.1 2.9,8.8 3.1,8.5 C3.4,8.2 3.6,7.8 3.9,7.5 C4.1,7.3 4.4,7.3 4.7,7.1 C4.9,6.9 6,5.9 6.2,5.7 C6.3,5.6 6.3,5.4 6.4,5.3 C6.5,5.1 6.6,4.9 6.6,4.7 C6.7,4.3 6.7,3.2 6.6,2.8 C6.6,2.5 6.4,2.3 6.4,2 C6.4,1.6 6.4,1.3 6.4,0.9 C6.3,0.7 6.1,0.4 6.2,0.2 Z" id="路径">
					</path>
					<path d="M20.5,2.9 C20.9,2.9 21.3,3 21.7,3.1 C22,3.2 22.4,3.3 22.5,3.6 C22.6,3.8 22.6,4.1 22.6,4.3 C22.5,4.6 22.3,4.9 22,5.1 C21.3,5.5 20.8,5.4 20.1,5.3 C19.6,5.5 18.9,6.4 18.6,6.8 C18.5,7 18.4,7.2 18.3,7.4 C18.1,7.7 17.9,7.9 17.7,8.2 C17.4,8.6 17.3,9.1 16.8,9.4 C16.7,9.4 16.7,9.5 16.6,9.5 C16.6,9.4 16.6,9.4 16.6,9.3 C16.7,9.1 16.7,8.9 16.7,8.7 C16.7,8.5 16.7,8.3 16.7,8.1 C16.8,7.8 16.9,7.6 16.9,7.3 C16.9,7 16.8,6.7 16.8,6.4 C16.7,6.4 16.5,6.4 16.4,6.5 C16.1,6.6 15.6,6.9 15.3,7.1 C15,7.3 14.8,7.6 14.5,7.8 C14.2,8.1 14.1,8.3 14.1,8.7 C13.9,8.6 13.7,8.6 13.5,8.6 C13.3,8.9 13.1,9.1 13,9.4 C12.9,9.5 12.8,9.7 12.7,9.8 C12.5,10.1 12.5,10.5 12.3,10.8 C12.3,10.8 12.3,10.8 12.2,10.8 L12.2,10.8 C12.2,10.7 12.2,10.6 12.3,10.5 C12.3,10.5 12.3,10.4 12.3,10.4 L12.3,10.4 C12.3,10.4 12.2,10.4 12.2,10.4 C12.1,10.4 12.1,10.4 12.1,10.4 C12.1,10.4 12,10.3 12,10.2 C12,9.8 12.5,9.4 12.8,9.1 C13,8.9 13.4,8.5 13.5,8.3 C13.6,8 13.7,7.8 13.8,7.5 C13.8,7.4 13.9,7.2 14,7.1 C14.2,6.5 14.5,6.1 14.9,5.6 C15.2,5.3 15.5,4.9 15.9,4.7 C16.6,4.3 17.1,4.3 17.8,4 C18,3.9 18.3,3.8 18.5,3.6 C18.7,3.5 18.9,3.4 19.1,3.4 C19.2,3.3 19.4,3.2 19.5,3.2 C19.8,3 20.2,2.9 20.5,2.9 Z" id="路径">
					</path>
					<path d="M15.2,20.7 C15.7,20.7 16.7,20.6 17.2,20.7 C17.4,20.7 17.7,20.8 17.9,20.9 C18.6,21.2 19.1,21.6 19.6,22.1 C19.8,22.2 19.9,22.3 20.1,22.5 C20.2,22.6 20.3,22.8 20.3,22.9 C20.4,23.2 20.5,24.1 20.3,24.4 C20.2,24.6 20.1,24.7 20,24.8 C19.6,25.2 19.1,25.5 18.6,25.7 C18.6,25.7 18.6,25.7 18.5,25.7 C18,25.8 17.9,25.2 17.8,24.9 C17.7,24.7 17.6,24.6 17.5,24.4 C17.4,24.1 17.4,23.8 17.2,23.6 C16.9,23.3 16.5,23.1 16.1,22.9 C15.7,22.7 15.5,22.3 15.1,22.2 C14.9,22.1 14.6,22 14.3,22 C14,21.9 13.7,21.7 13.5,21.5 C13.5,21.5 13.4,21.4 13.4,21.4 C13.4,21.3 13.4,21.3 13.5,21.3 C13.7,20.9 14.9,20.7 15.2,20.7 Z" id="路径">
					</path>
				</g>
				<path d="M110,8 C110.2,8 110.4,8.1 110.6,8.1 C110.8,8.1 110.9,8.1 111.1,8.1 C111.2,8.1 111.2,8.1 111.3,8.2 C111.5,8.3 111.7,8.5 111.8,8.7 C111.9,8.9 111.9,9.2 111.8,9.4 C111.6,9.8 111.1,10.3 110.7,10.6 C110.5,10.7 110.3,10.8 110.2,10.9 C110,11 109.9,11.2 109.6,11.3 C109.4,11.2 109.2,11 109,11 C108.8,10.9 107.3,11 107,11 C106.7,11 106.5,11 106.4,11.2 C106.2,11.4 106.1,11.6 106.1,11.9 C106.1,12.1 106.1,12.4 106.1,12.7 C106.1,12.9 106.2,13.1 106.2,13.3 C106.2,13.6 106.2,14 106.2,14.3 C106.2,14.7 106.2,15.1 106.2,15.5 C106.2,15.9 106,16.4 106,16.9 C106,17.1 106,17.4 106,17.6 C105.9,17.9 105.8,18.1 105.8,18.4 C105.8,18.7 105.8,19 105.8,19.3 C105.8,19.7 105.8,20 105.8,20.4 C105.8,20.6 105.9,20.8 105.9,21 C105.9,21.2 105.9,21.5 105.9,21.7 C105.9,21.9 106,22.1 106,22.3 C106,22.6 106,23 106,23.3 C106.1,23.8 106.2,24.2 106.2,24.7 C106.2,24.9 106.3,25.2 106.3,25.4 L106.3,25.4 C106.6,25.3 106.9,25.1 107,24.7 C107.1,24.6 107.1,24.4 107.2,24.3 C107.4,23.9 107.7,23.6 107.9,23.2 C108,23 108.1,22.7 108.3,22.4 C108.5,22.1 108.8,21.9 109.1,21.6 C109.3,21.4 109.4,21.2 109.6,21 C109.8,20.8 110,20.6 110.1,20.4 C110.3,20.2 110.5,19.9 110.8,19.7 C111.1,19.5 111.4,19.3 111.7,19 C112,18.8 112.2,18.5 112.5,18.2 C112.7,18 113,17.9 113.3,17.7 C113.5,17.5 113.7,17.3 113.9,17.1 C114,17 114.1,16.8 114.3,16.7 C114.5,16.4 114.8,16.2 115.1,15.9 C115.3,15.7 115.5,15.4 115.6,15.2 C115.7,15 115.9,14.8 116,14.6 C116.1,14.5 116.3,13.8 116.2,13.7 C116.2,13.7 116.2,13.6 116.1,13.6 C116,13.5 115.4,13.7 115.2,13.7 C114.9,13.8 114.7,14 114.4,14.1 C114.2,14.2 114,14.3 113.9,14.4 C113.7,14.5 113.7,14.8 113.5,15 C113.4,15.1 113.2,15.2 113.1,15.4 L112.2,16.3 C112.1,16.4 111.9,16.6 111.8,16.8 C111.6,17 111.3,17.1 111.1,17.3 C111,17.5 110.9,17.8 110.8,18 C110.7,18.3 110.5,18.5 110.4,18.7 C110.3,18.9 110.3,19.1 110.2,19.3 C110.1,19.6 109.7,19.9 109.4,20.1 C109.3,20.1 109.2,20.2 109.1,20.2 C109.1,20.2 109,20.1 109,20.1 C108.6,19.8 108.1,18.9 108,18.5 C108,18.4 108,18.3 108,18.2 C108,17.9 108.1,17.7 108.1,17.4 C108.1,17.2 108.1,17 108.1,16.7 C108.2,16.3 108.3,15.9 108.5,15.6 C108.6,15.4 108.6,15.2 108.7,15.1 C108.8,15 108.8,14.8 109,14.7 C109.4,14.3 109.8,14.9 110.3,14.9 C110.4,14.9 110.4,14.9 110.5,14.9 C110.6,14.9 110.8,14.8 110.9,14.8 C111.1,14.7 111.3,14.7 111.5,14.6 C111.7,14.5 111.8,14.4 112,14.3 C112.2,14.2 112.4,14.2 112.6,14.1 C112.8,14 113,13.8 113.2,13.7 C113.4,13.6 113.7,13.6 113.9,13.5 C114.1,13.4 114.4,13.3 114.6,13.2 C115,13 115.3,12.8 115.7,12.7 C116,12.6 116.2,12.7 116.5,12.6 C116.8,12.5 116.8,12.4 117.1,12.4 C117.3,12.4 117.5,12.5 117.7,12.5 C117.8,12.5 117.9,12.5 118.1,12.5 C118.3,12.5 118.5,12.7 118.7,12.9 C119.1,13.3 119.3,14 119.3,14.5 C119.3,14.8 119.2,15 119.1,15.3 C119.1,15.4 119.1,15.6 119,15.7 C119,16 118.9,16.2 118.7,16.4 C118.6,16.5 118.5,16.7 118.4,16.8 C118.3,17 118.2,17.1 118.1,17.3 C118,17.4 117.9,17.6 117.8,17.7 C117.7,17.8 117.6,18 117.5,18.2 C117.3,18.4 117.1,18.6 116.9,18.8 C116.7,19 116.5,19.3 116.2,19.5 C116,19.6 115.8,19.7 115.6,19.9 C115.3,20.1 115.1,20.3 114.9,20.5 C114.7,20.6 114.6,20.7 114.4,20.8 C114.2,20.9 114.1,21.1 113.9,21.2 C113.7,21.4 113.4,21.5 113.2,21.7 C113,21.9 112.8,22.1 112.6,22.3 C112.4,22.5 112.3,22.6 112.1,22.8 C112,22.9 111.9,23.1 111.9,23.3 C111.8,23.6 111.8,23.9 111.6,24.1 C111.5,24.3 111.3,24.4 111.2,24.6 C111,24.9 110.8,25.3 110.6,25.6 C110.6,25.7 110.5,25.8 110.5,25.9 C110.5,26 110.5,26.2 110.5,26.3 C110.4,26.7 110.3,27.1 110.3,27.5 C110.3,27.6 110.3,27.8 110.3,27.9 C110.3,28.1 110.2,28.3 110.2,28.4 C110.2,28.8 110.2,29.3 110.2,29.7 C110.2,29.7 110.2,29.7 110.3,29.7 C110.5,29.7 110.6,29.6 110.8,29.6 C111.1,29.6 111.3,29.5 111.6,29.5 C111.9,29.5 112.2,29.5 112.4,29.5 C112.6,29.5 112.8,29.5 113,29.5 C113.3,29.6 113.8,30.2 113.9,30.4 C113.8,30.7 113.7,31.1 113.7,31.5 C113.7,31.8 113.7,32 113.7,32.3 C113.7,32.5 113.6,32.7 113.5,32.9 C113.5,33 113.4,33.2 113.4,33.3 C113.4,33.4 113.4,33.6 113.4,33.7 C113.4,34 113.3,34.4 113.2,34.7 C113.2,34.9 113.1,35 113.1,35.2 C112.9,35.7 112.6,35.5 112.2,35.7 C112,35.8 111.6,36.3 111.5,36.5 C111.4,36.9 111.9,37.2 112.3,37.4 C112.6,37.5 112.9,37.5 113.1,37.7 C113.4,37.9 114,38.4 114.2,38.7 C114.4,39 114.6,39.6 114.5,39.9 C114.4,40.2 114.1,40.3 113.8,40.4 C113.7,40.4 113.5,40.4 113.4,40.5 C113.2,40.6 113.1,40.7 113,40.8 C112.6,41 112.1,40.7 111.6,40.6 C111.3,40.7 111.2,40.9 110.9,41 C110.4,41.1 110,40.6 109.5,40.8 C109.3,40.9 109.2,41.2 109,41.3 C108.9,41.4 108.7,41.5 108.5,41.6 C108.3,41.7 108.1,41.9 107.9,42 C107.8,42.1 107.5,42.2 107.3,42.1 C107.3,42.1 107.3,42.1 107.3,42.1 C107.2,42.1 107.2,42 107.1,42 C107,41.9 107,41.8 107,41.8 C107,41.7 107,41.7 107.1,41.6 C107.2,41.4 107.5,41.4 107.6,41.2 C107.8,41 108.1,40.9 108.3,40.7 C108.6,40.5 108.9,40.3 109.2,40.2 C109.3,40.1 109.5,40.1 109.6,40.1 C109.9,40 110.4,39.8 110.6,39.6 C110.7,39.5 110.7,39.3 110.7,39.1 C110.2,39.1 109.7,39.1 109.3,39.1 C109,39.1 108.8,39.3 108.5,39.3 C108,39.4 107.8,39.3 107.3,39.5 C107.1,39.6 106.8,39.6 106.5,39.7 C106.3,39.6 106,39.4 105.9,39.2 C105.6,38.9 105.8,38.4 105.9,38 C105.9,37.9 105.9,37.7 105.9,37.6 C105.9,37.2 106.2,37 106.5,36.9 C106.6,36.9 106.8,36.8 106.9,36.8 C107,36.8 107.7,36.4 107.7,36.3 C107.7,36.3 107.7,36.2 107.7,36.2 L107.7,36.2 C107.3,36.1 106.8,36.5 106.4,36.5 C106.1,36.5 105.8,36.5 105.5,36.5 C105.3,36.5 105.1,36.5 104.9,36.5 C104.8,36.5 104.7,36.5 104.7,36.4 C104.5,36.2 104.5,35.8 104.5,35.6 C104.5,35.2 104.5,34.7 104.5,34.3 C104.5,33.1 104.6,32.8 105.6,32.1 C105.9,31.9 106.2,31.7 106.5,31.5 C106.9,31.3 107.3,31.2 107.6,30.9 C107.7,30.8 107.9,30.5 107.9,30.3 C107.9,30.1 107.9,29.9 107.9,29.7 C107.9,29.5 107.9,29.3 107.9,29 C107.9,28.8 107.8,28.7 107.8,28.5 C107.8,28.3 107.8,28.2 107.8,28 C107.5,28.2 106.9,28.5 106.7,28.8 C106.3,29.1 105.9,29.6 105.4,29.8 C105.1,29.9 104.4,30.1 104.2,30 C104,29.9 103.8,29.7 103.7,29.5 C103.8,29.2 104,28.7 104.2,28.5 C104.3,28.4 104.4,28.3 104.5,28.1 C104.6,28 104.7,27.8 104.8,27.7 C104.9,27.6 105,27.5 105.1,27.3 C105.2,27.2 105.3,27 105.4,26.9 C105.5,26.8 105.6,26.6 105.6,26.5 C105.5,26.2 105.3,25.9 105.2,25.6 C105,25.2 104.8,24.8 104.7,24.4 C104.6,24.2 104.5,23.3 104.4,23.2 C104.4,23.2 104.4,23.2 104.4,23.2 C104.3,23.2 104.2,23.1 104.1,23.1 C104,23.2 104,23.2 104,23.3 C103.6,24.1 103.7,25 103.4,25.8 C103.3,26 103.2,26.2 103.1,26.4 C103,26.7 102.9,26.9 102.8,27.2 C102.7,27.4 102.6,27.6 102.5,27.8 C102.3,28.1 101.9,28.5 101.7,28.6 C101.5,28.7 101.4,28.8 101.2,28.9 C101,29.1 100.8,29.3 100.5,29.4 C100.3,29.5 100,29.7 99.8,29.8 C99.7,29.9 99.6,29.9 99.5,29.9 C99.2,30 98.8,29.9 98.5,29.8 C98.2,29.7 97.9,29.5 97.8,29.2 C97.5,28.7 97.4,28.2 97.6,27.7 C97.7,27.3 97.8,27.3 98.2,27.1 C98.4,27 98.5,26.8 98.7,26.7 C99,26.5 99.2,26.3 99.4,26.1 C99.5,25.9 99.6,25.7 99.7,25.5 C99.8,25.2 100,24.9 100.2,24.7 C100.5,24.4 100.8,24.1 101.1,23.8 C101.3,23.6 101.3,23.4 101.5,23.2 C101.6,23.1 101.7,23 101.8,22.9 C101.9,22.7 102,22.4 102.1,22.2 C101.9,22.3 101.7,22.2 101.5,22.3 C101.2,22.4 101,22.6 100.7,22.7 C100.6,22.8 100.4,22.8 100.3,22.8 C100.1,22.9 100,23.1 99.8,23.3 C99.6,23.4 99.5,23.5 99.3,23.6 C99.2,23.7 99,23.8 98.9,23.9 C98.9,23.9 98.8,23.9 98.8,24 C98.8,24 98.8,24 98.8,24 C98.7,24 98.5,24 98.4,24 C98.4,23.8 98.4,23.6 98.4,23.3 C98.4,23.1 98.3,22.9 98.3,22.7 C98.3,22.5 98.3,22.2 98.4,22 C98.7,20.3 100,20.3 100.9,19.2 C101,19.1 101.3,18.8 101.3,18.6 C101.3,18.6 101.3,18.6 101.3,18.5 C101.2,18.5 101.1,18.5 101,18.6 C100.9,18.6 100.8,18.7 100.7,18.8 C100.5,19 100.3,19.2 100.1,19.3 C99.9,19.3 99.3,19.3 99.1,19.2 C98.9,19 98.5,18.5 98.4,18.3 C98.4,18.2 98.4,18 98.3,17.9 C98.2,18 98.1,18.1 98,18.3 C97.9,18.5 97.8,18.8 97.6,19 C97.5,19.2 97.4,19.3 97.3,19.5 C97.2,19.7 97.2,19.9 97.2,20 C97.1,20.2 97.1,20.5 97,20.7 C96.9,20.9 96.8,21.1 96.8,21.4 C96.7,21.7 96.7,22 96.6,22.3 C96.5,22.6 96.5,22.8 96.4,23.1 C96.4,23.4 96.4,23.8 96.4,24.1 C96.4,24.3 96.3,24.5 96.3,24.8 C96.3,25.4 96.3,26 96.3,26.6 C96.3,26.9 96.2,27.2 96.2,27.5 C96.2,28.2 96.2,28.9 96.2,29.7 C96.2,30 96.2,30.3 96.2,30.6 C96.2,30.8 96.1,31 96,31.2 C95.9,31.3 95.8,31.3 95.7,31.3 C95.4,31.3 95.2,31.2 95,31 C94.9,30.9 94.8,30.7 94.7,30.5 C94.4,29.8 94.4,29.3 94.4,28.6 C94.4,28.4 94.4,28.1 94.4,27.8 C94.5,27.6 94.6,27.3 94.7,27.1 C94.8,26.9 94.7,26.7 94.8,26.6 C94.9,26.2 95,25.9 95.1,25.5 C95.1,25.3 95.1,25.2 95.2,25 C95.3,24.5 95.4,24.1 95.5,23.6 C95.6,23.4 95.6,23.2 95.7,23 C95.8,22.8 95.9,22.6 95.9,22.4 C96,22.1 96,21.8 96.1,21.5 C96.1,21.3 96.2,21.2 96.3,21 C96.3,20.8 96.3,20.7 96.3,20.5 C96.4,20.2 96.5,20 96.5,19.7 C96.5,19.3 96.5,18.8 96.5,18.4 C96.5,18.2 96.6,18 96.6,17.8 C96.6,17.6 96.6,17.4 96.7,17.2 C96.7,17 96.8,16.8 96.9,16.7 C97,16.4 96.9,16 97,15.7 C96.5,15.7 96.1,15.8 95.6,16 C95.5,16.1 95.3,16.1 95.2,16.2 C95,16.3 94.8,16.4 94.5,16.5 C94.2,16.6 93.7,16.7 93.4,16.5 C93.1,16.3 92.9,15.9 92.8,15.6 C92.7,15.3 92.7,15 92.9,14.8 C93,14.6 93.4,14.3 93.6,14.2 C93.9,14.1 94.2,14.2 94.5,14.1 C94.8,14.1 95.1,14 95.3,13.9 C95.7,13.8 96,13.4 96.4,13.2 C96.6,13.1 96.9,13.1 97.2,13 C97.5,12.9 97.8,12.8 98.2,12.6 C98.5,12.5 98.7,12.3 99,12.2 C99.3,12.1 99.5,12.1 99.8,12.1 C99.9,12.1 100,12 100.1,12 C100.3,11.9 100.5,11.9 100.7,11.9 C100.9,11.8 101.2,11.7 101.4,11.7 C101.7,11.6 102,11.6 102.2,11.5 C102.4,11.4 102.6,11.3 102.8,11.2 C103,11.1 103.2,11.1 103.4,11.1 C103.6,11 103.7,11 103.9,10.9 L104.8,10.6 C105,10.5 105.1,10.5 105.3,10.4 C105.7,10.2 106.1,10 106.5,9.8 C106.6,9.7 106.8,9.7 106.9,9.7 C107.1,9.6 107.4,9.5 107.6,9.4 C107.9,9.3 108.2,9.1 108.6,9 C108.9,8.9 109.3,8.7 109.7,8.6 C109.9,8.6 110,8.5 110.2,8.5 C109.7,8.1 109.9,8.1 110,8 Z M98.2,16.9 C98.5,17 98.9,17 99.2,17 C99.6,16.9 100,16.8 100.4,16.6 C100.6,16.5 100.9,16.5 101.1,16.4 C101.4,16.3 101.7,16.1 102,16 C102.4,15.9 102.8,15.9 103.3,15.9 C103.5,15.9 103.6,15.9 103.8,15.9 C104,15.9 104.2,16 104.5,16 C104.5,15.8 104.5,15.6 104.5,15.5 C104.5,15.3 104.7,15.2 104.7,15 C104.8,14.8 104.8,14.7 104.8,14.5 C104.9,14.2 105,14 105.1,13.7 C105.2,13.5 105.3,13.4 105.3,13.2 C105.4,13 105.4,12.9 105.5,12.7 C105.6,12.4 106,12.1 106,11.7 C106,11.5 106,11.3 105.8,11.2 C105.6,11.1 105.5,11 105.3,11 C105.3,11 105.2,11 105.2,11 C105,11 104.8,11.1 104.6,11.1 C104.3,11.1 104,11.1 103.7,11.2 C103.5,11.3 103.3,11.4 103.1,11.5 C102.9,11.6 102.7,11.6 102.6,11.6 C102.5,11.7 102.4,11.8 102.2,11.9 C102,12.1 101.7,12.1 101.5,12.3 C101.1,12.6 100.8,13 100.4,13.3 C100.1,13.6 99.7,13.9 99.5,14.2 C99.3,14.5 99.1,14.9 98.9,15.2 C98.8,15.4 98.6,15.6 98.4,15.8 C98.4,16.4 98.3,16.7 98.2,16.9 Z M103.1,19.6 C103.2,20 103.3,20.3 103.5,20.6 C103.6,20.8 103.7,20.8 103.9,20.9 C103.9,20.6 103.9,20.3 103.9,20.1 C103.9,19.8 104,19.2 103.9,18.9 L103.9,18.9 C103.6,19 103.3,19.1 103.1,19.5 C103.2,19.5 103.1,19.6 103.1,19.6 L103.1,19.6 C103.1,19.6 103.1,19.6 103.1,19.6 Z M110.4,33.2 C110.6,32.9 110.7,32.8 110.8,32.4 C110.8,32.3 110.9,32.2 110.8,32 C110.8,31.9 110.7,31.8 110.6,31.7 C110.5,31.7 110.5,31.6 110.4,31.6 C110.3,31.9 110.2,32.2 110.2,32.6 C110.2,32.8 110.2,32.9 110.2,33.1 C110.2,33.2 110.2,33.3 110.2,33.4 C110.2,33.4 110.3,33.4 110.3,33.4 C110.3,33.4 110.4,33.3 110.4,33.2 Z" id="形状" fill="#FEFEFE" fill-rule="nonzero">
				</path>
				<g id="编组" transform="translate(126.000000, 9.000000)" fill="#FEFEFE" fill-rule="nonzero">
					<path d="M26.8,2.2 C27.1,2.2 27.4,2.2 27.7,2.2 C28.2,2.3 28.8,2.7 29.2,3 C29.5,3.3 29.8,3.6 29.8,4 C29.8,4.3 29.7,4.5 29.7,4.8 C29.6,5.1 29.4,5.9 29.2,6.2 C29,6.5 28.7,6.8 28.5,7.1 L27.5,8.2 C27.4,8.3 27.3,8.5 27.2,8.7 C27.1,8.8 27,9 26.8,9.1 C26.7,9.2 26.6,9.3 26.6,9.4 C26.5,9.7 26.5,10.3 26.6,10.7 C26.7,10.9 26.8,11.1 26.8,11.4 C26.8,11.7 26.8,12 26.8,12.3 C26.8,12.7 27,12.8 27.3,13.1 L27.7,13.1 C27.9,12.9 28.1,12.7 28.2,12.5 C28.4,12.3 28.5,12 28.7,11.8 C29,11.4 29.7,10.9 30.2,10.6 C30.4,10.5 30.6,10.5 30.7,10.5 C30.9,10.4 31,10.3 31.2,10.2 C31.3,10.1 31.5,10.2 31.6,10.3 C32,10.5 32.9,10.8 33.1,11.1 C33.2,11.2 33.2,11.3 33.3,11.4 C33.4,11.6 33.5,11.9 33.4,12.1 C33.4,12.4 33.2,12.7 33.1,12.9 C32.7,13.5 31.7,14.4 31.1,14.8 C30.9,14.9 30.7,15 30.5,15.1 C30.3,15.3 30.1,15.5 29.9,15.6 C29.6,15.9 29.4,16.1 29.2,16.4 C29.1,16.5 29.1,16.6 29,16.8 C28.9,17 28.5,17.9 28.6,18.1 C28.6,18.2 29.4,18.2 29.6,18.2 C29.9,18.3 30.1,18.5 30.2,18.7 C30.4,19.1 30.5,19.4 30.5,19.9 C30.5,20.1 30.5,20.3 30.5,20.4 C30.5,20.6 30.4,20.7 30.2,20.9 C29.9,21.3 29.1,22.1 28.7,22.4 C29,22.7 29.4,22.7 29.7,23 C29.9,23.1 30,23.3 30.1,23.4 C30.5,23.8 31,24.4 31.5,24.7 C31.8,24.9 32.2,24.9 32.5,25 C32.9,25.2 33.1,25.5 33.5,25.6 C33.7,25.7 33.9,25.6 34.1,25.7 C34.4,25.7 34.6,25.9 34.8,25.9 C35.1,26 35.4,25.9 35.7,26.1 C35.9,26.2 36,26.4 36,26.6 C36.1,26.9 36,27.2 35.9,27.4 C35.9,27.4 35.9,27.4 35.9,27.4 C35.6,27.8 35.1,27.7 34.6,27.7 C34.4,27.7 34.3,27.7 34.1,27.7 C33.9,27.7 33.6,27.8 33.4,27.8 C33.2,27.8 33,27.7 32.8,27.6 C32.5,27.5 32.1,27.5 31.8,27.5 C31.5,27.5 31.2,27.6 30.9,27.6 C30.3,27.6 29.7,27.5 29.2,27.7 C28.8,27.8 28.4,28 28,28 C27.4,28.1 26.9,28 26.3,28 C26,28 25.8,28.2 25.6,28.2 C25.3,28.2 25,28.2 24.7,28.2 C24.4,28.2 24.1,28.3 23.8,28.3 C23.5,28.3 23.3,28.5 23,28.5 C22.8,28.6 22.5,28.5 22.3,28.6 C22,28.7 21.9,29 21.7,29.2 C21.4,29.4 21.1,29.4 20.8,29.5 C20.5,29.6 20.5,29.9 20.1,29.9 C19.9,29.9 19.2,29.9 19,29.9 C18.9,29.9 18.9,29.9 18.8,29.8 C18.6,29.6 18.4,29.3 18.4,29 C18.3,28.3 18.6,27.3 19,26.7 C19.1,26.6 19.2,26.5 19.4,26.4 C19.6,26.3 20.3,26.2 20.5,26.2 C20.8,26.2 21.1,26.4 21.4,26.3 C21.7,26.1 22.3,25.4 22.6,25.1 C22.8,24.9 23,24.8 23.2,24.6 C23.5,24.3 23.8,24 24.1,23.7 C24.4,23.4 25.4,22.6 25.5,22.2 C25.5,22.1 25.4,21.9 25.4,21.8 C25.2,21.8 25,21.8 24.8,21.8 C24.3,21.9 24.2,22.1 23.8,22.2 C23.5,22.3 22.3,22.3 21.8,22.3 C21.8,22 21.8,21.8 21.7,21.6 C21.7,21.3 21.6,21 21.7,20.8 C21.8,20.7 21.9,20.5 21.9,20.4 C22.1,20 22.3,19.6 22.5,19.3 C22.7,19 23,18.8 23.2,18.6 C23.5,18.3 23.9,17.9 24.2,17.6 C24.5,17.3 24.9,17 25.1,16.6 C25.2,16.4 25.4,16.1 25.3,15.9 C25.3,15.8 25.2,15.7 25.1,15.7 C24.8,15.6 24.4,15.6 24.1,15.7 C23.8,15.8 23.4,16 23,16.1 C22.7,16.3 22.5,16.5 22.3,16.7 C22.2,16.8 22.1,16.9 22,17 C21.8,17.1 21.6,17.2 21.4,17.3 C21.1,17.5 20.1,18.5 20,18.8 C19.9,18.9 19.9,19.1 19.9,19.3 C19.8,19.6 19.7,19.8 19.6,20.1 C19.5,20.4 19.5,20.7 19.4,20.9 C19.1,21.4 18.4,21.8 17.9,21.9 C17.6,21.8 17.4,21.6 17.1,21.4 C16.9,21.2 16.8,21.1 16.6,20.9 C16.5,20.7 16.4,20.6 16.3,20.4 C16,19.8 15.8,19.3 15.7,18.6 C15.7,18.3 15.7,17.8 15.7,17.6 C15.7,17.5 15.8,17.4 15.9,17.3 C16.2,16.9 16.3,16.8 16.7,16.5 C16.9,16.4 17,16.2 17.2,16.1 C17.4,16 17.9,15.9 18.1,15.9 C18.3,15.9 18.5,15.9 18.7,15.8 C18.8,15.7 18.9,15.6 19,15.5 C19.2,15.3 19.2,15 19.4,14.7 C19.5,14.5 19.7,14.4 19.8,14.3 C20,14.1 20.2,13.8 20.3,13.6 C20.4,13.4 20.5,13.2 20.6,13 C20.8,12.6 21.1,12.2 21.3,11.8 C21.4,11.6 21.4,11.4 21.5,11.2 C21.6,11 21.7,10.8 21.7,10.5 C21.7,10.3 21.7,10.1 21.7,10 C21.3,10 21.1,10.3 20.7,10.3 C20.5,10.3 20.2,10.2 20,10.2 C19.8,10.2 19.6,10.2 19.4,10.1 C19,10 18.4,9.5 18.1,9.1 C17.7,8.6 17.3,7.9 17.2,7.3 C17.2,7 17.2,6.7 17.2,6.4 C17.5,6.6 17.7,6.9 18,7.1 C18.4,7.3 19.3,7.5 19.7,7.4 C19.9,7.4 20,7.3 20.2,7.2 C20.3,7.2 20.4,7.1 20.6,7.1 C20.8,7 20.9,6.9 21,6.9 C21.2,6.8 21.5,6.7 21.7,6.5 C21.8,6.4 22,6.3 22.1,6.2 C22.3,6 22.5,5.9 22.7,5.7 C23,5.4 23.3,5.1 23.7,4.7 L25.2,3.2 C25.5,2.9 25.8,2.6 26.1,2.3 C26.5,2.3 26.6,2.2 26.8,2.2 Z M27.3,23.1 C27.3,23.4 27.4,23.6 27.4,23.8 C27.4,24.3 27.4,24.9 27.4,25.4 C27.4,25.8 27.4,26.2 27.4,26.6 C27.7,26.6 27.9,26.7 28.2,26.7 C28.7,26.8 29.5,26.6 30,26.5 C30.4,26.4 30.8,26.1 31,25.7 C31.1,25.5 31.1,25.3 31,25.2 C31,25.1 30.9,24.9 30.8,24.8 C30.7,24.7 30.7,24.5 30.6,24.4 C30.3,23.8 29.4,23.4 28.9,23 C28.7,22.8 28.5,22.5 28.3,22.4 C28.2,22.4 28.2,22.4 28.1,22.4 C27.7,22.5 27.5,22.7 27.3,23.1 C27.3,23.1 27.3,23.1 27.3,23.1 Z M24.4,26.3 C24.8,26.4 25.2,26.6 25.6,26.6 C25.8,26.6 26.1,26.6 26.3,26.6 C26.3,26.3 26.4,26.1 26.4,25.8 C26.4,25.5 26.4,24.7 26.4,24.5 C26.4,24.4 26.4,24.4 26.3,24.3 C26.2,24.3 26.1,24.2 26.1,24.2 C25.9,24.2 25.7,24.3 25.5,24.5 C25.3,24.6 25.1,24.8 24.9,25 C24.7,25.1 24.5,25.3 24.4,25.4 C24.2,25.5 24.1,25.7 24,25.8 C23.9,25.9 23.8,26 23.7,26.1 L23.7,26.1 C23.9,26.2 24.2,26.2 24.4,26.3 Z" id="形状">
					</path>
					<path d="M11.9,0.8 C12,0.8 12.1,0.8 12.2,0.8 C12.3,0.9 12.5,1 12.6,1.1 C13,1.5 13.5,1.8 13.7,2.3 C13.8,2.6 13.8,3 13.8,3.3 C13.8,3.6 13.8,4 13.8,4.3 C13.7,4.7 13.2,5.6 12.9,6 C12.8,6.2 12.7,6.3 12.5,6.5 C12.3,6.8 12.2,7.1 12,7.4 C11.8,7.7 11.4,7.9 11.2,8.3 C11,8.6 10.9,8.8 10.7,9.1 C10.6,9.3 10.4,9.5 10.3,9.7 C10,10.1 9.7,10.5 9.4,10.9 C9.3,11 9.2,11.2 9.1,11.4 C9,11.5 8.9,11.7 8.7,11.8 C8.6,11.9 8.5,12.1 8.4,12.2 C8.3,12.3 8.2,12.5 8,12.6 C7.9,12.8 7.7,13 7.6,13.1 C7.2,13.5 6.8,13.8 6.5,14.2 C6.3,14.4 6.1,14.6 6,14.8 C5.9,15 5.7,15.1 5.6,15.3 C5.4,15.6 5.3,15.9 5.1,16.1 C5,16.2 4.9,16.3 4.8,16.4 C4.7,16.5 4.6,16.7 4.5,16.8 C4.3,17 4.2,17.2 4.1,17.5 C4,17.7 4,17.8 3.9,18 C4.1,18 4.2,18 4.4,17.9 C4.7,17.8 4.9,17.7 5.1,17.6 C5.6,17.4 6.1,17.2 6.6,16.9 C6.8,16.8 7,16.5 7.3,16.4 C7.5,16.3 7.6,16.3 7.8,16.3 C8.2,16.3 8.5,16.1 8.8,15.8 C9.1,15.5 9.2,15.3 9.3,14.9 C9.4,14.6 9.7,14.4 10,14.2 C10.1,14.2 10.3,14.3 10.4,14.3 C11,14.6 11.6,15.3 11.8,15.9 C11.9,16.1 11.9,16.3 11.9,16.6 C11.9,17.3 11.8,17.8 11.4,18.4 C11.2,18.7 10.9,18.9 10.7,19.1 C10.6,19.3 10.5,19.5 10.4,19.6 C10.3,19.8 10.1,19.9 10,20.1 C9.8,20.4 9.8,20.7 9.6,20.9 C9.5,21 9.4,21.1 9.3,21.3 C9.2,21.5 9.1,21.7 9,21.9 C8.8,22.1 8.6,22.3 8.4,22.6 C8.4,22.7 8.3,22.8 8.4,22.9 C8.6,23.1 8.8,23.3 9,23.5 C9.2,23.7 9.5,23.8 9.7,24 C9.9,24.2 10.2,24.3 10.4,24.5 C10.5,24.5 10.6,24.6 10.7,24.6 C10.8,24.6 10.9,24.5 11,24.4 C11.2,24.2 11.3,24 11.4,23.8 C11.7,23.4 12,23.1 12.2,22.7 C12.4,22.3 12.6,21.8 12.9,21.4 L12.9,21.4 C13,21.4 13.1,21.3 13.2,21.3 C13.1,21.6 13.1,21.9 13.1,22.2 C13,22.6 13,22.9 12.9,23.3 C12.8,23.5 12.8,23.8 12.7,24 C12.6,24.2 12.6,24.5 12.5,24.7 C12.4,24.9 12.3,25.2 12.3,25.4 C12.2,25.9 12.1,26.3 12,26.8 C11.9,27 11.8,27.3 11.7,27.5 C11.6,27.8 11.6,28.1 11.5,28.4 C11.4,28.6 11.3,28.8 11.3,29 C11.2,29.3 11.2,29.5 11.1,29.8 C11,30 10.9,30.3 10.9,30.5 C10.8,30.9 10.8,31.2 10.7,31.6 C10.7,31.7 10.6,31.8 10.5,32 C10.3,32.3 10.1,32.6 9.7,32.8 C9.7,32.8 9.7,32.8 9.6,32.8 C9.5,32.7 9.4,32.7 9.3,32.6 C9.2,32.5 8.7,31.8 8.6,31.6 C8.5,31.4 8.4,31.2 8.3,31.1 C8.2,31 8.1,30.8 8,30.7 C7.8,29.9 8.4,29.2 8.8,28.5 C8.9,28.4 8.9,28.3 8.9,28.1 C8.9,27.7 8.9,27.3 8.9,27 C8.9,26.6 8.9,26.2 8.9,25.8 C8.9,25.7 8.9,25.6 8.9,25.5 C8.8,25.3 8.6,25 8.4,24.9 C8.2,24.8 8.1,24.8 7.9,24.8 C6.9,24.8 6.6,25.6 5.8,25.9 L5.8,25.9 C5.7,25.9 5.6,25.9 5.5,25.8 C5.1,25.6 5.2,25.1 5.1,24.7 C5.1,24.5 5,24.3 5,24.1 L5.1,24.1 C5.2,24.1 5.4,24.1 5.5,24 C5.6,23.9 5.6,23.9 5.7,23.8 C5.8,23.6 5.8,23.4 5.9,23.3 C6,23.1 6.1,22.9 6.2,22.7 C6.4,22.2 6.6,21.7 6.9,21.2 C7.1,20.9 7.3,20.6 7.5,20.3 C7.6,20.1 7.8,19.9 7.9,19.7 C8.1,19.4 8.3,19.2 8.4,18.9 C8.5,18.7 8.5,18.5 8.6,18.3 C8.7,18 8.8,17.7 8.8,17.4 C8.7,17.5 8.6,17.7 8.5,17.8 C8.2,18 7.8,18.1 7.5,18.3 C7.2,18.4 7,18.6 6.7,18.8 C6.4,18.9 6.1,19 5.8,19.2 C5.6,19.3 5.4,19.6 5.2,19.7 C5,19.9 4.8,20 4.6,20.1 C4.3,20.3 4,20.4 3.7,20.6 C3.1,21 2.5,21.6 1.9,22.2 C1.6,22.5 1.5,22.8 1.3,23.1 C1.2,23.1 1.1,23.1 1,23.1 C0.6,22.5 0.6,22.3 0.6,21.5 C0.6,21.2 0.6,20.9 0.6,20.7 C0.6,20.6 0.6,20.4 0.7,20.4 C0.8,20.2 1.1,20.2 1.3,20.1 C1.5,20 1.6,19.9 1.7,19.8 C2,19.6 2.1,19.2 2.4,19 C2.7,18.7 3.1,18.3 3.4,18 C3.6,17.8 3.8,17.7 3.9,17.5 C4,17.3 4.2,17.1 4.3,16.9 C4.4,16.7 4.6,16.6 4.7,16.4 C4.8,16.2 4.8,16 5,15.9 C5.1,15.8 5.2,15.6 5.3,15.5 C5.5,15.3 5.6,15.1 5.7,14.9 C6,14.5 6.2,14 6.5,13.6 C6.6,13.4 6.8,13.2 6.9,13 C7,12.8 7.1,12.7 7.2,12.5 C7.3,12.4 7.4,12.3 7.5,12.1 C7.7,11.8 7.9,11.5 8,11.3 C8.1,11.1 8.1,10.9 8.2,10.7 C8.3,10.5 8.4,10.3 8.4,10.1 C8.5,9.8 8.6,9.4 8.8,9.1 C9,8.7 9.2,8.4 9.4,8 C9.5,7.8 9.6,7.5 9.8,7.3 C9.9,7.1 10.1,6.9 10.2,6.6 C10.3,6.3 10.4,6 10.5,5.7 C10.6,5.4 10.7,5 10.9,4.7 C11.2,4 11.4,3.3 11.5,2.6 C11.5,2.1 11.5,1.7 11.5,1.2 C11.5,0.8 11.7,0.8 11.9,0.8 Z" id="路径">
					</path>
				</g>
				<g id="梁家铿译本" fill-rule="nonzero">
					<use fill="#000000" xlink:href="#path-2">
					</use>
					<use fill="#FFFFFF" xlink:href="#path-2">
					</use>
				</g>
			</g>
		</g>
	</g>
</svg>
