<?xml version="1.0" encoding="UTF-8"?>
<svg width="199px" height="46px" viewBox="0 0 199 46" version="1.1" xmlns="http://www.w3.org/2000/svg" xmlns:xlink="http://www.w3.org/1999/xlink">
    <title>lolg2</title>
    <defs>
        <filter id="filter-1">
            <feColorMatrix in="SourceGraphic" type="matrix" values="0 0 0 0 1.000000 0 0 0 0 1.000000 0 0 0 0 1.000000 0 0 0 1.000000 0"></feColorMatrix>
        </filter>
    </defs>
    <g id="页面-1" stroke="none" stroke-width="1" fill="none" fill-rule="evenodd">
        <g filter="url(#filter-1)" id="lolg2">
            <g>
                <path d="M26.04,3.91 L26.04,3.91 C26.1717658,3.93736875 26.2951499,3.99563347 26.4,4.08 C26.6814341,4.29622913 26.9517779,4.52652195 27.21,4.77 C27.5634241,5.02152536 27.897677,5.29895526 28.21,5.6 C28.34,5.75 28.55,5.98 28.52,6.19 C28.52,6.56 27.31,7.68 26.97,7.88 C26.6450152,8.02203403 26.3109448,8.14229936 25.97,8.24 C25.5790909,8.44059386 25.1986025,8.66087658 24.83,8.9 C24.3384034,9.1328661 23.8638869,9.40019933 23.41,9.7 C23.41,9.7 23.28,9.78 23.28,9.83 C23.2828396,9.88828239 23.3038167,9.94422151 23.34,9.99 C23.49,10.16 23.81,10.17 24.01,10.19 C24.6389974,10.2983587 25.2856511,10.2326559 25.88,10 C26.127758,9.86042998 26.3891117,9.74650657 26.66,9.66 C26.9427758,9.63486383 27.2272242,9.63486383 27.51,9.66 C27.8347311,9.56371823 28.1713113,9.5132312 28.51,9.51 C28.9823781,9.57742057 29.4150864,9.81150868 29.73,10.17 C30.25,10.91 29.73,12.3 29.54,13.12 C29.5684982,13.2183144 29.616069,13.3100582 29.68,13.39 C29.8996874,13.594338 30.1450911,13.7691461 30.41,13.91 C30.8978853,14.1983248 31.309418,14.5995692 31.61,15.08 C31.6850405,15.2556546 31.6850405,15.4543454 31.61,15.63 C31.2496995,16.2002991 30.7725329,16.6876907 30.21,17.06 C29.8611368,17.2298616 29.5001448,17.3735899 29.13,17.49 C28.81,17.62 28.5,17.79 28.13,17.93 C27.76,18.07 27.51,18.18 27.21,18.32 C26.91,18.46 26.72,18.56 26.69,18.73 C26.66,18.9 26.8,18.98 26.9,19.08 C27.0337995,19.2636355 27.1844534,19.4343766 27.35,19.59 C27.5096163,19.6853819 27.6810876,19.7593499 27.86,19.81 C28.3913297,19.943363 28.8330098,20.3114297 29.06,20.81 C28.9215959,21.071439 28.8013128,21.342076 28.7,21.62 C28.63,21.98 29.15,22.53 29.08,23.21 C28.96,24.31 27.37,23.94 26.72,24.5 C26.07,25.06 26.72,25.78 26.84,26.29 C26.8801594,26.5484493 26.8801594,26.8115507 26.84,27.07 L28.42,27.07 C28.7027758,27.0951362 28.9872242,27.0951362 29.27,27.07 C29.59,27.02 29.84,26.78 30.16,26.72 C30.7061046,26.6849432 31.2538954,26.6849432 31.8,26.72 C32.1302334,26.6621137 32.4647376,26.6320083 32.8,26.63 C33.1014185,26.6476943 33.3936219,26.7405119 33.65,26.9 C33.8366074,27.026433 33.9603205,27.226557 33.9900772,27.45 C33.9944057,27.9797567 33.8100669,28.4937783 33.47,28.9 C33.1591628,29.2604401 32.7539967,29.5270879 32.3,29.67 C31.5914289,29.9890993 30.8155069,30.1298639 30.04,30.08 C29.7535321,30.0950982 29.4664679,30.0950982 29.18,30.08 C28.88,30.08 28.59,29.97 28.29,29.93 C27.8453566,29.8698755 27.3946434,29.8698755 26.95,29.93 C26.9651925,30.1864418 26.9651925,30.4435582 26.95,30.7 C26.95,31.03 27.1,31.34 27.11,31.7 C27.0752482,32.0967722 27.0151252,32.4909119 26.93,32.88 C26.93,33.24 26.93,33.61 26.93,33.97 C26.8067056,34.7797419 26.6092074,35.5764298 26.34,36.35 C26.1606488,36.7589979 25.8944991,37.1241006 25.56,37.42 C25.3954856,37.563541 25.1753589,37.6259102 24.96,37.59 C24.26,37.48 23.27,36.29 22.71,35.84 C22.34,35.53 21.88,35.37 21.52,35.02 L20.52,34.02 C20.44,34.02 20.39,34.09 20.29,34.08 C20.2397487,34.0288652 20.1825147,33.9850981 20.12,33.95 L20.12,33.95 C20.1300099,34.0028637 20.1300099,34.0571363 20.12,34.11 C20.12,34.3 19.9,34.62 19.82,34.84 C19.66,35.3 19.54,35.76 19.4,36.22 C19.26,36.68 19.09,37.08 18.98,37.53 C18.9361233,37.7045135 18.9027302,37.8814966 18.88,38.06 C18.8785853,38.3968387 18.8383192,38.7323899 18.76,39.06 L18.76,39.06 C18.2890297,39.0798262 17.8190823,39.0015016 17.38,38.83 C17.2419383,38.739117 17.1285573,38.6154287 17.05,38.47 C16.6876922,37.7638164 16.4059228,37.0191401 16.21,36.25 C16.1098393,34.9352382 16.1098393,33.6147618 16.21,32.3 C16.5482011,30.9974497 17.0137785,29.7313471 17.6,28.52 C17.27,28.66 16.92,28.73 16.6,28.86 C15.73,29.23 15.47,29.56 14.46,29.46 C14.1248951,29.4500703 13.8078242,29.3059471 13.58,29.06 C13.3958336,28.761197 13.3382578,28.4013484 13.42,28.06 C13.6031412,27.3282545 13.9444884,26.6455603 14.42,26.06 C14.7337494,25.7076418 15.0676418,25.3737494 15.42,25.06 C15.92,24.56 16.42,24.01 16.96,23.54 C17.5,23.07 18.06,22.67 18.6,22.23 C18.88,22 19.13,21.74 19.41,21.53 C19.8463125,21.1900849 20.2604876,20.8226716 20.65,20.43 C20.95,20.16 21.28,19.94 21.58,19.68 C21.88,19.42 22.2,19.04 22.58,18.75 C22.96,18.46 23.28,18.33 23.58,18.06 C23.58,17.85 23.58,17.66 23.58,17.46 C22.9789826,17.4202693 22.3790409,17.5520485 21.85,17.84 C21.5,17.95 21.13,17.99 20.79,18.13 C20.29,18.34 19.79,18.58 19.29,18.82 C18.96,18.98 18.64,19.16 18.29,19.3 C17.8437081,19.3888164 17.4103233,19.533278 17,19.73 C16.47,20.08 16,20.54 15.47,20.93 C14.94,21.32 14.75,21.48 14.37,21.74 C13.99,22 13.71,22.18 13.37,22.44 C13.03,22.7 12.69,23.11 12.37,23.44 C11.9139084,23.8308215 11.4328943,24.191582 10.93,24.52 C10.36,24.91 9.66,24.61 9.14,25.11 C8.69982779,25.4811679 8.30988041,25.9080931 7.98,26.38 C7.56,27.18 8.08,27.38 7.22,28.23 C6.88555494,28.2269831 6.55160379,28.2036065 6.22,28.16 C5.9,28.16 5.56,28.16 5.22,28.16 C4.75279242,28.0588746 4.2776626,27.9986469 3.8,27.98 C2.94,27.98 1.8,28.42 0.99,28.05 C0.555687169,27.872913 0.212529653,27.5261433 0.04,27.09 C-0.0151556536,26.8994508 0.00637724223,26.6948883 0.1,26.52 C0.649471191,25.7722687 1.3833205,25.1796768 2.23,24.8 C2.61069342,24.5879562 3.01747326,24.426589 3.44,24.32 C4.22,24.19 5.1,24.48 5.83,24.12 C6.22,23.93 6.55,23.64 6.92,23.42 C7.48,23.07 8.08,22.77 8.62,22.42 C8.9,22.22 9.13,21.96 9.43,21.78 C9.73,21.6 10.02,21.48 10.31,21.33 L12.43,20.25 C12.74,20.09 13.01,19.86 13.32,19.71 C13.63,19.56 13.86,19.52 14.12,19.4 C14.6,19.15 15.04,18.83 15.53,18.58 C15.85,18.42 16.22,18.36 16.53,18.18 C16.84,18 17.06,17.76 17.37,17.62 C17.68,17.48 18.07,17.45 18.37,17.31 C18.67,17.17 18.77,17.01 19,16.9 C19.1947053,16.8235895 19.395387,16.763385 19.6,16.72 C19.9188049,16.5693783 20.2205313,16.38499 20.5,16.17 C20.9744633,15.9313006 21.4321815,15.6606789 21.87,15.36 C22.0981985,15.1329859 22.3088056,14.8889492 22.5,14.63 C22.66971,14.4443234 22.8173591,14.2396281 22.94,14.02 C22.9908463,13.8489705 22.9691508,13.6645593 22.88,13.51 C22.8530568,13.3168618 22.8994373,13.1206368 23.01,12.96 C22.5765735,13.0122035 22.1635888,13.1739558 21.81,13.43 C21.6592478,13.5512924 21.5023752,13.6647747 21.34,13.77 C21.08,13.92 20.79,14.03 20.51,14.17 C20.0445703,14.4141678 19.6055787,14.7057118 19.2,15.04 C18.59,15.56 18.09,16.21 17.48,16.73 C17.24,16.93 16.93,17.01 16.68,17.19 C16.463997,17.3660627 16.2570644,17.5529696 16.06,17.75 C15.905395,17.9003633 15.6954339,17.9800037 15.48,17.97 C15.02,17.91 14.59,17.36 14.38,16.97 C14.2496,16.6959752 14.0991931,16.4319275 13.93,16.18 C13.6826852,15.9276605 13.3433128,15.7868571 12.99,15.79 C13.0003862,15.6210768 12.9800574,15.45167 12.93,15.29 L12.93,15.29 C12.838182,15.0981235 12.720412,14.9197861 12.58,14.76 C13.16,13.54 13.38,14.16 14.15,13.76 C14.56,13.52 14.83,13.08 15.23,12.76 C15.5486126,12.5819267 15.883457,12.4345952 16.23,12.32 C16.532787,12.1601081 16.8065904,11.9505302 17.04,11.7 C17.0251811,11.5436838 17.0251811,11.3863162 17.04,11.23 C16.8255693,11.1620607 16.6041779,11.1184533 16.38,11.1 C15.9313727,11.1202422 15.481891,11.0900531 15.04,11.01 C14.6446199,10.8907136 14.3201168,10.6063176 14.15,10.23 C14.2999252,9.80609261 14.5983335,9.45084471 14.99,9.23 C15.2858841,9.10196934 15.594181,9.00478879 15.91,8.94 C16.9490702,8.64040828 17.9706516,8.28318864 18.97,7.87 C19.51,7.62 19.97,7.28 20.5,7 C21.3,6.58 22.14,6.22 22.93,5.78 L25.28,4.45 C25.56,4.23 25.79,4.09 26.04,3.91 Z M21.31,31.96 L22.88,31.96 C22.88,31.35 23.14,31.13 23.25,30.61 C23.3488783,30.2426637 23.4190892,29.8682052 23.46,29.49 C23.46,29.21 23.46,28.93 23.51,28.66 C23.6413507,28.1440679 23.6985915,27.6120651 23.68,27.08 C23.6295446,27.0454988 23.5709337,27.0248126 23.51,27.02 C23.1805274,27.3975677 22.8984361,27.8139882 22.67,28.26 C22.57,28.47 22.49,28.68 22.39,28.89 C22.29,29.1 22.14,29.32 22.04,29.55 C21.94,29.78 21.85,30.14 21.73,30.42 C21.4330147,30.8800182 21.2165842,31.3872773 21.09,31.92 C21.1639056,31.9579312 21.2477873,31.9719115 21.33,31.96 L21.31,31.96 Z M10.71,21.52 C10.42,21.65 9.65,21.93 9.52,22.2 L9.52,22.2 C9.59,22.2 9.65,22.2 9.72,22.15 C9.80218606,22.1304443 9.88781394,22.1304443 9.97,22.15 C10.26,22.04 10.68,21.93 10.85,21.65 C10.85,21.58 10.85,21.56 10.85,21.51 C10.8097352,21.5051888 10.768913,21.5085907 10.73,21.52 L10.71,21.52 Z M23.58,21.21 C23.031808,21.261208 22.5289722,21.5361399 22.19,21.97 C22.1506851,22.0404645 22.1172388,22.1140464 22.09,22.19 C22.19,22.4 22.26,22.58 22.49,22.68 C22.9171474,22.5552859 23.2880784,22.2868025 23.54,21.92 C23.67,21.75 23.78,21.57 23.9,21.38 C23.8236313,21.2992253 23.7318152,21.234614 23.63,21.19 L23.58,21.21 Z M13.66,21.21 L13.33,21.21 C12.7790983,21.3085597 12.2372623,21.4523803 11.71,21.64 C11.33,21.82 11.17,22.18 10.85,22.42 C10.37,22.78 9.48,22.82 9.15,23.36 C8.98,23.62 9.25,24.15 9.25,24.46 L9.88,24.46 C10.2985162,24.3183469 10.6955678,24.1198211 11.06,23.87 C11.0891754,23.830076 11.1127288,23.7863339 11.13,23.74 L11.13,23.74 C11.0206512,23.7318764 10.9126048,23.7678918 10.83,23.84 C10.83,23.78 10.83,23.69 10.83,23.63 C10.999495,23.1375789 11.3598511,22.7339801 11.83,22.51 C12.3442164,22.2438419 12.8358488,21.9361536 13.3,21.59 C13.47,21.45 13.56,21.32 13.68,21.21 L13.66,21.21 Z" id="形状" fill="#FEFEFE" fill-rule="nonzero"></path>
                <path d="M39.89,1.9 C40.35,2.13 40.81,2.31 41.28,2.51 C41.52,2.61 41.75,2.74 41.99,2.82 C42.63,3.05 43.21,2.82 43.78,3.41 C44.0996732,3.81017896 44.2471681,4.32101476 44.19,4.83 C44.2297731,5.53633201 43.8329993,6.19497667 43.19,6.49 C42.97,6.63 42.74,6.74 42.53,6.89 C42.0991392,7.24842444 41.6484248,7.58228692 41.18,7.89 C40.94,8.03 40.65,8.04 40.41,8.2 C40.0504209,8.48784029 39.7158899,8.8056448 39.41,9.15 C38.9098496,9.70605454 38.4550609,10.3012928 38.05,10.93 C37.86,11.21 37.64,11.48 37.46,11.77 C36.8493269,12.7151361 36.5810856,13.8410437 36.7,14.96 C37.2761847,14.8318087 37.8292875,14.6159637 38.34,14.32 C38.56,14.22 38.78,14.14 38.99,14.02 C39.2,13.9 39.43,13.72 39.65,13.58 C40.0489271,13.3279996 40.4630501,13.1008999 40.89,12.9 C41.23,12.74 41.61,12.66 41.96,12.5 C42.49,12.26 42.96,11.94 43.53,11.72 C43.84,11.59 44.21,11.63 44.53,11.48 C44.6734873,11.3981744 44.8076148,11.300932 44.93,11.19 C45.2058343,11.0435529 45.5087081,10.9550729 45.82,10.93 C46.11,10.86 46.38,10.7 46.67,10.64 C46.96,10.58 47.4,10.64 47.76,10.58 C48.12,10.52 48.31,10.44 48.59,10.41 C48.9229489,10.3873597 49.2570511,10.3873597 49.59,10.41 C50.0892,10.37 50.5908,10.37 51.09,10.41 C51.4032337,10.4605878 51.6836832,10.6331721 51.87,10.89 C52.0770229,11.213121 52.1454874,11.6058909 52.06,11.98 C52.0172434,12.1682092 51.935483,12.3453568 51.82,12.5 C51.5067515,12.8528307 51.1728307,13.1867515 50.82,13.5 C50.09,14.22 49.33,14.93 48.64,15.69 C48.09,16.28 48.13,16.84 47.47,17.29 C46.95,17.11 46.47,16.38 45.91,16.05 C45.7805096,15.9981584 45.6466433,15.9579985 45.51,15.93 C45.3178306,15.9 45.1221694,15.9 44.93,15.93 C44.58,15.99 44.26,16.17 43.93,16.24 C43.5046684,16.2535949 43.0821249,16.3139583 42.67,16.42 C42.4390651,16.5704699 42.2245572,16.7447576 42.03,16.94 C41.82,17.1 41.58,17.25 41.36,17.4 C40.9612352,17.7113138 40.5806129,18.045193 40.22,18.4 C39.96,18.62 39.68,18.81 39.42,19.04 C38.73,19.65 36.72,21.6 36.7,22.51 C36.733411,22.8462171 36.7868392,23.1801429 36.86,23.51 C36.8850001,23.9963456 36.8850001,24.4836544 36.86,24.97 C36.9050544,25.4823447 36.9050544,25.9976553 36.86,26.51 C36.8208598,26.7562147 36.6791218,26.9742733 36.47,27.11 C36.325398,27.2049368 36.1472882,27.2340159 35.98,27.19 C35.26,27 33.86,25.05 33.52,24.36 C33.37,24.07 33.34,23.7 33.17,23.42 C33,23.14 32.71,23.11 32.57,22.88 C32.43,22.65 32.93,22.41 32.92,22.11 C32.91,21.81 32.83,21.63 32.79,21.4 C32.75,21.17 32.79,20.78 32.71,20.48 C32.6364121,20.1232931 32.5829939,19.7627209 32.55,19.4 C32.55,18.96 32.55,18.51 32.55,18.07 C32.5250264,17.6737264 32.5250264,17.2762736 32.55,16.88 C32.63,16.32 32.81,15.77 32.89,15.21 C32.9084668,14.8331175 32.9586441,14.4584599 33.04,14.09 C33.2734654,13.4001404 33.5644893,12.7311199 33.91,12.09 C34.03,11.81 34.13,11.52 34.26,11.24 C34.39,10.96 34.63,10.52 34.82,10.17 C35.01,9.82 35.2,9.65 35.36,9.38 C35.52,9.11 35.64,8.78 35.83,8.5 C36.02,8.22 36.27,8.01 36.48,7.76 C36.69,7.51 36.85,7.27 37.05,7.04 C37.58,6.43 38.21,5.91 38.76,5.31 C39.2990661,4.69228946 39.719446,3.9803558 40,3.21 C40.15,2.64 39.79,2.3 39.89,1.9 Z" id="路径" fill="#FEFEFE" fill-rule="nonzero"></path>
                <path d="M45.52,18.36 C45.6976636,18.3541324 45.8746429,18.3847634 46.04,18.45 C46.3731024,18.5166468 46.6651812,18.7149719 46.85,19 C47.0594022,19.4314711 47.2107187,19.888783 47.3,20.36 C47.3,20.64 47.3,20.93 47.39,21.21 C47.4569184,21.5401831 47.5036715,21.8741343 47.53,22.21 C47.53,22.7 47.53,23.21 47.53,23.68 C47.53,24.15 47.82,24.54 47.88,24.99 C47.94,25.44 47.88,25.63 47.94,25.99 C48,26.35 48.07,26.5 48.09,26.76 C48.09,27.19 48.09,27.63 48.15,28.06 C48.2861735,28.5914264 48.449725,29.1154588 48.64,29.63 C48.71,29.91 48.64,30.22 48.73,30.51 C48.83,31.16 49,31.82 49.07,32.51 C49.07,32.95 49.07,33.42 49.07,33.87 C49.07,34.32 49.07,34.77 49.07,35.21 C48.8837167,36.253153 48.5468652,37.2637077 48.07,38.21 C47.97,38.48 47.92,38.77 47.83,39.05 C47.4477414,39.7035999 46.9913944,40.3109441 46.47,40.86 C46.11,41.31 45.89,41.86 45.56,42.29 C44.6476302,43.340402 43.5618974,44.2265765 42.35,44.91 C41.754357,45.1166481 41.1112584,45.1444578 40.5,44.99 C40.3082466,44.8759755 40.1244875,44.7490147 39.95,44.61 C39.7,44.44 39.12,44.18 39.03,43.87 C38.87,43.35 40.03,42.29 40.38,42 C40.88,41.58 41.47,41.22 41.93,40.75 C42.1634613,40.4648341 42.3772866,40.1641423 42.57,39.85 C42.9562959,39.4454633 43.3138344,39.0144122 43.64,38.56 C43.907084,38.0723998 44.134485,37.5640916 44.32,37.04 C44.47,36.66 44.66,36.29 44.8,35.91 C44.935352,35.5203507 45.0324761,35.1184578 45.09,34.71 C45.1049944,34.4135228 45.1049944,34.1164772 45.09,33.82 L45.09,32.36 C45.1350941,31.7474955 45.1350941,31.1325045 45.09,30.52 C45.09,30.19 44.9,29.9 44.82,29.58 C44.7579576,29.2792324 44.7112308,28.9755078 44.68,28.67 C44.61,28.3 44.5,27.95 44.43,27.58 C44.3668765,27.2034922 44.3434148,26.8214022 44.36,26.44 C44.4018307,26.107979 44.4018307,25.772021 44.36,25.44 C44.36,25.16 44.22,24.88 44.17,24.6 C44.12,24.32 44.11,24.16 44.06,23.94 C44.01,23.72 43.94,23.57 43.89,23.38 C43.84,23.19 43.79,22.91 43.71,22.68 C43.57,22.23 43.34,21.8 43.23,21.34 C43.17,21.08 43.13,20.82 43.08,20.56 C42.8899975,20.1057341 42.8899975,19.5942659 43.08,19.14 C43.47,18.51 44.08,18.64 44.67,18.58 C44.9583259,18.5275237 45.2424197,18.4539935 45.52,18.36 L45.52,18.36 Z" id="路径" fill="#FEFEFE" fill-rule="nonzero"></path>
                <path d="M20.1,0.93 C20.8772507,0.871159096 21.6586155,0.897987072 22.43,1.01 C23.0640684,1.08328172 23.6250761,1.45481002 23.94,2.01 C23.950091,2.19319448 23.950091,2.37680552 23.94,2.56 C23.451813,3.25146903 22.8618003,3.86508223 22.19,4.38 C21.9933573,4.50759872 21.777171,4.60218024 21.55,4.66 C21.01,4.33 20.82,3.73 20.4,3.28 C20.085059,2.97866309 19.7320666,2.71980202 19.35,2.51 C19.14,2.37 18.62,2.09 18.55,1.84 C18.5255468,1.78249149 18.5255468,1.71750851 18.55,1.66 C19.0151489,1.31964833 19.541351,1.07182411 20.1,0.93 L20.1,0.93 Z" id="路径" fill="#FEFEFE" fill-rule="nonzero"></path>
                <path d="M81.21,15.55 C81.4445512,15.6436232 81.6560599,15.7869033 81.83,15.97 C82.15,16.39 81.98,16.97 81.92,17.4 C82.0277835,17.5167434 82.118668,17.648021 82.19,17.79 C82.2292675,17.8687075 82.2292675,17.9612925 82.19,18.04 C82.19,18.04 82.04,17.86 81.99,17.83 C81.9175019,17.794246 81.8324981,17.794246 81.76,17.83 C81.62,17.97 81.67,18.46 81.66,18.67 C81.6286968,19.2042955 81.5415554,19.7338472 81.4,20.25 C81.2742738,20.6193622 81.1740385,20.9969154 81.1,21.38 C81.3259673,21.4051806 81.5540327,21.4051806 81.78,21.38 C81.9983681,21.3062834 82.2120897,21.219459 82.42,21.12 C82.67,21.02 82.93,20.97 83.18,20.88 C83.43,20.79 83.61,20.68 83.82,20.58 L84.61,20.23 C84.8511413,20.0777179 85.1016375,19.9407799 85.36,19.82 C85.79,19.66 86.26,19.62 86.69,19.48 C87.12,19.34 87.27,19.16 87.59,19.08 C87.91,19 88.06,19.08 88.29,19.02 C89.1,18.87 89.91,18.67 90.71,18.47 C91.21,18.34 91.71,18.05 92.17,17.97 C92.3463406,17.954821 92.5236594,17.954821 92.7,17.97 C93.1486735,17.9830158 93.596153,18.0230886 94.04,18.09 C94.2997406,18.0924429 94.5582518,18.1260158 94.81,18.19 C94.9979133,18.2773345 95.1675733,18.3994897 95.31,18.55 C95.8376596,19.1592027 96.2540076,19.8565009 96.54,20.61 C96.6301852,21.3740145 96.6301852,22.1459855 96.54,22.91 C96.47,23.43 96.32,23.91 96.24,24.44 C96.19,24.76 96.24,25.09 96.18,25.44 C96.12,25.79 96.05,26.02 96.03,26.31 C95.9858014,26.9759341 95.9858014,27.6440659 96.03,28.31 C96.1101359,28.7695838 96.1602421,29.2339006 96.18,29.7 C96.1356094,30.1552393 95.9848941,30.5936838 95.74,30.98 C95.62,31.26 95.56,31.58 95.43,31.86 C95.3213044,32.073027 95.2011277,32.2799981 95.07,32.48 C94.96,32.68 94.87,32.91 94.77,33.13 C94.67,33.35 94.56,33.5 94.47,33.7 C94.38,33.9 94.31,34.18 94.22,34.42 C94.0437691,34.9350294 93.8298575,35.4363846 93.58,35.92 C93.3983876,36.2199289 93.2014605,36.5103129 92.99,36.79 C92.84,37.02 92.73,37.28 92.56,37.5 C92.2230354,37.901623 91.851623,38.2730354 91.45,38.61 C91.22,38.8 90.98,38.96 90.76,39.15 C90.54,39.34 90.37,39.54 90.18,39.73 C89.8904582,39.9600586 89.5789535,40.1610294 89.25,40.33 C89,40.51 88.81,40.77 88.55,40.93 C88.2696918,41.0530328 87.982553,41.1598752 87.69,41.25 C86.7657053,41.6702852 85.7959401,41.9823549 84.8,42.18 C84.49,42.24 84.18,42.31 83.86,42.34 C83.54,42.37 83.17,42.34 82.86,42.34 L81.86,42.34 C81.5330512,42.3068873 81.2146842,42.2154415 80.92,42.07 C80.6453578,42.0065952 80.3748524,41.9264455 80.11,41.83 C79.6347263,41.5080486 79.2100656,41.1170911 78.85,40.67 C78.72,40.54 78.56,40.45 78.44,40.31 C78.32,40.17 78.36,40.24 78.37,40.16 C78.3755269,40.1087281 78.4108378,40.0655703 78.46,40.05 C78.71,40.11 79.24,40.4 79.54,40.52 C80.1602701,40.8558521 80.8055164,41.1433712 81.47,41.38 C81.6981025,41.4192759 81.928657,41.4426655 82.16,41.45 C82.9655286,41.5175714 83.7736564,41.3545585 84.49,40.98 C84.8337178,40.9137504 85.1690792,40.8097883 85.49,40.67 C85.81,40.48 86.1,40.22 86.41,40.01 C86.9970257,39.7126507 87.5446,39.343122 88.04,38.91 C88.29,38.64 88.4,38.26 88.65,37.98 C89.06,37.5 89.58,37.11 89.98,36.62 C90.3282206,36.088248 90.5976782,35.5089142 90.78,34.9 C90.92,34.53 91.08,34.16 91.19,33.77 C91.3,33.38 91.31,33.03 91.43,32.68 C91.66,32.04 92.14,31.46 92.31,30.82 C92.391759,30.1565796 92.4285097,29.4883851 92.42,28.82 C92.48,28.29 92.65,27.82 92.74,27.28 C92.7782046,27.0081404 92.8015726,26.7344016 92.81,26.46 C92.8586792,26.1887575 92.8920653,25.9149919 92.91,25.64 C92.91,25.41 92.85,25.18 92.82,24.95 C92.8022549,24.3579671 92.6978111,23.7717338 92.51,23.21 C92.2572273,22.8072787 91.9511161,22.440618 91.6,22.12 C91.4148226,21.8723416 91.2477236,21.6116672 91.1,21.34 C90.6379685,21.3580598 90.177276,21.4014584 89.72,21.47 C89.11,21.62 88.53,21.93 87.91,22.05 C87.1,22.22 86.24,22.24 85.45,22.49 C84.92,22.66 84.45,23.03 83.96,23.24 C83.61,23.39 83.26,23.49 82.96,23.63 C82.36,23.85 81.78,24.11 81.19,24.36 C80.82,24.52 80.44,24.67 80.08,24.85 C79.72,25.03 79.4,25.25 79.08,25.45 C78.57,25.74 78.08,26 77.53,26.28 C77.2218006,26.4978968 76.8853802,26.6728355 76.53,26.8 C76.4118816,26.830053 76.2881184,26.830053 76.17,26.8 C75.9080631,26.7059262 75.6882401,26.5215585 75.55,26.28 C75.3691086,25.8736027 75.3407074,25.4156335 75.47,24.99 C75.7524953,24.2636789 76.0866848,23.5585391 76.47,22.88 C76.59,22.68 76.74,22.5 76.87,22.3 C77.0072828,22.0256072 77.1643648,21.7615756 77.34,21.51 C77.5985596,21.2651218 77.8760926,21.0410891 78.17,20.84 C78.46,20.6 78.76,20.35 79.03,20.08 C79.1803812,19.932929 79.320698,19.7759078 79.45,19.61 C79.8544354,19.1947965 80.2193429,18.7428468 80.54,18.26 C80.92,17.64 80.75,17.26 80.87,16.63 C80.86,16.24 81.11,15.93 81.21,15.55 Z" id="路径" fill="#FEFEFE" fill-rule="nonzero"></path>
                <path d="M75.37,18.89 L75.37,18.94 C75.37,19.57 74.99,19.94 74.76,20.47 C74.6487098,20.7106829 74.5518713,20.9577881 74.47,21.21 C74.4,21.4 74.36,21.6 74.29,21.79 C74.22,21.98 74.08,22.23 74.02,22.45 C73.9901248,22.7492562 73.9901248,23.0507438 74.02,23.35 C74.0097332,23.8628954 73.911647,24.3702382 73.73,24.85 C73.510541,25.4465729 73.1700779,25.9913139 72.73,26.45 C72.3593712,26.8380569 72.0492337,27.2796657 71.81,27.76 C71.54,28.49 71.81,29.36 71.61,30.13 C71.49,30.53 71.31,30.92 71.16,31.31 C71.01,31.7 70.85,32.12 70.67,32.5 C70.49,32.88 70.4,32.98 70.29,33.23 C70.18,33.48 70.09,33.78 69.98,34.05 C69.8257348,34.3745745 69.6921352,34.7085735 69.58,35.05 C69.5448737,35.2685979 69.5448737,35.4914021 69.58,35.71 C69.79,36.04 70.19,36.18 70.38,36.52 C70.5198573,36.9043389 70.5198573,37.3256611 70.38,37.71 C70.153421,38.3978653 69.8725368,39.066637 69.54,39.71 C69.4224001,39.9770543 69.2783478,40.2316584 69.11,40.47 C68.91,40.73 68.63,40.92 68.42,41.17 C68.21,41.42 68.04,41.73 67.78,41.86 C67.2966524,41.9767592 66.7899601,41.9524658 66.32,41.79 C65.8818858,41.6375914 65.5222048,41.3174753 65.32,40.9 C65.1463101,40.4426006 65.1463101,39.9373994 65.32,39.48 C65.39,39.29 65.51,39.11 65.58,38.92 C65.65,38.73 65.74,38.29 65.88,38 C66.0173147,37.7716137 66.1675593,37.551255 66.33,37.34 C66.5897589,36.895491 66.8202481,36.4345125 67.02,35.96 C67.1436386,35.6366722 67.2341032,35.3016181 67.29,34.96 C67.29,34.78 67.42,34.61 67.49,34.43 C67.6701606,33.6536483 67.6701606,32.8463517 67.49,32.07 L67.49,32.07 L67.43,32 C67.3287873,31.8969145 67.2103391,31.8123086 67.08,31.75 C66.7950398,31.6416771 66.5046491,31.5482181 66.21,31.47 C65.8699254,31.2959353 65.5152315,31.1520501 65.15,31.04 C64.8469981,31.0199467 64.5430019,31.0199467 64.24,31.04 C63.6575948,31.0782032 63.0752519,30.9644912 62.55,30.71 C62.3728929,30.5794373 62.208799,30.4320876 62.06,30.27 C61.6098028,29.9001929 61.3432394,29.3524599 61.33,28.77 C61.4058951,27.8904726 61.7243787,27.0492607 62.25,26.34 C62.54,26 62.9,25.73 63.17,25.34 C63.44,24.95 63.78,24.34 64.17,23.93 C64.4363968,23.5325537 64.7269434,23.1518375 65.04,22.79 C65.23,22.59 65.41,22.36 65.61,22.16 C65.81,21.96 66.21,21.76 66.48,21.49 L66.73,21.62 C66.57,21.85 66.35,22.03 66.21,22.26 C65.8,22.95 66.27,23.7 66.21,24.43 C66.15,25.16 65.83,25.52 65.73,26.09 C65.6803713,26.3030143 65.7201213,26.5270596 65.84,26.71 C66.31,27.35 67.34,27.15 68.02,27.19 C68.3090212,27.2254087 68.5960576,27.2754731 68.88,27.34 C69.2121811,27.4083899 69.5562976,27.3911841 69.88,27.29 C70.1489719,27.1569801 70.3899796,26.9736785 70.59,26.75 C70.8321399,26.5144779 71.0592533,26.2639852 71.27,26 C71.41,25.81 71.52,25.6 71.64,25.4 L72.4,24.15 C72.58,23.85 72.79,23.56 72.95,23.26 C73.11,22.96 73.16,22.73 73.3,22.49 C73.44,22.25 73.81,22.01 73.97,21.68 C74.13,21.35 74.28,20.62 74.52,20.17 C74.63,19.96 74.86,19.83 74.97,19.61 C75.08,19.39 75.06,19.1 75.32,18.91 L75.37,18.89 Z" id="路径" fill="#FEFEFE" fill-rule="nonzero"></path>
                <path d="M68.43,1.32 C69.21,1.4 69.97,2.23 70.49,2.77 C70.7228269,3.06173943 70.9302509,3.37287542 71.11,3.7 C71.23,3.9 71.38,4.1 71.51,4.3 C71.9332898,5.05387991 72.1148082,5.91958341 72.03,6.78 C72.0097545,7.38413067 71.8950316,7.98136497 71.69,8.55 C71.1787895,9.33663665 70.4537415,9.96107987 69.6,10.35 C69.19,10.48 68.77,10.35 68.44,10.69 C68.0057403,11.1263101 67.7582835,11.7144682 67.75,12.33 C68.1261103,12.4817186 68.4666283,12.7098656 68.75,13 C68.9070125,13.1918372 69.0774405,13.3722905 69.26,13.54 C69.4850712,13.7105296 69.7223778,13.8642775 69.97,14 C70.4583847,14.3394709 70.8649179,14.7835829 71.16,15.3 C71.35,15.62 71.92,16.42 71.82,16.76 C71.7448587,16.984743 71.6015485,17.1804837 71.41,17.32 C71.03,17.65 70.56,17.8 70.16,18.09 C69.5233292,18.6535631 68.8556186,19.1810544 68.16,19.67 C67.9352647,19.8321673 67.69783,19.9759657 67.45,20.1 C67.5607542,19.8583734 67.6877101,19.6245073 67.83,19.4 C68.3002209,18.9337176 68.6443108,18.3556465 68.83,17.72 C68.3539733,17.7549308 67.8760267,17.7549308 67.4,17.72 C66.9411226,17.6342547 66.4871446,17.5240983 66.04,17.39 C65.7007743,17.3191585 65.3666892,17.2256146 65.04,17.11 C64.8797581,17.0440029 64.7258002,16.963677 64.58,16.87 C63.95,16.43 62.92,15.72 62.79,14.93 C62.7446779,14.5860619 62.8075907,14.2365465 62.97,13.93 C63.1424356,13.6281808 63.3433509,13.3435508 63.57,13.08 C63.87,12.68 64.18,12.29 64.49,11.9 C64.8187881,11.4576376 65.1869581,11.0459566 65.59,10.67 C65.909196,10.4678597 66.2435229,10.2906664 66.59,10.14 C67.2631017,9.56876183 67.8915958,8.94695385 68.47,8.28 C68.5758143,8.11978868 68.6567333,7.94446406 68.71,7.76 C68.8179741,7.52595379 68.9114832,7.28550185 68.99,7.04 C69.0899821,6.21635644 69.0899821,5.38364356 68.99,4.56 C68.93,4.22 68.75,3.9 68.7,3.56 C68.65,3.22 68.7,2.63 68.7,2.16 C68.5629814,1.89735179 68.471677,1.61329374 68.43,1.32 L68.43,1.32 Z" id="路径" fill="#FEFEFE" fill-rule="nonzero"></path>
                <path d="M87.04,4.79 C87.5766084,4.79450268 88.1106228,4.86503289 88.63,5 C89.0594902,5.08404079 89.4415397,5.32683865 89.7,5.68 C89.851425,5.96568631 89.8872278,6.2986521 89.8,6.61 C89.7080611,7.06010287 89.4326349,7.45149804 89.04,7.69 C88.2789574,8.13033416 87.358848,8.20026247 86.54,7.88 C85.83,8.08 84.95,9.25 84.54,9.88 C84.4,10.12 84.28,10.39 84.13,10.63 C83.98,10.87 83.64,11.34 83.41,11.72 C83.1527935,12.2970287 82.7701797,12.8094579 82.29,13.22 C82.2120519,13.3014913 82.1026461,13.3452537 81.99,13.34 C81.9602607,13.2558846 81.9602607,13.1641154 81.99,13.08 C82.0672898,12.8196077 82.1142673,12.5511648 82.13,12.28 C82.1100683,12.00703 82.1100683,11.73297 82.13,11.46 C82.2526501,11.1329644 82.3561586,10.7990663 82.44,10.46 C82.4176394,10.085554 82.3607309,9.71397482 82.27,9.35 C82.0776922,9.35628051 81.8866067,9.38309953 81.7,9.43 C81.1918832,9.61656312 80.7135571,9.87593717 80.28,10.2 C79.9283089,10.5144557 79.5944557,10.8483089 79.28,11.2 C78.960276,11.4842423 78.7781525,11.892199 78.78,12.32 C78.5494122,12.2237296 78.2959649,12.1959546 78.05,12.24 C77.83,12.58 77.58,12.9 77.34,13.24 C77.1880323,13.420884 77.047748,13.6112699 76.92,13.81 C76.71,14.19 76.7,14.81 76.43,15.1 C76.400004,15.140433 76.3493593,15.1599117 76.3,15.15 L76.3,15.15 C76.3,14.99 76.3,14.92 76.38,14.78 C76.4100427,14.7381685 76.4100427,14.6818315 76.38,14.64 L76.33,14.64 L76.21,14.7 C76.14,14.7 76.12,14.7 76.06,14.7 C76.0103885,14.6456571 75.9851056,14.57342 75.99,14.5 C75.99,13.97 76.66,13.44 76.99,13.05 C77.3120505,12.7116921 77.6094768,12.3507702 77.88,11.97 C78.0260424,11.6496607 78.1366971,11.3143433 78.21,10.97 C78.2796861,10.7790798 78.3598068,10.5921315 78.45,10.41 C78.7304495,9.70562024 79.1371138,9.05834621 79.65,8.5 C80.0388523,7.96197939 80.507589,7.48649825 81.04,7.09 C81.8425262,6.71620318 82.6755646,6.41175945 83.53,6.18 C83.8371172,6.03641195 84.1344292,5.87272333 84.42,5.69 C84.66,5.56 84.91,5.48 85.16,5.37 C85.41,5.26 85.53,5.16 85.72,5.07 C86.1368743,4.88941495 86.5857122,4.79420692 87.04,4.79 Z" id="路径" fill="#FEFEFE" fill-rule="nonzero"></path>
                <path d="M80.17,27.91 C81.0303363,27.8689255 81.8925032,27.8889759 82.75,27.97 C83.0676566,28.0419682 83.3762485,28.1493046 83.67,28.29 C84.477466,28.7087464 85.2298763,29.2260285 85.91,29.83 C86.1177445,29.9758805 86.3149037,30.1362812 86.5,30.31 C86.6293635,30.4537642 86.7250207,30.6245807 86.78,30.81 C86.9773363,31.4317544 87.0015363,32.0955263 86.85,32.73 C86.7370248,32.937919 86.5880484,33.1241395 86.41,33.28 C85.8839144,33.809935 85.2396026,34.2074891 84.53,34.44 L84.46,34.44 C83.82,34.52 83.72,33.78 83.52,33.36 C83.41,33.13 83.2,32.96 83.09,32.73 C82.98,32.5 82.93,32.01 82.65,31.73 C82.2160038,31.373427 81.7469327,31.0618299 81.25,30.8 C80.8374493,30.4232373 80.3885911,30.0882685 79.91,29.8 C79.5869211,29.6661012 79.2521661,29.5623272 78.91,29.49 C78.5152044,29.3417553 78.1496159,29.1251103 77.83,28.85 C77.7751024,28.8070034 77.7451279,28.7395609 77.75,28.67 C77.7466998,28.5998096 77.7719505,28.5312721 77.82,28.48 C78.557981,28.1366052 79.356701,27.9428731 80.17,27.91 Z" id="路径" fill="#FEFEFE" fill-rule="nonzero"></path>
                <path d="M131.44,0 C131.736665,0.0098016932 132.031542,0.0500121873 132.32,0.12 C132.55,0.12 132.79,0.12 133.02,0.12 C133.113131,0.134655401 133.203917,0.161554968 133.29,0.2 C133.586837,0.327200647 133.815796,0.574330909 133.92,0.88 C134.044451,1.18097585 134.044451,1.51902415 133.92,1.82 C133.552211,2.4125669 133.052567,2.91221089 132.46,3.28 C132.23,3.41 131.98,3.51 131.75,3.64 C131.513423,3.8326064 131.25083,3.9908356 130.97,4.11 C130.69,4.01 130.48,3.79 130.2,3.7 C129.290727,3.64856673 128.379273,3.64856673 127.47,3.7 C127.14844,3.65938972 126.824796,3.757574 126.58,3.97 C126.335108,4.18642847 126.178478,4.48544949 126.14,4.81 C126.105077,5.12236024 126.105077,5.43763976 126.14,5.75 C126.14,6 126.24,6.25 126.26,6.5 C126.26,6.91 126.26,7.33 126.26,7.74 C126.26,8.15 126.26,8.74 126.26,9.26 C126.26,9.78 126.04,10.41 125.96,10.97 C125.91,11.25 125.96,11.54 125.9,11.82 C125.84,12.1 125.69,12.49 125.64,12.82 C125.614918,13.1795631 125.614918,13.5404369 125.64,13.9 C125.64,14.34 125.64,14.79 125.64,15.23 C125.671218,15.4859369 125.717971,15.7397387 125.78,15.99 C125.78,16.3 125.78,16.61 125.78,16.91 C125.78,17.21 125.89,17.39 125.92,17.64 C125.92,18.05 125.92,18.48 125.92,18.89 C126.02,19.48 126.13,20.08 126.25,20.67 C126.320971,20.96233 126.367796,21.2599987 126.39,21.56 L126.39,21.56 C126.822709,21.4373326 127.184947,21.1402976 127.39,20.74 C127.49,20.55 127.57,20.36 127.68,20.19 C128,19.73 128.38,19.31 128.68,18.84 C128.87,18.53 129,18.18 129.22,17.84 C129.531253,17.4852939 129.865294,17.1512525 130.22,16.84 C130.46,16.61 130.64,16.35 130.87,16.11 C131.1,15.87 131.37,15.65 131.62,15.42 C131.913291,15.1220379 132.223825,14.8415552 132.55,14.58 C132.93,14.29 133.35,14.05 133.73,13.76 C134.11,13.47 134.41,13.09 134.8,12.76 C135.19,12.43 135.51,12.34 135.8,12.07 C136.078905,11.8476879 136.339725,11.603588 136.58,11.34 C136.75,11.15 136.89,10.95 137.06,10.77 C137.39,10.44 137.77,10.14 138.06,9.77 C138.35,9.4 138.56,9.21 138.81,8.93 C139.012766,8.709046 139.196738,8.47155512 139.36,8.22 C139.523003,7.8469318 139.634039,7.4532594 139.69,7.05 C139.682226,6.99969939 139.647765,6.95758059 139.6,6.94 C139.182139,6.91823431 138.764102,6.97941036 138.37,7.12 C137.984413,7.26276209 137.615562,7.4471877 137.27,7.67 C137.021707,7.78407006 136.781188,7.91435139 136.55,8.06 C136.3,8.24 136.24,8.57 136.01,8.78 C135.78,8.99 135.6,9.08 135.41,9.25 L134.17,10.39 C133.97,10.58 133.77,10.78 133.56,10.96 C133.35,11.14 132.82,11.33 132.56,11.61 C132.39396,11.9006234 132.253434,12.2050971 132.14,12.52 C131.97,12.84 131.7,13.11 131.55,13.44 C131.4,13.77 131.4,13.93 131.27,14.15 C130.992592,14.5627226 130.622811,14.9051121 130.19,15.15 C130.077169,15.2004176 129.96003,15.2405795 129.84,15.27 L129.65,15.14 C129.042996,14.559988 128.565842,13.857889 128.25,13.08 C128.234761,12.9671789 128.234761,12.8528211 128.25,12.74 C128.271993,12.4042383 128.315415,12.0702247 128.38,11.74 C128.383024,11.4619947 128.40642,11.184585 128.45,10.91 C128.588984,10.4215342 128.762761,9.94364586 128.97,9.48 C129.045275,9.25101112 129.135468,9.02719869 129.24,8.81 C129.322822,8.62747989 129.438014,8.46146772 129.58,8.32 C130.16,7.79 130.74,8.55 131.33,8.58 L131.57,8.58 C131.749597,8.52900144 131.926491,8.46892422 132.1,8.4 C132.399656,8.32784547 132.693745,8.23427162 132.98,8.12 C133.22,8.02 133.42,7.86 133.66,7.77 C133.95071,7.70526613 134.23778,7.62515353 134.52,7.53 C134.81,7.39 135.02,7.12 135.32,7 C135.647214,6.89386238 135.981334,6.81033234 136.32,6.75 C136.659917,6.6530716 136.993829,6.53620248 137.32,6.4 C137.82,6.2 138.23,5.91 138.77,5.75 C139.12,5.64 139.48,5.75 139.77,5.61 C140.06,5.47 140.21,5.35 140.63,5.35 C140.913011,5.37633757 141.193745,5.4231265 141.47,5.49 C141.63,5.49 141.8,5.49 141.97,5.49 C142.286826,5.54665689 142.57359,5.71305104 142.78,5.96 C143.299662,6.49855474 143.599265,7.21189558 143.62,7.96 C143.576931,8.3031721 143.489535,8.63930907 143.36,8.96 C143.36,9.12 143.31,9.29 143.28,9.46 C143.211728,9.7814877 143.097203,10.091378 142.94,10.38 C142.828962,10.5497322 142.708785,10.7133066 142.58,10.87 C142.42,11.07 142.28,11.28 142.12,11.48 C141.96,11.68 141.81,11.81 141.67,11.99 C141.53,12.17 141.46,12.39 141.31,12.57 C141.16,12.75 140.75,13.09 140.48,13.35 C140.163881,13.652984 139.829954,13.9368224 139.48,14.2 C139.23,14.37 138.92,14.48 138.67,14.65 C138.42,14.82 138.02,15.17 137.67,15.38 C137.32,15.59 137.21,15.59 136.98,15.72 C136.75,15.85 136.56,16.04 136.34,16.18 C136.02548,16.3624936 135.721651,16.5628205 135.43,16.78 L134.61,17.53 C134.373943,17.722701 134.156337,17.9369588 133.96,18.17 C133.821759,18.3548235 133.707515,18.5564317 133.62,18.77 C133.46,19.09 133.42,19.47 133.23,19.77 C133.049848,19.988615 132.856133,20.19569 132.65,20.39 C132.346649,20.7922486 132.085286,21.2245031 131.87,21.68 C131.807339,21.7825066 131.760163,21.8937067 131.73,22.01 C131.720094,22.1798557 131.720094,22.3501443 131.73,22.52 C131.64,23.02 131.5,23.52 131.44,24.01 C131.44,24.2 131.44,24.38 131.44,24.57 C131.44,24.76 131.32,25.02 131.31,25.25 C131.31,25.81 131.31,26.37 131.31,26.93 L131.4,26.93 C131.642325,26.9163573 131.883129,26.8829125 132.12,26.83 L133.23,26.66 C133.606253,26.6350234 133.983747,26.6350234 134.36,26.66 C134.624852,26.6393668 134.891302,26.6596035 135.15,26.72 C135.671276,26.9873425 136.112798,27.3874724 136.43,27.88 C136.303768,28.3163665 136.206884,28.7606929 136.14,29.21 C136.139841,29.544228 136.119806,29.8781508 136.08,30.21 C136.028535,30.4550221 135.958329,30.6957299 135.87,30.93 C135.787498,31.1026709 135.723798,31.2837111 135.68,31.47 C135.68,31.65 135.68,31.82 135.61,32 C135.55,32.41 135.47,32.83 135.39,33.24 C135.355383,33.4500881 135.305246,33.6573222 135.24,33.86 C135.01,34.52 134.55,34.2 134.06,34.45 C133.638721,34.6819446 133.291945,35.0287208 133.06,35.45 C132.91,35.99 133.64,36.39 134.06,36.55 C134.45292,36.6488353 134.840161,36.7690135 135.22,36.91 C135.817989,37.2401947 136.344763,37.6854043 136.77,38.22 C137.086218,38.6559308 137.225567,39.1954626 137.16,39.73 C137.06,40.08 136.57,40.29 136.16,40.35 C135.97,40.35 135.77,40.35 135.58,40.44 C135.369978,40.5267071 135.169008,40.6338912 134.98,40.76 C134.41,41.05 133.68,40.68 133.13,40.54 C132.78,40.64 132.52,40.94 132.13,40.98 C131.47,41.06 130.88,40.48 130.21,40.74 C129.9,40.86 129.76,41.2 129.51,41.4 C129.26,41.6 129.09,41.64 128.89,41.76 C128.608562,41.9581735 128.310829,42.1321297 128,42.28 C127.763925,42.3957363 127.5027,42.450731 127.24,42.44 L127.24,42.44 C127.14087,42.428163 127.048948,42.3822019 126.98,42.31 C126.900086,42.2234758 126.860175,42.107372 126.87,41.99 C126.879202,41.90006 126.917875,41.8156838 126.98,41.75 C127.202092,41.5702931 127.443595,41.4159999 127.7,41.29 C128.02,41.09 128.31,40.86 128.63,40.65 C129.019598,40.4084749 129.427511,40.1978309 129.85,40.02 C130.045406,39.94822 130.245983,39.8913898 130.45,39.85 C130.943775,39.7337867 131.411696,39.5269518 131.83,39.24 C131.969766,39.0656321 132.031285,38.8412689 132,38.62 C131.35,38.62 130.68,38.57 130,38.62 C129.63,38.62 129.29,38.84 128.92,38.88 C128.360044,38.8688641 127.801287,38.9361842 127.26,39.08 C126.92,39.18 126.57,39.25 126.26,39.33 C125.940047,39.1913038 125.648484,38.994668 125.4,38.75 C125.03,38.35 125.32,37.75 125.4,37.3 C125.409969,37.123474 125.409969,36.946526 125.4,36.77 C125.464473,36.3223881 125.805824,35.9649736 126.25,35.88 C126.43,35.88 126.62,35.81 126.8,35.76 C126.98,35.71 127.86,35.22 127.93,35.17 C128,35.12 127.99,35.1 127.99,35.04 L127.99,35.04 C127.39,34.93 126.8,35.36 126.2,35.38 L124.99,35.38 C124.710357,35.3999915 124.429643,35.3999915 124.15,35.38 C124.036099,35.3682181 123.928235,35.3229846 123.84,35.25 C123.610285,34.9688553 123.492737,34.6126476 123.51,34.25 C123.51,33.7 123.51,33.15 123.51,32.6 C123.309713,31.446697 123.914073,30.303758 124.98,29.82 C125.364029,29.5422872 125.764787,29.2884741 126.18,29.06 C126.710886,28.8607442 127.209561,28.5844513 127.66,28.24 C127.861373,28.0511368 128.003771,27.8080192 128.07,27.54 C128.099806,27.3042718 128.099806,27.0657282 128.07,26.83 C128.07,26.56 128.07,26.28 128.07,26.01 C128.07,25.74 127.99,25.58 127.96,25.37 C127.93,25.16 127.96,24.95 127.91,24.74 C127.372974,25.0300305 126.861185,25.3645331 126.38,25.74 C125.895723,26.2451187 125.359411,26.6976327 124.78,27.09 C124.250736,27.3168269 123.673684,27.4095674 123.1,27.36 C122.814618,27.2596979 122.583135,27.0462996 122.46,26.77 C122.606324,26.311361 122.836936,25.8840493 123.14,25.51 C123.28,25.35 123.44,25.21 123.58,25.05 C123.72,24.89 123.85,24.72 124,24.57 C124.15,24.42 124.33,24.26 124.47,24.09 C124.605834,23.9153933 124.729461,23.7316237 124.84,23.54 C124.978132,23.3714066 125.08944,23.1825203 125.17,22.98 C125.033052,22.5694508 124.841321,22.1792625 124.6,21.82 C124.326075,21.3439045 124.085497,20.8493848 123.88,20.34 C123.752799,19.8323568 123.599257,19.3316793 123.42,18.84 L123.42,18.84 C123.313704,18.7803483 123.190095,18.7591582 123.07,18.78 C122.983813,18.8577215 122.915568,18.9532646 122.87,19.06 C122.502015,20.0652435 122.247111,21.1083373 122.11,22.17 C121.993328,22.4464495 121.856284,22.7138517 121.7,22.97 C121.56,23.3 121.4,23.61 121.24,23.97 C121.133115,24.2199304 121.006028,24.4607284 120.86,24.69 C120.520274,25.0703978 120.133887,25.4063873 119.71,25.69 C119.5,25.82 119.27,25.93 119.07,26.07 C118.87,26.21 118.46,26.53 118.12,26.73 C117.78,26.93 117.47,27.05 117.12,27.23 C117.003027,27.2944438 116.878827,27.3447951 116.75,27.38 C116.269551,27.4411746 115.781541,27.39681 115.32,27.25 C114.908583,27.1549967 114.550085,26.9040484 114.32,26.55 C113.933027,25.9921863 113.829416,25.2854136 114.04,24.64 C114.21,24.1 114.36,24.18 114.81,23.93 C115.026911,23.7836894 115.23402,23.6233471 115.43,23.45 C115.793197,23.2191091 116.128722,22.9473341 116.43,22.64 C116.586383,22.4135499 116.720349,22.1724124 116.83,21.92 C117.042756,21.5678723 117.283535,21.2334572 117.55,20.92 C117.91,20.49 118.39,20.14 118.79,19.73 C118.976816,19.5069914 119.150445,19.2732599 119.31,19.03 L119.66,18.61 C119.834838,18.3385796 119.956969,18.0366457 120.02,17.72 C119.76,17.79 119.47,17.78 119.21,17.86 C118.95,17.94 118.47,18.27 118.08,18.43 C117.890279,18.4760682 117.703314,18.5328254 117.52,18.6 C117.277553,18.7740286 117.050093,18.9680388 116.84,19.18 C116.63,19.33 116.38,19.43 116.16,19.57 C115.94,19.71 115.81,19.82 115.63,19.93 C115.581626,19.9633363 115.527314,19.9870978 115.47,20 L115.47,20 C115.283633,20.0149573 115.096367,20.0149573 114.91,20 C114.91,19.72 114.91,19.44 114.91,19.17 C114.91,18.9 114.81,18.68 114.78,18.43 C114.773115,18.1235865 114.806739,17.8176062 114.88,17.52 C115.24,15.43 117.04,15.38 118.26,14.02 C118.4,13.86 118.79,13.45 118.76,13.26 C118.73,13.07 118.76,13.26 118.7,13.19 C118.564897,13.1765349 118.428891,13.2044335 118.31,13.27 C118.179917,13.3192235 118.055799,13.3829595 117.94,13.46 C117.65,13.67 117.44,14.02 117.05,14.07 C116.597206,14.1476962 116.131991,14.1063438 115.7,13.95 C115.314766,13.6352391 115.003997,13.2390933 114.79,12.79 C114.747957,12.6261599 114.721176,12.4587787 114.71,12.29 C114.59,12.47 114.4,12.6 114.28,12.78 C114.10109,13.0643851 113.937523,13.3581382 113.79,13.66 C113.67,13.87 113.52,14.07 113.41,14.3 C113.333462,14.5178154 113.276568,14.7420429 113.24,14.97 C113.16,15.28 113.08,15.59 112.99,15.9 C112.9,16.21 112.77,16.44 112.68,16.72 C112.59,17 112.54,17.45 112.46,17.82 C112.38,18.19 112.27,18.46 112.22,18.82 C112.17,19.18 112.22,19.68 112.22,20.11 C112.22,20.54 112.08,20.65 112.07,20.93 C112.07,21.67 112.07,22.43 112.07,23.18 C112.07,23.54 111.93,23.89 111.92,24.27 C111.92,25.17 111.92,26.08 111.92,26.99 C111.92,27.34 111.92,27.7 111.92,28.06 C111.926551,28.3329539 111.808841,28.5941243 111.6,28.77 C111.496363,28.854715 111.363085,28.8943381 111.23,28.88 C110.886626,28.8548479 110.565311,28.7013306 110.33,28.45 C110.184926,28.2658172 110.057687,28.0682621 109.95,27.86 C109.573572,27.1196385 109.420692,26.2857464 109.51,25.46 C109.472681,25.1277112 109.472681,24.7922888 109.51,24.46 C109.58,24.15 109.81,23.88 109.9,23.58 C109.99,23.28 109.96,23.12 110.01,22.9 C110.12,22.43 110.27,21.97 110.39,21.51 C110.39,21.29 110.39,21.07 110.46,20.86 C110.543124,20.2614857 110.670133,19.6698916 110.84,19.09 C110.921853,18.8345216 111.018688,18.5840877 111.13,18.34 C111.251969,18.1090825 111.362111,17.8721096 111.46,17.63 C111.6,17.25 111.64,16.85 111.76,16.46 C111.843716,16.2639612 111.917149,16.0636891 111.98,15.86 C111.98,15.65 111.98,15.43 112.04,15.22 C112.159064,14.8944126 112.252678,14.5600753 112.32,14.22 C112.32,13.67 112.27,13.1 112.32,12.55 C112.32,12.3 112.41,12.04 112.45,11.79 C112.49,11.54 112.45,11.32 112.53,11.1 C112.61689,10.8745445 112.690352,10.6441412 112.75,10.41 C112.82,9.98 112.75,9.53 112.83,9.1 C112.1804,9.09354325 111.536626,9.22297927 110.94,9.48 C110.74,9.55 110.53,9.61 110.34,9.69 C110.017259,9.84026371 109.682821,9.96400568 109.34,10.06 C108.82969,10.2251138 108.28031,10.2251138 107.77,10.06 C107.391763,9.79752107 107.121696,9.40663476 107.01,8.96 C106.915398,8.62503125 106.954848,8.26639573 107.12,7.96 C107.380369,7.62040717 107.725142,7.35493175 108.12,7.19 C108.524715,7.10935638 108.937857,7.07912648 109.35,7.1 C109.73399,7.0595252 110.112707,6.97908959 110.48,6.86 C111.07,6.68 111.48,6.24 112.03,6.02 C112.359249,5.9367937 112.693178,5.87334716 113.03,5.83 C113.46,5.68 113.91,5.52 114.33,5.34 C114.75,5.16 115.06,5 115.45,4.87 C115.84,4.74 116.15,4.79 116.45,4.7 C116.61,4.7 116.76,4.57 116.91,4.52 C117.06,4.47 117.43,4.44 117.67,4.37 C117.91,4.3 118.33,4.16 118.67,4.08 C119.01,4 119.45,3.96 119.83,3.85 C120.21,3.74 120.39,3.58 120.69,3.5 C120.99,3.42 121.22,3.43 121.48,3.35 C121.74,3.27 121.94,3.17 122.17,3.1 L123.4,2.74 C123.62,2.68 123.85,2.63 124.06,2.55 C124.63,2.33 125.16,2.03 125.71,1.79 C125.9,1.71 126.1,1.67 126.29,1.61 L127.29,1.25 C127.73,1.08 128.16,0.87 128.6,0.7 C129.077768,0.519733541 129.565186,0.366163328 130.06,0.24 C130.29,0.19 130.53,0.17 130.77,0.14 L131.44,0 Z M115.21,11.21 C115.663509,11.3463192 116.137045,11.40382 116.61,11.38 C117.159236,11.2792782 117.698136,11.1286538 118.22,10.93 C118.55,10.83 118.91,10.81 119.22,10.71 C119.53,10.61 120,10.36 120.41,10.23 C120.982188,10.0704879 121.577368,10.0096172 122.17,10.05 C122.4,10.05 122.63,10.05 122.85,10.05 C123.07,10.05 123.45,10.15 123.74,10.2 C123.720111,9.9781819 123.740437,9.75459513 123.8,9.54 C123.887694,9.32435804 123.987863,9.11400241 124.1,8.91 C124.18,8.72 124.23,8.51 124.3,8.32 C124.37,8.13 124.56,7.67 124.69,7.32 C124.82,6.97 124.9,6.91 125,6.7 C125.1,6.49 125.17,6.27 125.28,6.06 C125.564525,5.69392602 125.79675,5.29005666 125.97,4.86 C126.014735,4.59329127 125.901836,4.32467165 125.68,4.17 C125.473759,4.00670874 125.211483,3.9312593 124.95,3.96 L124.84,3.96 C124.592495,4.01202846 124.342021,4.04876466 124.09,4.07 C123.681035,4.06313906 123.27239,4.09663456 122.87,4.17 C122.586643,4.29334748 122.312593,4.4370568 122.05,4.6 C121.83,4.7 121.57,4.66 121.35,4.78 C121.167453,4.91181184 120.993747,5.0554534 120.83,5.21 C120.52,5.41 120.16,5.52 119.83,5.72 C119.336238,6.14472931 118.87184,6.6024455 118.44,7.09 C117.999839,7.44715972 117.591629,7.84198561 117.22,8.27 C116.93,8.67 116.73,9.14 116.45,9.55 C116.236947,9.82156129 116.009976,10.0819098 115.77,10.33 C115.549255,10.6002023 115.361279,10.895592 115.21,11.21 L115.21,11.21 Z M121.98,14.6 C122.086822,15.0656729 122.287588,15.5046357 122.57,15.89 C122.709005,16.0712564 122.896103,16.209848 123.11,16.29 C123.11,15.93 123.11,15.58 123.11,15.23 C123.174591,14.732086 123.174591,14.227914 123.11,13.73 L123.11,13.73 C122.668803,13.8177514 122.284439,14.0860814 122.05,14.47 L122.05,14.59 L122.05,14.59 L121.98,14.6 Z M131.98,31.67 C132.232918,31.3783504 132.423492,31.0380392 132.54,30.67 C132.584454,30.5198887 132.584454,30.3601113 132.54,30.21 C132.504907,30.0488527 132.398096,29.912577 132.25,29.84 L131.95,29.71 C131.86,30.12 131.73,30.52 131.65,30.93 C131.65,31.12 131.65,31.31 131.59,31.51 C131.575056,31.6429146 131.575056,31.7770854 131.59,31.91 C131.649561,31.9202632 131.710439,31.9202632 131.77,31.91 C131.87,31.88 131.92,31.75 131.97,31.67 L131.98,31.67 Z" id="形状" fill="#FEFEFE" fill-rule="nonzero"></path>
                <path d="M186.28,3.65 C186.675895,3.61501841 187.074105,3.61501841 187.47,3.65 C188.209329,3.81217879 188.89666,4.15584419 189.47,4.65 C189.916136,4.96190579 190.21586,5.44218683 190.3,5.98 C190.290949,6.31820146 190.240575,6.65402707 190.15,6.98 C190.007204,7.62147973 189.802926,8.24770702 189.54,8.85 C189.27279,9.28140295 188.961086,9.68360148 188.61,10.05 L187.34,11.49 C187.17,11.68 187.04,11.9 186.88,12.1 C186.72,12.3 186.55,12.44 186.4,12.62 C186.277445,12.7478628 186.179178,12.8969576 186.11,13.06 C185.959753,13.620099 185.959753,14.209901 186.11,14.77 C186.18,15.07 186.3,15.36 186.36,15.66 C186.42,15.96 186.36,16.44 186.41,16.82 C186.454759,17.2273743 186.678266,17.5937805 187.02,17.82 L187.49,17.82 C187.69,17.56 187.97,17.35 188.18,17.09 C188.39,16.83 188.62,16.43 188.86,16.09 C189.400462,15.4621973 190.055443,14.9429637 190.79,14.56 C191.01,14.46 191.26,14.49 191.48,14.4 C191.7,14.31 191.87,14.09 192.11,14 C192.307047,13.9668605 192.509435,14.0059178 192.68,14.11 C193.378904,14.3745324 194.049032,14.7095965 194.68,15.11 C194.791417,15.2157807 194.876964,15.3458108 194.93,15.49 C195.054733,15.7838925 195.116068,16.1007912 195.11,16.42 C195.046698,16.8011177 194.892325,17.1613209 194.66,17.47 C193.896061,18.4237376 193.008219,19.271223 192.02,19.99 C191.78,20.16 191.5,20.26 191.27,20.44 C191.007876,20.6670432 190.757549,20.9073578 190.52,21.16 C190.167298,21.4733845 189.833385,21.8072976 189.52,22.16 C189.409681,22.3130236 189.315828,22.4772674 189.24,22.65 C189.11,22.95 188.64,24.11 188.76,24.36 C188.88,24.61 189.83,24.47 190.02,24.52 C190.383586,24.6188508 190.686399,24.8705868 190.85,25.21 C191.123112,25.68967 191.248358,26.2393621 191.21,26.79 C191.219901,27.0249366 191.199737,27.2601753 191.15,27.49 C191.080634,27.7188989 190.968673,27.9326427 190.82,28.12 C190.240486,28.8508447 189.568152,29.5030085 188.82,30.06 C189.21,30.45 189.76,30.49 190.19,30.8 C190.405602,30.9656457 190.603338,31.1533278 190.78,31.36 C191.33293,31.9871939 191.938468,32.565968 192.59,33.09 C192.99,33.34 193.48,33.31 193.88,33.53 C194.310757,33.84692 194.777296,34.1120749 195.27,34.32 C195.5477,34.3669211 195.828435,34.3936577 196.11,34.4 C196.44,34.45 196.75,34.61 197.11,34.69 C197.47,34.77 197.92,34.69 198.29,34.91 C198.522913,35.0556597 198.685648,35.290721 198.74,35.56 C198.823044,35.9197148 198.769591,36.2974506 198.59,36.62 L198.59,36.62 C198.18,37.16 197.51,37.05 196.92,37.04 C196.71361,37.0248697 196.50639,37.0248697 196.3,37.04 C196.005266,37.1158182 195.703838,37.1627068 195.4,37.18 C195.124767,37.12707 194.856397,37.0432045 194.6,36.93 C194.144852,36.8235281 193.676229,36.7864428 193.21,36.82 C192.81,36.82 192.45,36.98 192.06,37.02 C191.285963,36.9981985 190.511314,37.0215716 189.74,37.09 C189.21,37.19 188.74,37.48 188.18,37.55 C187.44,37.64 186.67,37.55 185.93,37.55 C185.58,37.55 185.32,37.82 184.98,37.88 C184.64,37.94 184.16,37.88 183.75,37.88 C183.333284,37.9188445 182.919228,37.9822885 182.51,38.07 C182.14,38.14 181.81,38.3 181.45,38.38 C181.110769,38.3856786 180.774068,38.4395508 180.45,38.54 C180.12,38.72 179.98,39.12 179.69,39.35 C179.4,39.58 178.88,39.6 178.49,39.8 C178.1,40 178.03,40.3 177.6,40.37 C177.094835,40.4251726 176.585165,40.4251726 176.08,40.37 C175.983277,40.3526898 175.891282,40.3152103 175.81,40.26 C175.508841,40.0036324 175.307135,39.6497614 175.24,39.26 C175.176596,38.1999373 175.457183,37.147737 176.04,36.26 C176.174687,36.0923475 176.341219,35.9530045 176.53,35.85 C177.012961,35.6553175 177.529287,35.5568078 178.05,35.56 C178.43,35.56 178.84,35.84 179.22,35.66 C179.818329,35.2119517 180.365017,34.6988028 180.85,34.13 C181.11,33.9 181.41,33.72 181.66,33.5 C182.09,33.12 182.48,32.68 182.88,32.28 C183.602441,31.685008 184.241511,30.9954847 184.78,30.23 C184.78,30.05 184.68,29.87 184.65,29.68 C184.390069,29.6201361 184.119931,29.6201361 183.86,29.68 C183.394891,29.82793 182.943253,30.0152762 182.51,30.24 C181.647428,30.3438138 180.777323,30.3705862 179.91,30.32 C179.901476,29.9836391 179.861298,29.648828 179.79,29.32 C179.675081,28.9589233 179.675081,28.5710767 179.79,28.21 C179.88,28.02 180,27.85 180.09,27.66 C180.310848,27.1247913 180.589145,26.6151391 180.92,26.14 C181.195633,25.7824737 181.499976,25.448031 181.83,25.14 C182.28,24.7 182.72,24.24 183.18,23.8 C183.638309,23.400211 184.050834,22.9507935 184.41,22.46 C184.649294,22.1846574 184.764988,21.8231127 184.73,21.46 C184.702386,21.3304836 184.617906,21.2202929 184.5,21.16 C184.089929,21.0101415 183.640071,21.0101415 183.23,21.16 C182.740003,21.2959315 182.269489,21.4942196 181.83,21.75 C181.473069,21.9630713 181.138103,22.2109461 180.83,22.49 C180.68,22.64 180.54,22.81 180.38,22.94 C180.22,23.07 179.85,23.22 179.61,23.4 C178.924113,23.9662942 178.306608,24.6106466 177.77,25.32 C177.694872,25.5287861 177.634719,25.7426613 177.59,25.96 C177.48,26.31 177.34,26.65 177.25,27.01 C177.199447,27.3808258 177.102,27.7437295 176.96,28.09 C176.468275,28.7870451 175.739536,29.2811652 174.91,29.48 C174.522269,29.3614794 174.175723,29.1362248 173.91,28.83 C173.691358,28.6246596 173.487516,28.4041091 173.3,28.17 C173.144297,27.9483508 173.007164,27.7142218 172.89,27.47 C172.422909,26.747928 172.166627,25.9098174 172.15,25.05 C172.104549,24.6011477 172.104549,24.1488523 172.15,23.7 C172.197517,23.5498435 172.268385,23.4081072 172.36,23.28 C172.626688,22.8419875 172.984858,22.4667614 173.41,22.18 C173.615235,21.9681369 173.859794,21.7983043 174.13,21.68 C174.534299,21.5588611 174.949699,21.478461 175.37,21.44 C175.637932,21.4407863 175.904387,21.4003121 176.16,21.32 C176.326907,21.239949 176.476417,21.1278161 176.6,20.99 C176.91,20.66 176.92,20.26 177.16,19.91 C177.315936,19.7108487 177.482862,19.520553 177.66,19.34 C177.909682,19.0521059 178.140178,18.7481179 178.35,18.43 C178.51,18.2 178.57,17.91 178.71,17.66 C179.01,17.12 179.36,16.57 179.62,16.01 C179.73,15.76 179.81,15.49 179.91,15.24 C180.037731,14.9552714 180.131704,14.6565733 180.19,14.35 C180.21497,14.1173347 180.21497,13.8826653 180.19,13.65 C179.71,13.71 179.35,14.06 178.85,14.03 C178.54,14.03 178.23,13.93 177.92,13.89 C177.61,13.85 177.35,13.89 177.07,13.78 C176.401704,13.484538 175.812444,13.0357411 175.35,12.47 C174.726925,11.8127472 174.297772,10.9959711 174.11,10.11 C174.074996,9.72412554 174.074996,9.33587446 174.11,8.95 C174.52,9.2 174.74,9.63 175.11,9.88 C175.824164,10.2012181 176.61319,10.31888 177.39,10.22 C177.59,10.17 177.79,10.03 177.99,9.96 L178.47,9.78 C178.67,9.69 178.86,9.57 179.06,9.48 C179.378597,9.34398816 179.686184,9.1835084 179.98,9 L180.52,8.56 C180.76,8.36 181.03,8.18 181.26,7.96 C181.71,7.56 182.13,7.11 182.55,6.68 L184.55,4.68 C184.92,4.31 185.28,3.89 185.68,3.55 C185.885218,3.53257434 186.091526,3.56695908 186.28,3.65 Z M187.04,31.38 C187.04,31.71 187.11,32.03 187.12,32.38 C187.12,33.09 187.12,33.81 187.12,34.52 C187.12,35.03 187.12,35.52 187.12,36.05 C187.483521,36.0814335 187.844401,36.1382386 188.2,36.22 C189.016313,36.2750322 189.835889,36.183592 190.62,35.95 C191.149528,35.7748257 191.601904,35.4214071 191.9,34.95 C192.000182,34.7204546 192.000182,34.4595454 191.9,34.23 C191.84,34.04 191.76,33.86 191.7,33.68 C191.645418,33.4794415 191.578627,33.2824074 191.5,33.09 C191.11,32.32 189.94,31.82 189.27,31.28 C188.99,31.07 188.75,30.64 188.46,30.49 C188.365548,30.4607393 188.264452,30.4607393 188.17,30.49 C187.57,30.62 187.35,31 187.04,31.49 L187.04,31.38 Z M183.14,35.59 C183.659209,35.7566836 184.186556,35.8968645 184.72,36.01 C185.029683,36.0298211 185.340317,36.0298211 185.65,36.01 C185.664897,35.6525824 185.715142,35.2975174 185.8,34.95 C185.864979,34.3617891 185.864979,33.7682109 185.8,33.18 C185.777178,33.0864486 185.743622,32.9958478 185.7,32.91 C185.606539,32.849904 185.500437,32.8122549 185.39,32.8 C185.098311,32.8626713 184.820454,32.97788 184.57,33.14 C184.308769,33.3326917 184.058387,33.539674 183.82,33.76 C183.59,33.96 183.34,34.12 183.12,34.33 C182.9,34.54 182.75,34.73 182.57,34.92 C182.427205,35.0548073 182.29669,35.2020548 182.18,35.36 L182.18,35.36 C182.495751,35.4534282 182.816192,35.5302007 183.14,35.59 Z" id="形状" fill="#FEFEFE" fill-rule="nonzero"></path>
                <path d="M166.51,1.77 C166.628118,1.73994699 166.751882,1.73994699 166.87,1.77 C167.078537,1.89054325 167.267391,2.04230112 167.43,2.22 C168.035343,2.62826354 168.543924,3.16415182 168.92,3.79 C169.054946,4.20927018 169.095916,4.65311174 169.04,5.09 C169.070079,5.52614867 169.070079,5.96385133 169.04,6.4 C168.780673,7.18480974 168.399332,7.9238683 167.91,8.59 C167.75,8.82 167.57,9.03 167.43,9.26 C167.235882,9.68337053 167.015451,10.0941739 166.77,10.49 C166.45,10.9 166.03,11.21 165.72,11.63 C165.41,12.05 165.26,12.36 165.04,12.73 C164.82,13.1 164.68,13.29 164.5,13.56 C164.12,14.12 163.68,14.56 163.29,15.14 C163.15,15.34 163.08,15.59 162.93,15.78 C162.78,15.97 162.62,16.13 162.46,16.31 C162.3,16.49 162.16,16.7 162.01,16.89 C161.86,17.08 161.68,17.25 161.52,17.44 C161.36,17.63 161.18,17.91 160.99,18.12 C160.51,18.64 159.99,19.12 159.48,19.62 C159.22,19.89 159.01,20.19 158.78,20.48 C158.55,20.77 158.37,20.92 158.19,21.16 C158.01,21.4 157.79,21.92 157.54,22.26 C157.42,22.42 157.28,22.56 157.16,22.72 C157.04,22.88 156.89,23.11 156.75,23.31 C156.522874,23.5874486 156.322011,23.8853951 156.15,24.2 C156.05,24.42 156,24.66 155.92,24.88 C156.156469,24.8745024 156.390088,24.8271014 156.61,24.74 C156.94,24.63 157.25,24.44 157.61,24.3 C158.299643,24.0147495 158.968014,23.6805645 159.61,23.3 C159.92,23.11 160.17,22.81 160.5,22.65 C160.698914,22.5614619 160.91253,22.5106011 161.13,22.5 C161.626237,22.4357168 162.085255,22.2026771 162.43,21.84 C162.745003,21.5128982 162.989995,21.1249954 163.15,20.7 C163.363088,20.3320081 163.657193,20.0173842 164.01,19.78 C164.201804,19.8133607 164.389523,19.8669947 164.57,19.94 C165.436118,20.4028218 166.101718,21.1680834 166.44,22.09 C166.52688,22.3679837 166.564116,22.6590982 166.55,22.95 C166.593551,23.7966855 166.346583,24.6328476 165.85,25.32 C165.58,25.67 165.2,25.94 164.93,26.32 C164.66,26.7 164.64,26.81 164.48,27.04 C164.32,27.27 164.13,27.5 163.97,27.73 C163.81,27.96 163.69,28.53 163.46,28.83 C163.23,29.13 163.14,29.14 163.01,29.31 C162.88,29.48 162.74,29.83 162.57,30.07 C162.293701,30.3779715 162.049132,30.7129966 161.84,31.07 C161.791137,31.2057364 161.791137,31.3542636 161.84,31.49 C162.12,31.71 162.36,32 162.63,32.24 C162.944971,32.4866328 163.279397,32.7073541 163.63,32.9 C163.949184,33.1256698 164.283281,33.3294692 164.63,33.51 C164.763698,33.5750592 164.911433,33.6059804 165.06,33.6 C165.21471,33.581858 165.357213,33.5070436 165.46,33.39 C165.659257,33.1438734 165.839764,32.8831414 166,32.61 C166.352388,32.1224716 166.676262,31.6149563 166.97,31.09 C167.23146,30.4834395 167.546017,29.9011741 167.91,29.35 L167.91,29.35 C168.046643,29.3193654 168.178046,29.268826 168.3,29.2 C168.188197,29.5672684 168.121046,29.9466685 168.1,30.33 C168.03,30.82 167.93,31.33 167.82,31.79 C167.74,32.11 167.63,32.43 167.54,32.79 C167.45,33.15 167.38,33.39 167.29,33.69 C167.2,33.99 167.06,34.33 166.97,34.69 C166.81,35.29 166.76,35.92 166.6,36.53 C166.51,36.84 166.34,37.14 166.25,37.45 C166.16,37.76 166.1,38.27 165.98,38.67 C165.86,39.07 165.78,39.23 165.69,39.52 C165.6,39.81 165.51,40.2 165.41,40.52 C165.31,40.84 165.19,41.13 165.1,41.44 C164.96,41.92 164.96,42.44 164.83,42.87 C164.762371,43.043672 164.667887,43.2056454 164.55,43.35 C164.23,43.75 164.05,44.16 163.55,44.35 C163.523605,44.3446122 163.496395,44.3446122 163.47,44.35 C163.316557,44.2626455 163.17813,44.1512285 163.06,44.02 C162.700819,43.6211786 162.366838,43.2003632 162.06,42.76 C161.92,42.53 161.84,42.28 161.71,42.05 C161.565767,41.8728026 161.444786,41.6778884 161.35,41.47 C161.02,40.35 161.91,39.47 162.35,38.61 C162.43304,38.4507855 162.48721,38.2781164 162.51,38.1 C162.54,37.6071228 162.54,37.1128772 162.51,36.62 C162.51,36.07 162.51,35.52 162.51,34.97 C162.509634,34.8508058 162.489355,34.7325104 162.45,34.62 C162.320449,34.2925329 162.06977,34.0275302 161.75,33.88 C161.532913,33.7853727 161.296288,33.7442206 161.06,33.76 C159.76,33.76 159.37,34.82 158.33,35.18 L158.33,35.18 C158.208688,35.1551103 158.091064,35.114782 157.98,35.06 C157.4,34.76 157.55,34.15 157.51,33.62 C157.486545,33.3645475 157.432836,33.1127845 157.35,32.87 L157.47,32.87 C157.645442,32.8574132 157.81446,32.7987742 157.96,32.7 C158.044054,32.6203981 158.111962,32.5253275 158.16,32.42 C158.26,32.19 158.29,31.93 158.39,31.71 C158.49,31.49 158.64,31.2 158.76,30.94 C159.05,30.27 159.34,29.59 159.67,28.94 C159.901572,28.5051702 160.158689,28.084434 160.44,27.68 C160.62,27.4 160.77,27.1 160.96,26.82 C161.213578,26.4636841 161.440846,26.089359 161.64,25.7 C161.749449,25.4300425 161.839674,25.1526843 161.91,24.87 C162.057532,24.4717332 162.164735,24.0596698 162.23,23.64 C162.105745,23.8252105 161.961549,23.9962331 161.8,24.15 C161.356015,24.4003107 160.890893,24.6111216 160.41,24.78 C160.06,24.95 159.77,25.24 159.41,25.39 C159.003115,25.5144208 158.608201,25.6750636 158.23,25.87 C157.938348,26.0882968 157.664181,26.3290281 157.41,26.59 C157.17,26.8 156.91,26.99 156.66,27.18 C156.41,27.37 155.9,27.61 155.51,27.87 C154.651337,28.4656207 153.868847,29.1641531 153.18,29.95 C152.83,30.33 152.63,30.81 152.33,31.14 C152.231397,31.1377258 152.133672,31.1208768 152.04,31.09 C151.592265,30.4947386 151.391649,29.7495924 151.48,29.01 C151.48,28.65 151.48,28.28 151.48,27.91 C151.470875,27.7523781 151.50919,27.5956378 151.59,27.46 C151.74,27.26 152.12,27.14 152.34,27.01 C152.545109,26.8908028 152.739207,26.7535954 152.92,26.6 C153.28,26.26 153.51,25.83 153.85,25.48 C154.19,25.13 154.71,24.62 155.14,24.19 C155.385084,23.9649248 155.615553,23.7244359 155.83,23.47 C156.01,23.24 156.16,22.98 156.33,22.74 C156.514463,22.5140645 156.684787,22.2769459 156.84,22.03 C156.97,21.8 157.04,21.54 157.18,21.31 C157.308244,21.1274922 157.448558,20.9537708 157.6,20.79 C157.8,20.54 158,20.28 158.18,20.02 C158.56,19.47 158.85,18.85 159.18,18.29 C159.35,18.04 159.54,17.8 159.7,17.55 C159.86,17.3 159.94,17.1 160.09,16.89 C160.24,16.68 160.36,16.56 160.49,16.39 C160.743578,16.0336841 160.970846,15.659359 161.17,15.27 C161.261684,15.0282538 161.338494,14.7811257 161.4,14.53 C161.5,14.24 161.61,13.97 161.71,13.69 C161.88,13.23 162.04,12.75 162.25,12.31 C162.46,11.87 162.81,11.31 163.1,10.85 C163.27,10.55 163.41,10.24 163.6,9.94 C163.808357,9.64995245 164.001937,9.34957008 164.18,9.04 C164.324306,8.66373362 164.447825,8.27982148 164.55,7.89 C164.72,7.43 164.87,6.97 165.03,6.51 C165.407618,5.60451166 165.66319,4.65284295 165.79,3.68 C165.85,3.08 165.79,2.47 165.79,1.87 C166.033113,1.86529803 166.274807,1.83172944 166.51,1.77 L166.51,1.77 Z" id="路径" fill="#FEFEFE" fill-rule="nonzero"></path>
            </g>
        </g>
    </g>
</svg>