<?xml version="1.0" encoding="UTF-8"?>
<svg width="157px" height="54px" viewBox="0 0 157 54" version="1.1" xmlns="http://www.w3.org/2000/svg" xmlns:xlink="http://www.w3.org/1999/xlink">
    <title>切片</title>
    <defs>
        <path d="M90.0184625,109.3752 L90.51065,108.5002 C90.1096083,108.317908 89.5445042,108.044471 88.8153375,107.679888 L88.8349908,107.690141 C88.8629042,107.706092 88.7652073,107.666216 88.5419,107.570513 L88.5419,107.570513 L88.0497125,108.336138 C88.1590875,108.409054 88.32315,108.5002 88.5419,108.609575 C89.19815,108.9377 89.6903375,109.192908 90.0184625,109.3752 L90.0184625,109.3752 Z M90.94815,115.117388 C93.57315,113.622596 94.9403375,111.653846 95.0497125,109.211138 L95.0497125,109.211138 L96.5809625,109.211138 C96.5080458,110.414263 96.3986708,111.435096 96.2528375,112.273638 C96.3257542,113.258013 95.6148167,113.640825 94.120025,113.422075 L94.120025,113.422075 L94.5028375,114.679888 C96.3257542,114.679888 97.2189833,114.1877 97.182525,113.203325 C97.4377333,111.672075 97.620025,110.03145 97.7294,108.28145 L97.7294,108.28145 L91.0028375,108.28145 L91.0028375,109.211138 L93.901275,109.211138 C93.7919,111.471554 92.5340875,113.166867 90.1278375,114.297075 L90.1278375,114.297075 L90.94815,115.117388 Z M91.8778375,112.109575 C92.4247125,111.380408 92.8804417,110.6877 93.245025,110.03145 L93.245025,110.03145 L92.3153375,109.539263 C91.8049208,110.377804 91.3491917,111.052283 90.94815,111.5627 L90.94815,111.5627 L91.8778375,112.109575 Z M88.651275,111.617388 L89.307525,110.742388 C88.3596083,110.159054 87.7215875,109.794471 87.3934625,109.648638 L87.3934625,109.648638 L86.8465875,110.46895 C87.2476292,110.6877 87.7398167,110.997596 88.32315,111.398638 C88.4689833,111.508013 88.5783583,111.580929 88.651275,111.617388 L88.651275,111.617388 Z M98.932525,112.984575 L99.9169,112.4377 C99.7346083,112.109575 99.4611708,111.653846 99.0965875,111.070513 C98.8778375,110.705929 98.713775,110.432492 98.6044,110.2502 L98.6044,110.2502 L97.6747125,110.742388 C97.6747125,110.778846 97.6929417,110.833533 97.7294,110.90645 C98.276275,111.854367 98.6773167,112.547075 98.932525,112.984575 L98.932525,112.984575 Z M87.776275,114.570513 C88.0314833,114.898638 88.1955458,114.935096 88.2684625,114.679888 C88.3413792,114.570513 88.3960667,114.497596 88.432525,114.461138 C89.3804417,113.294471 90.1460667,112.401242 90.7294,111.78145 L90.7294,111.78145 L90.07315,111.1252 C88.9064833,112.474158 87.9403375,113.385617 87.1747125,113.859575 L87.1747125,113.859575 L87.776275,114.570513 Z M93.7919,120.695513 L93.7919,116.976763 C95.1044,118.216346 96.8726292,119.255408 99.0965875,120.09395 L99.0965875,120.09395 L99.9169,118.890825 C97.620025,118.453325 95.8517958,117.614783 94.6122125,116.3752 L94.6122125,116.3752 L99.5340875,116.3752 L99.5340875,115.445513 L93.901275,115.445513 L93.901275,115.0627 C93.901275,114.880408 93.9377333,114.716346 94.01065,114.570513 C94.0471083,114.461138 94.01065,114.40645 93.901275,114.40645 L93.901275,114.40645 L92.7528375,114.297075 C92.7892958,114.661658 92.807525,115.044471 92.807525,115.445513 L92.807525,115.445513 L86.8465875,115.445513 L86.8465875,116.3752 L91.9872125,116.3752 C90.6017958,117.6877 88.8882542,118.508013 86.8465875,118.836138 L86.8465875,118.836138 L87.6669,119.929888 C89.963775,119.127804 91.6773167,118.143429 92.807525,116.976763 L92.807525,116.976763 L92.807525,120.695513 L93.7919,120.695513 Z M106.752837,111.836138 L106.752837,110.03145 L116.049712,110.03145 L116.049712,111.836138 L117.034087,111.836138 L117.034087,109.15645 L111.893462,109.15645 L111.893462,108.664263 C111.893462,108.299679 111.929921,108.008013 112.002837,107.789263 C112.039296,107.752804 112.057525,107.716346 112.057525,107.679888 C112.093983,107.570513 111.802317,107.497596 111.182525,107.461138 L111.182525,107.461138 L110.799712,107.461138 C110.872629,107.825721 110.909087,108.390825 110.909087,109.15645 L110.909087,109.15645 L105.768462,109.15645 L105.768462,111.836138 L106.752837,111.836138 Z M110.362212,120.476763 C112.403879,120.622596 113.26065,119.528846 112.932525,117.195513 C112.896067,115.518429 112.221587,113.950721 110.909087,112.492388 C111.200754,112.164263 111.401275,111.945513 111.51065,111.836138 L111.51065,111.836138 L115.284087,111.836138 L115.284087,110.961138 L107.409087,110.961138 L107.409087,111.836138 L110.252837,111.836138 C109.487212,112.711138 107.919504,113.476763 105.549712,114.133013 C105.841379,114.461138 106.096587,114.734575 106.315337,114.953325 C107.591379,114.552283 108.849192,113.950721 110.088775,113.148638 C110.271067,113.221554 110.435129,113.385617 110.580962,113.640825 C109.086171,114.989783 107.299712,115.901242 105.221587,116.3752 C105.476796,116.630408 105.732004,116.922075 105.987212,117.2502 C108.101796,116.59395 109.797108,115.627804 111.07315,114.351763 C111.255442,114.570513 111.383046,114.862179 111.455962,115.226763 C109.961171,116.903846 107.7919,117.961138 104.94815,118.398638 C105.1669,118.653846 105.38565,118.981971 105.6044,119.383013 C108.484608,118.726763 110.544504,117.705929 111.784087,116.320513 C112.002837,117.669471 111.984608,118.471554 111.7294,118.726763 C111.547108,119.091346 110.927317,119.273638 109.870025,119.273638 C110.088775,119.711138 110.252837,120.112179 110.362212,120.476763 Z M117.034087,119.383013 C117.398671,118.981971 117.708567,118.653846 117.963775,118.398638 C116.213775,117.487179 114.974192,116.429888 114.245025,115.226763 L114.245025,115.226763 L114.455025,115.121763 C114.577525,115.060513 114.726275,114.986137 114.901275,114.898638 C115.484608,114.570513 115.867421,114.351763 116.049712,114.242388 C116.304921,114.096554 116.5419,113.987179 116.76065,113.914263 C116.870025,113.914263 116.924712,113.896033 116.924712,113.859575 C116.997629,113.7502 116.669504,113.458533 115.940337,112.984575 C115.320546,113.567908 114.646067,114.041867 113.9169,114.40645 C113.661692,113.823117 113.442942,113.112179 113.26065,112.273638 L113.26065,112.273638 L112.276275,112.547075 C112.968983,115.573117 114.554921,117.851763 117.034087,119.383013 Z M122.940337,119.547075 C123.013254,119.8752 123.177317,119.984575 123.432525,119.8752 C123.578358,119.802283 123.687733,119.765825 123.76065,119.765825 L123.76065,119.765825 L127.643462,118.890825 L127.4794,117.90645 L125.7294,118.234575 L125.7294,114.789263 L127.151275,114.789263 L127.151275,113.914263 L125.7294,113.914263 L125.7294,112.65645 L127.0419,112.65645 L127.0419,111.78145 L123.705962,111.78145 C124.252837,111.271033 124.836171,110.560096 125.455962,109.648638 C125.857004,110.159054 126.367421,110.651242 126.987212,111.1252 C127.169504,110.869992 127.388254,110.578325 127.643462,110.2502 C126.950754,109.849158 126.367421,109.3752 125.893462,108.828325 C125.929921,108.791867 125.966379,108.71895 126.002837,108.609575 C126.148671,108.463742 126.112212,108.336138 125.893462,108.226763 L125.893462,108.226763 L125.2919,107.898638 C124.672108,109.466346 123.687733,110.705929 122.338775,111.617388 C122.593983,111.799679 122.849192,112.054888 123.1044,112.383013 C123.359608,112.127804 123.523671,111.981971 123.596587,111.945513 L123.596587,111.945513 L123.596587,112.65645 L124.799712,112.65645 L124.799712,113.914263 L123.159087,113.914263 L123.159087,114.789263 L124.799712,114.789263 L124.799712,118.398638 L122.776275,118.726763 L122.940337,119.547075 Z M128.901275,115.226763 L128.901275,114.734575 L131.690337,114.734575 L131.690337,113.914263 L130.651275,113.914263 L130.651275,112.765825 L131.526275,112.765825 L131.526275,110.086138 L130.651275,110.086138 L130.651275,108.992388 L131.580962,108.992388 L131.580962,108.172075 L127.971587,108.172075 L127.971587,115.226763 L128.901275,115.226763 Z M135.190337,115.0627 C135.372629,114.807492 135.591379,114.552283 135.846587,114.297075 C135.336171,113.859575 134.789296,113.276242 134.205962,112.547075 C134.789296,111.34395 135.13565,109.885617 135.245025,108.172075 L135.245025,108.172075 L132.018462,108.172075 L132.018462,108.992388 L134.26065,108.992388 C134.151275,109.940304 133.950754,110.797075 133.659087,111.5627 C133.440337,111.271033 133.1669,110.669471 132.838775,109.758013 L132.838775,109.758013 L131.963775,110.086138 C132.401275,111.216346 132.784087,112.054888 133.112212,112.601763 C132.638254,113.294471 132.200754,113.823117 131.799712,114.1877 C131.982004,114.297075 132.218983,114.497596 132.51065,114.789263 C132.984608,114.388221 133.38565,113.932492 133.713775,113.422075 C134.078358,113.96895 134.570546,114.515825 135.190337,115.0627 Z M129.776275,110.086138 L128.901275,110.086138 L128.901275,108.992388 L129.776275,108.992388 L129.776275,110.086138 Z M130.596587,111.945513 L128.901275,111.945513 L128.901275,110.90645 L130.596587,110.90645 L130.596587,111.945513 Z M129.776275,113.914263 L128.901275,113.914263 L128.901275,112.765825 L129.776275,112.765825 L129.776275,113.914263 Z M135.7919,119.65645 L135.7919,118.726763 L132.237212,118.726763 L132.237212,117.140825 L135.026275,117.140825 L135.026275,116.265825 L132.237212,116.265825 L132.237212,115.828325 C132.237212,115.791867 132.255442,115.737179 132.2919,115.664263 C132.328358,115.481971 132.218983,115.372596 131.963775,115.336138 L131.963775,115.336138 L131.19815,115.226763 C131.307525,115.554888 131.343983,115.901242 131.307525,116.265825 L131.307525,116.265825 L128.627837,116.265825 L128.627837,117.140825 L131.307525,117.140825 L131.307525,118.726763 L127.971587,118.726763 L127.971587,119.65645 L135.7919,119.65645 Z M123.5419,117.851763 L124.4169,117.578325 C124.271067,116.703325 124.088775,115.974158 123.870025,115.390825 L123.870025,115.390825 L122.995025,115.664263 C123.213775,116.284054 123.396067,117.013221 123.5419,117.851763 L123.5419,117.851763 Z M127.0419,117.578325 C127.297108,116.849158 127.4794,116.211138 127.588775,115.664263 L127.588775,115.664263 L126.768462,115.445513 C126.622629,116.065304 126.422108,116.685096 126.1669,117.304888 L126.1669,117.304888 L127.0419,117.578325 Z M150.01065,120.148638 L150.01065,118.34395 L152.963775,118.34395 L152.963775,117.523638 L150.01065,117.523638 L150.01065,116.59395 L153.401275,116.59395 L153.401275,115.773638 L151.1044,115.773638 C151.213775,115.554888 151.377837,115.208533 151.596587,114.734575 L151.596587,114.734575 L151.049712,114.515825 L153.7294,114.515825 L153.7294,113.695513 L149.901275,113.695513 L149.901275,112.820513 L152.690337,112.820513 L152.690337,112.0002 L149.901275,112.0002 L149.901275,111.179888 L152.963775,111.179888 L152.963775,108.117388 L146.018462,108.117388 L146.018462,111.179888 L148.9169,111.179888 L148.9169,112.0002 L146.182525,112.0002 L146.182525,112.820513 L148.9169,112.820513 L148.9169,113.695513 L145.4169,113.695513 L145.4169,114.515825 L147.877837,114.515825 L147.330962,114.734575 L147.768462,115.773638 L145.799712,115.773638 L145.799712,116.59395 L149.026275,116.59395 L149.026275,117.523638 L146.018462,117.523638 L146.018462,118.34395 L149.026275,118.34395 L149.026275,120.148638 L150.01065,120.148638 Z M144.870025,109.15645 L144.870025,108.28145 L141.205962,108.28145 L141.205962,109.15645 L144.870025,109.15645 Z M148.0419,110.359575 L146.94815,110.359575 L146.94815,108.9377 L148.0419,108.9377 L148.0419,110.359575 Z M150.065337,110.359575 L148.9169,110.359575 L148.9169,108.9377 L150.065337,108.9377 L150.065337,110.359575 Z M152.034087,110.359575 L150.940337,110.359575 L150.940337,108.9377 L152.034087,108.9377 L152.034087,110.359575 Z M145.307525,111.070513 L145.307525,110.140825 L140.495025,110.140825 L140.495025,111.070513 L145.307525,111.070513 Z M144.870025,112.984575 L144.870025,112.054888 L141.205962,112.054888 L141.205962,112.984575 L144.870025,112.984575 Z M144.870025,114.789263 L144.870025,113.859575 L141.205962,113.859575 L141.205962,114.789263 L144.870025,114.789263 Z M150.830962,115.773638 L147.987212,115.773638 L148.69815,115.5002 L148.26065,114.515825 L150.721587,114.515825 L150.2294,115.5002 L150.830962,115.773638 Z M142.080962,119.8752 L142.080962,119.109575 L143.995025,119.109575 L143.995025,119.547075 L144.870025,119.547075 L144.870025,115.773638 L141.205962,115.773638 L141.205962,119.8752 L142.080962,119.8752 Z M143.995025,118.34395 L142.080962,118.34395 L142.080962,116.539263 L143.995025,116.539263 L143.995025,118.34395 Z M165.32315,120.258013 L165.32315,117.633013 L167.893462,117.633013 L167.893462,116.59395 L165.32315,116.59395 L165.32315,112.601763 C166.343983,114.497596 168.057525,116.320513 170.463775,118.070513 C170.7919,117.669471 171.211171,117.323117 171.721587,117.03145 C169.023671,115.682492 167.07315,113.841346 165.870025,111.508013 L165.870025,111.508013 L170.955962,111.508013 L170.955962,110.46895 L165.32315,110.46895 L165.32315,108.554888 C165.32315,108.409054 165.359608,108.263221 165.432525,108.117388 C165.468983,107.971554 165.377837,107.880408 165.159087,107.84395 L165.159087,107.84395 L164.174712,107.789263 C164.211171,108.080929 164.2294,108.536658 164.2294,109.15645 L164.2294,109.15645 L164.2294,110.46895 L158.487212,110.46895 L158.487212,111.508013 L163.627837,111.508013 C162.242421,114.060096 160.383046,115.9377 158.049712,117.140825 C158.450754,117.46895 158.76065,117.815304 158.9794,118.179888 C161.203358,116.648638 162.953358,114.789263 164.2294,112.601763 L164.2294,112.601763 L164.2294,116.59395 L161.659087,116.59395 L161.659087,117.633013 L164.2294,117.633013 L164.2294,120.258013 L165.32315,120.258013 Z" id="path-1"></path>
    </defs>
    <g id="页面-1" stroke="none" stroke-width="1" fill="none" fill-rule="evenodd">
        <g id="logo-(1)" transform="translate(-15.000000, -67.000000)" fill-rule="nonzero">
            <g id="编组" transform="translate(15.000000, 67.000000)" fill="#FEFEFE">
                <path d="M21.7,3.1 C21.7,3.1 21.7,3.1 21.7,3.1 C21.8,3.1 21.9,3.2 22,3.2 C22.2,3.4 22.4,3.6 22.7,3.8 C23,4 23.3,4.2 23.5,4.5 C23.6,4.6 23.8,4.8 23.8,5 C23.8,5.3 22.8,6.2 22.5,6.4 C22.3,6.5 22,6.6 21.7,6.7 C21.4,6.8 21.1,7.1 20.8,7.2 C20.4,7.4 20,7.6 19.6,7.9 C19.6,7.9 19.5,8 19.5,8 C19.5,8 19.5,8.1 19.6,8.1 C19.7,8.2 20,8.2 20.1,8.3 C20.6,8.3 21.1,8.4 21.6,8.1 C21.8,8 22,7.9 22.2,7.8 C22.4,7.7 22.7,7.8 22.9,7.8 C23.2,7.8 23.4,7.6 23.7,7.7 C24.1,7.7 24.5,7.9 24.7,8.2 C25.1,8.8 24.7,9.9 24.5,10.6 C24.5,10.7 24.6,10.8 24.6,10.8 C24.8,11 25,11.1 25.2,11.2 C25.5,11.4 26,11.8 26.2,12.2 C26.3,12.3 26.3,12.5 26.2,12.6 C26.1,12.9 25.4,13.6 25.1,13.8 C24.8,14 24.5,14 24.2,14.1 C23.9,14.2 23.7,14.3 23.4,14.5 C23.2,14.6 22.9,14.7 22.6,14.8 C22.5,14.9 22.2,15 22.2,15.1 C22.2,15.2 22.3,15.3 22.4,15.4 C22.5,15.5 22.6,15.7 22.8,15.8 C22.9,15.9 23.1,15.9 23.2,16 C23.7,16.2 24,16.4 24.2,16.8 C24.1,17 24,17.2 23.9,17.5 C23.8,17.8 24.3,18.2 24.2,18.8 C24.1,19.7 22.8,19.4 22.3,19.9 C21.9,20.3 22.3,20.9 22.4,21.4 C22.5,21.6 22.5,21.8 22.4,22 C22.8,22 23.3,22 23.7,22 C23.9,22 24.2,22 24.4,22 C24.7,22 24.9,21.8 25.1,21.7 C25.5,21.6 26,21.7 26.4,21.7 C26.7,21.7 26.9,21.6 27.2,21.6 C27.4,21.6 27.7,21.7 27.9,21.8 C28,21.9 28.1,22.1 28.2,22.2 C28.3,22.6 28,23.1 27.8,23.4 C27.6,23.7 27.2,23.9 26.8,24 C26.1,24.3 25.7,24.3 24.9,24.3 C24.7,24.3 24.4,24.3 24.2,24.3 C24,24.3 23.7,24.2 23.5,24.2 C23.1,24.1 22.8,24.2 22.4,24.2 C22.4,24.5 22.4,24.6 22.4,24.8 C22.4,25.1 22.5,25.3 22.5,25.6 C22.5,25.9 22.4,26.2 22.4,26.6 C22.4,26.9 22.4,27.2 22.4,27.5 C22.4,27.9 22.1,29.1 21.9,29.5 C21.8,29.8 21.5,30.2 21.3,30.4 C21.2,30.5 21,30.6 20.8,30.5 C20.2,30.4 19.4,29.4 19,29.1 C18.7,28.8 18.3,28.7 18,28.4 C17.9,28.3 17.2,27.6 17.2,27.6 C17.1,27.6 17.1,27.7 17,27.6 C17,27.6 16.9,27.5 16.9,27.5 L16.9,27.5 C16.9,27.5 16.9,27.6 16.9,27.6 C16.9,27.8 16.7,28 16.7,28.2 C16.6,28.6 16.5,29 16.4,29.3 C16.3,29.7 16.1,30 16.1,30.4 C16.1,30.5 16,30.7 16,30.8 C16,31.1 16,31.4 15.9,31.6 C15.9,31.6 15.9,31.6 15.9,31.6 C15.7,31.6 15,31.5 14.8,31.4 C14.7,31.3 14.6,31.2 14.5,31.1 C14.3,30.7 13.9,29.7 13.8,29.3 C13.7,28.9 13.7,26.5 13.8,26.1 C13.9,25.5 14.6,23.5 14.9,23 C14.6,23.1 14.3,23.2 14.1,23.3 C13.4,23.6 13.2,23.9 12.3,23.8 C12,23.8 11.7,23.7 11.6,23.5 C11.4,23.3 11.4,23 11.5,22.7 C11.6,22.2 12,21.5 12.3,21 C12.5,20.7 12.8,20.4 13.1,20.1 C13.5,19.7 13.9,19.2 14.4,18.9 C14.8,18.5 15.3,18.2 15.7,17.8 C15.9,17.6 16.1,17.4 16.4,17.2 C16.8,16.9 17.1,16.6 17.4,16.3 C17.6,16.1 17.9,15.9 18.2,15.7 C18.5,15.5 18.7,15.2 19,14.9 C19.3,14.7 19.6,14.6 19.8,14.3 C19.8,14.1 19.8,14 19.8,13.8 C18.9,13.8 19.1,13.9 18.4,14.1 C18.1,14.2 17.8,14.2 17.5,14.3 C17.1,14.5 16.7,14.7 16.3,14.9 C16,15 15.8,15.2 15.5,15.3 C15.1,15.4 14.8,15.4 14.4,15.7 C14,16 13.6,16.4 13.1,16.7 C12.8,16.9 12.5,17.2 12.2,17.4 C11.9,17.6 11.7,17.8 11.4,18 C11.1,18.3 10.8,18.5 10.6,18.8 C10.2,19.1 9.8,19.4 9.4,19.7 C8.9,20 8.4,19.8 7.9,20.2 C7.6,20.5 7.1,20.9 7,21.2 C6.7,21.9 7.1,22 6.4,22.7 C6.1,22.7 5.9,22.7 5.6,22.6 C5.3,22.6 5.1,22.6 4.8,22.6 C4.4,22.5 4.1,22.4 3.6,22.5 C2.9,22.5 2,22.9 1.3,22.6 C1,22.5 0.7,22.2 0.6,21.9 C0.5,21.7 0.6,21.6 0.6,21.4 C0.9,20.8 1.8,20.3 2.3,20 C2.6,19.8 3,19.7 3.3,19.6 C3.9,19.5 4.7,19.7 5.3,19.4 C5.6,19.2 5.9,19 6.2,18.8 C6.7,18.5 7.2,18.3 7.6,18 C7.8,17.8 8,17.6 8.3,17.5 C8.5,17.4 8.8,17.3 9,17.1 L10.7,16.2 C11,16.1 11.2,15.9 11.4,15.8 C11.6,15.7 11.8,15.6 12.1,15.5 C12.5,15.3 12.9,15 13.3,14.8 C13.6,14.7 13.9,14.6 14.1,14.5 C14.3,14.4 14.5,14.2 14.8,14 C15.1,13.9 15.4,13.9 15.6,13.7 C15.8,13.6 15.9,13.5 16.1,13.4 C16.3,13.3 16.4,13.3 16.6,13.3 C16.9,13.2 17.1,13 17.3,12.8 C17.7,12.6 18.1,12.4 18.4,12.1 C18.6,11.9 18.8,11.7 18.9,11.5 C19,11.3 19.2,11.2 19.3,11 C19.4,10.9 19.3,10.7 19.3,10.6 C19.2,10.4 19.3,10.3 19.4,10.2 C19,10.3 18.7,10.3 18.4,10.6 C18.3,10.7 18.2,10.8 18,10.9 C17.8,11 17.5,11.1 17.3,11.2 C16.9,11.4 16.5,11.7 16.2,11.9 C15.7,12.3 15.3,12.9 14.8,13.3 C14.6,13.5 14.3,13.5 14.1,13.7 C13.9,13.8 13.8,14 13.6,14.2 C13.5,14.3 13.3,14.4 13.1,14.4 C12.7,14.3 12.4,13.9 12.2,13.6 C12.1,13.4 12,13.1 11.8,13 C11.6,12.8 11.3,12.7 11,12.7 C11,12.6 11,12.4 11,12.3 C11,12.3 11,12.3 11,12.3 C10.9,12.1 10.8,12 10.7,11.9 C11.2,10.9 11.4,11.4 12,11 C12.3,10.8 12.6,10.4 12.9,10.2 C13.2,10 13.4,10 13.7,9.8 C14,9.7 14.2,9.5 14.4,9.3 C14.4,9.2 14.4,9 14.4,8.9 C14.1,9 14,9 13.8,9 C13.4,9 13.1,9 12.7,8.9 C12.4,8.8 12.1,8.6 12,8.3 C12.1,8 12.4,7.7 12.7,7.5 C12.9,7.4 13.2,7.3 13.5,7.3 C14.3,7 15.3,6.8 16,6.4 C16.4,6.2 16.8,5.9 17.3,5.7 C18,5.3 18.6,5.1 19.3,4.7 L21.2,3.6 C21.3,3.4 21.5,3.2 21.7,3.1 Z M17.8,26.1 L19.1,26.1 C19.1,25.6 19.3,25.4 19.4,25 C19.5,24.7 19.5,24.4 19.6,24.1 C19.6,23.9 19.6,23.6 19.6,23.4 C19.6,23.2 19.8,22.3 19.7,22.1 C19.6,22.1 19.6,22.1 19.6,22.1 C19.4,22.3 19,22.9 18.9,23.1 C18.8,23.3 18.8,23.4 18.7,23.6 C18.6,23.8 18.5,24 18.4,24.1 C18.3,24.3 18.2,24.6 18.1,24.8 C17.9,25.2 17.6,25.6 17.6,26 C17.7,26.1 17.7,26.1 17.8,26.1 Z M9.1,17.6 C8.9,17.7 8.2,17.9 8.1,18.2 C8.1,18.2 8.1,18.2 8.1,18.2 C8.2,18.2 8.2,18.2 8.3,18.2 C8.4,18.2 8.4,18.2 8.5,18.2 C8.7,18.1 9.1,18 9.2,17.8 C9.2,17.7 9.2,17.6 9.1,17.6 C9.2,17.6 9.1,17.6 9.1,17.6 Z M19.7,17.3 C19.3,17.4 18.8,17.5 18.6,17.9 C18.6,18 18.5,18 18.5,18.1 C18.6,18.3 18.6,18.4 18.8,18.5 C19.1,18.5 19.5,18.1 19.7,17.9 C19.8,17.8 19.9,17.6 20,17.5 C19.9,17.4 19.8,17.3 19.7,17.3 L19.7,17.3 Z M11.5,17.3 C11.4,17.3 11.3,17.3 11.2,17.3 C10.8,17.4 10.3,17.5 9.9,17.7 C9.6,17.8 9.5,18.1 9.2,18.3 C8.8,18.6 8.1,18.6 7.8,19.1 C7.7,19.3 7.9,19.8 7.9,20 L8.4,20 C8.6,20 9.3,19.6 9.4,19.5 C9.4,19.5 9.4,19.4 9.5,19.4 L9.5,19.4 C9.4,19.4 9.3,19.4 9.3,19.5 C9.3,19.5 9.3,19.4 9.3,19.3 C9.4,18.9 9.8,18.6 10.1,18.4 C10.5,18.2 10.9,17.9 11.3,17.6 C11.4,17.5 11.4,17.4 11.5,17.3 Z" id="形状"></path>
                <path d="M33,1.5 C33.4,1.7 33.8,1.8 34.1,2 C34.3,2.1 34.5,2.2 34.7,2.3 C35.2,2.5 35.7,2.3 36.2,2.8 C36.5,3.1 36.5,3.6 36.5,4 C36.5,4.7 36.2,5 35.7,5.4 C35.5,5.5 35.3,5.6 35.2,5.7 C34.8,6 34.5,6.3 34.1,6.5 C33.9,6.6 33.7,6.6 33.5,6.8 C33.2,7 32.9,7.3 32.7,7.6 C32.3,8 31.9,8.6 31.6,9.1 C31.4,9.3 31.3,9.6 31.1,9.8 C30.5,10.7 30.5,11.4 30.5,12.4 C31,12.3 31.4,12.1 31.8,11.9 C32,11.8 32.2,11.8 32.3,11.7 C32.5,11.6 32.7,11.5 32.8,11.3 C33.1,11.1 33.5,10.9 33.8,10.7 C34.1,10.6 34.4,10.5 34.7,10.4 C35.1,10.2 35.5,9.9 36,9.8 C36.3,9.7 36.6,9.7 36.8,9.6 C36.9,9.5 37,9.4 37.1,9.4 C37.3,9.2 37.6,9.2 37.8,9.2 C38,9.1 38.3,9 38.5,9 C38.8,8.9 39.1,9 39.4,9 C39.6,9 39.8,8.9 40.1,8.9 C40.4,8.9 40.7,8.9 41,8.9 C41.4,8.9 41.8,8.8 42.2,8.9 C42.5,8.9 42.7,9.1 42.8,9.3 C43,9.6 43,9.9 43,10.2 C43,10.4 42.9,10.5 42.8,10.6 C42.6,10.9 42.3,11.2 42,11.4 C41.4,12 40.8,12.6 40.2,13.2 C39.8,13.7 39.8,14.1 39.2,14.5 C38.8,14.4 38.4,13.8 37.9,13.5 C37.8,13.5 37.7,13.4 37.6,13.4 C37.4,13.4 37.3,13.4 37.1,13.4 C36.8,13.4 36.5,13.6 36.3,13.7 C36,13.8 35.6,13.7 35.3,13.8 C35.1,13.9 34.9,14.1 34.8,14.2 C34.6,14.3 34.4,14.5 34.2,14.6 C33.9,14.8 33.6,15.1 33.3,15.4 C33.1,15.6 32.9,15.7 32.6,15.9 C32,16.4 30.4,18 30.4,18.7 C30.4,19 30.5,19.2 30.5,19.5 C30.5,19.9 30.5,20.3 30.5,20.7 C30.5,21.1 30.5,21.6 30.5,22 C30.5,22.2 30.4,22.4 30.2,22.5 C30.1,22.6 29.9,22.6 29.8,22.6 C29.2,22.4 28.1,20.8 27.8,20.3 C27.7,20.1 27.7,19.8 27.5,19.5 C27.4,19.3 27.1,19.2 27,19.1 C27,18.8 27.3,18.7 27.3,18.5 C27.3,18.3 27.2,18.1 27.2,17.9 C27.2,17.6 27.2,17.4 27.1,17.1 C27.1,16.8 27,16.5 27,16.2 C27,15.8 27,15.5 27,15.1 C27,14.8 27,14.4 27,14.1 C27.1,13.6 27.2,13.2 27.3,12.7 C27.3,12.4 27.3,12.1 27.4,11.8 C27.6,11.2 27.9,10.7 28.1,10.1 C28.2,9.9 28.3,9.6 28.4,9.4 C28.5,9.1 28.7,8.8 28.9,8.5 C29,8.3 29.2,8.1 29.3,7.8 C29.4,7.6 29.5,7.3 29.7,7.1 C29.9,6.9 30.1,6.7 30.2,6.5 C30.4,6.3 30.5,6.1 30.7,5.9 C31.1,5.4 31.7,5 32.1,4.5 C32.5,4 32.9,3.4 33.1,2.8 C33.2,2.1 32.9,1.8 33,1.5 Z" id="路径"></path>
                <path d="M37.6,15 C37.7,15 37.9,15 38,15.1 C38.3,15.2 38.5,15.3 38.7,15.6 C38.9,15.9 39,16.4 39.1,16.7 C39.1,16.9 39.1,17.2 39.2,17.4 C39.2,17.7 39.3,17.9 39.3,18.2 C39.3,18.6 39.3,19 39.3,19.4 C39.3,19.8 39.5,20.1 39.6,20.5 C39.6,20.8 39.6,21 39.7,21.3 C39.7,21.5 39.8,21.7 39.8,21.9 C39.8,22.3 39.8,22.6 39.8,23 C39.9,23.5 40.1,23.8 40.2,24.3 C40.3,24.5 40.2,24.8 40.3,25 C40.4,25.5 40.5,26.1 40.6,26.6 C40.6,27 40.6,27.3 40.6,27.7 C40.6,28.1 40.6,28.4 40.6,28.8 C40.5,29.7 40.1,30.5 39.8,31.3 C39.7,31.5 39.7,31.8 39.6,32 C39.5,32.4 38.8,33.2 38.5,33.5 C38.2,33.9 38,34.3 37.8,34.7 C37.3,35.4 35.9,36.5 35.2,36.8 C34.8,37 34.1,37 33.7,36.9 C33.5,36.8 33.4,36.7 33.2,36.6 C33,36.5 32.5,36.2 32.4,36 C32.3,35.6 33.2,34.7 33.5,34.5 C33.9,34.2 34.4,33.9 34.8,33.5 C35,33.3 35.1,33 35.3,32.8 C35.6,32.4 35.9,32.1 36.2,31.7 C36.4,31.3 36.6,30.9 36.8,30.5 C36.9,30.2 37.1,29.9 37.2,29.6 C37.3,29.3 37.4,28.9 37.4,28.6 C37.4,28.4 37.4,28.1 37.4,27.9 L37.4,26.7 C37.4,26.2 37.4,25.7 37.4,25.2 C37.4,24.9 37.2,24.7 37.2,24.4 C37,23.9 37,23.6 37,23.4 C36.9,23.1 36.9,22.8 36.8,22.5 C36.7,22.2 36.7,21.9 36.7,21.6 C36.7,21.3 36.8,21 36.7,20.8 C36.7,20.6 36.6,20.3 36.5,20.1 C36.5,19.9 36.5,19.7 36.4,19.6 C36.4,19.4 36.3,19.3 36.3,19.1 C36.2,18.9 36.2,18.7 36.2,18.5 C36.1,18.1 35.9,17.8 35.8,17.4 C35.7,17.2 35.7,17 35.7,16.8 C35.6,16.4 35.5,16 35.7,15.6 C36,15.1 36.5,15.2 37,15.1 C37.2,15.1 37.4,15 37.6,15 Z" id="路径"></path>
                <path d="M16.8,0.7 C17.4,0.7 18.2,0.6 18.7,0.8 C19.3,0.9 19.6,1.1 19.9,1.6 C19.9,1.8 19.9,1.9 19.9,2 C19.6,2.5 18.9,3.2 18.5,3.5 C18.3,3.6 18.2,3.7 18,3.7 C17.6,3.4 17.4,2.9 17.1,2.6 C16.9,2.3 16.5,2.2 16.2,2 C16,1.9 15.6,1.7 15.5,1.5 C15.5,1.4 15.5,1.4 15.5,1.4 C15.7,1.1 16.5,0.7 16.8,0.7 Z" id="路径"></path>
            </g>
            <g id="编组" transform="translate(65.000000, 69.000000)" fill="#FEFEFE">
                <path d="M16,11.2 C16.2,11.3 16.4,11.4 16.5,11.5 C16.8,11.8 16.6,12.2 16.6,12.6 C16.7,12.7 16.8,12.8 16.8,12.9 C16.8,13 16.8,13 16.8,13.1 C16.8,13.1 16.7,13 16.6,12.9 C16.5,12.9 16.5,12.9 16.4,12.9 C16.3,13 16.3,13.4 16.3,13.5 C16.3,13.9 16.2,14.3 16.1,14.7 C16,15 15.9,15.3 15.9,15.6 C16.1,15.6 16.2,15.6 16.4,15.6 C16.6,15.6 16.7,15.5 16.9,15.4 C17.1,15.3 17.3,15.3 17.5,15.2 C17.7,15.1 17.8,15 18,15 C18.2,14.9 18.4,14.8 18.6,14.7 C18.8,14.6 19,14.5 19.2,14.4 C19.5,14.3 19.9,14.2 20.2,14.1 C20.4,14 20.6,13.9 20.9,13.8 C21.1,13.8 21.3,13.8 21.4,13.8 C22,13.7 22.6,13.5 23.3,13.4 C23.7,13.3 24.1,13.1 24.4,13 C24.5,13 24.7,13 24.8,13 C25.2,13 25.5,13.1 25.8,13.1 C26,13.1 26.2,13.1 26.4,13.2 C26.5,13.3 26.7,13.4 26.8,13.5 C27.1,13.8 27.6,14.7 27.7,15.1 C27.8,15.5 27.8,16.5 27.7,16.9 C27.6,17.3 27.5,17.7 27.5,18.1 C27.5,18.3 27.5,18.6 27.5,18.8 C27.5,19 27.4,19.2 27.4,19.5 C27.4,19.9 27.4,20.6 27.4,21.1 C27.4,21.5 27.5,21.8 27.5,22.2 C27.5,22.6 27.3,22.8 27.2,23.2 C27.1,23.4 27.1,23.7 27,23.9 C26.9,24.1 26.8,24.2 26.7,24.4 C26.6,24.6 26.5,24.7 26.5,24.9 C26.4,25 26.3,25.2 26.3,25.3 C26.2,25.5 26.2,25.7 26.1,25.9 C26,26.3 25.8,26.7 25.6,27.1 C25.5,27.3 25.3,27.5 25.1,27.8 C25,28 24.9,28.2 24.8,28.3 C24.6,28.6 24.2,28.9 23.9,29.2 C23.7,29.3 23.5,29.5 23.4,29.6 C23.2,29.7 23.1,29.9 22.9,30 C22.7,30.2 22.4,30.3 22.2,30.5 C22,30.6 21.9,30.8 21.7,31 C21.5,31.1 21.3,31.2 21,31.2 C20.2,31.5 19.6,31.7 18.8,31.9 C18.6,31.9 18.3,32 18.1,32 C17.8,32 17.6,32 17.3,32 C17.1,32 16.8,32 16.6,32 C16.3,32 16.1,31.9 15.9,31.8 C15.7,31.7 15.5,31.7 15.3,31.6 C14.9,31.4 14.6,31 14.3,30.7 C14.2,30.6 14.1,30.5 14,30.4 C14,30.4 13.9,30.3 13.9,30.3 C13.9,30.3 13.9,30.2 14,30.2 C14.2,30.2 14.6,30.5 14.8,30.6 C15.2,30.8 15.9,31.2 16.3,31.3 C16.5,31.3 16.7,31.3 16.8,31.4 C17.7,31.5 17.8,31.3 18.6,31 C18.9,30.9 19.1,30.9 19.4,30.8 C19.6,30.7 19.9,30.4 20.1,30.3 C20.5,30 21,29.8 21.4,29.5 C21.6,29.3 21.7,29 21.9,28.8 C22.2,28.4 22.6,28.1 22.9,27.8 C23.2,27.4 23.3,26.9 23.5,26.5 C23.6,26.2 23.7,25.9 23.8,25.6 C23.9,25.3 23.9,25 24,24.8 C24.2,24.3 24.5,23.9 24.7,23.4 C24.8,22.9 24.7,22.4 24.8,21.9 C24.8,21.5 25,21.1 25,20.7 C25,20.5 25,20.3 25.1,20.1 C25.1,19.9 25.2,19.7 25.2,19.5 C25.2,19.3 25.2,19.1 25.1,19 C25,18.5 25,18.1 24.9,17.7 C24.7,17.4 24.4,17.1 24.2,16.9 C24,16.7 23.9,16.5 23.8,16.3 C23.4,16.3 23.1,16.3 22.7,16.4 C22.2,16.5 21.8,16.8 21.3,16.9 C20.7,17 20,17 19.4,17.2 C19,17.3 18.6,17.6 18.2,17.8 C17.9,17.9 17.7,18 17.4,18.1 C16.9,18.3 16.5,18.5 16,18.7 C15.7,18.8 15.4,18.9 15.1,19.1 C14.8,19.2 14.6,19.4 14.3,19.6 C13.9,19.8 13.5,20 13.1,20.2 C12.8,20.3 12.6,20.5 12.3,20.6 C12.2,20.6 12.1,20.6 12,20.6 C11.8,20.5 11.6,20.4 11.5,20.2 C11.3,19.9 11.4,19.5 11.4,19.2 C11.5,18.9 12,17.9 12.2,17.6 C12.3,17.4 12.4,17.3 12.5,17.2 C12.6,17 12.7,16.8 12.9,16.6 C13.1,16.4 13.3,16.3 13.5,16.1 C13.7,15.9 14,15.7 14.2,15.5 C14.3,15.4 14.4,15.3 14.5,15.1 C14.8,14.8 15.1,14.4 15.3,14.1 C15.6,13.6 15.5,13.3 15.6,12.8 C15.8,11.7 16,11.5 16,11.2 Z" id="路径"></path>
                <path d="M11.5,13.7 L11.5,13.7 C11.5,14.2 11.2,14.5 11.1,14.9 C11,15.1 10.9,15.3 10.9,15.5 C10.9,15.6 10.8,15.8 10.8,15.9 C10.7,16.1 10.6,16.2 10.6,16.4 C10.5,16.6 10.6,16.9 10.6,17.1 C10.6,17.5 10.5,17.9 10.4,18.3 C10.2,18.8 10,19.1 9.6,19.5 C9.4,19.8 9,20.2 8.9,20.5 C8.7,21.1 8.9,21.7 8.7,22.3 C8.6,22.6 8.5,22.9 8.4,23.2 C8.3,23.5 8.2,23.8 8,24.1 C7.9,24.3 7.8,24.5 7.7,24.7 C7.6,24.9 7.5,25.1 7.5,25.3 C7.4,25.6 7.3,25.8 7.2,26.1 C7.2,26.3 7.2,26.4 7.2,26.6 C7.4,26.9 7.7,27 7.8,27.2 C7.9,27.5 7.9,27.9 7.8,28.1 C7.6,28.6 7.4,29.1 7.2,29.7 C7.1,29.9 7,30.1 6.9,30.3 C6.7,30.5 6.5,30.6 6.4,30.8 C6.3,31 6.1,31.2 5.9,31.3 C5.6,31.4 5,31.3 4.8,31.2 C4.5,31.1 4.2,30.8 4,30.5 C3.9,30.2 3.8,29.7 4,29.4 C4.1,29.3 4.1,29.1 4.2,29 C4.3,28.8 4.3,28.5 4.4,28.3 C4.5,28.1 4.6,28 4.7,27.8 C4.9,27.5 5.1,27.1 5.2,26.7 C5.3,26.4 5.3,26.2 5.4,25.9 C5.4,25.8 5.5,25.6 5.5,25.5 C5.6,25.2 5.6,24 5.5,23.7 L5.5,23.7 C5.5,23.7 5.5,23.7 5.5,23.6 C5.4,23.5 5.3,23.5 5.2,23.4 C5,23.3 4.7,23.3 4.5,23.2 C4.2,23.1 4,22.9 3.7,22.9 C3.5,22.9 3.2,22.9 3,22.9 C2.6,22.9 2,22.9 1.7,22.6 C1.6,22.5 1.4,22.4 1.3,22.3 C1,22 0.7,21.6 0.7,21.1 C0.7,20.6 1.1,19.6 1.4,19.2 C1.6,18.9 1.9,18.7 2.1,18.4 C2.4,18.1 2.6,17.7 2.8,17.3 C3,17 3.4,16.7 3.6,16.4 C3.8,16.2 3.9,16.1 4,15.9 C4.2,15.7 4.5,15.6 4.7,15.4 L4.9,15.5 C4.8,15.7 4.6,15.8 4.5,16 C4.2,16.5 4.5,17.1 4.5,17.7 C4.5,18.1 4.2,18.5 4.1,19 C4.1,19.2 4.1,19.3 4.2,19.5 C4.6,20 5.4,19.8 5.9,19.9 C6.1,19.9 6.3,20 6.6,20 C6.8,20 7.2,20.1 7.4,20 C7.6,19.9 7.8,19.7 7.9,19.6 C8.1,19.4 8.3,19.2 8.4,19 C8.5,18.9 8.6,18.7 8.7,18.5 L9.3,17.5 C9.4,17.3 9.6,17.1 9.7,16.8 C9.8,16.6 9.9,16.4 10,16.2 C10.1,16 10.4,15.8 10.5,15.6 C10.7,15.2 10.7,14.8 10.9,14.4 C11,14.2 11.2,14.1 11.2,14 C11.3,14.1 11.3,13.9 11.5,13.7 C11.5,13.8 11.5,13.8 11.5,13.7 Z" id="路径"></path>
                <path d="M6.2,0.2 C6.8,0.3 7.4,0.9 7.8,1.3 C8,1.5 8.1,1.8 8.3,2 C8.4,2.2 8.5,2.3 8.6,2.5 C9,3.1 9,3.7 9,4.4 C9,4.7 8.9,5.5 8.7,5.8 C8.5,6.3 7.6,7 7.1,7.2 C6.8,7.3 6.5,7.2 6.2,7.5 C5.9,7.8 5.7,8.3 5.7,8.8 C6,8.9 6.3,9.1 6.5,9.3 C6.6,9.4 6.7,9.6 6.9,9.7 C7.1,9.8 7.3,9.9 7.4,10.1 C7.8,10.3 8.1,10.7 8.3,11.1 C8.4,11.3 8.9,12 8.8,12.2 C8.8,12.4 8.6,12.5 8.5,12.6 C8.2,12.9 7.8,13 7.5,13.2 C7,13.6 6.5,14.1 5.9,14.4 C5.7,14.5 5.5,14.6 5.4,14.7 C5.5,14.5 5.6,14.3 5.7,14.2 C6,13.7 6.3,13.5 6.5,12.9 C6.1,12.9 5.8,12.9 5.4,12.9 C5.1,12.9 4.7,12.8 4.4,12.7 C4.1,12.6 3.8,12.6 3.6,12.5 C3.5,12.5 3.4,12.4 3.2,12.3 C2.7,12 1.9,11.4 1.8,10.8 C1.8,10.6 1.8,10.3 1.9,10.1 C2,9.9 2.2,9.7 2.4,9.4 C2.6,9.1 2.9,8.8 3.1,8.5 C3.4,8.2 3.6,7.8 3.9,7.5 C4.1,7.3 4.4,7.3 4.7,7.1 C4.9,6.9 6,5.9 6.2,5.7 C6.3,5.6 6.3,5.4 6.4,5.3 C6.5,5.1 6.6,4.9 6.6,4.7 C6.7,4.3 6.7,3.2 6.6,2.8 C6.6,2.5 6.4,2.3 6.4,2 C6.4,1.6 6.4,1.3 6.4,0.9 C6.3,0.7 6.1,0.4 6.2,0.2 Z" id="路径"></path>
                <path d="M20.5,2.9 C20.9,2.9 21.3,3 21.7,3.1 C22,3.2 22.4,3.3 22.5,3.6 C22.6,3.8 22.6,4.1 22.6,4.3 C22.5,4.6 22.3,4.9 22,5.1 C21.3,5.5 20.8,5.4 20.1,5.3 C19.6,5.5 18.9,6.4 18.6,6.8 C18.5,7 18.4,7.2 18.3,7.4 C18.1,7.7 17.9,7.9 17.7,8.2 C17.4,8.6 17.3,9.1 16.8,9.4 C16.7,9.4 16.7,9.5 16.6,9.5 C16.6,9.4 16.6,9.4 16.6,9.3 C16.7,9.1 16.7,8.9 16.7,8.7 C16.7,8.5 16.7,8.3 16.7,8.1 C16.8,7.8 16.9,7.6 16.9,7.3 C16.9,7 16.8,6.7 16.8,6.4 C16.7,6.4 16.5,6.4 16.4,6.5 C16.1,6.6 15.6,6.9 15.3,7.1 C15,7.3 14.8,7.6 14.5,7.8 C14.2,8.1 14.1,8.3 14.1,8.7 C13.9,8.6 13.7,8.6 13.5,8.6 C13.3,8.9 13.1,9.1 13,9.4 C12.9,9.5 12.8,9.7 12.7,9.8 C12.5,10.1 12.5,10.5 12.3,10.8 C12.3,10.8 12.3,10.8 12.2,10.8 L12.2,10.8 C12.2,10.7 12.2,10.6 12.3,10.5 C12.3,10.5 12.3,10.4 12.3,10.4 L12.3,10.4 C12.3,10.4 12.2,10.4 12.2,10.4 C12.1,10.4 12.1,10.4 12.1,10.4 C12.1,10.4 12,10.3 12,10.2 C12,9.8 12.5,9.4 12.8,9.1 C13,8.9 13.4,8.5 13.5,8.3 C13.6,8 13.7,7.8 13.8,7.5 C13.8,7.4 13.9,7.2 14,7.1 C14.2,6.5 14.5,6.1 14.9,5.6 C15.2,5.3 15.5,4.9 15.9,4.7 C16.6,4.3 17.1,4.3 17.8,4 C18,3.9 18.3,3.8 18.5,3.6 C18.7,3.5 18.9,3.4 19.1,3.4 C19.2,3.3 19.4,3.2 19.5,3.2 C19.8,3 20.2,2.9 20.5,2.9 Z" id="路径"></path>
                <path d="M15.2,20.7 C15.7,20.7 16.7,20.6 17.2,20.7 C17.4,20.7 17.7,20.8 17.9,20.9 C18.6,21.2 19.1,21.6 19.6,22.1 C19.8,22.2 19.9,22.3 20.1,22.5 C20.2,22.6 20.3,22.8 20.3,22.9 C20.4,23.2 20.5,24.1 20.3,24.4 C20.2,24.6 20.1,24.7 20,24.8 C19.6,25.2 19.1,25.5 18.6,25.7 C18.6,25.7 18.6,25.7 18.5,25.7 C18,25.8 17.9,25.2 17.8,24.9 C17.7,24.7 17.6,24.6 17.5,24.4 C17.4,24.1 17.4,23.8 17.2,23.6 C16.9,23.3 16.5,23.1 16.1,22.9 C15.7,22.7 15.5,22.3 15.1,22.2 C14.9,22.1 14.6,22 14.3,22 C14,21.9 13.7,21.7 13.5,21.5 C13.5,21.5 13.4,21.4 13.4,21.4 C13.4,21.3 13.4,21.3 13.5,21.3 C13.7,20.9 14.9,20.7 15.2,20.7 Z" id="路径"></path>
            </g>
            <path d="M120,68 C120.2,68 120.4,68.1 120.6,68.1 C120.8,68.1 120.9,68.1 121.1,68.1 C121.2,68.1 121.2,68.1 121.3,68.2 C121.5,68.3 121.7,68.5 121.8,68.7 C121.9,68.9 121.9,69.2 121.8,69.4 C121.6,69.8 121.1,70.3 120.7,70.6 C120.5,70.7 120.3,70.8 120.2,70.9 C120,71 119.9,71.2 119.6,71.3 C119.4,71.2 119.2,71 119,71 C118.8,70.9 117.3,71 117,71 C116.7,71 116.5,71 116.4,71.2 C116.2,71.4 116.1,71.6 116.1,71.9 C116.1,72.1 116.1,72.4 116.1,72.7 C116.1,72.9 116.2,73.1 116.2,73.3 C116.2,73.6 116.2,74 116.2,74.3 C116.2,74.7 116.2,75.1 116.2,75.5 C116.2,75.9 116,76.4 116,76.9 C116,77.1 116,77.4 116,77.6 C115.9,77.9 115.8,78.1 115.8,78.4 C115.8,78.7 115.8,79 115.8,79.3 C115.8,79.7 115.8,80 115.8,80.4 C115.8,80.6 115.9,80.8 115.9,81 C115.9,81.2 115.9,81.5 115.9,81.7 C115.9,81.9 116,82.1 116,82.3 C116,82.6 116,83 116,83.3 C116.1,83.8 116.2,84.2 116.2,84.7 C116.2,84.9 116.3,85.2 116.3,85.4 L116.3,85.4 C116.6,85.3 116.9,85.1 117,84.7 C117.1,84.6 117.1,84.4 117.2,84.3 C117.4,83.9 117.7,83.6 117.9,83.2 C118,83 118.1,82.7 118.3,82.4 C118.5,82.1 118.8,81.9 119.1,81.6 C119.3,81.4 119.4,81.2 119.6,81 C119.8,80.8 120,80.6 120.1,80.4 C120.3,80.2 120.5,79.9 120.8,79.7 C121.1,79.5 121.4,79.3 121.7,79 C122,78.8 122.2,78.5 122.5,78.2 C122.7,78 123,77.9 123.3,77.7 C123.5,77.5 123.7,77.3 123.9,77.1 C124,77 124.1,76.8 124.3,76.7 C124.5,76.4 124.8,76.2 125.1,75.9 C125.3,75.7 125.5,75.4 125.6,75.2 C125.7,75 125.9,74.8 126,74.6 C126.1,74.5 126.3,73.8 126.2,73.7 C126.2,73.7 126.2,73.6 126.1,73.6 C126,73.5 125.4,73.7 125.2,73.7 C124.9,73.8 124.7,74 124.4,74.1 C124.2,74.2 124,74.3 123.9,74.4 C123.7,74.5 123.7,74.8 123.5,75 C123.4,75.1 123.2,75.2 123.1,75.4 L122.2,76.3 C122.1,76.4 121.9,76.6 121.8,76.8 C121.6,77 121.3,77.1 121.1,77.3 C121,77.5 120.9,77.8 120.8,78 C120.7,78.3 120.5,78.5 120.4,78.7 C120.3,78.9 120.3,79.1 120.2,79.3 C120.1,79.6 119.7,79.9 119.4,80.1 C119.3,80.1 119.2,80.2 119.1,80.2 C119.1,80.2 119,80.1 119,80.1 C118.6,79.8 118.1,78.9 118,78.5 C118,78.4 118,78.3 118,78.2 C118,77.9 118.1,77.7 118.1,77.4 C118.1,77.2 118.1,77 118.1,76.7 C118.2,76.3 118.3,75.9 118.5,75.6 C118.6,75.4 118.6,75.2 118.7,75.1 C118.8,75 118.8,74.8 119,74.7 C119.4,74.3 119.8,74.9 120.3,74.9 C120.4,74.9 120.4,74.9 120.5,74.9 C120.6,74.9 120.8,74.8 120.9,74.8 C121.1,74.7 121.3,74.7 121.5,74.6 C121.7,74.5 121.8,74.4 122,74.3 C122.2,74.2 122.4,74.2 122.6,74.1 C122.8,74 123,73.8 123.2,73.7 C123.4,73.6 123.7,73.6 123.9,73.5 C124.1,73.4 124.4,73.3 124.6,73.2 C125,73 125.3,72.8 125.7,72.7 C126,72.6 126.2,72.7 126.5,72.6 C126.8,72.5 126.8,72.4 127.1,72.4 C127.3,72.4 127.5,72.5 127.7,72.5 C127.8,72.5 127.9,72.5 128.1,72.5 C128.3,72.5 128.5,72.7 128.7,72.9 C129.1,73.3 129.3,74 129.3,74.5 C129.3,74.8 129.2,75 129.1,75.3 C129.1,75.4 129.1,75.6 129,75.7 C129,76 128.9,76.2 128.7,76.4 C128.6,76.5 128.5,76.7 128.4,76.8 C128.3,77 128.2,77.1 128.1,77.3 C128,77.4 127.9,77.6 127.8,77.7 C127.7,77.8 127.6,78 127.5,78.2 C127.3,78.4 127.1,78.6 126.9,78.8 C126.7,79 126.5,79.3 126.2,79.5 C126,79.6 125.8,79.7 125.6,79.9 C125.3,80.1 125.1,80.3 124.9,80.5 C124.7,80.6 124.6,80.7 124.4,80.8 C124.2,80.9 124.1,81.1 123.9,81.2 C123.7,81.4 123.4,81.5 123.2,81.7 C123,81.9 122.8,82.1 122.6,82.3 C122.4,82.5 122.3,82.6 122.1,82.8 C122,82.9 121.9,83.1 121.9,83.3 C121.8,83.6 121.8,83.9 121.6,84.1 C121.5,84.3 121.3,84.4 121.2,84.6 C121,84.9 120.8,85.3 120.6,85.6 C120.6,85.7 120.5,85.8 120.5,85.9 C120.5,86 120.5,86.2 120.5,86.3 C120.4,86.7 120.3,87.1 120.3,87.5 C120.3,87.6 120.3,87.8 120.3,87.9 C120.3,88.1 120.2,88.3 120.2,88.4 C120.2,88.8 120.2,89.3 120.2,89.7 C120.2,89.7 120.2,89.7 120.3,89.7 C120.5,89.7 120.6,89.6 120.8,89.6 C121.1,89.6 121.3,89.5 121.6,89.5 C121.9,89.5 122.2,89.5 122.4,89.5 C122.6,89.5 122.8,89.5 123,89.5 C123.3,89.6 123.8,90.2 123.9,90.4 C123.8,90.7 123.7,91.1 123.7,91.5 C123.7,91.8 123.7,92 123.7,92.3 C123.7,92.5 123.6,92.7 123.5,92.9 C123.5,93 123.4,93.2 123.4,93.3 C123.4,93.4 123.4,93.6 123.4,93.7 C123.4,94 123.3,94.4 123.2,94.7 C123.2,94.9 123.1,95 123.1,95.2 C122.9,95.7 122.6,95.5 122.2,95.7 C122,95.8 121.6,96.3 121.5,96.5 C121.4,96.9 121.9,97.2 122.3,97.4 C122.6,97.5 122.9,97.5 123.1,97.7 C123.4,97.9 124,98.4 124.2,98.7 C124.4,99 124.6,99.6 124.5,99.9 C124.4,100.2 124.1,100.3 123.8,100.4 C123.7,100.4 123.5,100.4 123.4,100.5 C123.2,100.6 123.1,100.7 123,100.8 C122.6,101 122.1,100.7 121.6,100.6 C121.3,100.7 121.2,100.9 120.9,101 C120.4,101.1 120,100.6 119.5,100.8 C119.3,100.9 119.2,101.2 119,101.3 C118.9,101.4 118.7,101.5 118.5,101.6 C118.3,101.7 118.1,101.9 117.9,102 C117.8,102.1 117.5,102.2 117.3,102.1 C117.3,102.1 117.3,102.1 117.3,102.1 C117.2,102.1 117.2,102 117.1,102 C117,101.9 117,101.8 117,101.8 C117,101.7 117,101.7 117.1,101.6 C117.2,101.4 117.5,101.4 117.6,101.2 C117.8,101 118.1,100.9 118.3,100.7 C118.6,100.5 118.9,100.3 119.2,100.2 C119.3,100.1 119.5,100.1 119.6,100.1 C119.9,100 120.4,99.8 120.6,99.6 C120.7,99.5 120.7,99.3 120.7,99.1 C120.2,99.1 119.7,99.1 119.3,99.1 C119,99.1 118.8,99.3 118.5,99.3 C118,99.4 117.8,99.3 117.3,99.5 C117.1,99.6 116.8,99.6 116.5,99.7 C116.3,99.6 116,99.4 115.9,99.2 C115.6,98.9 115.8,98.4 115.9,98 C115.9,97.9 115.9,97.7 115.9,97.6 C115.9,97.2 116.2,97 116.5,96.9 C116.6,96.9 116.8,96.8 116.9,96.8 C117,96.8 117.7,96.4 117.7,96.3 C117.7,96.3 117.7,96.2 117.7,96.2 L117.7,96.2 C117.3,96.1 116.8,96.5 116.4,96.5 C116.1,96.5 115.8,96.5 115.5,96.5 C115.3,96.5 115.1,96.5 114.9,96.5 C114.8,96.5 114.7,96.5 114.7,96.4 C114.5,96.2 114.5,95.8 114.5,95.6 C114.5,95.2 114.5,94.7 114.5,94.3 C114.5,93.1 114.6,92.8 115.6,92.1 C115.9,91.9 116.2,91.7 116.5,91.5 C116.9,91.3 117.3,91.2 117.6,90.9 C117.7,90.8 117.9,90.5 117.9,90.3 C117.9,90.1 117.9,89.9 117.9,89.7 C117.9,89.5 117.9,89.3 117.9,89 C117.9,88.8 117.8,88.7 117.8,88.5 C117.8,88.3 117.8,88.2 117.8,88 C117.5,88.2 116.9,88.5 116.7,88.8 C116.3,89.1 115.9,89.6 115.4,89.8 C115.1,89.9 114.4,90.1 114.2,90 C114,89.9 113.8,89.7 113.7,89.5 C113.8,89.2 114,88.7 114.2,88.5 C114.3,88.4 114.4,88.3 114.5,88.1 C114.6,88 114.7,87.8 114.8,87.7 C114.9,87.6 115,87.5 115.1,87.3 C115.2,87.2 115.3,87 115.4,86.9 C115.5,86.8 115.6,86.6 115.6,86.5 C115.5,86.2 115.3,85.9 115.2,85.6 C115,85.2 114.8,84.8 114.7,84.4 C114.6,84.2 114.5,83.3 114.4,83.2 C114.4,83.2 114.4,83.2 114.4,83.2 C114.3,83.2 114.2,83.1 114.1,83.1 C114,83.2 114,83.2 114,83.3 C113.6,84.1 113.7,85 113.4,85.8 C113.3,86 113.2,86.2 113.1,86.4 C113,86.7 112.9,86.9 112.8,87.2 C112.7,87.4 112.6,87.6 112.5,87.8 C112.3,88.1 111.9,88.5 111.7,88.6 C111.5,88.7 111.4,88.8 111.2,88.9 C111,89.1 110.8,89.3 110.5,89.4 C110.3,89.5 110,89.7 109.8,89.8 C109.7,89.9 109.6,89.9 109.5,89.9 C109.2,90 108.8,89.9 108.5,89.8 C108.2,89.7 107.9,89.5 107.8,89.2 C107.5,88.7 107.4,88.2 107.6,87.7 C107.7,87.3 107.8,87.3 108.2,87.1 C108.4,87 108.5,86.8 108.7,86.7 C109,86.5 109.2,86.3 109.4,86.1 C109.5,85.9 109.6,85.7 109.7,85.5 C109.8,85.2 110,84.9 110.2,84.7 C110.5,84.4 110.8,84.1 111.1,83.8 C111.3,83.6 111.3,83.4 111.5,83.2 C111.6,83.1 111.7,83 111.8,82.9 C111.9,82.7 112,82.4 112.1,82.2 C111.9,82.3 111.7,82.2 111.5,82.3 C111.2,82.4 111,82.6 110.7,82.7 C110.6,82.8 110.4,82.8 110.3,82.8 C110.1,82.9 110,83.1 109.8,83.3 C109.6,83.4 109.5,83.5 109.3,83.6 C109.2,83.7 109,83.8 108.9,83.9 C108.9,83.9 108.8,83.9 108.8,84 C108.8,84 108.8,84 108.8,84 C108.7,84 108.5,84 108.4,84 C108.4,83.8 108.4,83.6 108.4,83.3 C108.4,83.1 108.3,82.9 108.3,82.7 C108.3,82.5 108.3,82.2 108.4,82 C108.7,80.3 110,80.3 110.9,79.2 C111,79.1 111.3,78.8 111.3,78.6 C111.3,78.6 111.3,78.6 111.3,78.5 C111.2,78.5 111.1,78.5 111,78.6 C110.9,78.6 110.8,78.7 110.7,78.8 C110.5,79 110.3,79.2 110.1,79.3 C109.9,79.3 109.3,79.3 109.1,79.2 C108.9,79 108.5,78.5 108.4,78.3 C108.4,78.2 108.4,78 108.3,77.9 C108.2,78 108.1,78.1 108,78.3 C107.9,78.5 107.8,78.8 107.6,79 C107.5,79.2 107.4,79.3 107.3,79.5 C107.2,79.7 107.2,79.9 107.2,80 C107.1,80.2 107.1,80.5 107,80.7 C106.9,80.9 106.8,81.1 106.8,81.4 C106.7,81.7 106.7,82 106.6,82.3 C106.5,82.6 106.5,82.8 106.4,83.1 C106.4,83.4 106.4,83.8 106.4,84.1 C106.4,84.3 106.3,84.5 106.3,84.8 C106.3,85.4 106.3,86 106.3,86.6 C106.3,86.9 106.2,87.2 106.2,87.5 C106.2,88.2 106.2,88.9 106.2,89.7 C106.2,90 106.2,90.3 106.2,90.6 C106.2,90.8 106.1,91 106,91.2 C105.9,91.3 105.8,91.3 105.7,91.3 C105.4,91.3 105.2,91.2 105,91 C104.9,90.9 104.8,90.7 104.7,90.5 C104.4,89.8 104.4,89.3 104.4,88.6 C104.4,88.4 104.4,88.1 104.4,87.8 C104.5,87.6 104.6,87.3 104.7,87.1 C104.8,86.9 104.7,86.7 104.8,86.6 C104.9,86.2 105,85.9 105.1,85.5 C105.1,85.3 105.1,85.2 105.2,85 C105.3,84.5 105.4,84.1 105.5,83.6 C105.6,83.4 105.6,83.2 105.7,83 C105.8,82.8 105.9,82.6 105.9,82.4 C106,82.1 106,81.8 106.1,81.5 C106.1,81.3 106.2,81.2 106.3,81 C106.3,80.8 106.3,80.7 106.3,80.5 C106.4,80.2 106.5,80 106.5,79.7 C106.5,79.3 106.5,78.8 106.5,78.4 C106.5,78.2 106.6,78 106.6,77.8 C106.6,77.6 106.6,77.4 106.7,77.2 C106.7,77 106.8,76.8 106.9,76.7 C107,76.4 106.9,76 107,75.7 C106.5,75.7 106.1,75.8 105.6,76 C105.5,76.1 105.3,76.1 105.2,76.2 C105,76.3 104.8,76.4 104.5,76.5 C104.2,76.6 103.7,76.7 103.4,76.5 C103.1,76.3 102.9,75.9 102.8,75.6 C102.7,75.3 102.7,75 102.9,74.8 C103,74.6 103.4,74.3 103.6,74.2 C103.9,74.1 104.2,74.2 104.5,74.1 C104.8,74.1 105.1,74 105.3,73.9 C105.7,73.8 106,73.4 106.4,73.2 C106.6,73.1 106.9,73.1 107.2,73 C107.5,72.9 107.8,72.8 108.2,72.6 C108.5,72.5 108.7,72.3 109,72.2 C109.3,72.1 109.5,72.1 109.8,72.1 C109.9,72.1 110,72 110.1,72 C110.3,71.9 110.5,71.9 110.7,71.9 C110.9,71.8 111.2,71.7 111.4,71.7 C111.7,71.6 112,71.6 112.2,71.5 C112.4,71.4 112.6,71.3 112.8,71.2 C113,71.1 113.2,71.1 113.4,71.1 C113.6,71 113.7,71 113.9,70.9 L114.8,70.6 C115,70.5 115.1,70.5 115.3,70.4 C115.7,70.2 116.1,70 116.5,69.8 C116.6,69.7 116.8,69.7 116.9,69.7 C117.1,69.6 117.4,69.5 117.6,69.4 C117.9,69.3 118.2,69.1 118.6,69 C118.9,68.9 119.3,68.7 119.7,68.6 C119.9,68.6 120,68.5 120.2,68.5 C119.7,68.1 119.9,68.1 120,68 Z M108.2,76.9 C108.5,77 108.9,77 109.2,77 C109.6,76.9 110,76.8 110.4,76.6 C110.6,76.5 110.9,76.5 111.1,76.4 C111.4,76.3 111.7,76.1 112,76 C112.4,75.9 112.8,75.9 113.3,75.9 C113.5,75.9 113.6,75.9 113.8,75.9 C114,75.9 114.2,76 114.5,76 C114.5,75.8 114.5,75.6 114.5,75.5 C114.5,75.3 114.7,75.2 114.7,75 C114.8,74.8 114.8,74.7 114.8,74.5 C114.9,74.2 115,74 115.1,73.7 C115.2,73.5 115.3,73.4 115.3,73.2 C115.4,73 115.4,72.9 115.5,72.7 C115.6,72.4 116,72.1 116,71.7 C116,71.5 116,71.3 115.8,71.2 C115.6,71.1 115.5,71 115.3,71 C115.3,71 115.2,71 115.2,71 C115,71 114.8,71.1 114.6,71.1 C114.3,71.1 114,71.1 113.7,71.2 C113.5,71.3 113.3,71.4 113.1,71.5 C112.9,71.6 112.7,71.6 112.6,71.6 C112.5,71.7 112.4,71.8 112.2,71.9 C112,72.1 111.7,72.1 111.5,72.3 C111.1,72.6 110.8,73 110.4,73.3 C110.1,73.6 109.7,73.9 109.5,74.2 C109.3,74.5 109.1,74.9 108.9,75.2 C108.8,75.4 108.6,75.6 108.4,75.8 C108.4,76.4 108.3,76.7 108.2,76.9 Z M113.1,79.6 C113.2,80 113.3,80.3 113.5,80.6 C113.6,80.8 113.7,80.8 113.9,80.9 C113.9,80.6 113.9,80.3 113.9,80.1 C113.9,79.8 114,79.2 113.9,78.9 L113.9,78.9 C113.6,79 113.3,79.1 113.1,79.5 C113.2,79.5 113.1,79.6 113.1,79.6 L113.1,79.6 C113.1,79.6 113.1,79.6 113.1,79.6 Z M120.4,93.2 C120.6,92.9 120.7,92.8 120.8,92.4 C120.8,92.3 120.9,92.2 120.8,92 C120.8,91.9 120.7,91.8 120.6,91.7 C120.5,91.7 120.5,91.6 120.4,91.6 C120.3,91.9 120.2,92.2 120.2,92.6 C120.2,92.8 120.2,92.9 120.2,93.1 C120.2,93.2 120.2,93.3 120.2,93.4 C120.2,93.4 120.3,93.4 120.3,93.4 C120.3,93.4 120.4,93.3 120.4,93.2 Z" id="形状" fill="#FEFEFE"></path>
            <g id="编组" transform="translate(136.000000, 69.000000)" fill="#FEFEFE">
                <path d="M26.8,2.2 C27.1,2.2 27.4,2.2 27.7,2.2 C28.2,2.3 28.8,2.7 29.2,3 C29.5,3.3 29.8,3.6 29.8,4 C29.8,4.3 29.7,4.5 29.7,4.8 C29.6,5.1 29.4,5.9 29.2,6.2 C29,6.5 28.7,6.8 28.5,7.1 L27.5,8.2 C27.4,8.3 27.3,8.5 27.2,8.7 C27.1,8.8 27,9 26.8,9.1 C26.7,9.2 26.6,9.3 26.6,9.4 C26.5,9.7 26.5,10.3 26.6,10.7 C26.7,10.9 26.8,11.1 26.8,11.4 C26.8,11.7 26.8,12 26.8,12.3 C26.8,12.7 27,12.8 27.3,13.1 L27.7,13.1 C27.9,12.9 28.1,12.7 28.2,12.5 C28.4,12.3 28.5,12 28.7,11.8 C29,11.4 29.7,10.9 30.2,10.6 C30.4,10.5 30.6,10.5 30.7,10.5 C30.9,10.4 31,10.3 31.2,10.2 C31.3,10.1 31.5,10.2 31.6,10.3 C32,10.5 32.9,10.8 33.1,11.1 C33.2,11.2 33.2,11.3 33.3,11.4 C33.4,11.6 33.5,11.9 33.4,12.1 C33.4,12.4 33.2,12.7 33.1,12.9 C32.7,13.5 31.7,14.4 31.1,14.8 C30.9,14.9 30.7,15 30.5,15.1 C30.3,15.3 30.1,15.5 29.9,15.6 C29.6,15.9 29.4,16.1 29.2,16.4 C29.1,16.5 29.1,16.6 29,16.8 C28.9,17 28.5,17.9 28.6,18.1 C28.6,18.2 29.4,18.2 29.6,18.2 C29.9,18.3 30.1,18.5 30.2,18.7 C30.4,19.1 30.5,19.4 30.5,19.9 C30.5,20.1 30.5,20.3 30.5,20.4 C30.5,20.6 30.4,20.7 30.2,20.9 C29.9,21.3 29.1,22.1 28.7,22.4 C29,22.7 29.4,22.7 29.7,23 C29.9,23.1 30,23.3 30.1,23.4 C30.5,23.8 31,24.4 31.5,24.7 C31.8,24.9 32.2,24.9 32.5,25 C32.9,25.2 33.1,25.5 33.5,25.6 C33.7,25.7 33.9,25.6 34.1,25.7 C34.4,25.7 34.6,25.9 34.8,25.9 C35.1,26 35.4,25.9 35.7,26.1 C35.9,26.2 36,26.4 36,26.6 C36.1,26.9 36,27.2 35.9,27.4 C35.9,27.4 35.9,27.4 35.9,27.4 C35.6,27.8 35.1,27.7 34.6,27.7 C34.4,27.7 34.3,27.7 34.1,27.7 C33.9,27.7 33.6,27.8 33.4,27.8 C33.2,27.8 33,27.7 32.8,27.6 C32.5,27.5 32.1,27.5 31.8,27.5 C31.5,27.5 31.2,27.6 30.9,27.6 C30.3,27.6 29.7,27.5 29.2,27.7 C28.8,27.8 28.4,28 28,28 C27.4,28.1 26.9,28 26.3,28 C26,28 25.8,28.2 25.6,28.2 C25.3,28.2 25,28.2 24.7,28.2 C24.4,28.2 24.1,28.3 23.8,28.3 C23.5,28.3 23.3,28.5 23,28.5 C22.8,28.6 22.5,28.5 22.3,28.6 C22,28.7 21.9,29 21.7,29.2 C21.4,29.4 21.1,29.4 20.8,29.5 C20.5,29.6 20.5,29.9 20.1,29.9 C19.9,29.9 19.2,29.9 19,29.9 C18.9,29.9 18.9,29.9 18.8,29.8 C18.6,29.6 18.4,29.3 18.4,29 C18.3,28.3 18.6,27.3 19,26.7 C19.1,26.6 19.2,26.5 19.4,26.4 C19.6,26.3 20.3,26.2 20.5,26.2 C20.8,26.2 21.1,26.4 21.4,26.3 C21.7,26.1 22.3,25.4 22.6,25.1 C22.8,24.9 23,24.8 23.2,24.6 C23.5,24.3 23.8,24 24.1,23.7 C24.4,23.4 25.4,22.6 25.5,22.2 C25.5,22.1 25.4,21.9 25.4,21.8 C25.2,21.8 25,21.8 24.8,21.8 C24.3,21.9 24.2,22.1 23.8,22.2 C23.5,22.3 22.3,22.3 21.8,22.3 C21.8,22 21.8,21.8 21.7,21.6 C21.7,21.3 21.6,21 21.7,20.8 C21.8,20.7 21.9,20.5 21.9,20.4 C22.1,20 22.3,19.6 22.5,19.3 C22.7,19 23,18.8 23.2,18.6 C23.5,18.3 23.9,17.9 24.2,17.6 C24.5,17.3 24.9,17 25.1,16.6 C25.2,16.4 25.4,16.1 25.3,15.9 C25.3,15.8 25.2,15.7 25.1,15.7 C24.8,15.6 24.4,15.6 24.1,15.7 C23.8,15.8 23.4,16 23,16.1 C22.7,16.3 22.5,16.5 22.3,16.7 C22.2,16.8 22.1,16.9 22,17 C21.8,17.1 21.6,17.2 21.4,17.3 C21.1,17.5 20.1,18.5 20,18.8 C19.9,18.9 19.9,19.1 19.9,19.3 C19.8,19.6 19.7,19.8 19.6,20.1 C19.5,20.4 19.5,20.7 19.4,20.9 C19.1,21.4 18.4,21.8 17.9,21.9 C17.6,21.8 17.4,21.6 17.1,21.4 C16.9,21.2 16.8,21.1 16.6,20.9 C16.5,20.7 16.4,20.6 16.3,20.4 C16,19.8 15.8,19.3 15.7,18.6 C15.7,18.3 15.7,17.8 15.7,17.6 C15.7,17.5 15.8,17.4 15.9,17.3 C16.2,16.9 16.3,16.8 16.7,16.5 C16.9,16.4 17,16.2 17.2,16.1 C17.4,16 17.9,15.9 18.1,15.9 C18.3,15.9 18.5,15.9 18.7,15.8 C18.8,15.7 18.9,15.6 19,15.5 C19.2,15.3 19.2,15 19.4,14.7 C19.5,14.5 19.7,14.4 19.8,14.3 C20,14.1 20.2,13.8 20.3,13.6 C20.4,13.4 20.5,13.2 20.6,13 C20.8,12.6 21.1,12.2 21.3,11.8 C21.4,11.6 21.4,11.4 21.5,11.2 C21.6,11 21.7,10.8 21.7,10.5 C21.7,10.3 21.7,10.1 21.7,10 C21.3,10 21.1,10.3 20.7,10.3 C20.5,10.3 20.2,10.2 20,10.2 C19.8,10.2 19.6,10.2 19.4,10.1 C19,10 18.4,9.5 18.1,9.1 C17.7,8.6 17.3,7.9 17.2,7.3 C17.2,7 17.2,6.7 17.2,6.4 C17.5,6.6 17.7,6.9 18,7.1 C18.4,7.3 19.3,7.5 19.7,7.4 C19.9,7.4 20,7.3 20.2,7.2 C20.3,7.2 20.4,7.1 20.6,7.1 C20.8,7 20.9,6.9 21,6.9 C21.2,6.8 21.5,6.7 21.7,6.5 C21.8,6.4 22,6.3 22.1,6.2 C22.3,6 22.5,5.9 22.7,5.7 C23,5.4 23.3,5.1 23.7,4.7 L25.2,3.2 C25.5,2.9 25.8,2.6 26.1,2.3 C26.5,2.3 26.6,2.2 26.8,2.2 Z M27.3,23.1 C27.3,23.4 27.4,23.6 27.4,23.8 C27.4,24.3 27.4,24.9 27.4,25.4 C27.4,25.8 27.4,26.2 27.4,26.6 C27.7,26.6 27.9,26.7 28.2,26.7 C28.7,26.8 29.5,26.6 30,26.5 C30.4,26.4 30.8,26.1 31,25.7 C31.1,25.5 31.1,25.3 31,25.2 C31,25.1 30.9,24.9 30.8,24.8 C30.7,24.7 30.7,24.5 30.6,24.4 C30.3,23.8 29.4,23.4 28.9,23 C28.7,22.8 28.5,22.5 28.3,22.4 C28.2,22.4 28.2,22.4 28.1,22.4 C27.7,22.5 27.5,22.7 27.3,23.1 C27.3,23.1 27.3,23.1 27.3,23.1 Z M24.4,26.3 C24.8,26.4 25.2,26.6 25.6,26.6 C25.8,26.6 26.1,26.6 26.3,26.6 C26.3,26.3 26.4,26.1 26.4,25.8 C26.4,25.5 26.4,24.7 26.4,24.5 C26.4,24.4 26.4,24.4 26.3,24.3 C26.2,24.3 26.1,24.2 26.1,24.2 C25.9,24.2 25.7,24.3 25.5,24.5 C25.3,24.6 25.1,24.8 24.9,25 C24.7,25.1 24.5,25.3 24.4,25.4 C24.2,25.5 24.1,25.7 24,25.8 C23.9,25.9 23.8,26 23.7,26.1 L23.7,26.1 C23.9,26.2 24.2,26.2 24.4,26.3 Z" id="形状"></path>
                <path d="M11.9,0.8 C12,0.8 12.1,0.8 12.2,0.8 C12.3,0.9 12.5,1 12.6,1.1 C13,1.5 13.5,1.8 13.7,2.3 C13.8,2.6 13.8,3 13.8,3.3 C13.8,3.6 13.8,4 13.8,4.3 C13.7,4.7 13.2,5.6 12.9,6 C12.8,6.2 12.7,6.3 12.5,6.5 C12.3,6.8 12.2,7.1 12,7.4 C11.8,7.7 11.4,7.9 11.2,8.3 C11,8.6 10.9,8.8 10.7,9.1 C10.6,9.3 10.4,9.5 10.3,9.7 C10,10.1 9.7,10.5 9.4,10.9 C9.3,11 9.2,11.2 9.1,11.4 C9,11.5 8.9,11.7 8.7,11.8 C8.6,11.9 8.5,12.1 8.4,12.2 C8.3,12.3 8.2,12.5 8,12.6 C7.9,12.8 7.7,13 7.6,13.1 C7.2,13.5 6.8,13.8 6.5,14.2 C6.3,14.4 6.1,14.6 6,14.8 C5.9,15 5.7,15.1 5.6,15.3 C5.4,15.6 5.3,15.9 5.1,16.1 C5,16.2 4.9,16.3 4.8,16.4 C4.7,16.5 4.6,16.7 4.5,16.8 C4.3,17 4.2,17.2 4.1,17.5 C4,17.7 4,17.8 3.9,18 C4.1,18 4.2,18 4.4,17.9 C4.7,17.8 4.9,17.7 5.1,17.6 C5.6,17.4 6.1,17.2 6.6,16.9 C6.8,16.8 7,16.5 7.3,16.4 C7.5,16.3 7.6,16.3 7.8,16.3 C8.2,16.3 8.5,16.1 8.8,15.8 C9.1,15.5 9.2,15.3 9.3,14.9 C9.4,14.6 9.7,14.4 10,14.2 C10.1,14.2 10.3,14.3 10.4,14.3 C11,14.6 11.6,15.3 11.8,15.9 C11.9,16.1 11.9,16.3 11.9,16.6 C11.9,17.3 11.8,17.8 11.4,18.4 C11.2,18.7 10.9,18.9 10.7,19.1 C10.6,19.3 10.5,19.5 10.4,19.6 C10.3,19.8 10.1,19.9 10,20.1 C9.8,20.4 9.8,20.7 9.6,20.9 C9.5,21 9.4,21.1 9.3,21.3 C9.2,21.5 9.1,21.7 9,21.9 C8.8,22.1 8.6,22.3 8.4,22.6 C8.4,22.7 8.3,22.8 8.4,22.9 C8.6,23.1 8.8,23.3 9,23.5 C9.2,23.7 9.5,23.8 9.7,24 C9.9,24.2 10.2,24.3 10.4,24.5 C10.5,24.5 10.6,24.6 10.7,24.6 C10.8,24.6 10.9,24.5 11,24.4 C11.2,24.2 11.3,24 11.4,23.8 C11.7,23.4 12,23.1 12.2,22.7 C12.4,22.3 12.6,21.8 12.9,21.4 L12.9,21.4 C13,21.4 13.1,21.3 13.2,21.3 C13.1,21.6 13.1,21.9 13.1,22.2 C13,22.6 13,22.9 12.9,23.3 C12.8,23.5 12.8,23.8 12.7,24 C12.6,24.2 12.6,24.5 12.5,24.7 C12.4,24.9 12.3,25.2 12.3,25.4 C12.2,25.9 12.1,26.3 12,26.8 C11.9,27 11.8,27.3 11.7,27.5 C11.6,27.8 11.6,28.1 11.5,28.4 C11.4,28.6 11.3,28.8 11.3,29 C11.2,29.3 11.2,29.5 11.1,29.8 C11,30 10.9,30.3 10.9,30.5 C10.8,30.9 10.8,31.2 10.7,31.6 C10.7,31.7 10.6,31.8 10.5,32 C10.3,32.3 10.1,32.6 9.7,32.8 C9.7,32.8 9.7,32.8 9.6,32.8 C9.5,32.7 9.4,32.7 9.3,32.6 C9.2,32.5 8.7,31.8 8.6,31.6 C8.5,31.4 8.4,31.2 8.3,31.1 C8.2,31 8.1,30.8 8,30.7 C7.8,29.9 8.4,29.2 8.8,28.5 C8.9,28.4 8.9,28.3 8.9,28.1 C8.9,27.7 8.9,27.3 8.9,27 C8.9,26.6 8.9,26.2 8.9,25.8 C8.9,25.7 8.9,25.6 8.9,25.5 C8.8,25.3 8.6,25 8.4,24.9 C8.2,24.8 8.1,24.8 7.9,24.8 C6.9,24.8 6.6,25.6 5.8,25.9 L5.8,25.9 C5.7,25.9 5.6,25.9 5.5,25.8 C5.1,25.6 5.2,25.1 5.1,24.7 C5.1,24.5 5,24.3 5,24.1 L5.1,24.1 C5.2,24.1 5.4,24.1 5.5,24 C5.6,23.9 5.6,23.9 5.7,23.8 C5.8,23.6 5.8,23.4 5.9,23.3 C6,23.1 6.1,22.9 6.2,22.7 C6.4,22.2 6.6,21.7 6.9,21.2 C7.1,20.9 7.3,20.6 7.5,20.3 C7.6,20.1 7.8,19.9 7.9,19.7 C8.1,19.4 8.3,19.2 8.4,18.9 C8.5,18.7 8.5,18.5 8.6,18.3 C8.7,18 8.8,17.7 8.8,17.4 C8.7,17.5 8.6,17.7 8.5,17.8 C8.2,18 7.8,18.1 7.5,18.3 C7.2,18.4 7,18.6 6.7,18.8 C6.4,18.9 6.1,19 5.8,19.2 C5.6,19.3 5.4,19.6 5.2,19.7 C5,19.9 4.8,20 4.6,20.1 C4.3,20.3 4,20.4 3.7,20.6 C3.1,21 2.5,21.6 1.9,22.2 C1.6,22.5 1.5,22.8 1.3,23.1 C1.2,23.1 1.1,23.1 1,23.1 C0.6,22.5 0.6,22.3 0.6,21.5 C0.6,21.2 0.6,20.9 0.6,20.7 C0.6,20.6 0.6,20.4 0.7,20.4 C0.8,20.2 1.1,20.2 1.3,20.1 C1.5,20 1.6,19.9 1.7,19.8 C2,19.6 2.1,19.2 2.4,19 C2.7,18.7 3.1,18.3 3.4,18 C3.6,17.8 3.8,17.7 3.9,17.5 C4,17.3 4.2,17.1 4.3,16.9 C4.4,16.7 4.6,16.6 4.7,16.4 C4.8,16.2 4.8,16 5,15.9 C5.1,15.8 5.2,15.6 5.3,15.5 C5.5,15.3 5.6,15.1 5.7,14.9 C6,14.5 6.2,14 6.5,13.6 C6.6,13.4 6.8,13.2 6.9,13 C7,12.8 7.1,12.7 7.2,12.5 C7.3,12.4 7.4,12.3 7.5,12.1 C7.7,11.8 7.9,11.5 8,11.3 C8.1,11.1 8.1,10.9 8.2,10.7 C8.3,10.5 8.4,10.3 8.4,10.1 C8.5,9.8 8.6,9.4 8.8,9.1 C9,8.7 9.2,8.4 9.4,8 C9.5,7.8 9.6,7.5 9.8,7.3 C9.9,7.1 10.1,6.9 10.2,6.6 C10.3,6.3 10.4,6 10.5,5.7 C10.6,5.4 10.7,5 10.9,4.7 C11.2,4 11.4,3.3 11.5,2.6 C11.5,2.1 11.5,1.7 11.5,1.2 C11.5,0.8 11.7,0.8 11.9,0.8 Z" id="路径"></path>
            </g>
            <g id="梁家铿译本">
                <use fill="#000000" xlink:href="#path-1"></use>
                <use fill="#FFFFFF" xlink:href="#path-1"></use>
            </g>
            <rect id="矩形" fill="#FFFFFF" x="25.1" y="114" width="54" height="2"></rect>
        </g>
    </g>
</svg>