<?xml version="1.0" encoding="UTF-8"?>
<svg width="157px" height="52px" viewBox="0 0 157 52" version="1.1" xmlns="http://www.w3.org/2000/svg" xmlns:xlink="http://www.w3.org/1999/xlink">
	<defs>
		<filter id="filter-1">
			<feColorMatrix in="SourceGraphic" type="matrix" values="0 0 0 0 1.000000 0 0 0 0 1.000000 0 0 0 0 1.000000 0 0 0 1.000000 0">
			</feColorMatrix>
		</filter>
	</defs>
	<g id="页面-1" stroke="none" stroke-width="1" fill="none" fill-rule="evenodd">
		<g filter="url(#filter-1)" id="logo">
			<g transform="translate(-15.000000, -67.000000)">
				<g id="编组" transform="translate(14.000000, 67.000000)" fill="#FEFEFE" fill-rule="nonzero">
					<path d="M21.7,3.1 C21.7,3.1 21.7,3.1 21.7,3.1 C21.8,3.1 21.9,3.2 22,3.2 C22.2,3.4 22.4,3.6 22.7,3.8 C23,4 23.3,4.2 23.5,4.5 C23.6,4.6 23.8,4.8 23.8,5 C23.8,5.3 22.8,6.2 22.5,6.4 C22.3,6.5 22,6.6 21.7,6.7 C21.4,6.8 21.1,7.1 20.8,7.2 C20.4,7.4 20,7.6 19.6,7.9 C19.6,7.9 19.5,8 19.5,8 C19.5,8 19.5,8.1 19.6,8.1 C19.7,8.2 20,8.2 20.1,8.3 C20.6,8.3 21.1,8.4 21.6,8.1 C21.8,8 22,7.9 22.2,7.8 C22.4,7.7 22.7,7.8 22.9,7.8 C23.2,7.8 23.4,7.6 23.7,7.7 C24.1,7.7 24.5,7.9 24.7,8.2 C25.1,8.8 24.7,9.9 24.5,10.6 C24.5,10.7 24.6,10.8 24.6,10.8 C24.8,11 25,11.1 25.2,11.2 C25.5,11.4 26,11.8 26.2,12.2 C26.3,12.3 26.3,12.5 26.2,12.6 C26.1,12.9 25.4,13.6 25.1,13.8 C24.8,14 24.5,14 24.2,14.1 C23.9,14.2 23.7,14.3 23.4,14.5 C23.2,14.6 22.9,14.7 22.6,14.8 C22.5,14.9 22.2,15 22.2,15.1 C22.2,15.2 22.3,15.3 22.4,15.4 C22.5,15.5 22.6,15.7 22.8,15.8 C22.9,15.9 23.1,15.9 23.2,16 C23.7,16.2 24,16.4 24.2,16.8 C24.1,17 24,17.2 23.9,17.5 C23.8,17.8 24.3,18.2 24.2,18.8 C24.1,19.7 22.8,19.4 22.3,19.9 C21.9,20.3 22.3,20.9 22.4,21.4 C22.5,21.6 22.5,21.8 22.4,22 C22.8,22 23.3,22 23.7,22 C23.9,22 24.2,22 24.4,22 C24.7,22 24.9,21.8 25.1,21.7 C25.5,21.6 26,21.7 26.4,21.7 C26.7,21.7 26.9,21.6 27.2,21.6 C27.4,21.6 27.7,21.7 27.9,21.8 C28,21.9 28.1,22.1 28.2,22.2 C28.3,22.6 28,23.1 27.8,23.4 C27.6,23.7 27.2,23.9 26.8,24 C26.1,24.3 25.7,24.3 24.9,24.3 C24.7,24.3 24.4,24.3 24.2,24.3 C24,24.3 23.7,24.2 23.5,24.2 C23.1,24.1 22.8,24.2 22.4,24.2 C22.4,24.5 22.4,24.6 22.4,24.8 C22.4,25.1 22.5,25.3 22.5,25.6 C22.5,25.9 22.4,26.2 22.4,26.6 C22.4,26.9 22.4,27.2 22.4,27.5 C22.4,27.9 22.1,29.1 21.9,29.5 C21.8,29.8 21.5,30.2 21.3,30.4 C21.2,30.5 21,30.6 20.8,30.5 C20.2,30.4 19.4,29.4 19,29.1 C18.7,28.8 18.3,28.7 18,28.4 C17.9,28.3 17.2,27.6 17.2,27.6 C17.1,27.6 17.1,27.7 17,27.6 C17,27.6 16.9,27.5 16.9,27.5 L16.9,27.5 C16.9,27.5 16.9,27.6 16.9,27.6 C16.9,27.8 16.7,28 16.7,28.2 C16.6,28.6 16.5,29 16.4,29.3 C16.3,29.7 16.1,30 16.1,30.4 C16.1,30.5 16,30.7 16,30.8 C16,31.1 16,31.4 15.9,31.6 C15.9,31.6 15.9,31.6 15.9,31.6 C15.7,31.6 15,31.5 14.8,31.4 C14.7,31.3 14.6,31.2 14.5,31.1 C14.3,30.7 13.9,29.7 13.8,29.3 C13.7,28.9 13.7,26.5 13.8,26.1 C13.9,25.5 14.6,23.5 14.9,23 C14.6,23.1 14.3,23.2 14.1,23.3 C13.4,23.6 13.2,23.9 12.3,23.8 C12,23.8 11.7,23.7 11.6,23.5 C11.4,23.3 11.4,23 11.5,22.7 C11.6,22.2 12,21.5 12.3,21 C12.5,20.7 12.8,20.4 13.1,20.1 C13.5,19.7 13.9,19.2 14.4,18.9 C14.8,18.5 15.3,18.2 15.7,17.8 C15.9,17.6 16.1,17.4 16.4,17.2 C16.8,16.9 17.1,16.6 17.4,16.3 C17.6,16.1 17.9,15.9 18.2,15.7 C18.5,15.5 18.7,15.2 19,14.9 C19.3,14.7 19.6,14.6 19.8,14.3 C19.8,14.1 19.8,14 19.8,13.8 C18.9,13.8 19.1,13.9 18.4,14.1 C18.1,14.2 17.8,14.2 17.5,14.3 C17.1,14.5 16.7,14.7 16.3,14.9 C16,15 15.8,15.2 15.5,15.3 C15.1,15.4 14.8,15.4 14.4,15.7 C14,16 13.6,16.4 13.1,16.7 C12.8,16.9 12.5,17.2 12.2,17.4 C11.9,17.6 11.7,17.8 11.4,18 C11.1,18.3 10.8,18.5 10.6,18.8 C10.2,19.1 9.8,19.4 9.4,19.7 C8.9,20 8.4,19.8 7.9,20.2 C7.6,20.5 7.1,20.9 7,21.2 C6.7,21.9 7.1,22 6.4,22.7 C6.1,22.7 5.9,22.7 5.6,22.6 C5.3,22.6 5.1,22.6 4.8,22.6 C4.4,22.5 4.1,22.4 3.6,22.5 C2.9,22.5 2,22.9 1.3,22.6 C1,22.5 0.7,22.2 0.6,21.9 C0.5,21.7 0.6,21.6 0.6,21.4 C0.9,20.8 1.8,20.3 2.3,20 C2.6,19.8 3,19.7 3.3,19.6 C3.9,19.5 4.7,19.7 5.3,19.4 C5.6,19.2 5.9,19 6.2,18.8 C6.7,18.5 7.2,18.3 7.6,18 C7.8,17.8 8,17.6 8.3,17.5 C8.5,17.4 8.8,17.3 9,17.1 L10.7,16.2 C11,16.1 11.2,15.9 11.4,15.8 C11.6,15.7 11.8,15.6 12.1,15.5 C12.5,15.3 12.9,15 13.3,14.8 C13.6,14.7 13.9,14.6 14.1,14.5 C14.3,14.4 14.5,14.2 14.8,14 C15.1,13.9 15.4,13.9 15.6,13.7 C15.8,13.6 15.9,13.5 16.1,13.4 C16.3,13.3 16.4,13.3 16.6,13.3 C16.9,13.2 17.1,13 17.3,12.8 C17.7,12.6 18.1,12.4 18.4,12.1 C18.6,11.9 18.8,11.7 18.9,11.5 C19,11.3 19.2,11.2 19.3,11 C19.4,10.9 19.3,10.7 19.3,10.6 C19.2,10.4 19.3,10.3 19.4,10.2 C19,10.3 18.7,10.3 18.4,10.6 C18.3,10.7 18.2,10.8 18,10.9 C17.8,11 17.5,11.1 17.3,11.2 C16.9,11.4 16.5,11.7 16.2,11.9 C15.7,12.3 15.3,12.9 14.8,13.3 C14.6,13.5 14.3,13.5 14.1,13.7 C13.9,13.8 13.8,14 13.6,14.2 C13.5,14.3 13.3,14.4 13.1,14.4 C12.7,14.3 12.4,13.9 12.2,13.6 C12.1,13.4 12,13.1 11.8,13 C11.6,12.8 11.3,12.7 11,12.7 C11,12.6 11,12.4 11,12.3 C11,12.3 11,12.3 11,12.3 C10.9,12.1 10.8,12 10.7,11.9 C11.2,10.9 11.4,11.4 12,11 C12.3,10.8 12.6,10.4 12.9,10.2 C13.2,10 13.4,10 13.7,9.8 C14,9.7 14.2,9.5 14.4,9.3 C14.4,9.2 14.4,9 14.4,8.9 C14.1,9 14,9 13.8,9 C13.4,9 13.1,9 12.7,8.9 C12.4,8.8 12.1,8.6 12,8.3 C12.1,8 12.4,7.7 12.7,7.5 C12.9,7.4 13.2,7.3 13.5,7.3 C14.3,7 15.3,6.8 16,6.4 C16.4,6.2 16.8,5.9 17.3,5.7 C18,5.3 18.6,5.1 19.3,4.7 L21.2,3.6 C21.3,3.4 21.5,3.2 21.7,3.1 Z M17.8,26.1 L19.1,26.1 C19.1,25.6 19.3,25.4 19.4,25 C19.5,24.7 19.5,24.4 19.6,24.1 C19.6,23.9 19.6,23.6 19.6,23.4 C19.6,23.2 19.8,22.3 19.7,22.1 C19.6,22.1 19.6,22.1 19.6,22.1 C19.4,22.3 19,22.9 18.9,23.1 C18.8,23.3 18.8,23.4 18.7,23.6 C18.6,23.8 18.5,24 18.4,24.1 C18.3,24.3 18.2,24.6 18.1,24.8 C17.9,25.2 17.6,25.6 17.6,26 C17.7,26.1 17.7,26.1 17.8,26.1 Z M9.1,17.6 C8.9,17.7 8.2,17.9 8.1,18.2 C8.1,18.2 8.1,18.2 8.1,18.2 C8.2,18.2 8.2,18.2 8.3,18.2 C8.4,18.2 8.4,18.2 8.5,18.2 C8.7,18.1 9.1,18 9.2,17.8 C9.2,17.7 9.2,17.6 9.1,17.6 C9.2,17.6 9.1,17.6 9.1,17.6 Z M19.7,17.3 C19.3,17.4 18.8,17.5 18.6,17.9 C18.6,18 18.5,18 18.5,18.1 C18.6,18.3 18.6,18.4 18.8,18.5 C19.1,18.5 19.5,18.1 19.7,17.9 C19.8,17.8 19.9,17.6 20,17.5 C19.9,17.4 19.8,17.3 19.7,17.3 L19.7,17.3 Z M11.5,17.3 C11.4,17.3 11.3,17.3 11.2,17.3 C10.8,17.4 10.3,17.5 9.9,17.7 C9.6,17.8 9.5,18.1 9.2,18.3 C8.8,18.6 8.1,18.6 7.8,19.1 C7.7,19.3 7.9,19.8 7.9,20 L8.4,20 C8.6,20 9.3,19.6 9.4,19.5 C9.4,19.5 9.4,19.4 9.5,19.4 L9.5,19.4 C9.4,19.4 9.3,19.4 9.3,19.5 C9.3,19.5 9.3,19.4 9.3,19.3 C9.4,18.9 9.8,18.6 10.1,18.4 C10.5,18.2 10.9,17.9 11.3,17.6 C11.4,17.5 11.4,17.4 11.5,17.3 Z" id="形状">
					</path>
					<path d="M33,1.5 C33.4,1.7 33.8,1.8 34.1,2 C34.3,2.1 34.5,2.2 34.7,2.3 C35.2,2.5 35.7,2.3 36.2,2.8 C36.5,3.1 36.5,3.6 36.5,4 C36.5,4.7 36.2,5 35.7,5.4 C35.5,5.5 35.3,5.6 35.2,5.7 C34.8,6 34.5,6.3 34.1,6.5 C33.9,6.6 33.7,6.6 33.5,6.8 C33.2,7 32.9,7.3 32.7,7.6 C32.3,8 31.9,8.6 31.6,9.1 C31.4,9.3 31.3,9.6 31.1,9.8 C30.5,10.7 30.5,11.4 30.5,12.4 C31,12.3 31.4,12.1 31.8,11.9 C32,11.8 32.2,11.8 32.3,11.7 C32.5,11.6 32.7,11.5 32.8,11.3 C33.1,11.1 33.5,10.9 33.8,10.7 C34.1,10.6 34.4,10.5 34.7,10.4 C35.1,10.2 35.5,9.9 36,9.8 C36.3,9.7 36.6,9.7 36.8,9.6 C36.9,9.5 37,9.4 37.1,9.4 C37.3,9.2 37.6,9.2 37.8,9.2 C38,9.1 38.3,9 38.5,9 C38.8,8.9 39.1,9 39.4,9 C39.6,9 39.8,8.9 40.1,8.9 C40.4,8.9 40.7,8.9 41,8.9 C41.4,8.9 41.8,8.8 42.2,8.9 C42.5,8.9 42.7,9.1 42.8,9.3 C43,9.6 43,9.9 43,10.2 C43,10.4 42.9,10.5 42.8,10.6 C42.6,10.9 42.3,11.2 42,11.4 C41.4,12 40.8,12.6 40.2,13.2 C39.8,13.7 39.8,14.1 39.2,14.5 C38.8,14.4 38.4,13.8 37.9,13.5 C37.8,13.5 37.7,13.4 37.6,13.4 C37.4,13.4 37.3,13.4 37.1,13.4 C36.8,13.4 36.5,13.6 36.3,13.7 C36,13.8 35.6,13.7 35.3,13.8 C35.1,13.9 34.9,14.1 34.8,14.2 C34.6,14.3 34.4,14.5 34.2,14.6 C33.9,14.8 33.6,15.1 33.3,15.4 C33.1,15.6 32.9,15.7 32.6,15.9 C32,16.4 30.4,18 30.4,18.7 C30.4,19 30.5,19.2 30.5,19.5 C30.5,19.9 30.5,20.3 30.5,20.7 C30.5,21.1 30.5,21.6 30.5,22 C30.5,22.2 30.4,22.4 30.2,22.5 C30.1,22.6 29.9,22.6 29.8,22.6 C29.2,22.4 28.1,20.8 27.8,20.3 C27.7,20.1 27.7,19.8 27.5,19.5 C27.4,19.3 27.1,19.2 27,19.1 C27,18.8 27.3,18.7 27.3,18.5 C27.3,18.3 27.2,18.1 27.2,17.9 C27.2,17.6 27.2,17.4 27.1,17.1 C27.1,16.8 27,16.5 27,16.2 C27,15.8 27,15.5 27,15.1 C27,14.8 27,14.4 27,14.1 C27.1,13.6 27.2,13.2 27.3,12.7 C27.3,12.4 27.3,12.1 27.4,11.8 C27.6,11.2 27.9,10.7 28.1,10.1 C28.2,9.9 28.3,9.6 28.4,9.4 C28.5,9.1 28.7,8.8 28.9,8.5 C29,8.3 29.2,8.1 29.3,7.8 C29.4,7.6 29.5,7.3 29.7,7.1 C29.9,6.9 30.1,6.7 30.2,6.5 C30.4,6.3 30.5,6.1 30.7,5.9 C31.1,5.4 31.7,5 32.1,4.5 C32.5,4 32.9,3.4 33.1,2.8 C33.2,2.1 32.9,1.8 33,1.5 Z" id="路径">
					</path>
					<path d="M37.6,15 C37.7,15 37.9,15 38,15.1 C38.3,15.2 38.5,15.3 38.7,15.6 C38.9,15.9 39,16.4 39.1,16.7 C39.1,16.9 39.1,17.2 39.2,17.4 C39.2,17.7 39.3,17.9 39.3,18.2 C39.3,18.6 39.3,19 39.3,19.4 C39.3,19.8 39.5,20.1 39.6,20.5 C39.6,20.8 39.6,21 39.7,21.3 C39.7,21.5 39.8,21.7 39.8,21.9 C39.8,22.3 39.8,22.6 39.8,23 C39.9,23.5 40.1,23.8 40.2,24.3 C40.3,24.5 40.2,24.8 40.3,25 C40.4,25.5 40.5,26.1 40.6,26.6 C40.6,27 40.6,27.3 40.6,27.7 C40.6,28.1 40.6,28.4 40.6,28.8 C40.5,29.7 40.1,30.5 39.8,31.3 C39.7,31.5 39.7,31.8 39.6,32 C39.5,32.4 38.8,33.2 38.5,33.5 C38.2,33.9 38,34.3 37.8,34.7 C37.3,35.4 35.9,36.5 35.2,36.8 C34.8,37 34.1,37 33.7,36.9 C33.5,36.8 33.4,36.7 33.2,36.6 C33,36.5 32.5,36.2 32.4,36 C32.3,35.6 33.2,34.7 33.5,34.5 C33.9,34.2 34.4,33.9 34.8,33.5 C35,33.3 35.1,33 35.3,32.8 C35.6,32.4 35.9,32.1 36.2,31.7 C36.4,31.3 36.6,30.9 36.8,30.5 C36.9,30.2 37.1,29.9 37.2,29.6 C37.3,29.3 37.4,28.9 37.4,28.6 C37.4,28.4 37.4,28.1 37.4,27.9 L37.4,26.7 C37.4,26.2 37.4,25.7 37.4,25.2 C37.4,24.9 37.2,24.7 37.2,24.4 C37,23.9 37,23.6 37,23.4 C36.9,23.1 36.9,22.8 36.8,22.5 C36.7,22.2 36.7,21.9 36.7,21.6 C36.7,21.3 36.8,21 36.7,20.8 C36.7,20.6 36.6,20.3 36.5,20.1 C36.5,19.9 36.5,19.7 36.4,19.6 C36.4,19.4 36.3,19.3 36.3,19.1 C36.2,18.9 36.2,18.7 36.2,18.5 C36.1,18.1 35.9,17.8 35.8,17.4 C35.7,17.2 35.7,17 35.7,16.8 C35.6,16.4 35.5,16 35.7,15.6 C36,15.1 36.5,15.2 37,15.1 C37.2,15.1 37.4,15 37.6,15 Z" id="路径">
					</path>
					<path d="M16.8,0.7 C17.4,0.7 18.2,0.6 18.7,0.8 C19.3,0.9 19.6,1.1 19.9,1.6 C19.9,1.8 19.9,1.9 19.9,2 C19.6,2.5 18.9,3.2 18.5,3.5 C18.3,3.6 18.2,3.7 18,3.7 C17.6,3.4 17.4,2.9 17.1,2.6 C16.9,2.3 16.5,2.2 16.2,2 C16,1.9 15.6,1.7 15.5,1.5 C15.5,1.4 15.5,1.4 15.5,1.4 C15.7,1.1 16.5,0.7 16.8,0.7 Z" id="路径">
					</path>
				</g>
				<g id="编组" transform="translate(64.000000, 69.000000)" fill="#FEFEFE" fill-rule="nonzero">
					<path d="M16,11.2 C16.2,11.3 16.4,11.4 16.5,11.5 C16.8,11.8 16.6,12.2 16.6,12.6 C16.7,12.7 16.8,12.8 16.8,12.9 C16.8,13 16.8,13 16.8,13.1 C16.8,13.1 16.7,13 16.6,12.9 C16.5,12.9 16.5,12.9 16.4,12.9 C16.3,13 16.3,13.4 16.3,13.5 C16.3,13.9 16.2,14.3 16.1,14.7 C16,15 15.9,15.3 15.9,15.6 C16.1,15.6 16.2,15.6 16.4,15.6 C16.6,15.6 16.7,15.5 16.9,15.4 C17.1,15.3 17.3,15.3 17.5,15.2 C17.7,15.1 17.8,15 18,15 C18.2,14.9 18.4,14.8 18.6,14.7 C18.8,14.6 19,14.5 19.2,14.4 C19.5,14.3 19.9,14.2 20.2,14.1 C20.4,14 20.6,13.9 20.9,13.8 C21.1,13.8 21.3,13.8 21.4,13.8 C22,13.7 22.6,13.5 23.3,13.4 C23.7,13.3 24.1,13.1 24.4,13 C24.5,13 24.7,13 24.8,13 C25.2,13 25.5,13.1 25.8,13.1 C26,13.1 26.2,13.1 26.4,13.2 C26.5,13.3 26.7,13.4 26.8,13.5 C27.1,13.8 27.6,14.7 27.7,15.1 C27.8,15.5 27.8,16.5 27.7,16.9 C27.6,17.3 27.5,17.7 27.5,18.1 C27.5,18.3 27.5,18.6 27.5,18.8 C27.5,19 27.4,19.2 27.4,19.5 C27.4,19.9 27.4,20.6 27.4,21.1 C27.4,21.5 27.5,21.8 27.5,22.2 C27.5,22.6 27.3,22.8 27.2,23.2 C27.1,23.4 27.1,23.7 27,23.9 C26.9,24.1 26.8,24.2 26.7,24.4 C26.6,24.6 26.5,24.7 26.5,24.9 C26.4,25 26.3,25.2 26.3,25.3 C26.2,25.5 26.2,25.7 26.1,25.9 C26,26.3 25.8,26.7 25.6,27.1 C25.5,27.3 25.3,27.5 25.1,27.8 C25,28 24.9,28.2 24.8,28.3 C24.6,28.6 24.2,28.9 23.9,29.2 C23.7,29.3 23.5,29.5 23.4,29.6 C23.2,29.7 23.1,29.9 22.9,30 C22.7,30.2 22.4,30.3 22.2,30.5 C22,30.6 21.9,30.8 21.7,31 C21.5,31.1 21.3,31.2 21,31.2 C20.2,31.5 19.6,31.7 18.8,31.9 C18.6,31.9 18.3,32 18.1,32 C17.8,32 17.6,32 17.3,32 C17.1,32 16.8,32 16.6,32 C16.3,32 16.1,31.9 15.9,31.8 C15.7,31.7 15.5,31.7 15.3,31.6 C14.9,31.4 14.6,31 14.3,30.7 C14.2,30.6 14.1,30.5 14,30.4 C14,30.4 13.9,30.3 13.9,30.3 C13.9,30.3 13.9,30.2 14,30.2 C14.2,30.2 14.6,30.5 14.8,30.6 C15.2,30.8 15.9,31.2 16.3,31.3 C16.5,31.3 16.7,31.3 16.8,31.4 C17.7,31.5 17.8,31.3 18.6,31 C18.9,30.9 19.1,30.9 19.4,30.8 C19.6,30.7 19.9,30.4 20.1,30.3 C20.5,30 21,29.8 21.4,29.5 C21.6,29.3 21.7,29 21.9,28.8 C22.2,28.4 22.6,28.1 22.9,27.8 C23.2,27.4 23.3,26.9 23.5,26.5 C23.6,26.2 23.7,25.9 23.8,25.6 C23.9,25.3 23.9,25 24,24.8 C24.2,24.3 24.5,23.9 24.7,23.4 C24.8,22.9 24.7,22.4 24.8,21.9 C24.8,21.5 25,21.1 25,20.7 C25,20.5 25,20.3 25.1,20.1 C25.1,19.9 25.2,19.7 25.2,19.5 C25.2,19.3 25.2,19.1 25.1,19 C25,18.5 25,18.1 24.9,17.7 C24.7,17.4 24.4,17.1 24.2,16.9 C24,16.7 23.9,16.5 23.8,16.3 C23.4,16.3 23.1,16.3 22.7,16.4 C22.2,16.5 21.8,16.8 21.3,16.9 C20.7,17 20,17 19.4,17.2 C19,17.3 18.6,17.6 18.2,17.8 C17.9,17.9 17.7,18 17.4,18.1 C16.9,18.3 16.5,18.5 16,18.7 C15.7,18.8 15.4,18.9 15.1,19.1 C14.8,19.2 14.6,19.4 14.3,19.6 C13.9,19.8 13.5,20 13.1,20.2 C12.8,20.3 12.6,20.5 12.3,20.6 C12.2,20.6 12.1,20.6 12,20.6 C11.8,20.5 11.6,20.4 11.5,20.2 C11.3,19.9 11.4,19.5 11.4,19.2 C11.5,18.9 12,17.9 12.2,17.6 C12.3,17.4 12.4,17.3 12.5,17.2 C12.6,17 12.7,16.8 12.9,16.6 C13.1,16.4 13.3,16.3 13.5,16.1 C13.7,15.9 14,15.7 14.2,15.5 C14.3,15.4 14.4,15.3 14.5,15.1 C14.8,14.8 15.1,14.4 15.3,14.1 C15.6,13.6 15.5,13.3 15.6,12.8 C15.8,11.7 16,11.5 16,11.2 Z" id="路径">
					</path>
					<path d="M11.5,13.7 L11.5,13.7 C11.5,14.2 11.2,14.5 11.1,14.9 C11,15.1 10.9,15.3 10.9,15.5 C10.9,15.6 10.8,15.8 10.8,15.9 C10.7,16.1 10.6,16.2 10.6,16.4 C10.5,16.6 10.6,16.9 10.6,17.1 C10.6,17.5 10.5,17.9 10.4,18.3 C10.2,18.8 10,19.1 9.6,19.5 C9.4,19.8 9,20.2 8.9,20.5 C8.7,21.1 8.9,21.7 8.7,22.3 C8.6,22.6 8.5,22.9 8.4,23.2 C8.3,23.5 8.2,23.8 8,24.1 C7.9,24.3 7.8,24.5 7.7,24.7 C7.6,24.9 7.5,25.1 7.5,25.3 C7.4,25.6 7.3,25.8 7.2,26.1 C7.2,26.3 7.2,26.4 7.2,26.6 C7.4,26.9 7.7,27 7.8,27.2 C7.9,27.5 7.9,27.9 7.8,28.1 C7.6,28.6 7.4,29.1 7.2,29.7 C7.1,29.9 7,30.1 6.9,30.3 C6.7,30.5 6.5,30.6 6.4,30.8 C6.3,31 6.1,31.2 5.9,31.3 C5.6,31.4 5,31.3 4.8,31.2 C4.5,31.1 4.2,30.8 4,30.5 C3.9,30.2 3.8,29.7 4,29.4 C4.1,29.3 4.1,29.1 4.2,29 C4.3,28.8 4.3,28.5 4.4,28.3 C4.5,28.1 4.6,28 4.7,27.8 C4.9,27.5 5.1,27.1 5.2,26.7 C5.3,26.4 5.3,26.2 5.4,25.9 C5.4,25.8 5.5,25.6 5.5,25.5 C5.6,25.2 5.6,24 5.5,23.7 L5.5,23.7 C5.5,23.7 5.5,23.7 5.5,23.6 C5.4,23.5 5.3,23.5 5.2,23.4 C5,23.3 4.7,23.3 4.5,23.2 C4.2,23.1 4,22.9 3.7,22.9 C3.5,22.9 3.2,22.9 3,22.9 C2.6,22.9 2,22.9 1.7,22.6 C1.6,22.5 1.4,22.4 1.3,22.3 C1,22 0.7,21.6 0.7,21.1 C0.7,20.6 1.1,19.6 1.4,19.2 C1.6,18.9 1.9,18.7 2.1,18.4 C2.4,18.1 2.6,17.7 2.8,17.3 C3,17 3.4,16.7 3.6,16.4 C3.8,16.2 3.9,16.1 4,15.9 C4.2,15.7 4.5,15.6 4.7,15.4 L4.9,15.5 C4.8,15.7 4.6,15.8 4.5,16 C4.2,16.5 4.5,17.1 4.5,17.7 C4.5,18.1 4.2,18.5 4.1,19 C4.1,19.2 4.1,19.3 4.2,19.5 C4.6,20 5.4,19.8 5.9,19.9 C6.1,19.9 6.3,20 6.6,20 C6.8,20 7.2,20.1 7.4,20 C7.6,19.9 7.8,19.7 7.9,19.6 C8.1,19.4 8.3,19.2 8.4,19 C8.5,18.9 8.6,18.7 8.7,18.5 L9.3,17.5 C9.4,17.3 9.6,17.1 9.7,16.8 C9.8,16.6 9.9,16.4 10,16.2 C10.1,16 10.4,15.8 10.5,15.6 C10.7,15.2 10.7,14.8 10.9,14.4 C11,14.2 11.2,14.1 11.2,14 C11.3,14.1 11.3,13.9 11.5,13.7 C11.5,13.8 11.5,13.8 11.5,13.7 Z" id="路径">
					</path>
					<path d="M6.2,0.2 C6.8,0.3 7.4,0.9 7.8,1.3 C8,1.5 8.1,1.8 8.3,2 C8.4,2.2 8.5,2.3 8.6,2.5 C9,3.1 9,3.7 9,4.4 C9,4.7 8.9,5.5 8.7,5.8 C8.5,6.3 7.6,7 7.1,7.2 C6.8,7.3 6.5,7.2 6.2,7.5 C5.9,7.8 5.7,8.3 5.7,8.8 C6,8.9 6.3,9.1 6.5,9.3 C6.6,9.4 6.7,9.6 6.9,9.7 C7.1,9.8 7.3,9.9 7.4,10.1 C7.8,10.3 8.1,10.7 8.3,11.1 C8.4,11.3 8.9,12 8.8,12.2 C8.8,12.4 8.6,12.5 8.5,12.6 C8.2,12.9 7.8,13 7.5,13.2 C7,13.6 6.5,14.1 5.9,14.4 C5.7,14.5 5.5,14.6 5.4,14.7 C5.5,14.5 5.6,14.3 5.7,14.2 C6,13.7 6.3,13.5 6.5,12.9 C6.1,12.9 5.8,12.9 5.4,12.9 C5.1,12.9 4.7,12.8 4.4,12.7 C4.1,12.6 3.8,12.6 3.6,12.5 C3.5,12.5 3.4,12.4 3.2,12.3 C2.7,12 1.9,11.4 1.8,10.8 C1.8,10.6 1.8,10.3 1.9,10.1 C2,9.9 2.2,9.7 2.4,9.4 C2.6,9.1 2.9,8.8 3.1,8.5 C3.4,8.2 3.6,7.8 3.9,7.5 C4.1,7.3 4.4,7.3 4.7,7.1 C4.9,6.9 6,5.9 6.2,5.7 C6.3,5.6 6.3,5.4 6.4,5.3 C6.5,5.1 6.6,4.9 6.6,4.7 C6.7,4.3 6.7,3.2 6.6,2.8 C6.6,2.5 6.4,2.3 6.4,2 C6.4,1.6 6.4,1.3 6.4,0.9 C6.3,0.7 6.1,0.4 6.2,0.2 Z" id="路径">
					</path>
					<path d="M20.5,2.9 C20.9,2.9 21.3,3 21.7,3.1 C22,3.2 22.4,3.3 22.5,3.6 C22.6,3.8 22.6,4.1 22.6,4.3 C22.5,4.6 22.3,4.9 22,5.1 C21.3,5.5 20.8,5.4 20.1,5.3 C19.6,5.5 18.9,6.4 18.6,6.8 C18.5,7 18.4,7.2 18.3,7.4 C18.1,7.7 17.9,7.9 17.7,8.2 C17.4,8.6 17.3,9.1 16.8,9.4 C16.7,9.4 16.7,9.5 16.6,9.5 C16.6,9.4 16.6,9.4 16.6,9.3 C16.7,9.1 16.7,8.9 16.7,8.7 C16.7,8.5 16.7,8.3 16.7,8.1 C16.8,7.8 16.9,7.6 16.9,7.3 C16.9,7 16.8,6.7 16.8,6.4 C16.7,6.4 16.5,6.4 16.4,6.5 C16.1,6.6 15.6,6.9 15.3,7.1 C15,7.3 14.8,7.6 14.5,7.8 C14.2,8.1 14.1,8.3 14.1,8.7 C13.9,8.6 13.7,8.6 13.5,8.6 C13.3,8.9 13.1,9.1 13,9.4 C12.9,9.5 12.8,9.7 12.7,9.8 C12.5,10.1 12.5,10.5 12.3,10.8 C12.3,10.8 12.3,10.8 12.2,10.8 L12.2,10.8 C12.2,10.7 12.2,10.6 12.3,10.5 C12.3,10.5 12.3,10.4 12.3,10.4 L12.3,10.4 C12.3,10.4 12.2,10.4 12.2,10.4 C12.1,10.4 12.1,10.4 12.1,10.4 C12.1,10.4 12,10.3 12,10.2 C12,9.8 12.5,9.4 12.8,9.1 C13,8.9 13.4,8.5 13.5,8.3 C13.6,8 13.7,7.8 13.8,7.5 C13.8,7.4 13.9,7.2 14,7.1 C14.2,6.5 14.5,6.1 14.9,5.6 C15.2,5.3 15.5,4.9 15.9,4.7 C16.6,4.3 17.1,4.3 17.8,4 C18,3.9 18.3,3.8 18.5,3.6 C18.7,3.5 18.9,3.4 19.1,3.4 C19.2,3.3 19.4,3.2 19.5,3.2 C19.8,3 20.2,2.9 20.5,2.9 Z" id="路径">
					</path>
					<path d="M15.2,20.7 C15.7,20.7 16.7,20.6 17.2,20.7 C17.4,20.7 17.7,20.8 17.9,20.9 C18.6,21.2 19.1,21.6 19.6,22.1 C19.8,22.2 19.9,22.3 20.1,22.5 C20.2,22.6 20.3,22.8 20.3,22.9 C20.4,23.2 20.5,24.1 20.3,24.4 C20.2,24.6 20.1,24.7 20,24.8 C19.6,25.2 19.1,25.5 18.6,25.7 C18.6,25.7 18.6,25.7 18.5,25.7 C18,25.8 17.9,25.2 17.8,24.9 C17.7,24.7 17.6,24.6 17.5,24.4 C17.4,24.1 17.4,23.8 17.2,23.6 C16.9,23.3 16.5,23.1 16.1,22.9 C15.7,22.7 15.5,22.3 15.1,22.2 C14.9,22.1 14.6,22 14.3,22 C14,21.9 13.7,21.7 13.5,21.5 C13.5,21.5 13.4,21.4 13.4,21.4 C13.4,21.3 13.4,21.3 13.5,21.3 C13.7,20.9 14.9,20.7 15.2,20.7 Z" id="路径">
					</path>
				</g>
				<path d="M119,68 C119.2,68 119.4,68.1 119.6,68.1 C119.8,68.1 119.9,68.1 120.1,68.1 C120.2,68.1 120.2,68.1 120.3,68.2 C120.5,68.3 120.7,68.5 120.8,68.7 C120.9,68.9 120.9,69.2 120.8,69.4 C120.6,69.8 120.1,70.3 119.7,70.6 C119.5,70.7 119.3,70.8 119.2,70.9 C119,71 118.9,71.2 118.6,71.3 C118.4,71.2 118.2,71 118,71 C117.8,70.9 116.3,71 116,71 C115.7,71 115.5,71 115.4,71.2 C115.2,71.4 115.1,71.6 115.1,71.9 C115.1,72.1 115.1,72.4 115.1,72.7 C115.1,72.9 115.2,73.1 115.2,73.3 C115.2,73.6 115.2,74 115.2,74.3 C115.2,74.7 115.2,75.1 115.2,75.5 C115.2,75.9 115,76.4 115,76.9 C115,77.1 115,77.4 115,77.6 C114.9,77.9 114.8,78.1 114.8,78.4 C114.8,78.7 114.8,79 114.8,79.3 C114.8,79.7 114.8,80 114.8,80.4 C114.8,80.6 114.9,80.8 114.9,81 C114.9,81.2 114.9,81.5 114.9,81.7 C114.9,81.9 115,82.1 115,82.3 C115,82.6 115,83 115,83.3 C115.1,83.8 115.2,84.2 115.2,84.7 C115.2,84.9 115.3,85.2 115.3,85.4 L115.3,85.4 C115.6,85.3 115.9,85.1 116,84.7 C116.1,84.6 116.1,84.4 116.2,84.3 C116.4,83.9 116.7,83.6 116.9,83.2 C117,83 117.1,82.7 117.3,82.4 C117.5,82.1 117.8,81.9 118.1,81.6 C118.3,81.4 118.4,81.2 118.6,81 C118.8,80.8 119,80.6 119.1,80.4 C119.3,80.2 119.5,79.9 119.8,79.7 C120.1,79.5 120.4,79.3 120.7,79 C121,78.8 121.2,78.5 121.5,78.2 C121.7,78 122,77.9 122.3,77.7 C122.5,77.5 122.7,77.3 122.9,77.1 C123,77 123.1,76.8 123.3,76.7 C123.5,76.4 123.8,76.2 124.1,75.9 C124.3,75.7 124.5,75.4 124.6,75.2 C124.7,75 124.9,74.8 125,74.6 C125.1,74.5 125.3,73.8 125.2,73.7 C125.2,73.7 125.2,73.6 125.1,73.6 C125,73.5 124.4,73.7 124.2,73.7 C123.9,73.8 123.7,74 123.4,74.1 C123.2,74.2 123,74.3 122.9,74.4 C122.7,74.5 122.7,74.8 122.5,75 C122.4,75.1 122.2,75.2 122.1,75.4 L121.2,76.3 C121.1,76.4 120.9,76.6 120.8,76.8 C120.6,77 120.3,77.1 120.1,77.3 C120,77.5 119.9,77.8 119.8,78 C119.7,78.3 119.5,78.5 119.4,78.7 C119.3,78.9 119.3,79.1 119.2,79.3 C119.1,79.6 118.7,79.9 118.4,80.1 C118.3,80.1 118.2,80.2 118.1,80.2 C118.1,80.2 118,80.1 118,80.1 C117.6,79.8 117.1,78.9 117,78.5 C117,78.4 117,78.3 117,78.2 C117,77.9 117.1,77.7 117.1,77.4 C117.1,77.2 117.1,77 117.1,76.7 C117.2,76.3 117.3,75.9 117.5,75.6 C117.6,75.4 117.6,75.2 117.7,75.1 C117.8,75 117.8,74.8 118,74.7 C118.4,74.3 118.8,74.9 119.3,74.9 C119.4,74.9 119.4,74.9 119.5,74.9 C119.6,74.9 119.8,74.8 119.9,74.8 C120.1,74.7 120.3,74.7 120.5,74.6 C120.7,74.5 120.8,74.4 121,74.3 C121.2,74.2 121.4,74.2 121.6,74.1 C121.8,74 122,73.8 122.2,73.7 C122.4,73.6 122.7,73.6 122.9,73.5 C123.1,73.4 123.4,73.3 123.6,73.2 C124,73 124.3,72.8 124.7,72.7 C125,72.6 125.2,72.7 125.5,72.6 C125.8,72.5 125.8,72.4 126.1,72.4 C126.3,72.4 126.5,72.5 126.7,72.5 C126.8,72.5 126.9,72.5 127.1,72.5 C127.3,72.5 127.5,72.7 127.7,72.9 C128.1,73.3 128.3,74 128.3,74.5 C128.3,74.8 128.2,75 128.1,75.3 C128.1,75.4 128.1,75.6 128,75.7 C128,76 127.9,76.2 127.7,76.4 C127.6,76.5 127.5,76.7 127.4,76.8 C127.3,77 127.2,77.1 127.1,77.3 C127,77.4 126.9,77.6 126.8,77.7 C126.7,77.8 126.6,78 126.5,78.2 C126.3,78.4 126.1,78.6 125.9,78.8 C125.7,79 125.5,79.3 125.2,79.5 C125,79.6 124.8,79.7 124.6,79.9 C124.3,80.1 124.1,80.3 123.9,80.5 C123.7,80.6 123.6,80.7 123.4,80.8 C123.2,80.9 123.1,81.1 122.9,81.2 C122.7,81.4 122.4,81.5 122.2,81.7 C122,81.9 121.8,82.1 121.6,82.3 C121.4,82.5 121.3,82.6 121.1,82.8 C121,82.9 120.9,83.1 120.9,83.3 C120.8,83.6 120.8,83.9 120.6,84.1 C120.5,84.3 120.3,84.4 120.2,84.6 C120,84.9 119.8,85.3 119.6,85.6 C119.6,85.7 119.5,85.8 119.5,85.9 C119.5,86 119.5,86.2 119.5,86.3 C119.4,86.7 119.3,87.1 119.3,87.5 C119.3,87.6 119.3,87.8 119.3,87.9 C119.3,88.1 119.2,88.3 119.2,88.4 C119.2,88.8 119.2,89.3 119.2,89.7 C119.2,89.7 119.2,89.7 119.3,89.7 C119.5,89.7 119.6,89.6 119.8,89.6 C120.1,89.6 120.3,89.5 120.6,89.5 C120.9,89.5 121.2,89.5 121.4,89.5 C121.6,89.5 121.8,89.5 122,89.5 C122.3,89.6 122.8,90.2 122.9,90.4 C122.8,90.7 122.7,91.1 122.7,91.5 C122.7,91.8 122.7,92 122.7,92.3 C122.7,92.5 122.6,92.7 122.5,92.9 C122.5,93 122.4,93.2 122.4,93.3 C122.4,93.4 122.4,93.6 122.4,93.7 C122.4,94 122.3,94.4 122.2,94.7 C122.2,94.9 122.1,95 122.1,95.2 C121.9,95.7 121.6,95.5 121.2,95.7 C121,95.8 120.6,96.3 120.5,96.5 C120.4,96.9 120.9,97.2 121.3,97.4 C121.6,97.5 121.9,97.5 122.1,97.7 C122.4,97.9 123,98.4 123.2,98.7 C123.4,99 123.6,99.6 123.5,99.9 C123.4,100.2 123.1,100.3 122.8,100.4 C122.7,100.4 122.5,100.4 122.4,100.5 C122.2,100.6 122.1,100.7 122,100.8 C121.6,101 121.1,100.7 120.6,100.6 C120.3,100.7 120.2,100.9 119.9,101 C119.4,101.1 119,100.6 118.5,100.8 C118.3,100.9 118.2,101.2 118,101.3 C117.9,101.4 117.7,101.5 117.5,101.6 C117.3,101.7 117.1,101.9 116.9,102 C116.8,102.1 116.5,102.2 116.3,102.1 C116.3,102.1 116.3,102.1 116.3,102.1 C116.2,102.1 116.2,102 116.1,102 C116,101.9 116,101.8 116,101.8 C116,101.7 116,101.7 116.1,101.6 C116.2,101.4 116.5,101.4 116.6,101.2 C116.8,101 117.1,100.9 117.3,100.7 C117.6,100.5 117.9,100.3 118.2,100.2 C118.3,100.1 118.5,100.1 118.6,100.1 C118.9,100 119.4,99.8 119.6,99.6 C119.7,99.5 119.7,99.3 119.7,99.1 C119.2,99.1 118.7,99.1 118.3,99.1 C118,99.1 117.8,99.3 117.5,99.3 C117,99.4 116.8,99.3 116.3,99.5 C116.1,99.6 115.8,99.6 115.5,99.7 C115.3,99.6 115,99.4 114.9,99.2 C114.6,98.9 114.8,98.4 114.9,98 C114.9,97.9 114.9,97.7 114.9,97.6 C114.9,97.2 115.2,97 115.5,96.9 C115.6,96.9 115.8,96.8 115.9,96.8 C116,96.8 116.7,96.4 116.7,96.3 C116.7,96.3 116.7,96.2 116.7,96.2 L116.7,96.2 C116.3,96.1 115.8,96.5 115.4,96.5 C115.1,96.5 114.8,96.5 114.5,96.5 C114.3,96.5 114.1,96.5 113.9,96.5 C113.8,96.5 113.7,96.5 113.7,96.4 C113.5,96.2 113.5,95.8 113.5,95.6 C113.5,95.2 113.5,94.7 113.5,94.3 C113.5,93.1 113.6,92.8 114.6,92.1 C114.9,91.9 115.2,91.7 115.5,91.5 C115.9,91.3 116.3,91.2 116.6,90.9 C116.7,90.8 116.9,90.5 116.9,90.3 C116.9,90.1 116.9,89.9 116.9,89.7 C116.9,89.5 116.9,89.3 116.9,89 C116.9,88.8 116.8,88.7 116.8,88.5 C116.8,88.3 116.8,88.2 116.8,88 C116.5,88.2 115.9,88.5 115.7,88.8 C115.3,89.1 114.9,89.6 114.4,89.8 C114.1,89.9 113.4,90.1 113.2,90 C113,89.9 112.8,89.7 112.7,89.5 C112.8,89.2 113,88.7 113.2,88.5 C113.3,88.4 113.4,88.3 113.5,88.1 C113.6,88 113.7,87.8 113.8,87.7 C113.9,87.6 114,87.5 114.1,87.3 C114.2,87.2 114.3,87 114.4,86.9 C114.5,86.8 114.6,86.6 114.6,86.5 C114.5,86.2 114.3,85.9 114.2,85.6 C114,85.2 113.8,84.8 113.7,84.4 C113.6,84.2 113.5,83.3 113.4,83.2 C113.4,83.2 113.4,83.2 113.4,83.2 C113.3,83.2 113.2,83.1 113.1,83.1 C113,83.2 113,83.2 113,83.3 C112.6,84.1 112.7,85 112.4,85.8 C112.3,86 112.2,86.2 112.1,86.4 C112,86.7 111.9,86.9 111.8,87.2 C111.7,87.4 111.6,87.6 111.5,87.8 C111.3,88.1 110.9,88.5 110.7,88.6 C110.5,88.7 110.4,88.8 110.2,88.9 C110,89.1 109.8,89.3 109.5,89.4 C109.3,89.5 109,89.7 108.8,89.8 C108.7,89.9 108.6,89.9 108.5,89.9 C108.2,90 107.8,89.9 107.5,89.8 C107.2,89.7 106.9,89.5 106.8,89.2 C106.5,88.7 106.4,88.2 106.6,87.7 C106.7,87.3 106.8,87.3 107.2,87.1 C107.4,87 107.5,86.8 107.7,86.7 C108,86.5 108.2,86.3 108.4,86.1 C108.5,85.9 108.6,85.7 108.7,85.5 C108.8,85.2 109,84.9 109.2,84.7 C109.5,84.4 109.8,84.1 110.1,83.8 C110.3,83.6 110.3,83.4 110.5,83.2 C110.6,83.1 110.7,83 110.8,82.9 C110.9,82.7 111,82.4 111.1,82.2 C110.9,82.3 110.7,82.2 110.5,82.3 C110.2,82.4 110,82.6 109.7,82.7 C109.6,82.8 109.4,82.8 109.3,82.8 C109.1,82.9 109,83.1 108.8,83.3 C108.6,83.4 108.5,83.5 108.3,83.6 C108.2,83.7 108,83.8 107.9,83.9 C107.9,83.9 107.8,83.9 107.8,84 C107.8,84 107.8,84 107.8,84 C107.7,84 107.5,84 107.4,84 C107.4,83.8 107.4,83.6 107.4,83.3 C107.4,83.1 107.3,82.9 107.3,82.7 C107.3,82.5 107.3,82.2 107.4,82 C107.7,80.3 109,80.3 109.9,79.2 C110,79.1 110.3,78.8 110.3,78.6 C110.3,78.6 110.3,78.6 110.3,78.5 C110.2,78.5 110.1,78.5 110,78.6 C109.9,78.6 109.8,78.7 109.7,78.8 C109.5,79 109.3,79.2 109.1,79.3 C108.9,79.3 108.3,79.3 108.1,79.2 C107.9,79 107.5,78.5 107.4,78.3 C107.4,78.2 107.4,78 107.3,77.9 C107.2,78 107.1,78.1 107,78.3 C106.9,78.5 106.8,78.8 106.6,79 C106.5,79.2 106.4,79.3 106.3,79.5 C106.2,79.7 106.2,79.9 106.2,80 C106.1,80.2 106.1,80.5 106,80.7 C105.9,80.9 105.8,81.1 105.8,81.4 C105.7,81.7 105.7,82 105.6,82.3 C105.5,82.6 105.5,82.8 105.4,83.1 C105.4,83.4 105.4,83.8 105.4,84.1 C105.4,84.3 105.3,84.5 105.3,84.8 C105.3,85.4 105.3,86 105.3,86.6 C105.3,86.9 105.2,87.2 105.2,87.5 C105.2,88.2 105.2,88.9 105.2,89.7 C105.2,90 105.2,90.3 105.2,90.6 C105.2,90.8 105.1,91 105,91.2 C104.9,91.3 104.8,91.3 104.7,91.3 C104.4,91.3 104.2,91.2 104,91 C103.9,90.9 103.8,90.7 103.7,90.5 C103.4,89.8 103.4,89.3 103.4,88.6 C103.4,88.4 103.4,88.1 103.4,87.8 C103.5,87.6 103.6,87.3 103.7,87.1 C103.8,86.9 103.7,86.7 103.8,86.6 C103.9,86.2 104,85.9 104.1,85.5 C104.1,85.3 104.1,85.2 104.2,85 C104.3,84.5 104.4,84.1 104.5,83.6 C104.6,83.4 104.6,83.2 104.7,83 C104.8,82.8 104.9,82.6 104.9,82.4 C105,82.1 105,81.8 105.1,81.5 C105.1,81.3 105.2,81.2 105.3,81 C105.3,80.8 105.3,80.7 105.3,80.5 C105.4,80.2 105.5,80 105.5,79.7 C105.5,79.3 105.5,78.8 105.5,78.4 C105.5,78.2 105.6,78 105.6,77.8 C105.6,77.6 105.6,77.4 105.7,77.2 C105.7,77 105.8,76.8 105.9,76.7 C106,76.4 105.9,76 106,75.7 C105.5,75.7 105.1,75.8 104.6,76 C104.5,76.1 104.3,76.1 104.2,76.2 C104,76.3 103.8,76.4 103.5,76.5 C103.2,76.6 102.7,76.7 102.4,76.5 C102.1,76.3 101.9,75.9 101.8,75.6 C101.7,75.3 101.7,75 101.9,74.8 C102,74.6 102.4,74.3 102.6,74.2 C102.9,74.1 103.2,74.2 103.5,74.1 C103.8,74.1 104.1,74 104.3,73.9 C104.7,73.8 105,73.4 105.4,73.2 C105.6,73.1 105.9,73.1 106.2,73 C106.5,72.9 106.8,72.8 107.2,72.6 C107.5,72.5 107.7,72.3 108,72.2 C108.3,72.1 108.5,72.1 108.8,72.1 C108.9,72.1 109,72 109.1,72 C109.3,71.9 109.5,71.9 109.7,71.9 C109.9,71.8 110.2,71.7 110.4,71.7 C110.7,71.6 111,71.6 111.2,71.5 C111.4,71.4 111.6,71.3 111.8,71.2 C112,71.1 112.2,71.1 112.4,71.1 C112.6,71 112.7,71 112.9,70.9 L113.8,70.6 C114,70.5 114.1,70.5 114.3,70.4 C114.7,70.2 115.1,70 115.5,69.8 C115.6,69.7 115.8,69.7 115.9,69.7 C116.1,69.6 116.4,69.5 116.6,69.4 C116.9,69.3 117.2,69.1 117.6,69 C117.9,68.9 118.3,68.7 118.7,68.6 C118.9,68.6 119,68.5 119.2,68.5 C118.7,68.1 118.9,68.1 119,68 Z M107.2,76.9 C107.5,77 107.9,77 108.2,77 C108.6,76.9 109,76.8 109.4,76.6 C109.6,76.5 109.9,76.5 110.1,76.4 C110.4,76.3 110.7,76.1 111,76 C111.4,75.9 111.8,75.9 112.3,75.9 C112.5,75.9 112.6,75.9 112.8,75.9 C113,75.9 113.2,76 113.5,76 C113.5,75.8 113.5,75.6 113.5,75.5 C113.5,75.3 113.7,75.2 113.7,75 C113.8,74.8 113.8,74.7 113.8,74.5 C113.9,74.2 114,74 114.1,73.7 C114.2,73.5 114.3,73.4 114.3,73.2 C114.4,73 114.4,72.9 114.5,72.7 C114.6,72.4 115,72.1 115,71.7 C115,71.5 115,71.3 114.8,71.2 C114.6,71.1 114.5,71 114.3,71 C114.3,71 114.2,71 114.2,71 C114,71 113.8,71.1 113.6,71.1 C113.3,71.1 113,71.1 112.7,71.2 C112.5,71.3 112.3,71.4 112.1,71.5 C111.9,71.6 111.7,71.6 111.6,71.6 C111.5,71.7 111.4,71.8 111.2,71.9 C111,72.1 110.7,72.1 110.5,72.3 C110.1,72.6 109.8,73 109.4,73.3 C109.1,73.6 108.7,73.9 108.5,74.2 C108.3,74.5 108.1,74.9 107.9,75.2 C107.8,75.4 107.6,75.6 107.4,75.8 C107.4,76.4 107.3,76.7 107.2,76.9 Z M112.1,79.6 C112.2,80 112.3,80.3 112.5,80.6 C112.6,80.8 112.7,80.8 112.9,80.9 C112.9,80.6 112.9,80.3 112.9,80.1 C112.9,79.8 113,79.2 112.9,78.9 L112.9,78.9 C112.6,79 112.3,79.1 112.1,79.5 C112.2,79.5 112.1,79.6 112.1,79.6 L112.1,79.6 C112.1,79.6 112.1,79.6 112.1,79.6 Z M119.4,93.2 C119.6,92.9 119.7,92.8 119.8,92.4 C119.8,92.3 119.9,92.2 119.8,92 C119.8,91.9 119.7,91.8 119.6,91.7 C119.5,91.7 119.5,91.6 119.4,91.6 C119.3,91.9 119.2,92.2 119.2,92.6 C119.2,92.8 119.2,92.9 119.2,93.1 C119.2,93.2 119.2,93.3 119.2,93.4 C119.2,93.4 119.3,93.4 119.3,93.4 C119.3,93.4 119.4,93.3 119.4,93.2 Z" id="形状" fill="#FEFEFE" fill-rule="nonzero">
				</path>
				<g id="编组" transform="translate(135.000000, 69.000000)" fill="#FEFEFE" fill-rule="nonzero">
					<path d="M26.8,2.2 C27.1,2.2 27.4,2.2 27.7,2.2 C28.2,2.3 28.8,2.7 29.2,3 C29.5,3.3 29.8,3.6 29.8,4 C29.8,4.3 29.7,4.5 29.7,4.8 C29.6,5.1 29.4,5.9 29.2,6.2 C29,6.5 28.7,6.8 28.5,7.1 L27.5,8.2 C27.4,8.3 27.3,8.5 27.2,8.7 C27.1,8.8 27,9 26.8,9.1 C26.7,9.2 26.6,9.3 26.6,9.4 C26.5,9.7 26.5,10.3 26.6,10.7 C26.7,10.9 26.8,11.1 26.8,11.4 C26.8,11.7 26.8,12 26.8,12.3 C26.8,12.7 27,12.8 27.3,13.1 L27.7,13.1 C27.9,12.9 28.1,12.7 28.2,12.5 C28.4,12.3 28.5,12 28.7,11.8 C29,11.4 29.7,10.9 30.2,10.6 C30.4,10.5 30.6,10.5 30.7,10.5 C30.9,10.4 31,10.3 31.2,10.2 C31.3,10.1 31.5,10.2 31.6,10.3 C32,10.5 32.9,10.8 33.1,11.1 C33.2,11.2 33.2,11.3 33.3,11.4 C33.4,11.6 33.5,11.9 33.4,12.1 C33.4,12.4 33.2,12.7 33.1,12.9 C32.7,13.5 31.7,14.4 31.1,14.8 C30.9,14.9 30.7,15 30.5,15.1 C30.3,15.3 30.1,15.5 29.9,15.6 C29.6,15.9 29.4,16.1 29.2,16.4 C29.1,16.5 29.1,16.6 29,16.8 C28.9,17 28.5,17.9 28.6,18.1 C28.6,18.2 29.4,18.2 29.6,18.2 C29.9,18.3 30.1,18.5 30.2,18.7 C30.4,19.1 30.5,19.4 30.5,19.9 C30.5,20.1 30.5,20.3 30.5,20.4 C30.5,20.6 30.4,20.7 30.2,20.9 C29.9,21.3 29.1,22.1 28.7,22.4 C29,22.7 29.4,22.7 29.7,23 C29.9,23.1 30,23.3 30.1,23.4 C30.5,23.8 31,24.4 31.5,24.7 C31.8,24.9 32.2,24.9 32.5,25 C32.9,25.2 33.1,25.5 33.5,25.6 C33.7,25.7 33.9,25.6 34.1,25.7 C34.4,25.7 34.6,25.9 34.8,25.9 C35.1,26 35.4,25.9 35.7,26.1 C35.9,26.2 36,26.4 36,26.6 C36.1,26.9 36,27.2 35.9,27.4 C35.9,27.4 35.9,27.4 35.9,27.4 C35.6,27.8 35.1,27.7 34.6,27.7 C34.4,27.7 34.3,27.7 34.1,27.7 C33.9,27.7 33.6,27.8 33.4,27.8 C33.2,27.8 33,27.7 32.8,27.6 C32.5,27.5 32.1,27.5 31.8,27.5 C31.5,27.5 31.2,27.6 30.9,27.6 C30.3,27.6 29.7,27.5 29.2,27.7 C28.8,27.8 28.4,28 28,28 C27.4,28.1 26.9,28 26.3,28 C26,28 25.8,28.2 25.6,28.2 C25.3,28.2 25,28.2 24.7,28.2 C24.4,28.2 24.1,28.3 23.8,28.3 C23.5,28.3 23.3,28.5 23,28.5 C22.8,28.6 22.5,28.5 22.3,28.6 C22,28.7 21.9,29 21.7,29.2 C21.4,29.4 21.1,29.4 20.8,29.5 C20.5,29.6 20.5,29.9 20.1,29.9 C19.9,29.9 19.2,29.9 19,29.9 C18.9,29.9 18.9,29.9 18.8,29.8 C18.6,29.6 18.4,29.3 18.4,29 C18.3,28.3 18.6,27.3 19,26.7 C19.1,26.6 19.2,26.5 19.4,26.4 C19.6,26.3 20.3,26.2 20.5,26.2 C20.8,26.2 21.1,26.4 21.4,26.3 C21.7,26.1 22.3,25.4 22.6,25.1 C22.8,24.9 23,24.8 23.2,24.6 C23.5,24.3 23.8,24 24.1,23.7 C24.4,23.4 25.4,22.6 25.5,22.2 C25.5,22.1 25.4,21.9 25.4,21.8 C25.2,21.8 25,21.8 24.8,21.8 C24.3,21.9 24.2,22.1 23.8,22.2 C23.5,22.3 22.3,22.3 21.8,22.3 C21.8,22 21.8,21.8 21.7,21.6 C21.7,21.3 21.6,21 21.7,20.8 C21.8,20.7 21.9,20.5 21.9,20.4 C22.1,20 22.3,19.6 22.5,19.3 C22.7,19 23,18.8 23.2,18.6 C23.5,18.3 23.9,17.9 24.2,17.6 C24.5,17.3 24.9,17 25.1,16.6 C25.2,16.4 25.4,16.1 25.3,15.9 C25.3,15.8 25.2,15.7 25.1,15.7 C24.8,15.6 24.4,15.6 24.1,15.7 C23.8,15.8 23.4,16 23,16.1 C22.7,16.3 22.5,16.5 22.3,16.7 C22.2,16.8 22.1,16.9 22,17 C21.8,17.1 21.6,17.2 21.4,17.3 C21.1,17.5 20.1,18.5 20,18.8 C19.9,18.9 19.9,19.1 19.9,19.3 C19.8,19.6 19.7,19.8 19.6,20.1 C19.5,20.4 19.5,20.7 19.4,20.9 C19.1,21.4 18.4,21.8 17.9,21.9 C17.6,21.8 17.4,21.6 17.1,21.4 C16.9,21.2 16.8,21.1 16.6,20.9 C16.5,20.7 16.4,20.6 16.3,20.4 C16,19.8 15.8,19.3 15.7,18.6 C15.7,18.3 15.7,17.8 15.7,17.6 C15.7,17.5 15.8,17.4 15.9,17.3 C16.2,16.9 16.3,16.8 16.7,16.5 C16.9,16.4 17,16.2 17.2,16.1 C17.4,16 17.9,15.9 18.1,15.9 C18.3,15.9 18.5,15.9 18.7,15.8 C18.8,15.7 18.9,15.6 19,15.5 C19.2,15.3 19.2,15 19.4,14.7 C19.5,14.5 19.7,14.4 19.8,14.3 C20,14.1 20.2,13.8 20.3,13.6 C20.4,13.4 20.5,13.2 20.6,13 C20.8,12.6 21.1,12.2 21.3,11.8 C21.4,11.6 21.4,11.4 21.5,11.2 C21.6,11 21.7,10.8 21.7,10.5 C21.7,10.3 21.7,10.1 21.7,10 C21.3,10 21.1,10.3 20.7,10.3 C20.5,10.3 20.2,10.2 20,10.2 C19.8,10.2 19.6,10.2 19.4,10.1 C19,10 18.4,9.5 18.1,9.1 C17.7,8.6 17.3,7.9 17.2,7.3 C17.2,7 17.2,6.7 17.2,6.4 C17.5,6.6 17.7,6.9 18,7.1 C18.4,7.3 19.3,7.5 19.7,7.4 C19.9,7.4 20,7.3 20.2,7.2 C20.3,7.2 20.4,7.1 20.6,7.1 C20.8,7 20.9,6.9 21,6.9 C21.2,6.8 21.5,6.7 21.7,6.5 C21.8,6.4 22,6.3 22.1,6.2 C22.3,6 22.5,5.9 22.7,5.7 C23,5.4 23.3,5.1 23.7,4.7 L25.2,3.2 C25.5,2.9 25.8,2.6 26.1,2.3 C26.5,2.3 26.6,2.2 26.8,2.2 Z M27.3,23.1 C27.3,23.4 27.4,23.6 27.4,23.8 C27.4,24.3 27.4,24.9 27.4,25.4 C27.4,25.8 27.4,26.2 27.4,26.6 C27.7,26.6 27.9,26.7 28.2,26.7 C28.7,26.8 29.5,26.6 30,26.5 C30.4,26.4 30.8,26.1 31,25.7 C31.1,25.5 31.1,25.3 31,25.2 C31,25.1 30.9,24.9 30.8,24.8 C30.7,24.7 30.7,24.5 30.6,24.4 C30.3,23.8 29.4,23.4 28.9,23 C28.7,22.8 28.5,22.5 28.3,22.4 C28.2,22.4 28.2,22.4 28.1,22.4 C27.7,22.5 27.5,22.7 27.3,23.1 C27.3,23.1 27.3,23.1 27.3,23.1 Z M24.4,26.3 C24.8,26.4 25.2,26.6 25.6,26.6 C25.8,26.6 26.1,26.6 26.3,26.6 C26.3,26.3 26.4,26.1 26.4,25.8 C26.4,25.5 26.4,24.7 26.4,24.5 C26.4,24.4 26.4,24.4 26.3,24.3 C26.2,24.3 26.1,24.2 26.1,24.2 C25.9,24.2 25.7,24.3 25.5,24.5 C25.3,24.6 25.1,24.8 24.9,25 C24.7,25.1 24.5,25.3 24.4,25.4 C24.2,25.5 24.1,25.7 24,25.8 C23.9,25.9 23.8,26 23.7,26.1 L23.7,26.1 C23.9,26.2 24.2,26.2 24.4,26.3 Z" id="形状">
					</path>
					<path d="M11.9,0.8 C12,0.8 12.1,0.8 12.2,0.8 C12.3,0.9 12.5,1 12.6,1.1 C13,1.5 13.5,1.8 13.7,2.3 C13.8,2.6 13.8,3 13.8,3.3 C13.8,3.6 13.8,4 13.8,4.3 C13.7,4.7 13.2,5.6 12.9,6 C12.8,6.2 12.7,6.3 12.5,6.5 C12.3,6.8 12.2,7.1 12,7.4 C11.8,7.7 11.4,7.9 11.2,8.3 C11,8.6 10.9,8.8 10.7,9.1 C10.6,9.3 10.4,9.5 10.3,9.7 C10,10.1 9.7,10.5 9.4,10.9 C9.3,11 9.2,11.2 9.1,11.4 C9,11.5 8.9,11.7 8.7,11.8 C8.6,11.9 8.5,12.1 8.4,12.2 C8.3,12.3 8.2,12.5 8,12.6 C7.9,12.8 7.7,13 7.6,13.1 C7.2,13.5 6.8,13.8 6.5,14.2 C6.3,14.4 6.1,14.6 6,14.8 C5.9,15 5.7,15.1 5.6,15.3 C5.4,15.6 5.3,15.9 5.1,16.1 C5,16.2 4.9,16.3 4.8,16.4 C4.7,16.5 4.6,16.7 4.5,16.8 C4.3,17 4.2,17.2 4.1,17.5 C4,17.7 4,17.8 3.9,18 C4.1,18 4.2,18 4.4,17.9 C4.7,17.8 4.9,17.7 5.1,17.6 C5.6,17.4 6.1,17.2 6.6,16.9 C6.8,16.8 7,16.5 7.3,16.4 C7.5,16.3 7.6,16.3 7.8,16.3 C8.2,16.3 8.5,16.1 8.8,15.8 C9.1,15.5 9.2,15.3 9.3,14.9 C9.4,14.6 9.7,14.4 10,14.2 C10.1,14.2 10.3,14.3 10.4,14.3 C11,14.6 11.6,15.3 11.8,15.9 C11.9,16.1 11.9,16.3 11.9,16.6 C11.9,17.3 11.8,17.8 11.4,18.4 C11.2,18.7 10.9,18.9 10.7,19.1 C10.6,19.3 10.5,19.5 10.4,19.6 C10.3,19.8 10.1,19.9 10,20.1 C9.8,20.4 9.8,20.7 9.6,20.9 C9.5,21 9.4,21.1 9.3,21.3 C9.2,21.5 9.1,21.7 9,21.9 C8.8,22.1 8.6,22.3 8.4,22.6 C8.4,22.7 8.3,22.8 8.4,22.9 C8.6,23.1 8.8,23.3 9,23.5 C9.2,23.7 9.5,23.8 9.7,24 C9.9,24.2 10.2,24.3 10.4,24.5 C10.5,24.5 10.6,24.6 10.7,24.6 C10.8,24.6 10.9,24.5 11,24.4 C11.2,24.2 11.3,24 11.4,23.8 C11.7,23.4 12,23.1 12.2,22.7 C12.4,22.3 12.6,21.8 12.9,21.4 L12.9,21.4 C13,21.4 13.1,21.3 13.2,21.3 C13.1,21.6 13.1,21.9 13.1,22.2 C13,22.6 13,22.9 12.9,23.3 C12.8,23.5 12.8,23.8 12.7,24 C12.6,24.2 12.6,24.5 12.5,24.7 C12.4,24.9 12.3,25.2 12.3,25.4 C12.2,25.9 12.1,26.3 12,26.8 C11.9,27 11.8,27.3 11.7,27.5 C11.6,27.8 11.6,28.1 11.5,28.4 C11.4,28.6 11.3,28.8 11.3,29 C11.2,29.3 11.2,29.5 11.1,29.8 C11,30 10.9,30.3 10.9,30.5 C10.8,30.9 10.8,31.2 10.7,31.6 C10.7,31.7 10.6,31.8 10.5,32 C10.3,32.3 10.1,32.6 9.7,32.8 C9.7,32.8 9.7,32.8 9.6,32.8 C9.5,32.7 9.4,32.7 9.3,32.6 C9.2,32.5 8.7,31.8 8.6,31.6 C8.5,31.4 8.4,31.2 8.3,31.1 C8.2,31 8.1,30.8 8,30.7 C7.8,29.9 8.4,29.2 8.8,28.5 C8.9,28.4 8.9,28.3 8.9,28.1 C8.9,27.7 8.9,27.3 8.9,27 C8.9,26.6 8.9,26.2 8.9,25.8 C8.9,25.7 8.9,25.6 8.9,25.5 C8.8,25.3 8.6,25 8.4,24.9 C8.2,24.8 8.1,24.8 7.9,24.8 C6.9,24.8 6.6,25.6 5.8,25.9 L5.8,25.9 C5.7,25.9 5.6,25.9 5.5,25.8 C5.1,25.6 5.2,25.1 5.1,24.7 C5.1,24.5 5,24.3 5,24.1 L5.1,24.1 C5.2,24.1 5.4,24.1 5.5,24 C5.6,23.9 5.6,23.9 5.7,23.8 C5.8,23.6 5.8,23.4 5.9,23.3 C6,23.1 6.1,22.9 6.2,22.7 C6.4,22.2 6.6,21.7 6.9,21.2 C7.1,20.9 7.3,20.6 7.5,20.3 C7.6,20.1 7.8,19.9 7.9,19.7 C8.1,19.4 8.3,19.2 8.4,18.9 C8.5,18.7 8.5,18.5 8.6,18.3 C8.7,18 8.8,17.7 8.8,17.4 C8.7,17.5 8.6,17.7 8.5,17.8 C8.2,18 7.8,18.1 7.5,18.3 C7.2,18.4 7,18.6 6.7,18.8 C6.4,18.9 6.1,19 5.8,19.2 C5.6,19.3 5.4,19.6 5.2,19.7 C5,19.9 4.8,20 4.6,20.1 C4.3,20.3 4,20.4 3.7,20.6 C3.1,21 2.5,21.6 1.9,22.2 C1.6,22.5 1.5,22.8 1.3,23.1 C1.2,23.1 1.1,23.1 1,23.1 C0.6,22.5 0.6,22.3 0.6,21.5 C0.6,21.2 0.6,20.9 0.6,20.7 C0.6,20.6 0.6,20.4 0.7,20.4 C0.8,20.2 1.1,20.2 1.3,20.1 C1.5,20 1.6,19.9 1.7,19.8 C2,19.6 2.1,19.2 2.4,19 C2.7,18.7 3.1,18.3 3.4,18 C3.6,17.8 3.8,17.7 3.9,17.5 C4,17.3 4.2,17.1 4.3,16.9 C4.4,16.7 4.6,16.6 4.7,16.4 C4.8,16.2 4.8,16 5,15.9 C5.1,15.8 5.2,15.6 5.3,15.5 C5.5,15.3 5.6,15.1 5.7,14.9 C6,14.5 6.2,14 6.5,13.6 C6.6,13.4 6.8,13.2 6.9,13 C7,12.8 7.1,12.7 7.2,12.5 C7.3,12.4 7.4,12.3 7.5,12.1 C7.7,11.8 7.9,11.5 8,11.3 C8.1,11.1 8.1,10.9 8.2,10.7 C8.3,10.5 8.4,10.3 8.4,10.1 C8.5,9.8 8.6,9.4 8.8,9.1 C9,8.7 9.2,8.4 9.4,8 C9.5,7.8 9.6,7.5 9.8,7.3 C9.9,7.1 10.1,6.9 10.2,6.6 C10.3,6.3 10.4,6 10.5,5.7 C10.6,5.4 10.7,5 10.9,4.7 C11.2,4 11.4,3.3 11.5,2.6 C11.5,2.1 11.5,1.7 11.5,1.2 C11.5,0.8 11.7,0.8 11.9,0.8 Z" id="路径">
					</path>
				</g>
				<g id="编组" transform="translate(107.000000, 107.000000)" fill="#EB4899" fill-rule="nonzero">
					<path d="M5.9,6.6 L5.9,6.6 C6.6,6.6 7.2,6.5 7.9,6.4 C7.9,6.4 8,6.4 8.1,6.4 C8.2,6.4 8.3,6.4 8.4,6.3 C8.8,6.6 8.9,6.9 8.6,7.3 L8.5,7.1 C7.7,7.2 7,7.4 6.2,7.6 C6.1,7.6 6.1,7.7 6.1,7.8 L6.1,8.3 C6.1,8.5 6,8.8 5.8,9.1 C5.6,9.5 5.4,9.8 5.2,9.9 C4.8,10.3 4.4,10.5 3.9,10.6 C3.8,10.5 3.8,10.4 3.7,10.3 C3.4,9.8 3.1,9.5 2.9,9.5 C2.7,9.5 2.6,9.6 2.4,9.9 C2.4,9.9 2.3,10 2.3,10 C2.1,10.3 1.9,10.5 1.6,10.5 C1.2,10.5 1,10.3 0.9,10.1 C1,9.5 1.5,9.2 2.5,9.2 C2.4,9.3 2.4,9.3 2.4,9.4 C2.6,9.2 2.9,9.2 3.4,9.4 C3.5,9.4 3.5,9.4 3.6,9.4 C3.6,9.4 3.6,9.4 3.7,9.4 C4.3,9.7 4.8,9.6 5,9.4 C5.2,9.1 5.3,8.7 5.3,8 C5.3,7.9 5.2,7.8 5.1,7.8 C4.4,7.8 3.7,7.9 2.9,8.1 C2.8,8.1 2.7,8.2 2.5,8.2 C1.6,8.5 0.9,8.6 0.5,8.5 C0.4,8.5 0.3,8.5 0.3,8.4 C0.3,8.3 0.4,8.2 0.5,8.1 C0.3,8 0.4,7.9 0.6,7.7 C0.8,7.6 1,7.5 1.4,7.5 C1.5,7.5 1.5,7.5 1.6,7.5 C1.9,7.4 2.3,7.3 2.9,7.2 C3.4,7.1 4,7 4.5,6.8 L5,6.8 C5.1,6.8 5.1,6.8 5.2,6.7 C5.2,6.6 5.1,6.5 5.1,6.3 C5.1,6.2 5.1,6.1 5.1,6 C5.2,6 5.3,6 5.4,6 C5.5,6 5.6,6 5.6,6 L5.7,5.8 L5.6,5.6 C5.7,5.5 5.7,5.4 5.8,5.3 C5.8,5.2 5.9,5.2 6,5.2 C6,5.2 6.1,5.2 6.1,5.2 C6.5,5.1 6.8,4.8 7,4.1 C7.2,3.7 7.3,3.2 7.3,2.8 C7.3,2.5 7.2,2.3 7.1,2.2 C6.6,2.2 6.2,2.6 5.8,3.4 C5.7,3.5 5.7,3.6 5.7,3.6 C5.1,4.6 4.6,5.4 4.1,5.8 C4.1,5.8 4,5.9 4,5.9 C3.8,6.1 3.6,6.2 3.5,6.4 C3.5,6.3 3.5,6.2 3.6,6.1 L3.4,6.1 C3.6,5.9 3.8,5.5 4.2,5.1 C4.3,5 4.3,4.9 4.4,4.8 C4.2,4.9 4,4.9 3.8,4.9 C3.8,4.8 3.8,4.7 3.7,4.6 C3.8,4.3 3.9,4 4,3.7 C4.1,3.7 4.2,3.7 4.3,3.7 C4.4,3.7 4.5,3.7 4.6,3.7 C4.9,3.7 5.1,3.6 5.2,3.5 C5.4,3.2 5.5,2.9 5.6,2.6 C5.3,2.7 5.3,2.7 5.5,2.6 C5.3,2.6 5.1,2.7 4.9,2.7 C4.7,2.7 4.7,2.7 4.7,2.5 C4.7,2.2 4.8,1.9 5,1.7 C5.1,1.6 5.3,1.5 5.7,1.4 C6.4,1.1 7,1 7.5,1 C7.9,1.1 8.1,1.4 8.2,2 C8.2,2.2 8.2,2.3 8.2,2.6 C8.1,2.9 8.1,3 8.2,3.2 C8.4,3.1 8.6,3.1 8.8,3.1 C9.1,3.2 9.2,3.4 9,3.9 C8.6,4.4 8.3,4.4 8.1,4.1 C7.2,5.6 6.5,6.4 5.9,6.6 Z M1.9,3.3 L1.9,3.3 C1.8,3.5 1.9,3.6 1.9,3.7 C2.2,4.2 2.2,4.5 1.9,4.7 C1.4,4.6 1.1,4.4 1.1,4 C1.3,3.4 1.6,3.1 1.9,3.3 Z M1.7,5.7 C1.7,5.7 1.8,5.7 1.9,5.7 C2,5.7 2,5.7 2.1,5.7 C2.4,5.4 2.6,5.1 2.7,4.9 C2.8,4.8 2.8,4.8 2.8,4.8 C2.9,4.6 3.1,4.5 3.3,4.4 C3.3,4.5 3.2,4.5 3.2,4.6 C2.8,5.2 2.7,5.7 2.7,6.1 C2.7,6.2 2.7,6.3 2.8,6.4 C2.9,6.6 2.9,6.7 2.9,6.7 C2.7,6.8 2.6,7 2.6,7.1 C2.5,7.1 2.3,7 2.2,6.9 C2.2,6.8 2.1,6.8 1.9,6.7 C1.8,6.6 1.7,6.6 1.7,6.5 C1.6,6.4 1.6,6.1 1.7,5.7 Z M2.7,2.8 L2.5,2.8 L2.6,2.5 C2.5,2.5 2.4,2.5 2.3,2.4 C2.4,2.3 2.4,2.2 2.3,2.1 C2.3,1.8 2.6,1.5 3.1,1.3 C3.5,1.2 3.7,1.4 3.8,1.8 C3.8,1.9 3.7,2 3.7,2.1 C3.6,2.2 3.6,2.3 3.6,2.4 L3.6,2.5 C3.5,2.7 3.3,2.8 3.1,2.9 C3,2.9 3,2.9 2.9,2.9 C2.8,2.9 2.7,2.9 2.7,2.9 C2.7,2.9 2.7,2.8 2.7,2.8 Z M7.1,9.3 C7.1,9.2 7.1,9.1 7.2,9 C7.2,8.9 7.3,8.9 7.3,8.8 C7.2,8.8 7.2,8.7 7.2,8.6 C7.2,8.4 7.4,8.3 7.7,8.3 C8,8.3 8.2,8.5 8.2,8.8 C8.1,9.2 7.9,9.4 7.5,9.5 C7.4,9.5 7.4,9.5 7.3,9.5 C7.2,9.4 7.1,9.3 7.1,9.3 Z" id="形状">
					</path>
					<path d="M18.8,3.7 L18.8,3.7 L18.8,3.5 C18.7,3.6 18.5,3.6 18.3,3.7 L18.3,3.7 C18.3,3.7 18.4,3.6 18.5,3.5 C18.8,3.3 18.9,3.1 18.9,2.9 C18.9,2.8 18.8,2.7 18.7,2.7 L18.2,2.7 C17.8,2.7 17.2,2.8 16.5,3 L16.4,3 C15.6,3.2 14.9,3.4 14.5,3.8 C14.4,3.9 14.3,4 14.3,4.1 C14.3,4.2 14.3,4.3 14.3,4.3 C14.2,4.4 14.1,4.5 13.9,4.6 C13.8,4.6 13.8,4.7 13.7,4.7 C13.6,4.7 13.5,4.7 13.5,4.7 C13.2,3.5 13.7,2.8 14.8,2.5 C14.8,2.5 14.8,2.6 14.8,2.6 C14.7,2.8 14.6,2.9 14.7,3.1 C15.5,2.8 16.8,2.4 18.5,2.1 C18.7,2.1 18.9,2 19,2 C19.5,2 19.8,2.4 19.8,3.1 C19.6,3.5 19.3,3.7 18.8,3.7 Z M15.1,10.1 L15.1,10.1 C15.3,9.9 15.5,9.8 15.8,9.7 C15.9,9.7 15.9,9.7 16,9.7 C16.4,9.5 16.7,9.1 16.8,8.2 L16.8,7.8 C16.8,7.6 16.7,7.5 16.7,7.3 L16.5,7.3 C16.1,8.4 15.2,9.4 13.8,10.2 L13.7,10.2 L13.7,10.1 C13.8,9.9 14,9.7 14.3,9.4 C14.6,9.1 14.8,8.8 14.9,8.6 C15.4,8 15.7,7.7 15.8,7.5 C15.5,7.5 15.3,7.7 15,8.1 C14.6,8.5 14.2,8.7 14,8.7 C14.1,8.5 14.3,8.2 14.7,7.9 C15,7.6 15.2,7.3 15.4,7.1 C15.5,6.9 15.6,6.8 15.8,6.8 C15.9,6.8 16,6.9 16.1,7.1 C16.2,7.1 16.3,7.1 16.5,7.1 C16.6,7.1 16.7,7.1 16.8,7.1 C16.7,7 16.7,7 16.6,6.9 C16.4,6.5 16.2,6.3 15.9,6.3 C15.7,6.4 15.5,6.6 15.3,6.7 C15.1,6.9 14.9,7.1 14.8,7.1 C14.4,7.3 14.1,7.4 14,7.2 C14,6.9 14.3,6.7 14.7,6.4 C14.8,6.3 14.8,6.3 14.9,6.2 C15.6,5.7 16,5.2 16.3,4.8 C16.1,4.8 15.8,5 15.4,5.2 C15,5.5 14.7,5.6 14.5,5.6 C14.4,5.6 14.3,5.6 14.3,5.5 C14.3,5.4 14.3,5.3 14.4,5.2 C14.5,5.2 14.5,5.1 14.6,5 C14.6,4.9 14.7,4.9 14.7,4.9 C14.9,4.7 15.3,4.5 16,4.3 C16.1,4.3 16.1,4.2 16.2,4.2 C16.2,4.2 16.3,4.2 16.4,4.2 C16.7,4.1 16.8,4.1 16.9,4 L16.9,4 C16.9,4 17,4 17,4 C17.5,4.1 17.7,4.4 17.5,4.8 C17.3,5.1 17.1,5.3 16.8,5.6 C16.6,5.8 16.5,5.9 16.4,6.1 C16.6,6.2 16.8,6.3 17.1,6.6 C17.2,6.7 17.4,6.8 17.5,6.9 C18.1,7.2 18.7,7.4 19.4,7.6 C19.5,7.6 19.7,7.7 19.8,7.7 C20.2,7.8 20.5,7.8 20.6,7.9 C20.8,8 20.9,8.2 21,8.4 C21,8.5 20.8,8.6 20.4,8.6 L20.2,8.6 C20.2,8.6 20.1,8.6 20.1,8.6 C20,8.7 20,8.7 19.9,8.6 C19.8,8.6 19.7,8.6 19.5,8.6 C19.4,8.6 19.4,8.6 19.4,8.6 C19.2,8.6 19,8.5 18.7,8.4 C18.4,8.3 18.2,8.3 18,8.2 C17.8,8.1 17.7,8 17.5,8 C17.4,9.4 16.8,10.3 15.7,10.7 C15.6,10.2 15.4,10.1 15.1,10.1 Z M16.4,1.6 C16.4,1.5 16.4,1.4 16.4,1.3 C16.4,1.2 16.4,1.2 16.4,1.1 C16.5,0.7 16.7,0.5 17.2,0.7 C17.2,0.7 17.2,0.7 17.2,0.7 C17.3,0.7 17.3,0.7 17.3,0.7 C17.4,0.8 17.4,0.9 17.4,1 C17.4,1 17.4,1.1 17.4,1.1 C17.4,1.1 17.4,1.2 17.4,1.2 C17.5,1.3 17.5,1.3 17.5,1.4 C17.5,1.7 17.2,1.9 16.7,2.1 L16.6,2.1 C16.5,2 16.4,2 16.3,2 C16.3,2 16.3,1.9 16.4,1.8 C16.3,1.7 16.4,1.7 16.4,1.6 Z M19.2,5.5 C19.2,5.6 19.1,5.7 19,5.7 C18.9,5.7 18.9,5.7 18.9,5.7 C18.7,5.7 18.5,5.9 18.1,6.2 C17.8,6.4 17.6,6.5 17.5,6.5 C17.6,6.4 17.7,6.3 17.9,6.1 C18.2,5.9 18.4,5.7 18.5,5.3 L18.5,5.2 C18.5,4.9 18.6,4.8 18.8,4.8 C18.9,4.9 19.1,5.1 19.2,5.5 Z" id="形状">
					</path>
					<path d="M23.9,3.7 L24.2,3.7 C24.1,3.6 24.1,3.5 24.1,3.4 C24.2,3.5 24.2,3.5 24.3,3.5 C24.1,3.2 24.3,2.8 24.8,2.3 C24.8,2.3 24.9,2.2 25,2.1 C25.4,1.6 25.8,1.4 26,1.4 C26.2,1.4 26.3,1.5 26.3,1.7 C26.3,1.9 26.3,2.1 26.2,2.4 C26.1,2.6 26,2.7 25.7,2.7 C25.6,2.7 25.5,2.7 25.5,2.7 C25.3,2.8 25.2,2.9 25,3.2 C25,3.2 24.9,3.3 24.9,3.3 C24.8,3.4 24.7,3.6 24.5,3.8 C24.3,4.1 24.1,4.3 23.9,4.6 C23.4,5.4 23.1,5.9 23.1,6 C23,6.1 23,6.2 23,6.2 C22.9,6.3 22.8,6.5 22.7,6.7 C22.7,6.5 22.7,6.4 22.6,6.2 C22.7,6 22.9,5.6 23.4,4.8 C23.4,4.8 23.4,4.7 23.4,4.7 C23.8,4.3 23.9,4 23.9,3.7 Z M25.1,6.4 L25.1,6.4 C25.3,6.4 25.5,6.4 25.7,6.4 C25.8,6.4 25.8,6.4 25.9,6.4 C26,6.5 26,6.5 26.1,6.4 C26.1,6.6 26.1,6.8 26,7 C26,7.1 25.9,7.2 25.7,7.2 L25.6,7.2 C24.8,7.4 24.5,7.7 24.5,8 C24.5,8.4 24.6,8.8 24.9,9.1 C25.1,9.1 25.3,8.9 25.5,8.6 C25.6,8.5 25.6,8.4 25.6,8.4 C25.8,8 26,7.6 26.3,7.3 L26.4,7.3 C26.2,7.6 26.1,8 26,8.3 C25.9,8.6 25.8,8.9 25.8,9.1 C25.6,9.7 25.4,9.9 25,9.9 C24.7,9.9 24.4,9.7 24.2,9.4 C24.1,9.2 24,8.8 23.9,8.3 C23.9,8.1 23.9,8 23.9,7.9 L23.8,7.8 C23.8,7.8 23.7,7.8 23.7,7.8 C23.4,7.9 23.3,7.9 23.2,7.8 C23.2,7.4 23.4,7.1 23.6,7 C24,6.8 24.2,6.6 24.3,6.2 C24.2,6.1 24.1,6.1 24,6.1 C23.9,6.1 23.8,6 23.8,5.9 C23.8,5.6 24,5.3 24.2,5.1 C24.4,5.1 24.5,5 24.7,4.9 C24.7,4.9 24.8,4.8 24.8,4.7 C24.8,4.6 24.8,4.6 24.8,4.6 C24.8,4.6 24.8,4.5 24.8,4.5 C25,3.9 25.3,3.6 25.7,3.6 C25.7,3.4 25.8,3.3 26,3.1 C25.8,2.7 26,2.5 26.7,2.3 C27,2.3 27.2,2.5 27.2,2.8 C27.2,3 27.2,3.1 27.1,3.2 C27,3.3 26.8,3.4 26.6,3.4 C26.5,3.4 26.4,3.4 26.3,3.4 C26,3.5 25.8,3.7 25.6,4.1 C25.5,4.3 25.3,4.5 25.2,4.8 C25.9,4.5 26.2,4.5 26.3,5 C26.3,5.2 26.2,5.4 26,5.6 C25.9,5.6 25.9,5.7 25.9,5.7 C25.8,5.8 25.7,5.8 25.6,5.9 C25.3,6.3 25.2,6.4 25.1,6.4 Z M29.1,2.8 L29.1,3.3 C29.3,3.3 29.5,3.4 29.9,3.7 C30.2,3.9 30.5,4 30.7,4 C30.7,4 30.8,3.9 30.9,3.8 C31,3.7 31.1,3.5 31.2,3.4 C31.3,3.2 31.4,3 31.4,2.8 C31.4,2.7 31.4,2.7 31.3,2.6 C31.1,2.6 30.8,2.7 30.5,2.9 C30.4,3 30.3,3 30.3,3 C30.2,3 30,3 29.9,2.9 C30.1,2.3 30.7,2 31.6,2 C31.9,2.1 32.1,2.3 32.2,2.7 C32.2,3.2 32.1,3.5 32,3.7 C32,3.8 31.9,3.9 31.8,4 C31.7,4.1 31.6,4.2 31.6,4.3 L31.7,4.4 C31.8,4.5 32,4.5 32.1,4.6 C32.6,4.8 32.9,4.9 33.2,5 L33.2,5 C33.1,5.1 32.9,5.1 32.8,5.2 C32.5,5.4 32.3,5.4 32.2,5.4 C32,5.4 31.7,5.3 31.2,5.1 C31,5 30.8,4.9 30.8,4.9 L30.7,4.9 C30.6,4.9 30.4,5 30.1,5.2 C29.9,5.3 29.8,5.4 29.8,5.4 L30.2,5.5 C30.3,5.7 30.3,5.9 30.2,6.3 C30.2,6.4 30.2,6.4 30.2,6.5 C30.9,6.2 31.3,6.3 31.4,6.7 C31.4,7 31.2,7.2 30.8,7.3 C30.7,7.3 30.7,7.3 30.7,7.3 C30.6,7.3 30.6,7.3 30.6,7.3 C30.4,7.3 30.3,7.4 30.3,7.5 L30.3,8.1 C30.3,8.3 30.2,8.5 30.1,8.7 L30.2,8.8 C30.3,8.8 30.5,8.8 30.8,8.8 C31.1,8.7 31.4,8.7 31.6,8.7 C31.9,8.7 32,8.9 32,9.2 C31.9,9.6 31.7,9.8 31.2,9.8 C30.1,10 29.3,10 28.7,10 C28.4,10 28.3,9.9 28.1,9.8 C27.9,9.5 27.9,9.2 28.1,9.1 C28.3,9 28.4,9 28.6,8.9 C29.3,8.7 29.6,8.4 29.5,8 L29.4,7.9 L28.6,8.1 C28.2,8.2 27.9,8 27.8,7.5 C28,7.3 28.3,7.2 28.8,7.2 C29,7.2 29.2,7.1 29.3,7.1 C29.4,7.1 29.5,6.9 29.5,6.5 C29.4,6.4 29.4,6.2 29.4,6.1 C29.4,6 29.4,6 29.5,5.9 C29.6,5.8 29.6,5.8 29.6,5.7 C29.4,5.7 29.2,5.8 29.1,6.1 C28.9,6.4 28.8,6.5 28.6,6.4 C28.4,6.2 28.3,5.9 28.3,5.6 C28.2,5.6 28.2,5.7 28.1,5.8 C27.9,6 27.8,6.1 27.6,6.1 C27.3,6 27.1,5.6 27,5 L27,4.5 C27,4 27.1,3.5 27.2,3 C27.3,2.6 27.4,2.4 27.6,2.3 C27.7,2.3 27.8,2.4 27.8,2.5 C27.8,2.8 27.8,3.2 27.7,3.6 L27.7,3.7 L27.8,3.6 C28.2,2.7 28.4,2 28.6,1.3 C28.7,1.2 28.8,1.2 28.9,1.2 C29.2,1.3 29.4,1.7 29.3,2.4 C29.1,2.6 29.1,2.7 29.1,2.8 Z M28.2,4.7 C28.2,4.6 28.2,4.4 28.3,4.3 C28.2,4.2 28.2,4.1 28.2,3.9 C28.2,3.7 28.2,3.5 28.1,3.4 C27.6,4.3 27.6,5 28.2,5.4 C28.3,5.2 28.3,5 28.2,4.8 C28.2,4.9 28.2,4.8 28.2,4.7 Z M29,4.4 L29,5.3 C29.4,5.3 29.7,5 29.8,4.5 C29.5,4.4 29.3,4.2 29,4.1 C29.1,4.2 29,4.3 29,4.4 Z" id="形状">
					</path>
					<path d="M42.2,8.4 L42.2,8.4 C41.7,8.4 41.4,8.5 41.1,8.6 C41,8.6 40.9,8.6 40.9,8.6 L40,8.6 C39.7,8.5 39.7,8.3 40,7.9 C40.3,7.8 40.6,7.7 40.8,7.6 C41.1,7.5 41.4,7.4 41.8,7.2 C41.9,7.2 42,7.1 42.1,7.1 C42.2,7.1 42.2,7 42.2,6.8 C42.2,6.8 42.2,6.7 42.2,6.7 C42,6.7 41.8,6.7 41.5,6.8 C41.2,6.8 41,6.6 40.9,6.4 C41.2,6.1 41.5,6 41.9,5.9 C41.9,5.4 42.1,5.1 42.4,5.1 C42.3,5 42.2,5 42.1,5 C42,5.1 42,5.1 41.9,5.1 C41.6,5.4 41.3,5.6 41.1,5.7 C40.9,5.8 40.7,5.8 40.5,5.9 C40.3,6 40.2,6 40.1,6 C40,6.1 39.9,6.1 39.7,6.2 C39.4,6.4 39.1,6.5 38.9,6.5 C38.8,6.7 38.7,7 38.6,7.4 C38.5,7.7 38.4,8 38.4,8.2 C38.4,8.3 38.4,8.4 38.4,8.6 C38.4,8.9 38.4,9.1 38.4,9.2 C38.3,9.4 38.2,9.6 38,9.9 L37.9,9.9 C37.9,9.9 37.9,9.8 37.9,9.8 C37.7,9.6 37.7,9.4 37.8,9.3 L38,8.5 C38,8.2 37.9,8 37.7,7.9 C37.6,7.9 37.6,7.9 37.5,7.9 C37.3,7.9 37.2,7.9 37.2,7.8 C37.1,7.7 37.1,7.6 37.1,7.4 C37.1,7.1 37.2,6.8 37.4,6.5 C37.5,6.4 37.6,6.2 37.8,6 C38,5.7 38.2,5.5 38.3,5.3 C38,5.4 37.6,5.6 37.2,5.9 C37.1,6 37,6 37,6 L36.9,5.9 C36.8,5.9 36.7,6 36.6,6.1 C36.4,6.3 36.3,6.3 36.2,6.3 C35.9,6.3 35.7,6.1 35.7,5.8 C35.8,5.7 36,5.6 36.2,5.4 C36.4,5.2 36.5,5.1 36.6,5 C36.9,4.8 37.3,4.7 37.9,4.5 C38.2,4.4 38.6,4.3 38.9,4.1 C39.3,4.2 39.4,4.5 39.2,4.9 C39.1,5 38.9,5.1 38.7,5.3 C38.6,5.4 38.5,5.5 38.5,5.5 C38.3,5.6 38.1,6 37.8,6.5 L37.8,6.6 C38,6.8 38.1,7.1 38.1,7.4 L38.2,7.4 C38.6,6.6 39,5.9 39.4,5.4 L39.5,5.4 C39.3,5.7 39.2,5.9 39.2,6 C39.7,5.7 40.4,5.2 41.3,4.5 C41.5,4.4 41.6,4.3 41.7,4.2 C41.2,3.9 40.9,3.7 40.9,3.6 C40.8,3.6 40.8,3.5 40.7,3.5 C40.5,3.4 40.5,3.3 40.5,3.2 C40.6,2.9 40.8,2.8 41.2,2.7 C41.4,2.7 41.5,2.8 41.8,2.9 C41.9,2.9 42,3 42.1,3.1 C42.3,3.2 42.5,3.3 42.8,3.3 C42.9,3.3 43.1,3.1 43.2,2.7 C43.3,2.5 43.4,2.4 43.4,2.3 C43.3,2 43.1,2 42.8,2 C42.7,2 42.6,2.1 42.5,2.1 C41.8,2.4 41.3,2.5 41,2.5 C40.8,2.3 40.9,2.1 41.3,1.7 C41.3,1.7 41.4,1.6 41.4,1.6 C41.5,1.5 41.7,1.4 42,1.3 C42.1,1.3 42.1,1.3 42.1,1.3 C42.6,1.1 43.1,1 43.6,1 C44,1.1 44.3,1.3 44.4,1.8 C44.4,2.1 44.2,2.6 43.8,3.1 C43.7,3.2 43.6,3.3 43.6,3.4 C43.5,3.5 43.4,3.7 43.4,3.8 C43.7,4 44,4.1 44.4,4.2 C45.2,4.4 45.7,4.6 46,4.9 L46,5.1 C45.9,5.1 45.6,5.2 45.2,5.4 C44.9,5.4 44.5,5.3 44,5.1 C43.6,4.9 43.3,4.8 43.2,4.8 L43.1,4.9 C43.1,5 43.2,5.1 43.3,5.2 C43.3,5.3 43.3,5.3 43.4,5.3 C43.4,5.4 43.5,5.4 43.7,5.4 C43.8,5.4 43.9,5.4 43.9,5.4 C44,5.4 44.1,5.7 44.1,6.1 L44.1,6.1 C43.9,6.3 43.7,6.4 43.4,6.5 L43.4,6.8 L45,6.8 C45,6.9 45,7 45,7.1 C45.1,7.3 45.1,7.4 45,7.5 C44.9,7.5 44.9,7.5 44.8,7.6 L44.7,7.6 C44.5,7.6 44.2,7.6 43.8,7.7 C43.7,7.7 43.6,7.7 43.5,7.7 C43.4,7.7 43.4,7.8 43.4,7.9 L43.4,9.3 C43.3,10 43.1,10.3 42.7,10.3 C42.6,9.8 42.5,9.3 42.4,8.9 C42.3,9 42.3,8.7 42.2,8.4 Z M38.5,2.4 C38.5,2.4 38.5,2.3 38.5,2.3 C38.4,2.3 38.4,2.2 38.5,2.2 C38.5,1.9 38.6,1.8 38.8,1.6 C39.1,1.5 39.4,1.5 39.6,1.6 C39.7,1.7 39.8,1.8 39.7,1.9 C39.7,1.9 39.7,2 39.7,2 C39.7,2 39.7,2.1 39.7,2.1 C39.8,2.2 39.8,2.2 39.8,2.3 C39.7,2.7 39.3,2.9 38.8,2.7 C38.7,2.8 38.5,2.9 38.4,3 C38.4,3 38.4,2.9 38.4,2.8 C38.5,2.6 38.5,2.5 38.5,2.4 Z" id="形状">
					</path>
					<path d="M52.6,2.1 L52.6,1.6 C52.6,1 52.9,0.7 53.3,0.7 C53.6,0.8 53.7,1 53.7,1.4 C53.7,1.5 53.7,1.7 53.6,1.9 C53.5,2.2 53.5,2.5 53.6,2.8 C53.8,2.8 53.9,2.7 54.1,2.7 C54.5,2.6 54.8,2.5 54.9,2.5 L55.3,2.5 C55.4,2.5 55.4,2.5 55.5,2.6 C55.5,2.6 55.6,2.6 55.6,2.6 C55.9,2.8 56,2.9 56.1,3 C56,3.3 55.7,3.5 55,3.7 C54.9,3.7 54.8,3.7 54.8,3.7 C54.4,3.8 54.1,3.8 54,3.9 C53.8,4.1 53.7,4.3 53.7,4.7 C53.7,4.9 53.9,5.2 54.3,5.7 C54.4,5.8 54.5,5.8 54.5,5.8 C54.9,6.3 55.6,6.8 56.5,7.4 C56.6,7.5 56.7,7.5 56.8,7.6 C57.6,8 58,8.4 58.1,8.8 C57.6,8.6 57.3,8.7 57.2,9 C57,9 56.8,8.9 56.4,8.7 C56.2,8.6 56.1,8.5 56.1,8.5 C55.6,8.2 55.2,7.9 54.8,7.6 C54.5,7.3 54.1,7 53.8,6.8 L53.8,7.9 C53.8,8 53.9,8.1 54.1,8.1 C54.2,8.1 54.2,8.1 54.3,8.1 C54.6,8.2 54.8,8.4 54.8,8.6 C54.8,8.7 54.8,8.9 54.7,9 C54.6,9.1 54.4,9.2 54,9.3 C53.9,9.3 53.8,9.3 53.8,9.3 C53.8,9.5 53.7,9.7 53.5,10 C53.5,10.1 53.4,10.2 53.4,10.3 C53.4,10.4 53.3,10.4 53.3,10.5 C53.2,10.8 53.2,10.9 53.1,11.1 C53,11.4 52.8,11.5 52.7,11.5 C52.6,11.4 52.6,11.3 52.6,11.1 C52.5,10.8 52.5,10.6 52.4,10.5 C52.4,10.4 52.4,10.3 52.5,10.2 C52.5,10.1 52.6,10 52.7,10 C52.8,9.9 52.9,9.9 52.9,9.9 C53.1,9.7 53,9.5 52.8,9.4 L52.1,9.4 C51.6,9.4 51.3,9.2 51.2,8.9 C51.4,8.5 51.8,8.3 52.4,8.1 C52.4,8.1 52.5,8.1 52.6,8.1 C52.8,8.1 52.9,8 53,7.9 L53,6.9 C53,6.5 52.9,6.1 52.8,5.7 L52.7,5.7 C52.4,6 51.9,6.5 51.3,7.2 C51,7.6 50.7,7.9 50.4,8.2 C50.3,8.3 50.2,8.4 50.1,8.5 C49.8,8.9 49.5,9.2 49.3,9.4 C49.1,9.6 48.8,9.7 48.5,10 C48.4,10.1 48.3,10.1 48.3,10.2 L48.2,10.2 L48.2,10.1 C49.5,8.6 50.7,7.2 51.7,5.8 C51.7,5.8 51.8,5.7 51.8,5.7 C52.1,5.2 52.3,4.8 52.4,4.5 C52.4,4.5 52.3,4.5 52.3,4.5 C51.8,4.7 51.3,4.8 51,4.7 C50.6,4.7 50.4,4.6 50.3,4.3 C50.3,3.9 50.6,3.7 51.2,3.5 C51.3,3.5 51.5,3.4 51.9,3.4 C52.2,3.3 52.5,3.3 52.7,3.2 C52.4,3 52.6,2.7 52.6,2.1 Z" id="路径">
					</path>
				</g>
				<rect id="矩形" fill="#FEFEFE" fill-rule="nonzero" x="24.5" y="111.5" width="70" height="2">
				</rect>
			</g>
		</g>
	</g>
</svg>
