<?xml version="1.0" encoding="UTF-8"?>
<svg width="157px" height="54px" viewBox="0 0 157 54" version="1.1" xmlns="http://www.w3.org/2000/svg" xmlns:xlink="http://www.w3.org/1999/xlink">
    <title>切片备份 3</title>
    <defs>
        <filter id="filter-1">
            <feColorMatrix in="SourceGraphic" type="matrix" values="0 0 0 0 1.000000 0 0 0 0 1.000000 0 0 0 0 1.000000 0 0 0 1.000000 0"></feColorMatrix>
        </filter>
        <path d="M88.2544,48.1442 C88.3664,47.8502 88.3944,47.6822 88.3944,47.3042 L86.7564,46.3242 L86.6304,46.4922 L88.0864,48.1582 C88.1564,48.2422 88.2124,48.2422 88.2544,48.1442 Z M90.5644,59.0082 C90.6484,58.7142 90.6624,58.5042 90.6624,57.0202 L90.6624,54.2342 L90.7464,54.2202 L93.7984,57.8462 L96.4724,57.6782 L96.4864,57.4542 C94.7924,57.3142 94.0784,57.0762 93.1544,56.1802 L91.1524,54.1922 L95.4784,53.8982 C95.6884,53.8842 95.7164,53.8002 95.5484,53.6602 L94.9744,53.2262 C94.5264,53.3942 93.6164,53.5482 90.6624,53.8002 C90.6624,53.3802 90.7604,52.9602 90.9004,52.6942 C90.9284,52.6102 90.9284,52.5402 90.8444,52.4702 L90.1304,51.9102 C91.3344,50.7342 91.8804,49.5302 92.2864,47.5422 L93.7284,47.3742 C93.1964,50.2442 92.9584,50.8602 92.4544,51.6862 L91.3904,50.7902 L91.2784,50.9582 C91.6844,51.4902 92.0204,52.0642 92.3424,52.6662 C92.4124,52.8062 92.4824,52.8202 92.5664,52.7222 C93.0704,52.2042 93.5044,51.2382 93.9244,49.4462 L95.5344,51.3502 C95.6324,51.4622 95.7304,51.4342 95.7584,51.2942 C95.8144,50.9582 95.8284,50.7622 95.8144,50.3982 L93.9944,49.1382 C94.0784,48.7882 94.1484,48.4102 94.2184,47.9902 C94.2884,47.6122 94.4144,47.4162 94.6944,47.2482 C94.7924,47.1922 94.7924,47.1222 94.7224,47.0522 L94.0504,46.3942 L93.6724,46.8842 L89.2484,47.3742 L89.8784,47.8922 C90.4944,47.7522 90.7464,47.7102 91.6144,47.6122 C91.2644,49.9922 90.6204,51.1402 88.2404,53.1282 L88.3944,53.3102 C89.1084,52.8202 89.5144,52.4982 89.9344,52.0922 C90.0604,52.3582 90.1164,52.6802 90.1164,53.8282 L84.9084,54.2202 L85.7204,54.7942 C86.3644,54.6262 87.6104,54.4582 89.5704,54.3042 C88.5624,55.5082 86.6164,57.0342 84.3344,58.1962 L84.4044,58.4062 C86.6584,57.4542 89.0524,55.7882 90.1164,54.5982 L90.1164,56.5162 C90.1164,57.3842 90.0184,57.8322 89.8084,58.1542 L90.3264,59.0222 C90.4244,59.1762 90.5084,59.1902 90.5644,59.0082 Z M87.0504,49.9782 C87.1064,49.7542 87.1204,49.5022 87.0924,49.1102 L85.4264,48.2842 L85.3284,48.4662 L86.8824,50.0202 C86.9664,50.1042 87.0224,50.1042 87.0504,49.9782 Z M86.7984,53.2822 L88.9124,48.6062 L88.6884,48.4942 L86.5884,52.3302 L85.3984,51.4622 L85.3004,51.6302 C85.7484,52.1062 86.2384,52.7502 86.6024,53.3102 C86.6584,53.3942 86.7424,53.3942 86.7984,53.2822 Z M88.9824,51.2802 C89.6544,50.6362 89.9484,50.0062 90.3404,48.6062 L90.1024,48.5362 C89.7524,49.5862 89.1784,50.2162 88.7024,50.5102 L88.7864,51.1822 C88.8004,51.3782 88.8844,51.3922 88.9824,51.2802 Z M106.6424,48.1162 C106.7964,47.8782 106.8804,47.6402 106.9644,47.2762 L105.5224,45.9742 L105.3404,46.1142 L106.3904,48.0882 C106.4744,48.2562 106.5444,48.2562 106.6424,48.1162 Z M102.1484,50.9022 C102.3724,50.5522 102.5264,50.0482 102.5964,49.4322 L110.1844,48.6622 L109.5544,50.1462 L109.7644,50.2722 C110.6464,48.9842 111.0524,48.6622 111.4164,48.5222 C111.5424,48.4662 111.5424,48.3962 111.4164,48.2702 L110.7584,47.6402 L110.2544,48.1582 L102.6244,48.9422 C102.6384,48.6062 102.6104,48.2562 102.5544,47.8642 L102.3164,47.8642 C102.2184,49.0262 101.9244,49.6702 101.5464,50.0762 L101.9104,50.9022 C101.9804,51.0562 102.0364,51.0702 102.1484,50.9022 Z M106.3064,59.2462 C107.0484,58.2102 107.2584,55.9282 106.8244,54.1362 L106.970622,54.0319778 L106.970622,54.0319778 L107.2444,53.8422 L107.2444,53.8422 L110.0024,57.4262 L112.4524,57.2022 L112.4384,57.0062 C111.1644,56.8662 110.3104,56.6422 109.4144,55.6902 L107.4964,53.6462 C108.7704,52.7362 109.3584,52.3862 109.5684,52.3162 C109.7364,52.2602 109.7784,52.2042 109.7364,52.1062 L109.3584,51.2522 L109.1904,51.2802 C109.1344,51.6722 108.0424,52.7502 106.7124,53.7302 C106.4464,52.9042 105.9704,52.2042 105.6344,51.7842 C106.0684,51.4762 106.5024,51.1542 106.8804,50.8042 L109.1204,50.5802 C109.3024,50.5662 109.3304,50.5102 109.1904,50.3842 L108.6724,49.9502 C108.3224,50.1322 106.9224,50.4402 103.1564,50.7762 L103.6744,51.2802 C104.1084,51.1682 104.6124,51.0842 105.7884,50.9582 C105.1304,51.5882 103.8144,52.5822 101.8544,53.5482 L101.9384,53.7582 C102.9464,53.3942 104.1784,52.7782 105.2844,52.0222 C105.4384,52.2042 105.5644,52.4142 105.6904,52.5822 C104.9344,53.3662 103.3384,54.6122 101.6584,55.5222 L101.7424,55.7322 C103.1704,55.1722 104.9064,53.9962 105.9704,53.1422 C106.0964,53.4082 106.1804,53.6602 106.2504,53.9122 C105.0324,55.2282 102.9744,56.8382 100.5244,57.9442 L100.5804,58.1682 C103.0024,57.2022 104.5704,56.1662 106.3484,54.6402 C106.5164,56.0122 106.4324,57.1742 105.9704,58.2382 L104.2624,57.3002 L104.1644,57.4822 C104.8224,58.0002 105.5084,58.6722 106.0404,59.2602 C106.1524,59.3862 106.1944,59.3862 106.3064,59.2462 Z M117.7084,58.1262 L117.787342,58.0777229 C118.210995,57.8229474 118.728753,57.6090235 121.8384,56.5022 L121.7964,56.2782 L119.8364,56.7962 L119.8364,53.0302 L121.3484,52.7782 C121.5724,52.7362 121.5724,52.6662 121.3904,52.5402 L120.9564,52.2462 C120.8024,52.3582 120.3404,52.5122 119.8364,52.6242 L119.8364,51.2102 L121.0544,50.9862 C121.2784,50.9442 121.2784,50.8742 121.1104,50.7482 L120.6764,50.4402 C120.3964,50.6082 119.4724,50.8742 118.2684,51.0702 C118.8144,50.2022 119.1924,49.4042 119.5704,48.4242 L121.1384,49.8802 C121.2644,50.0062 121.3344,49.9782 121.3484,49.8242 C121.3764,49.6002 121.3764,49.5162 121.3064,49.0962 L119.6684,48.1862 C119.8924,47.5982 120.0324,47.3602 120.1444,47.2622 C120.2284,47.1922 120.2284,47.1082 120.1724,47.0242 L119.5424,46.0862 L119.3324,46.1562 C119.6124,47.5282 118.1004,50.9862 116.5464,53.1702 L116.7144,53.3102 C117.0784,52.8902 117.4284,52.4842 118.1284,51.3222 L118.3944,51.5322 C118.5764,51.4762 118.9404,51.3782 119.3044,51.2942 L119.3044,52.7222 L117.3024,53.0722 L118.0024,53.4922 C118.4224,53.3242 118.8424,53.2122 119.3044,53.1282 L119.3044,56.9362 L116.7284,57.6642 L117.7084,58.1262 Z M121.4744,58.5182 C122.3704,58.3222 123.5744,58.1962 128.1244,57.9722 C128.3484,57.9582 128.3484,57.9022 128.1804,57.7762 L127.5084,57.3422 C127.0884,57.4962 126.3744,57.6362 124.8204,57.7342 L124.8204,55.8442 L127.0464,55.6762 C127.2564,55.6622 127.2564,55.5782 127.1024,55.4662 L126.5704,55.0882 C126.3324,55.2282 125.6604,55.3682 124.8204,55.4662 C124.8204,55.0322 124.8624,54.8082 124.9604,54.5842 C125.007067,54.4908667 125.005122,54.4267 124.938363,54.3511907 L124.4984,53.9122 C125.2124,53.2962 125.7164,52.6242 126.1504,51.8402 L126.9484,53.8702 L128.7544,53.7862 L128.7544,53.5902 C127.5364,53.3802 127.1864,53.1282 126.3884,51.3502 C126.8224,50.4682 127.1584,49.5442 127.3964,48.6062 C127.5224,48.1302 127.6344,47.9482 127.7744,47.8642 C127.9144,47.7802 127.9144,47.6962 127.8024,47.5982 L127.2004,47.0942 L126.8084,47.6402 L124.4144,48.0462 L124.9044,48.4522 L125.048737,48.4059798 C125.404621,48.2976671 125.759224,48.2380824 126.9204,48.1022 C126.7524,49.0402 126.5424,49.8242 126.1504,50.7902 C125.6184,49.6002 125.5484,49.3482 125.5204,48.9842 L124.8624,48.8722 L124.8064,49.0262 C125.1284,49.2642 125.3104,49.6142 125.9544,51.3082 C125.5764,52.1062 125.1284,52.8062 124.5964,53.3942 L124.2184,53.1142 C124.0784,53.1842 123.7984,53.2682 123.5184,53.3242 L123.5184,51.5462 L124.4424,51.4342 C124.6524,51.4202 124.6664,51.3502 124.5544,51.1822 L124.4424,51.0282 L124.6104,50.0622 C124.6524,49.8662 124.7084,49.6982 124.8344,49.5722 C124.9184,49.4882 124.9184,49.4042 124.8484,49.3482 L124.3864,48.9422 L124.1064,49.3342 L123.5604,49.3902 L123.5604,47.6542 L124.9044,47.4582 C125.1424,47.4162 125.1424,47.3742 124.9604,47.2202 L124.5124,46.8702 C124.1764,47.1082 123.7284,47.2342 122.0344,47.4582 L121.5584,46.4922 L121.3764,46.5762 C121.5304,47.0802 121.6284,47.5982 121.6284,48.1442 L121.6284,52.9042 C121.6284,53.5762 121.5864,53.6742 121.3904,53.9122 L121.7964,54.2622 C121.9084,54.3602 121.9784,54.3462 122.0064,54.2622 C122.0764,53.9962 122.2024,53.9122 122.3424,53.8982 L124.3584,53.6602 C124.0924,53.8982 123.8264,54.1502 123.5324,54.3462 L123.7004,54.5422 C123.8964,54.3882 124.1064,54.2342 124.2604,54.0942 C124.3164,54.3322 124.3444,54.7102 124.3444,55.5082 L122.1884,55.6762 L122.7624,56.1662 C123.2524,56.0122 123.7564,55.9142 124.3444,55.8722 L124.3444,57.7622 L120.8024,57.9862 L121.4744,58.5182 Z M122.1044,49.5582 L122.1044,47.8642 L123.0984,47.7102 L123.0984,49.4322 L122.1044,49.5582 Z M122.1044,51.3082 L122.1044,50.0202 L124.1344,49.7262 L124.0224,51.0422 L122.1044,51.3082 Z M122.1044,53.5482 L122.1044,51.7282 L123.0564,51.6022 L123.0564,53.3942 L122.1044,53.5482 Z M120.2284,56.0962 C120.9844,54.7942 121.0684,54.6542 121.2224,54.5282 C121.3344,54.4442 121.3484,54.3322 121.2784,54.2202 L120.8304,53.5762 L120.6484,53.6462 C120.6904,54.0942 120.6064,54.5842 120.0184,55.9842 L120.2284,56.0962 Z M118.5764,56.2082 C118.7304,55.9562 118.8004,55.7462 118.8424,55.3962 L117.6804,53.9822 L117.5264,54.0802 L118.3384,56.1802 C118.4084,56.3482 118.4784,56.3622 118.5764,56.2082 Z M135.9564,48.5642 C136.0544,48.3822 136.0964,48.2562 136.2084,47.6402 L135.1024,46.4502 L134.9344,46.5482 L135.7464,48.5222 C135.8024,48.6622 135.8864,48.6902 135.9564,48.5642 Z M140.6464,59.4842 C140.7584,59.1762 140.7864,58.5462 140.7864,56.4322 L144.1744,56.2362 C144.3564,56.2222 144.3704,56.1662 144.2304,56.0402 L143.7264,55.5642 C143.3484,55.7462 142.9424,55.8442 140.7864,56.0122 L140.7864,55.0322 L143.3064,54.8642 C143.5584,54.8502 143.5724,54.7802 143.4184,54.6542 L142.9424,54.2482 C142.7744,54.3462 142.0464,54.5002 141.4024,54.5702 C141.7244,54.0522 142.0324,53.6462 142.2144,53.5062 C142.3264,53.4222 142.3404,53.3662 142.2564,53.2682 L142.0044,52.9322 L144.3564,52.7502 C144.6084,52.7362 144.6224,52.6662 144.4124,52.5122 L143.8664,52.1062 C143.5724,52.3162 142.7044,52.4982 140.8004,52.6242 L140.8004,51.6162 L142.9984,51.4342 C143.2504,51.4202 143.2504,51.3502 143.0684,51.1962 L142.5924,50.8322 C142.2564,51.0142 141.9484,51.0842 140.8004,51.1822 C140.8004,50.8462 140.8424,50.6782 140.9264,50.5242 C140.9824,50.4122 140.9684,50.3422 140.8844,50.2722 L140.5484,49.9362 L143.4184,49.6422 C143.6004,49.6282 143.6144,49.5302 143.4884,49.4322 L143.1664,49.1942 L143.2924,48.0742 C143.3064,47.9062 143.4184,47.7382 143.6284,47.5702 C143.7684,47.4582 143.7684,47.3742 143.6424,47.2482 L143.1524,46.7582 L142.7604,47.2062 L138.4624,47.7382 L138.0144,46.8422 L137.8324,46.9122 C137.9304,47.3322 137.9724,47.7522 137.9724,48.2422 L138.0004,49.2782 C138.0004,49.6282 137.9444,50.0482 137.8744,50.1602 L138.2664,50.7482 C138.4344,50.9862 138.5044,50.9302 138.5184,50.7342 C138.5324,50.6502 138.5464,50.3982 138.5464,50.1322 L140.1984,49.9642 C140.2544,50.2302 140.2824,50.5102 140.2824,51.2242 L138.0144,51.4202 L138.5324,51.9242 C138.9804,51.7982 139.6664,51.7002 140.2824,51.6582 L140.2824,52.6662 L137.0204,52.9042 L137.5384,53.3802 C137.8884,53.2822 138.4624,53.2122 139.0224,53.1842 L139.5124,54.7242 L137.7344,54.8782 L138.3364,55.3682 C138.7424,55.2562 139.4984,55.1162 140.2544,55.0602 L140.2544,56.0402 L137.1604,56.2222 L137.8044,56.7682 C138.1404,56.6842 139.2604,56.5162 140.2544,56.4602 C140.2404,57.8182 140.1424,58.2802 139.9324,58.6582 L140.4224,59.4562 C140.5064,59.5962 140.6044,59.5822 140.6464,59.4842 Z M141.5144,49.3622 L141.6124,47.7942 L142.8164,47.6542 L142.6904,49.2222 L141.5144,49.3622 Z M140.0864,49.5302 L140.0584,47.9902 L141.0804,47.8642 L141.0384,49.4042 L140.0864,49.5302 Z M138.5324,49.7122 L138.4904,48.1862 L139.5544,48.0322 L139.5824,49.5862 L138.5324,49.7122 Z M133.0724,50.0762 C133.5064,49.9362 134.3884,49.7822 137.4264,49.4322 C137.6364,49.4182 137.6504,49.3622 137.4684,49.2082 L136.9784,48.8162 C136.5724,49.0402 135.7044,49.2502 132.3864,49.5442 L133.0724,50.0762 Z M134.2064,51.5042 C134.5424,51.3922 134.9484,51.3082 136.6844,51.1402 C136.9224,51.1262 136.9224,51.0562 136.7964,50.9442 L136.3064,50.5662 C135.9284,50.7762 135.6064,50.8462 133.5624,51.0562 L134.2064,51.5042 Z M134.1784,53.1982 C134.5144,53.0582 135.0044,52.9742 136.8104,52.8202 C137.0484,52.8062 137.0344,52.6942 136.9224,52.5962 L136.5444,52.2462 C136.1104,52.4422 135.6624,52.5402 133.6044,52.7082 L134.1784,53.1982 Z M139.7784,54.7102 C139.8764,54.4722 139.9884,54.1362 140.0164,53.9402 L139.3164,53.1562 L141.6404,52.9602 C141.5564,53.3382 141.3184,53.9262 140.9824,54.5982 L139.7784,54.7102 Z M134.5564,58.1402 C134.5844,58.0002 134.5844,57.6642 134.5704,57.1742 L136.7264,56.8662 C136.9084,56.8522 136.9364,56.7962 136.7824,56.6562 L136.5164,56.4182 L136.6704,55.1162 C136.7124,54.7242 136.7684,54.5842 136.9784,54.4162 C137.1184,54.3042 137.1044,54.2482 136.9784,54.1362 L136.4604,53.7022 L136.0964,54.2062 L134.4164,54.4582 L134.0384,53.7582 L133.8564,53.8282 C133.9404,54.1922 134.0244,54.8642 134.0384,55.2842 L134.0944,56.2922 C134.1084,56.7682 134.0384,57.1882 133.8984,57.4262 L134.3324,58.1682 C134.4444,58.3502 134.5144,58.3502 134.5564,58.1402 Z M134.5564,56.7262 L134.5284,54.8642 L136.2224,54.6402 L136.0264,56.4602 L134.5564,56.7262 Z M154.9044,59.4002 C154.9604,59.1062 154.9884,58.7142 154.9884,57.4402 L154.9884,55.7322 L157.5224,55.5082 C157.6484,55.4942 157.6624,55.4242 157.5504,55.3402 L156.9624,54.8362 C156.6824,54.9762 155.8424,55.1442 154.9884,55.2422 L154.9884,50.2442 L155.0724,50.2302 L158.7264,56.2782 L161.2464,56.1102 L161.2464,55.8442 C159.1884,55.4942 158.7124,55.1162 157.6344,53.3802 L155.6324,50.1742 L160.0284,49.8382 C160.1824,49.8242 160.1824,49.7402 160.0424,49.6422 L159.3004,49.1242 C158.5724,49.3482 157.0184,49.6002 154.9884,49.7542 L154.9884,48.2422 C154.9884,47.7522 155.0584,47.4022 155.1844,47.0942 C155.2824,46.8702 155.2824,46.8282 155.0864,46.6462 L154.3024,45.9462 L154.1344,46.0862 C154.3444,46.7582 154.4004,47.2622 154.4004,48.2142 L154.4004,49.7822 L149.3884,50.1182 L150.1444,50.8602 C150.5364,50.6922 151.6984,50.4962 153.6164,50.3422 C152.7344,52.2042 150.9004,54.6962 148.7304,56.7542 L148.8984,57.0342 C151.5304,54.7382 153.2244,52.5542 154.4004,50.2862 L154.4004,55.2842 L151.6424,55.5362 L152.1744,56.1242 C152.6224,55.9982 152.8884,55.9422 154.4004,55.7882 L154.4004,56.6982 C154.4004,57.3842 154.3444,57.8602 154.1064,58.2802 L154.6664,59.4142 C154.7644,59.6102 154.8624,59.5962 154.9044,59.4002 Z" id="path-2"></path>
    </defs>
    <g id="页面-1" stroke="none" stroke-width="1" fill="none" fill-rule="evenodd">
        <g filter="url(#filter-1)" id="logo-原始备份-3">
            <g transform="translate(-6.000000, -6.000000)">
                <g id="编组" transform="translate(5.000000, 7.000000)" fill="#FEFEFE" fill-rule="nonzero">
                    <path d="M21.7,3.1 C21.7,3.1 21.7,3.1 21.7,3.1 C21.8,3.1 21.9,3.2 22,3.2 C22.2,3.4 22.4,3.6 22.7,3.8 C23,4 23.3,4.2 23.5,4.5 C23.6,4.6 23.8,4.8 23.8,5 C23.8,5.3 22.8,6.2 22.5,6.4 C22.3,6.5 22,6.6 21.7,6.7 C21.4,6.8 21.1,7.1 20.8,7.2 C20.4,7.4 20,7.6 19.6,7.9 C19.6,7.9 19.5,8 19.5,8 C19.5,8 19.5,8.1 19.6,8.1 C19.7,8.2 20,8.2 20.1,8.3 C20.6,8.3 21.1,8.4 21.6,8.1 C21.8,8 22,7.9 22.2,7.8 C22.4,7.7 22.7,7.8 22.9,7.8 C23.2,7.8 23.4,7.6 23.7,7.7 C24.1,7.7 24.5,7.9 24.7,8.2 C25.1,8.8 24.7,9.9 24.5,10.6 C24.5,10.7 24.6,10.8 24.6,10.8 C24.8,11 25,11.1 25.2,11.2 C25.5,11.4 26,11.8 26.2,12.2 C26.3,12.3 26.3,12.5 26.2,12.6 C26.1,12.9 25.4,13.6 25.1,13.8 C24.8,14 24.5,14 24.2,14.1 C23.9,14.2 23.7,14.3 23.4,14.5 C23.2,14.6 22.9,14.7 22.6,14.8 C22.5,14.9 22.2,15 22.2,15.1 C22.2,15.2 22.3,15.3 22.4,15.4 C22.5,15.5 22.6,15.7 22.8,15.8 C22.9,15.9 23.1,15.9 23.2,16 C23.7,16.2 24,16.4 24.2,16.8 C24.1,17 24,17.2 23.9,17.5 C23.8,17.8 24.3,18.2 24.2,18.8 C24.1,19.7 22.8,19.4 22.3,19.9 C21.9,20.3 22.3,20.9 22.4,21.4 C22.5,21.6 22.5,21.8 22.4,22 C22.8,22 23.3,22 23.7,22 C23.9,22 24.2,22 24.4,22 C24.7,22 24.9,21.8 25.1,21.7 C25.5,21.6 26,21.7 26.4,21.7 C26.7,21.7 26.9,21.6 27.2,21.6 C27.4,21.6 27.7,21.7 27.9,21.8 C28,21.9 28.1,22.1 28.2,22.2 C28.3,22.6 28,23.1 27.8,23.4 C27.6,23.7 27.2,23.9 26.8,24 C26.1,24.3 25.7,24.3 24.9,24.3 C24.7,24.3 24.4,24.3 24.2,24.3 C24,24.3 23.7,24.2 23.5,24.2 C23.1,24.1 22.8,24.2 22.4,24.2 C22.4,24.5 22.4,24.6 22.4,24.8 C22.4,25.1 22.5,25.3 22.5,25.6 C22.5,25.9 22.4,26.2 22.4,26.6 C22.4,26.9 22.4,27.2 22.4,27.5 C22.4,27.9 22.1,29.1 21.9,29.5 C21.8,29.8 21.5,30.2 21.3,30.4 C21.2,30.5 21,30.6 20.8,30.5 C20.2,30.4 19.4,29.4 19,29.1 C18.7,28.8 18.3,28.7 18,28.4 C17.9,28.3 17.2,27.6 17.2,27.6 C17.1,27.6 17.1,27.7 17,27.6 C17,27.6 16.9,27.5 16.9,27.5 L16.9,27.5 C16.9,27.5 16.9,27.6 16.9,27.6 C16.9,27.8 16.7,28 16.7,28.2 C16.6,28.6 16.5,29 16.4,29.3 C16.3,29.7 16.1,30 16.1,30.4 C16.1,30.5 16,30.7 16,30.8 C16,31.1 16,31.4 15.9,31.6 C15.9,31.6 15.9,31.6 15.9,31.6 C15.7,31.6 15,31.5 14.8,31.4 C14.7,31.3 14.6,31.2 14.5,31.1 C14.3,30.7 13.9,29.7 13.8,29.3 C13.7,28.9 13.7,26.5 13.8,26.1 C13.9,25.5 14.6,23.5 14.9,23 C14.6,23.1 14.3,23.2 14.1,23.3 C13.4,23.6 13.2,23.9 12.3,23.8 C12,23.8 11.7,23.7 11.6,23.5 C11.4,23.3 11.4,23 11.5,22.7 C11.6,22.2 12,21.5 12.3,21 C12.5,20.7 12.8,20.4 13.1,20.1 C13.5,19.7 13.9,19.2 14.4,18.9 C14.8,18.5 15.3,18.2 15.7,17.8 C15.9,17.6 16.1,17.4 16.4,17.2 C16.8,16.9 17.1,16.6 17.4,16.3 C17.6,16.1 17.9,15.9 18.2,15.7 C18.5,15.5 18.7,15.2 19,14.9 C19.3,14.7 19.6,14.6 19.8,14.3 C19.8,14.1 19.8,14 19.8,13.8 C18.9,13.8 19.1,13.9 18.4,14.1 C18.1,14.2 17.8,14.2 17.5,14.3 C17.1,14.5 16.7,14.7 16.3,14.9 C16,15 15.8,15.2 15.5,15.3 C15.1,15.4 14.8,15.4 14.4,15.7 C14,16 13.6,16.4 13.1,16.7 C12.8,16.9 12.5,17.2 12.2,17.4 C11.9,17.6 11.7,17.8 11.4,18 C11.1,18.3 10.8,18.5 10.6,18.8 C10.2,19.1 9.8,19.4 9.4,19.7 C8.9,20 8.4,19.8 7.9,20.2 C7.6,20.5 7.1,20.9 7,21.2 C6.7,21.9 7.1,22 6.4,22.7 C6.1,22.7 5.9,22.7 5.6,22.6 C5.3,22.6 5.1,22.6 4.8,22.6 C4.4,22.5 4.1,22.4 3.6,22.5 C2.9,22.5 2,22.9 1.3,22.6 C1,22.5 0.7,22.2 0.6,21.9 C0.5,21.7 0.6,21.6 0.6,21.4 C0.9,20.8 1.8,20.3 2.3,20 C2.6,19.8 3,19.7 3.3,19.6 C3.9,19.5 4.7,19.7 5.3,19.4 C5.6,19.2 5.9,19 6.2,18.8 C6.7,18.5 7.2,18.3 7.6,18 C7.8,17.8 8,17.6 8.3,17.5 C8.5,17.4 8.8,17.3 9,17.1 L10.7,16.2 C11,16.1 11.2,15.9 11.4,15.8 C11.6,15.7 11.8,15.6 12.1,15.5 C12.5,15.3 12.9,15 13.3,14.8 C13.6,14.7 13.9,14.6 14.1,14.5 C14.3,14.4 14.5,14.2 14.8,14 C15.1,13.9 15.4,13.9 15.6,13.7 C15.8,13.6 15.9,13.5 16.1,13.4 C16.3,13.3 16.4,13.3 16.6,13.3 C16.9,13.2 17.1,13 17.3,12.8 C17.7,12.6 18.1,12.4 18.4,12.1 C18.6,11.9 18.8,11.7 18.9,11.5 C19,11.3 19.2,11.2 19.3,11 C19.4,10.9 19.3,10.7 19.3,10.6 C19.2,10.4 19.3,10.3 19.4,10.2 C19,10.3 18.7,10.3 18.4,10.6 C18.3,10.7 18.2,10.8 18,10.9 C17.8,11 17.5,11.1 17.3,11.2 C16.9,11.4 16.5,11.7 16.2,11.9 C15.7,12.3 15.3,12.9 14.8,13.3 C14.6,13.5 14.3,13.5 14.1,13.7 C13.9,13.8 13.8,14 13.6,14.2 C13.5,14.3 13.3,14.4 13.1,14.4 C12.7,14.3 12.4,13.9 12.2,13.6 C12.1,13.4 12,13.1 11.8,13 C11.6,12.8 11.3,12.7 11,12.7 C11,12.6 11,12.4 11,12.3 C11,12.3 11,12.3 11,12.3 C10.9,12.1 10.8,12 10.7,11.9 C11.2,10.9 11.4,11.4 12,11 C12.3,10.8 12.6,10.4 12.9,10.2 C13.2,10 13.4,10 13.7,9.8 C14,9.7 14.2,9.5 14.4,9.3 C14.4,9.2 14.4,9 14.4,8.9 C14.1,9 14,9 13.8,9 C13.4,9 13.1,9 12.7,8.9 C12.4,8.8 12.1,8.6 12,8.3 C12.1,8 12.4,7.7 12.7,7.5 C12.9,7.4 13.2,7.3 13.5,7.3 C14.3,7 15.3,6.8 16,6.4 C16.4,6.2 16.8,5.9 17.3,5.7 C18,5.3 18.6,5.1 19.3,4.7 L21.2,3.6 C21.3,3.4 21.5,3.2 21.7,3.1 Z M17.8,26.1 L19.1,26.1 C19.1,25.6 19.3,25.4 19.4,25 C19.5,24.7 19.5,24.4 19.6,24.1 C19.6,23.9 19.6,23.6 19.6,23.4 C19.6,23.2 19.8,22.3 19.7,22.1 C19.6,22.1 19.6,22.1 19.6,22.1 C19.4,22.3 19,22.9 18.9,23.1 C18.8,23.3 18.8,23.4 18.7,23.6 C18.6,23.8 18.5,24 18.4,24.1 C18.3,24.3 18.2,24.6 18.1,24.8 C17.9,25.2 17.6,25.6 17.6,26 C17.7,26.1 17.7,26.1 17.8,26.1 Z M9.1,17.6 C8.9,17.7 8.2,17.9 8.1,18.2 C8.1,18.2 8.1,18.2 8.1,18.2 C8.2,18.2 8.2,18.2 8.3,18.2 C8.4,18.2 8.4,18.2 8.5,18.2 C8.7,18.1 9.1,18 9.2,17.8 C9.2,17.7 9.2,17.6 9.1,17.6 C9.2,17.6 9.1,17.6 9.1,17.6 Z M19.7,17.3 C19.3,17.4 18.8,17.5 18.6,17.9 C18.6,18 18.5,18 18.5,18.1 C18.6,18.3 18.6,18.4 18.8,18.5 C19.1,18.5 19.5,18.1 19.7,17.9 C19.8,17.8 19.9,17.6 20,17.5 C19.9,17.4 19.8,17.3 19.7,17.3 L19.7,17.3 Z M11.5,17.3 C11.4,17.3 11.3,17.3 11.2,17.3 C10.8,17.4 10.3,17.5 9.9,17.7 C9.6,17.8 9.5,18.1 9.2,18.3 C8.8,18.6 8.1,18.6 7.8,19.1 C7.7,19.3 7.9,19.8 7.9,20 L8.4,20 C8.6,20 9.3,19.6 9.4,19.5 C9.4,19.5 9.4,19.4 9.5,19.4 L9.5,19.4 C9.4,19.4 9.3,19.4 9.3,19.5 C9.3,19.5 9.3,19.4 9.3,19.3 C9.4,18.9 9.8,18.6 10.1,18.4 C10.5,18.2 10.9,17.9 11.3,17.6 C11.4,17.5 11.4,17.4 11.5,17.3 Z" id="形状"></path>
                    <path d="M33,1.5 C33.4,1.7 33.8,1.8 34.1,2 C34.3,2.1 34.5,2.2 34.7,2.3 C35.2,2.5 35.7,2.3 36.2,2.8 C36.5,3.1 36.5,3.6 36.5,4 C36.5,4.7 36.2,5 35.7,5.4 C35.5,5.5 35.3,5.6 35.2,5.7 C34.8,6 34.5,6.3 34.1,6.5 C33.9,6.6 33.7,6.6 33.5,6.8 C33.2,7 32.9,7.3 32.7,7.6 C32.3,8 31.9,8.6 31.6,9.1 C31.4,9.3 31.3,9.6 31.1,9.8 C30.5,10.7 30.5,11.4 30.5,12.4 C31,12.3 31.4,12.1 31.8,11.9 C32,11.8 32.2,11.8 32.3,11.7 C32.5,11.6 32.7,11.5 32.8,11.3 C33.1,11.1 33.5,10.9 33.8,10.7 C34.1,10.6 34.4,10.5 34.7,10.4 C35.1,10.2 35.5,9.9 36,9.8 C36.3,9.7 36.6,9.7 36.8,9.6 C36.9,9.5 37,9.4 37.1,9.4 C37.3,9.2 37.6,9.2 37.8,9.2 C38,9.1 38.3,9 38.5,9 C38.8,8.9 39.1,9 39.4,9 C39.6,9 39.8,8.9 40.1,8.9 C40.4,8.9 40.7,8.9 41,8.9 C41.4,8.9 41.8,8.8 42.2,8.9 C42.5,8.9 42.7,9.1 42.8,9.3 C43,9.6 43,9.9 43,10.2 C43,10.4 42.9,10.5 42.8,10.6 C42.6,10.9 42.3,11.2 42,11.4 C41.4,12 40.8,12.6 40.2,13.2 C39.8,13.7 39.8,14.1 39.2,14.5 C38.8,14.4 38.4,13.8 37.9,13.5 C37.8,13.5 37.7,13.4 37.6,13.4 C37.4,13.4 37.3,13.4 37.1,13.4 C36.8,13.4 36.5,13.6 36.3,13.7 C36,13.8 35.6,13.7 35.3,13.8 C35.1,13.9 34.9,14.1 34.8,14.2 C34.6,14.3 34.4,14.5 34.2,14.6 C33.9,14.8 33.6,15.1 33.3,15.4 C33.1,15.6 32.9,15.7 32.6,15.9 C32,16.4 30.4,18 30.4,18.7 C30.4,19 30.5,19.2 30.5,19.5 C30.5,19.9 30.5,20.3 30.5,20.7 C30.5,21.1 30.5,21.6 30.5,22 C30.5,22.2 30.4,22.4 30.2,22.5 C30.1,22.6 29.9,22.6 29.8,22.6 C29.2,22.4 28.1,20.8 27.8,20.3 C27.7,20.1 27.7,19.8 27.5,19.5 C27.4,19.3 27.1,19.2 27,19.1 C27,18.8 27.3,18.7 27.3,18.5 C27.3,18.3 27.2,18.1 27.2,17.9 C27.2,17.6 27.2,17.4 27.1,17.1 C27.1,16.8 27,16.5 27,16.2 C27,15.8 27,15.5 27,15.1 C27,14.8 27,14.4 27,14.1 C27.1,13.6 27.2,13.2 27.3,12.7 C27.3,12.4 27.3,12.1 27.4,11.8 C27.6,11.2 27.9,10.7 28.1,10.1 C28.2,9.9 28.3,9.6 28.4,9.4 C28.5,9.1 28.7,8.8 28.9,8.5 C29,8.3 29.2,8.1 29.3,7.8 C29.4,7.6 29.5,7.3 29.7,7.1 C29.9,6.9 30.1,6.7 30.2,6.5 C30.4,6.3 30.5,6.1 30.7,5.9 C31.1,5.4 31.7,5 32.1,4.5 C32.5,4 32.9,3.4 33.1,2.8 C33.2,2.1 32.9,1.8 33,1.5 Z" id="路径"></path>
                    <path d="M37.6,15 C37.7,15 37.9,15 38,15.1 C38.3,15.2 38.5,15.3 38.7,15.6 C38.9,15.9 39,16.4 39.1,16.7 C39.1,16.9 39.1,17.2 39.2,17.4 C39.2,17.7 39.3,17.9 39.3,18.2 C39.3,18.6 39.3,19 39.3,19.4 C39.3,19.8 39.5,20.1 39.6,20.5 C39.6,20.8 39.6,21 39.7,21.3 C39.7,21.5 39.8,21.7 39.8,21.9 C39.8,22.3 39.8,22.6 39.8,23 C39.9,23.5 40.1,23.8 40.2,24.3 C40.3,24.5 40.2,24.8 40.3,25 C40.4,25.5 40.5,26.1 40.6,26.6 C40.6,27 40.6,27.3 40.6,27.7 C40.6,28.1 40.6,28.4 40.6,28.8 C40.5,29.7 40.1,30.5 39.8,31.3 C39.7,31.5 39.7,31.8 39.6,32 C39.5,32.4 38.8,33.2 38.5,33.5 C38.2,33.9 38,34.3 37.8,34.7 C37.3,35.4 35.9,36.5 35.2,36.8 C34.8,37 34.1,37 33.7,36.9 C33.5,36.8 33.4,36.7 33.2,36.6 C33,36.5 32.5,36.2 32.4,36 C32.3,35.6 33.2,34.7 33.5,34.5 C33.9,34.2 34.4,33.9 34.8,33.5 C35,33.3 35.1,33 35.3,32.8 C35.6,32.4 35.9,32.1 36.2,31.7 C36.4,31.3 36.6,30.9 36.8,30.5 C36.9,30.2 37.1,29.9 37.2,29.6 C37.3,29.3 37.4,28.9 37.4,28.6 C37.4,28.4 37.4,28.1 37.4,27.9 L37.4,26.7 C37.4,26.2 37.4,25.7 37.4,25.2 C37.4,24.9 37.2,24.7 37.2,24.4 C37,23.9 37,23.6 37,23.4 C36.9,23.1 36.9,22.8 36.8,22.5 C36.7,22.2 36.7,21.9 36.7,21.6 C36.7,21.3 36.8,21 36.7,20.8 C36.7,20.6 36.6,20.3 36.5,20.1 C36.5,19.9 36.5,19.7 36.4,19.6 C36.4,19.4 36.3,19.3 36.3,19.1 C36.2,18.9 36.2,18.7 36.2,18.5 C36.1,18.1 35.9,17.8 35.8,17.4 C35.7,17.2 35.7,17 35.7,16.8 C35.6,16.4 35.5,16 35.7,15.6 C36,15.1 36.5,15.2 37,15.1 C37.2,15.1 37.4,15 37.6,15 Z" id="路径"></path>
                    <path d="M16.8,0.7 C17.4,0.7 18.2,0.6 18.7,0.8 C19.3,0.9 19.6,1.1 19.9,1.6 C19.9,1.8 19.9,1.9 19.9,2 C19.6,2.5 18.9,3.2 18.5,3.5 C18.3,3.6 18.2,3.7 18,3.7 C17.6,3.4 17.4,2.9 17.1,2.6 C16.9,2.3 16.5,2.2 16.2,2 C16,1.9 15.6,1.7 15.5,1.5 C15.5,1.4 15.5,1.4 15.5,1.4 C15.7,1.1 16.5,0.7 16.8,0.7 Z" id="路径"></path>
                </g>
                <g id="编组" transform="translate(55.000000, 9.000000)" fill="#FEFEFE" fill-rule="nonzero">
                    <path d="M16,11.2 C16.2,11.3 16.4,11.4 16.5,11.5 C16.8,11.8 16.6,12.2 16.6,12.6 C16.7,12.7 16.8,12.8 16.8,12.9 C16.8,13 16.8,13 16.8,13.1 C16.8,13.1 16.7,13 16.6,12.9 C16.5,12.9 16.5,12.9 16.4,12.9 C16.3,13 16.3,13.4 16.3,13.5 C16.3,13.9 16.2,14.3 16.1,14.7 C16,15 15.9,15.3 15.9,15.6 C16.1,15.6 16.2,15.6 16.4,15.6 C16.6,15.6 16.7,15.5 16.9,15.4 C17.1,15.3 17.3,15.3 17.5,15.2 C17.7,15.1 17.8,15 18,15 C18.2,14.9 18.4,14.8 18.6,14.7 C18.8,14.6 19,14.5 19.2,14.4 C19.5,14.3 19.9,14.2 20.2,14.1 C20.4,14 20.6,13.9 20.9,13.8 C21.1,13.8 21.3,13.8 21.4,13.8 C22,13.7 22.6,13.5 23.3,13.4 C23.7,13.3 24.1,13.1 24.4,13 C24.5,13 24.7,13 24.8,13 C25.2,13 25.5,13.1 25.8,13.1 C26,13.1 26.2,13.1 26.4,13.2 C26.5,13.3 26.7,13.4 26.8,13.5 C27.1,13.8 27.6,14.7 27.7,15.1 C27.8,15.5 27.8,16.5 27.7,16.9 C27.6,17.3 27.5,17.7 27.5,18.1 C27.5,18.3 27.5,18.6 27.5,18.8 C27.5,19 27.4,19.2 27.4,19.5 C27.4,19.9 27.4,20.6 27.4,21.1 C27.4,21.5 27.5,21.8 27.5,22.2 C27.5,22.6 27.3,22.8 27.2,23.2 C27.1,23.4 27.1,23.7 27,23.9 C26.9,24.1 26.8,24.2 26.7,24.4 C26.6,24.6 26.5,24.7 26.5,24.9 C26.4,25 26.3,25.2 26.3,25.3 C26.2,25.5 26.2,25.7 26.1,25.9 C26,26.3 25.8,26.7 25.6,27.1 C25.5,27.3 25.3,27.5 25.1,27.8 C25,28 24.9,28.2 24.8,28.3 C24.6,28.6 24.2,28.9 23.9,29.2 C23.7,29.3 23.5,29.5 23.4,29.6 C23.2,29.7 23.1,29.9 22.9,30 C22.7,30.2 22.4,30.3 22.2,30.5 C22,30.6 21.9,30.8 21.7,31 C21.5,31.1 21.3,31.2 21,31.2 C20.2,31.5 19.6,31.7 18.8,31.9 C18.6,31.9 18.3,32 18.1,32 C17.8,32 17.6,32 17.3,32 C17.1,32 16.8,32 16.6,32 C16.3,32 16.1,31.9 15.9,31.8 C15.7,31.7 15.5,31.7 15.3,31.6 C14.9,31.4 14.6,31 14.3,30.7 C14.2,30.6 14.1,30.5 14,30.4 C14,30.4 13.9,30.3 13.9,30.3 C13.9,30.3 13.9,30.2 14,30.2 C14.2,30.2 14.6,30.5 14.8,30.6 C15.2,30.8 15.9,31.2 16.3,31.3 C16.5,31.3 16.7,31.3 16.8,31.4 C17.7,31.5 17.8,31.3 18.6,31 C18.9,30.9 19.1,30.9 19.4,30.8 C19.6,30.7 19.9,30.4 20.1,30.3 C20.5,30 21,29.8 21.4,29.5 C21.6,29.3 21.7,29 21.9,28.8 C22.2,28.4 22.6,28.1 22.9,27.8 C23.2,27.4 23.3,26.9 23.5,26.5 C23.6,26.2 23.7,25.9 23.8,25.6 C23.9,25.3 23.9,25 24,24.8 C24.2,24.3 24.5,23.9 24.7,23.4 C24.8,22.9 24.7,22.4 24.8,21.9 C24.8,21.5 25,21.1 25,20.7 C25,20.5 25,20.3 25.1,20.1 C25.1,19.9 25.2,19.7 25.2,19.5 C25.2,19.3 25.2,19.1 25.1,19 C25,18.5 25,18.1 24.9,17.7 C24.7,17.4 24.4,17.1 24.2,16.9 C24,16.7 23.9,16.5 23.8,16.3 C23.4,16.3 23.1,16.3 22.7,16.4 C22.2,16.5 21.8,16.8 21.3,16.9 C20.7,17 20,17 19.4,17.2 C19,17.3 18.6,17.6 18.2,17.8 C17.9,17.9 17.7,18 17.4,18.1 C16.9,18.3 16.5,18.5 16,18.7 C15.7,18.8 15.4,18.9 15.1,19.1 C14.8,19.2 14.6,19.4 14.3,19.6 C13.9,19.8 13.5,20 13.1,20.2 C12.8,20.3 12.6,20.5 12.3,20.6 C12.2,20.6 12.1,20.6 12,20.6 C11.8,20.5 11.6,20.4 11.5,20.2 C11.3,19.9 11.4,19.5 11.4,19.2 C11.5,18.9 12,17.9 12.2,17.6 C12.3,17.4 12.4,17.3 12.5,17.2 C12.6,17 12.7,16.8 12.9,16.6 C13.1,16.4 13.3,16.3 13.5,16.1 C13.7,15.9 14,15.7 14.2,15.5 C14.3,15.4 14.4,15.3 14.5,15.1 C14.8,14.8 15.1,14.4 15.3,14.1 C15.6,13.6 15.5,13.3 15.6,12.8 C15.8,11.7 16,11.5 16,11.2 Z" id="路径"></path>
                    <path d="M11.5,13.7 L11.5,13.7 C11.5,14.2 11.2,14.5 11.1,14.9 C11,15.1 10.9,15.3 10.9,15.5 C10.9,15.6 10.8,15.8 10.8,15.9 C10.7,16.1 10.6,16.2 10.6,16.4 C10.5,16.6 10.6,16.9 10.6,17.1 C10.6,17.5 10.5,17.9 10.4,18.3 C10.2,18.8 10,19.1 9.6,19.5 C9.4,19.8 9,20.2 8.9,20.5 C8.7,21.1 8.9,21.7 8.7,22.3 C8.6,22.6 8.5,22.9 8.4,23.2 C8.3,23.5 8.2,23.8 8,24.1 C7.9,24.3 7.8,24.5 7.7,24.7 C7.6,24.9 7.5,25.1 7.5,25.3 C7.4,25.6 7.3,25.8 7.2,26.1 C7.2,26.3 7.2,26.4 7.2,26.6 C7.4,26.9 7.7,27 7.8,27.2 C7.9,27.5 7.9,27.9 7.8,28.1 C7.6,28.6 7.4,29.1 7.2,29.7 C7.1,29.9 7,30.1 6.9,30.3 C6.7,30.5 6.5,30.6 6.4,30.8 C6.3,31 6.1,31.2 5.9,31.3 C5.6,31.4 5,31.3 4.8,31.2 C4.5,31.1 4.2,30.8 4,30.5 C3.9,30.2 3.8,29.7 4,29.4 C4.1,29.3 4.1,29.1 4.2,29 C4.3,28.8 4.3,28.5 4.4,28.3 C4.5,28.1 4.6,28 4.7,27.8 C4.9,27.5 5.1,27.1 5.2,26.7 C5.3,26.4 5.3,26.2 5.4,25.9 C5.4,25.8 5.5,25.6 5.5,25.5 C5.6,25.2 5.6,24 5.5,23.7 L5.5,23.7 C5.5,23.7 5.5,23.7 5.5,23.6 C5.4,23.5 5.3,23.5 5.2,23.4 C5,23.3 4.7,23.3 4.5,23.2 C4.2,23.1 4,22.9 3.7,22.9 C3.5,22.9 3.2,22.9 3,22.9 C2.6,22.9 2,22.9 1.7,22.6 C1.6,22.5 1.4,22.4 1.3,22.3 C1,22 0.7,21.6 0.7,21.1 C0.7,20.6 1.1,19.6 1.4,19.2 C1.6,18.9 1.9,18.7 2.1,18.4 C2.4,18.1 2.6,17.7 2.8,17.3 C3,17 3.4,16.7 3.6,16.4 C3.8,16.2 3.9,16.1 4,15.9 C4.2,15.7 4.5,15.6 4.7,15.4 L4.9,15.5 C4.8,15.7 4.6,15.8 4.5,16 C4.2,16.5 4.5,17.1 4.5,17.7 C4.5,18.1 4.2,18.5 4.1,19 C4.1,19.2 4.1,19.3 4.2,19.5 C4.6,20 5.4,19.8 5.9,19.9 C6.1,19.9 6.3,20 6.6,20 C6.8,20 7.2,20.1 7.4,20 C7.6,19.9 7.8,19.7 7.9,19.6 C8.1,19.4 8.3,19.2 8.4,19 C8.5,18.9 8.6,18.7 8.7,18.5 L9.3,17.5 C9.4,17.3 9.6,17.1 9.7,16.8 C9.8,16.6 9.9,16.4 10,16.2 C10.1,16 10.4,15.8 10.5,15.6 C10.7,15.2 10.7,14.8 10.9,14.4 C11,14.2 11.2,14.1 11.2,14 C11.3,14.1 11.3,13.9 11.5,13.7 C11.5,13.8 11.5,13.8 11.5,13.7 Z" id="路径"></path>
                    <path d="M6.2,0.2 C6.8,0.3 7.4,0.9 7.8,1.3 C8,1.5 8.1,1.8 8.3,2 C8.4,2.2 8.5,2.3 8.6,2.5 C9,3.1 9,3.7 9,4.4 C9,4.7 8.9,5.5 8.7,5.8 C8.5,6.3 7.6,7 7.1,7.2 C6.8,7.3 6.5,7.2 6.2,7.5 C5.9,7.8 5.7,8.3 5.7,8.8 C6,8.9 6.3,9.1 6.5,9.3 C6.6,9.4 6.7,9.6 6.9,9.7 C7.1,9.8 7.3,9.9 7.4,10.1 C7.8,10.3 8.1,10.7 8.3,11.1 C8.4,11.3 8.9,12 8.8,12.2 C8.8,12.4 8.6,12.5 8.5,12.6 C8.2,12.9 7.8,13 7.5,13.2 C7,13.6 6.5,14.1 5.9,14.4 C5.7,14.5 5.5,14.6 5.4,14.7 C5.5,14.5 5.6,14.3 5.7,14.2 C6,13.7 6.3,13.5 6.5,12.9 C6.1,12.9 5.8,12.9 5.4,12.9 C5.1,12.9 4.7,12.8 4.4,12.7 C4.1,12.6 3.8,12.6 3.6,12.5 C3.5,12.5 3.4,12.4 3.2,12.3 C2.7,12 1.9,11.4 1.8,10.8 C1.8,10.6 1.8,10.3 1.9,10.1 C2,9.9 2.2,9.7 2.4,9.4 C2.6,9.1 2.9,8.8 3.1,8.5 C3.4,8.2 3.6,7.8 3.9,7.5 C4.1,7.3 4.4,7.3 4.7,7.1 C4.9,6.9 6,5.9 6.2,5.7 C6.3,5.6 6.3,5.4 6.4,5.3 C6.5,5.1 6.6,4.9 6.6,4.7 C6.7,4.3 6.7,3.2 6.6,2.8 C6.6,2.5 6.4,2.3 6.4,2 C6.4,1.6 6.4,1.3 6.4,0.9 C6.3,0.7 6.1,0.4 6.2,0.2 Z" id="路径"></path>
                    <path d="M20.5,2.9 C20.9,2.9 21.3,3 21.7,3.1 C22,3.2 22.4,3.3 22.5,3.6 C22.6,3.8 22.6,4.1 22.6,4.3 C22.5,4.6 22.3,4.9 22,5.1 C21.3,5.5 20.8,5.4 20.1,5.3 C19.6,5.5 18.9,6.4 18.6,6.8 C18.5,7 18.4,7.2 18.3,7.4 C18.1,7.7 17.9,7.9 17.7,8.2 C17.4,8.6 17.3,9.1 16.8,9.4 C16.7,9.4 16.7,9.5 16.6,9.5 C16.6,9.4 16.6,9.4 16.6,9.3 C16.7,9.1 16.7,8.9 16.7,8.7 C16.7,8.5 16.7,8.3 16.7,8.1 C16.8,7.8 16.9,7.6 16.9,7.3 C16.9,7 16.8,6.7 16.8,6.4 C16.7,6.4 16.5,6.4 16.4,6.5 C16.1,6.6 15.6,6.9 15.3,7.1 C15,7.3 14.8,7.6 14.5,7.8 C14.2,8.1 14.1,8.3 14.1,8.7 C13.9,8.6 13.7,8.6 13.5,8.6 C13.3,8.9 13.1,9.1 13,9.4 C12.9,9.5 12.8,9.7 12.7,9.8 C12.5,10.1 12.5,10.5 12.3,10.8 C12.3,10.8 12.3,10.8 12.2,10.8 L12.2,10.8 C12.2,10.7 12.2,10.6 12.3,10.5 C12.3,10.5 12.3,10.4 12.3,10.4 L12.3,10.4 C12.3,10.4 12.2,10.4 12.2,10.4 C12.1,10.4 12.1,10.4 12.1,10.4 C12.1,10.4 12,10.3 12,10.2 C12,9.8 12.5,9.4 12.8,9.1 C13,8.9 13.4,8.5 13.5,8.3 C13.6,8 13.7,7.8 13.8,7.5 C13.8,7.4 13.9,7.2 14,7.1 C14.2,6.5 14.5,6.1 14.9,5.6 C15.2,5.3 15.5,4.9 15.9,4.7 C16.6,4.3 17.1,4.3 17.8,4 C18,3.9 18.3,3.8 18.5,3.6 C18.7,3.5 18.9,3.4 19.1,3.4 C19.2,3.3 19.4,3.2 19.5,3.2 C19.8,3 20.2,2.9 20.5,2.9 Z" id="路径"></path>
                    <path d="M15.2,20.7 C15.7,20.7 16.7,20.6 17.2,20.7 C17.4,20.7 17.7,20.8 17.9,20.9 C18.6,21.2 19.1,21.6 19.6,22.1 C19.8,22.2 19.9,22.3 20.1,22.5 C20.2,22.6 20.3,22.8 20.3,22.9 C20.4,23.2 20.5,24.1 20.3,24.4 C20.2,24.6 20.1,24.7 20,24.8 C19.6,25.2 19.1,25.5 18.6,25.7 C18.6,25.7 18.6,25.7 18.5,25.7 C18,25.8 17.9,25.2 17.8,24.9 C17.7,24.7 17.6,24.6 17.5,24.4 C17.4,24.1 17.4,23.8 17.2,23.6 C16.9,23.3 16.5,23.1 16.1,22.9 C15.7,22.7 15.5,22.3 15.1,22.2 C14.9,22.1 14.6,22 14.3,22 C14,21.9 13.7,21.7 13.5,21.5 C13.5,21.5 13.4,21.4 13.4,21.4 C13.4,21.3 13.4,21.3 13.5,21.3 C13.7,20.9 14.9,20.7 15.2,20.7 Z" id="路径"></path>
                </g>
                <path d="M110,8 C110.2,8 110.4,8.1 110.6,8.1 C110.8,8.1 110.9,8.1 111.1,8.1 C111.2,8.1 111.2,8.1 111.3,8.2 C111.5,8.3 111.7,8.5 111.8,8.7 C111.9,8.9 111.9,9.2 111.8,9.4 C111.6,9.8 111.1,10.3 110.7,10.6 C110.5,10.7 110.3,10.8 110.2,10.9 C110,11 109.9,11.2 109.6,11.3 C109.4,11.2 109.2,11 109,11 C108.8,10.9 107.3,11 107,11 C106.7,11 106.5,11 106.4,11.2 C106.2,11.4 106.1,11.6 106.1,11.9 C106.1,12.1 106.1,12.4 106.1,12.7 C106.1,12.9 106.2,13.1 106.2,13.3 C106.2,13.6 106.2,14 106.2,14.3 C106.2,14.7 106.2,15.1 106.2,15.5 C106.2,15.9 106,16.4 106,16.9 C106,17.1 106,17.4 106,17.6 C105.9,17.9 105.8,18.1 105.8,18.4 C105.8,18.7 105.8,19 105.8,19.3 C105.8,19.7 105.8,20 105.8,20.4 C105.8,20.6 105.9,20.8 105.9,21 C105.9,21.2 105.9,21.5 105.9,21.7 C105.9,21.9 106,22.1 106,22.3 C106,22.6 106,23 106,23.3 C106.1,23.8 106.2,24.2 106.2,24.7 C106.2,24.9 106.3,25.2 106.3,25.4 L106.3,25.4 C106.6,25.3 106.9,25.1 107,24.7 C107.1,24.6 107.1,24.4 107.2,24.3 C107.4,23.9 107.7,23.6 107.9,23.2 C108,23 108.1,22.7 108.3,22.4 C108.5,22.1 108.8,21.9 109.1,21.6 C109.3,21.4 109.4,21.2 109.6,21 C109.8,20.8 110,20.6 110.1,20.4 C110.3,20.2 110.5,19.9 110.8,19.7 C111.1,19.5 111.4,19.3 111.7,19 C112,18.8 112.2,18.5 112.5,18.2 C112.7,18 113,17.9 113.3,17.7 C113.5,17.5 113.7,17.3 113.9,17.1 C114,17 114.1,16.8 114.3,16.7 C114.5,16.4 114.8,16.2 115.1,15.9 C115.3,15.7 115.5,15.4 115.6,15.2 C115.7,15 115.9,14.8 116,14.6 C116.1,14.5 116.3,13.8 116.2,13.7 C116.2,13.7 116.2,13.6 116.1,13.6 C116,13.5 115.4,13.7 115.2,13.7 C114.9,13.8 114.7,14 114.4,14.1 C114.2,14.2 114,14.3 113.9,14.4 C113.7,14.5 113.7,14.8 113.5,15 C113.4,15.1 113.2,15.2 113.1,15.4 L112.2,16.3 C112.1,16.4 111.9,16.6 111.8,16.8 C111.6,17 111.3,17.1 111.1,17.3 C111,17.5 110.9,17.8 110.8,18 C110.7,18.3 110.5,18.5 110.4,18.7 C110.3,18.9 110.3,19.1 110.2,19.3 C110.1,19.6 109.7,19.9 109.4,20.1 C109.3,20.1 109.2,20.2 109.1,20.2 C109.1,20.2 109,20.1 109,20.1 C108.6,19.8 108.1,18.9 108,18.5 C108,18.4 108,18.3 108,18.2 C108,17.9 108.1,17.7 108.1,17.4 C108.1,17.2 108.1,17 108.1,16.7 C108.2,16.3 108.3,15.9 108.5,15.6 C108.6,15.4 108.6,15.2 108.7,15.1 C108.8,15 108.8,14.8 109,14.7 C109.4,14.3 109.8,14.9 110.3,14.9 C110.4,14.9 110.4,14.9 110.5,14.9 C110.6,14.9 110.8,14.8 110.9,14.8 C111.1,14.7 111.3,14.7 111.5,14.6 C111.7,14.5 111.8,14.4 112,14.3 C112.2,14.2 112.4,14.2 112.6,14.1 C112.8,14 113,13.8 113.2,13.7 C113.4,13.6 113.7,13.6 113.9,13.5 C114.1,13.4 114.4,13.3 114.6,13.2 C115,13 115.3,12.8 115.7,12.7 C116,12.6 116.2,12.7 116.5,12.6 C116.8,12.5 116.8,12.4 117.1,12.4 C117.3,12.4 117.5,12.5 117.7,12.5 C117.8,12.5 117.9,12.5 118.1,12.5 C118.3,12.5 118.5,12.7 118.7,12.9 C119.1,13.3 119.3,14 119.3,14.5 C119.3,14.8 119.2,15 119.1,15.3 C119.1,15.4 119.1,15.6 119,15.7 C119,16 118.9,16.2 118.7,16.4 C118.6,16.5 118.5,16.7 118.4,16.8 C118.3,17 118.2,17.1 118.1,17.3 C118,17.4 117.9,17.6 117.8,17.7 C117.7,17.8 117.6,18 117.5,18.2 C117.3,18.4 117.1,18.6 116.9,18.8 C116.7,19 116.5,19.3 116.2,19.5 C116,19.6 115.8,19.7 115.6,19.9 C115.3,20.1 115.1,20.3 114.9,20.5 C114.7,20.6 114.6,20.7 114.4,20.8 C114.2,20.9 114.1,21.1 113.9,21.2 C113.7,21.4 113.4,21.5 113.2,21.7 C113,21.9 112.8,22.1 112.6,22.3 C112.4,22.5 112.3,22.6 112.1,22.8 C112,22.9 111.9,23.1 111.9,23.3 C111.8,23.6 111.8,23.9 111.6,24.1 C111.5,24.3 111.3,24.4 111.2,24.6 C111,24.9 110.8,25.3 110.6,25.6 C110.6,25.7 110.5,25.8 110.5,25.9 C110.5,26 110.5,26.2 110.5,26.3 C110.4,26.7 110.3,27.1 110.3,27.5 C110.3,27.6 110.3,27.8 110.3,27.9 C110.3,28.1 110.2,28.3 110.2,28.4 C110.2,28.8 110.2,29.3 110.2,29.7 C110.2,29.7 110.2,29.7 110.3,29.7 C110.5,29.7 110.6,29.6 110.8,29.6 C111.1,29.6 111.3,29.5 111.6,29.5 C111.9,29.5 112.2,29.5 112.4,29.5 C112.6,29.5 112.8,29.5 113,29.5 C113.3,29.6 113.8,30.2 113.9,30.4 C113.8,30.7 113.7,31.1 113.7,31.5 C113.7,31.8 113.7,32 113.7,32.3 C113.7,32.5 113.6,32.7 113.5,32.9 C113.5,33 113.4,33.2 113.4,33.3 C113.4,33.4 113.4,33.6 113.4,33.7 C113.4,34 113.3,34.4 113.2,34.7 C113.2,34.9 113.1,35 113.1,35.2 C112.9,35.7 112.6,35.5 112.2,35.7 C112,35.8 111.6,36.3 111.5,36.5 C111.4,36.9 111.9,37.2 112.3,37.4 C112.6,37.5 112.9,37.5 113.1,37.7 C113.4,37.9 114,38.4 114.2,38.7 C114.4,39 114.6,39.6 114.5,39.9 C114.4,40.2 114.1,40.3 113.8,40.4 C113.7,40.4 113.5,40.4 113.4,40.5 C113.2,40.6 113.1,40.7 113,40.8 C112.6,41 112.1,40.7 111.6,40.6 C111.3,40.7 111.2,40.9 110.9,41 C110.4,41.1 110,40.6 109.5,40.8 C109.3,40.9 109.2,41.2 109,41.3 C108.9,41.4 108.7,41.5 108.5,41.6 C108.3,41.7 108.1,41.9 107.9,42 C107.8,42.1 107.5,42.2 107.3,42.1 C107.3,42.1 107.3,42.1 107.3,42.1 C107.2,42.1 107.2,42 107.1,42 C107,41.9 107,41.8 107,41.8 C107,41.7 107,41.7 107.1,41.6 C107.2,41.4 107.5,41.4 107.6,41.2 C107.8,41 108.1,40.9 108.3,40.7 C108.6,40.5 108.9,40.3 109.2,40.2 C109.3,40.1 109.5,40.1 109.6,40.1 C109.9,40 110.4,39.8 110.6,39.6 C110.7,39.5 110.7,39.3 110.7,39.1 C110.2,39.1 109.7,39.1 109.3,39.1 C109,39.1 108.8,39.3 108.5,39.3 C108,39.4 107.8,39.3 107.3,39.5 C107.1,39.6 106.8,39.6 106.5,39.7 C106.3,39.6 106,39.4 105.9,39.2 C105.6,38.9 105.8,38.4 105.9,38 C105.9,37.9 105.9,37.7 105.9,37.6 C105.9,37.2 106.2,37 106.5,36.9 C106.6,36.9 106.8,36.8 106.9,36.8 C107,36.8 107.7,36.4 107.7,36.3 C107.7,36.3 107.7,36.2 107.7,36.2 L107.7,36.2 C107.3,36.1 106.8,36.5 106.4,36.5 C106.1,36.5 105.8,36.5 105.5,36.5 C105.3,36.5 105.1,36.5 104.9,36.5 C104.8,36.5 104.7,36.5 104.7,36.4 C104.5,36.2 104.5,35.8 104.5,35.6 C104.5,35.2 104.5,34.7 104.5,34.3 C104.5,33.1 104.6,32.8 105.6,32.1 C105.9,31.9 106.2,31.7 106.5,31.5 C106.9,31.3 107.3,31.2 107.6,30.9 C107.7,30.8 107.9,30.5 107.9,30.3 C107.9,30.1 107.9,29.9 107.9,29.7 C107.9,29.5 107.9,29.3 107.9,29 C107.9,28.8 107.8,28.7 107.8,28.5 C107.8,28.3 107.8,28.2 107.8,28 C107.5,28.2 106.9,28.5 106.7,28.8 C106.3,29.1 105.9,29.6 105.4,29.8 C105.1,29.9 104.4,30.1 104.2,30 C104,29.9 103.8,29.7 103.7,29.5 C103.8,29.2 104,28.7 104.2,28.5 C104.3,28.4 104.4,28.3 104.5,28.1 C104.6,28 104.7,27.8 104.8,27.7 C104.9,27.6 105,27.5 105.1,27.3 C105.2,27.2 105.3,27 105.4,26.9 C105.5,26.8 105.6,26.6 105.6,26.5 C105.5,26.2 105.3,25.9 105.2,25.6 C105,25.2 104.8,24.8 104.7,24.4 C104.6,24.2 104.5,23.3 104.4,23.2 C104.4,23.2 104.4,23.2 104.4,23.2 C104.3,23.2 104.2,23.1 104.1,23.1 C104,23.2 104,23.2 104,23.3 C103.6,24.1 103.7,25 103.4,25.8 C103.3,26 103.2,26.2 103.1,26.4 C103,26.7 102.9,26.9 102.8,27.2 C102.7,27.4 102.6,27.6 102.5,27.8 C102.3,28.1 101.9,28.5 101.7,28.6 C101.5,28.7 101.4,28.8 101.2,28.9 C101,29.1 100.8,29.3 100.5,29.4 C100.3,29.5 100,29.7 99.8,29.8 C99.7,29.9 99.6,29.9 99.5,29.9 C99.2,30 98.8,29.9 98.5,29.8 C98.2,29.7 97.9,29.5 97.8,29.2 C97.5,28.7 97.4,28.2 97.6,27.7 C97.7,27.3 97.8,27.3 98.2,27.1 C98.4,27 98.5,26.8 98.7,26.7 C99,26.5 99.2,26.3 99.4,26.1 C99.5,25.9 99.6,25.7 99.7,25.5 C99.8,25.2 100,24.9 100.2,24.7 C100.5,24.4 100.8,24.1 101.1,23.8 C101.3,23.6 101.3,23.4 101.5,23.2 C101.6,23.1 101.7,23 101.8,22.9 C101.9,22.7 102,22.4 102.1,22.2 C101.9,22.3 101.7,22.2 101.5,22.3 C101.2,22.4 101,22.6 100.7,22.7 C100.6,22.8 100.4,22.8 100.3,22.8 C100.1,22.9 100,23.1 99.8,23.3 C99.6,23.4 99.5,23.5 99.3,23.6 C99.2,23.7 99,23.8 98.9,23.9 C98.9,23.9 98.8,23.9 98.8,24 C98.8,24 98.8,24 98.8,24 C98.7,24 98.5,24 98.4,24 C98.4,23.8 98.4,23.6 98.4,23.3 C98.4,23.1 98.3,22.9 98.3,22.7 C98.3,22.5 98.3,22.2 98.4,22 C98.7,20.3 100,20.3 100.9,19.2 C101,19.1 101.3,18.8 101.3,18.6 C101.3,18.6 101.3,18.6 101.3,18.5 C101.2,18.5 101.1,18.5 101,18.6 C100.9,18.6 100.8,18.7 100.7,18.8 C100.5,19 100.3,19.2 100.1,19.3 C99.9,19.3 99.3,19.3 99.1,19.2 C98.9,19 98.5,18.5 98.4,18.3 C98.4,18.2 98.4,18 98.3,17.9 C98.2,18 98.1,18.1 98,18.3 C97.9,18.5 97.8,18.8 97.6,19 C97.5,19.2 97.4,19.3 97.3,19.5 C97.2,19.7 97.2,19.9 97.2,20 C97.1,20.2 97.1,20.5 97,20.7 C96.9,20.9 96.8,21.1 96.8,21.4 C96.7,21.7 96.7,22 96.6,22.3 C96.5,22.6 96.5,22.8 96.4,23.1 C96.4,23.4 96.4,23.8 96.4,24.1 C96.4,24.3 96.3,24.5 96.3,24.8 C96.3,25.4 96.3,26 96.3,26.6 C96.3,26.9 96.2,27.2 96.2,27.5 C96.2,28.2 96.2,28.9 96.2,29.7 C96.2,30 96.2,30.3 96.2,30.6 C96.2,30.8 96.1,31 96,31.2 C95.9,31.3 95.8,31.3 95.7,31.3 C95.4,31.3 95.2,31.2 95,31 C94.9,30.9 94.8,30.7 94.7,30.5 C94.4,29.8 94.4,29.3 94.4,28.6 C94.4,28.4 94.4,28.1 94.4,27.8 C94.5,27.6 94.6,27.3 94.7,27.1 C94.8,26.9 94.7,26.7 94.8,26.6 C94.9,26.2 95,25.9 95.1,25.5 C95.1,25.3 95.1,25.2 95.2,25 C95.3,24.5 95.4,24.1 95.5,23.6 C95.6,23.4 95.6,23.2 95.7,23 C95.8,22.8 95.9,22.6 95.9,22.4 C96,22.1 96,21.8 96.1,21.5 C96.1,21.3 96.2,21.2 96.3,21 C96.3,20.8 96.3,20.7 96.3,20.5 C96.4,20.2 96.5,20 96.5,19.7 C96.5,19.3 96.5,18.8 96.5,18.4 C96.5,18.2 96.6,18 96.6,17.8 C96.6,17.6 96.6,17.4 96.7,17.2 C96.7,17 96.8,16.8 96.9,16.7 C97,16.4 96.9,16 97,15.7 C96.5,15.7 96.1,15.8 95.6,16 C95.5,16.1 95.3,16.1 95.2,16.2 C95,16.3 94.8,16.4 94.5,16.5 C94.2,16.6 93.7,16.7 93.4,16.5 C93.1,16.3 92.9,15.9 92.8,15.6 C92.7,15.3 92.7,15 92.9,14.8 C93,14.6 93.4,14.3 93.6,14.2 C93.9,14.1 94.2,14.2 94.5,14.1 C94.8,14.1 95.1,14 95.3,13.9 C95.7,13.8 96,13.4 96.4,13.2 C96.6,13.1 96.9,13.1 97.2,13 C97.5,12.9 97.8,12.8 98.2,12.6 C98.5,12.5 98.7,12.3 99,12.2 C99.3,12.1 99.5,12.1 99.8,12.1 C99.9,12.1 100,12 100.1,12 C100.3,11.9 100.5,11.9 100.7,11.9 C100.9,11.8 101.2,11.7 101.4,11.7 C101.7,11.6 102,11.6 102.2,11.5 C102.4,11.4 102.6,11.3 102.8,11.2 C103,11.1 103.2,11.1 103.4,11.1 C103.6,11 103.7,11 103.9,10.9 L104.8,10.6 C105,10.5 105.1,10.5 105.3,10.4 C105.7,10.2 106.1,10 106.5,9.8 C106.6,9.7 106.8,9.7 106.9,9.7 C107.1,9.6 107.4,9.5 107.6,9.4 C107.9,9.3 108.2,9.1 108.6,9 C108.9,8.9 109.3,8.7 109.7,8.6 C109.9,8.6 110,8.5 110.2,8.5 C109.7,8.1 109.9,8.1 110,8 Z M98.2,16.9 C98.5,17 98.9,17 99.2,17 C99.6,16.9 100,16.8 100.4,16.6 C100.6,16.5 100.9,16.5 101.1,16.4 C101.4,16.3 101.7,16.1 102,16 C102.4,15.9 102.8,15.9 103.3,15.9 C103.5,15.9 103.6,15.9 103.8,15.9 C104,15.9 104.2,16 104.5,16 C104.5,15.8 104.5,15.6 104.5,15.5 C104.5,15.3 104.7,15.2 104.7,15 C104.8,14.8 104.8,14.7 104.8,14.5 C104.9,14.2 105,14 105.1,13.7 C105.2,13.5 105.3,13.4 105.3,13.2 C105.4,13 105.4,12.9 105.5,12.7 C105.6,12.4 106,12.1 106,11.7 C106,11.5 106,11.3 105.8,11.2 C105.6,11.1 105.5,11 105.3,11 C105.3,11 105.2,11 105.2,11 C105,11 104.8,11.1 104.6,11.1 C104.3,11.1 104,11.1 103.7,11.2 C103.5,11.3 103.3,11.4 103.1,11.5 C102.9,11.6 102.7,11.6 102.6,11.6 C102.5,11.7 102.4,11.8 102.2,11.9 C102,12.1 101.7,12.1 101.5,12.3 C101.1,12.6 100.8,13 100.4,13.3 C100.1,13.6 99.7,13.9 99.5,14.2 C99.3,14.5 99.1,14.9 98.9,15.2 C98.8,15.4 98.6,15.6 98.4,15.8 C98.4,16.4 98.3,16.7 98.2,16.9 Z M103.1,19.6 C103.2,20 103.3,20.3 103.5,20.6 C103.6,20.8 103.7,20.8 103.9,20.9 C103.9,20.6 103.9,20.3 103.9,20.1 C103.9,19.8 104,19.2 103.9,18.9 L103.9,18.9 C103.6,19 103.3,19.1 103.1,19.5 C103.2,19.5 103.1,19.6 103.1,19.6 L103.1,19.6 C103.1,19.6 103.1,19.6 103.1,19.6 Z M110.4,33.2 C110.6,32.9 110.7,32.8 110.8,32.4 C110.8,32.3 110.9,32.2 110.8,32 C110.8,31.9 110.7,31.8 110.6,31.7 C110.5,31.7 110.5,31.6 110.4,31.6 C110.3,31.9 110.2,32.2 110.2,32.6 C110.2,32.8 110.2,32.9 110.2,33.1 C110.2,33.2 110.2,33.3 110.2,33.4 C110.2,33.4 110.3,33.4 110.3,33.4 C110.3,33.4 110.4,33.3 110.4,33.2 Z" id="形状" fill="#FEFEFE" fill-rule="nonzero"></path>
                <g id="编组" transform="translate(126.000000, 9.000000)" fill="#FEFEFE" fill-rule="nonzero">
                    <path d="M26.8,2.2 C27.1,2.2 27.4,2.2 27.7,2.2 C28.2,2.3 28.8,2.7 29.2,3 C29.5,3.3 29.8,3.6 29.8,4 C29.8,4.3 29.7,4.5 29.7,4.8 C29.6,5.1 29.4,5.9 29.2,6.2 C29,6.5 28.7,6.8 28.5,7.1 L27.5,8.2 C27.4,8.3 27.3,8.5 27.2,8.7 C27.1,8.8 27,9 26.8,9.1 C26.7,9.2 26.6,9.3 26.6,9.4 C26.5,9.7 26.5,10.3 26.6,10.7 C26.7,10.9 26.8,11.1 26.8,11.4 C26.8,11.7 26.8,12 26.8,12.3 C26.8,12.7 27,12.8 27.3,13.1 L27.7,13.1 C27.9,12.9 28.1,12.7 28.2,12.5 C28.4,12.3 28.5,12 28.7,11.8 C29,11.4 29.7,10.9 30.2,10.6 C30.4,10.5 30.6,10.5 30.7,10.5 C30.9,10.4 31,10.3 31.2,10.2 C31.3,10.1 31.5,10.2 31.6,10.3 C32,10.5 32.9,10.8 33.1,11.1 C33.2,11.2 33.2,11.3 33.3,11.4 C33.4,11.6 33.5,11.9 33.4,12.1 C33.4,12.4 33.2,12.7 33.1,12.9 C32.7,13.5 31.7,14.4 31.1,14.8 C30.9,14.9 30.7,15 30.5,15.1 C30.3,15.3 30.1,15.5 29.9,15.6 C29.6,15.9 29.4,16.1 29.2,16.4 C29.1,16.5 29.1,16.6 29,16.8 C28.9,17 28.5,17.9 28.6,18.1 C28.6,18.2 29.4,18.2 29.6,18.2 C29.9,18.3 30.1,18.5 30.2,18.7 C30.4,19.1 30.5,19.4 30.5,19.9 C30.5,20.1 30.5,20.3 30.5,20.4 C30.5,20.6 30.4,20.7 30.2,20.9 C29.9,21.3 29.1,22.1 28.7,22.4 C29,22.7 29.4,22.7 29.7,23 C29.9,23.1 30,23.3 30.1,23.4 C30.5,23.8 31,24.4 31.5,24.7 C31.8,24.9 32.2,24.9 32.5,25 C32.9,25.2 33.1,25.5 33.5,25.6 C33.7,25.7 33.9,25.6 34.1,25.7 C34.4,25.7 34.6,25.9 34.8,25.9 C35.1,26 35.4,25.9 35.7,26.1 C35.9,26.2 36,26.4 36,26.6 C36.1,26.9 36,27.2 35.9,27.4 C35.9,27.4 35.9,27.4 35.9,27.4 C35.6,27.8 35.1,27.7 34.6,27.7 C34.4,27.7 34.3,27.7 34.1,27.7 C33.9,27.7 33.6,27.8 33.4,27.8 C33.2,27.8 33,27.7 32.8,27.6 C32.5,27.5 32.1,27.5 31.8,27.5 C31.5,27.5 31.2,27.6 30.9,27.6 C30.3,27.6 29.7,27.5 29.2,27.7 C28.8,27.8 28.4,28 28,28 C27.4,28.1 26.9,28 26.3,28 C26,28 25.8,28.2 25.6,28.2 C25.3,28.2 25,28.2 24.7,28.2 C24.4,28.2 24.1,28.3 23.8,28.3 C23.5,28.3 23.3,28.5 23,28.5 C22.8,28.6 22.5,28.5 22.3,28.6 C22,28.7 21.9,29 21.7,29.2 C21.4,29.4 21.1,29.4 20.8,29.5 C20.5,29.6 20.5,29.9 20.1,29.9 C19.9,29.9 19.2,29.9 19,29.9 C18.9,29.9 18.9,29.9 18.8,29.8 C18.6,29.6 18.4,29.3 18.4,29 C18.3,28.3 18.6,27.3 19,26.7 C19.1,26.6 19.2,26.5 19.4,26.4 C19.6,26.3 20.3,26.2 20.5,26.2 C20.8,26.2 21.1,26.4 21.4,26.3 C21.7,26.1 22.3,25.4 22.6,25.1 C22.8,24.9 23,24.8 23.2,24.6 C23.5,24.3 23.8,24 24.1,23.7 C24.4,23.4 25.4,22.6 25.5,22.2 C25.5,22.1 25.4,21.9 25.4,21.8 C25.2,21.8 25,21.8 24.8,21.8 C24.3,21.9 24.2,22.1 23.8,22.2 C23.5,22.3 22.3,22.3 21.8,22.3 C21.8,22 21.8,21.8 21.7,21.6 C21.7,21.3 21.6,21 21.7,20.8 C21.8,20.7 21.9,20.5 21.9,20.4 C22.1,20 22.3,19.6 22.5,19.3 C22.7,19 23,18.8 23.2,18.6 C23.5,18.3 23.9,17.9 24.2,17.6 C24.5,17.3 24.9,17 25.1,16.6 C25.2,16.4 25.4,16.1 25.3,15.9 C25.3,15.8 25.2,15.7 25.1,15.7 C24.8,15.6 24.4,15.6 24.1,15.7 C23.8,15.8 23.4,16 23,16.1 C22.7,16.3 22.5,16.5 22.3,16.7 C22.2,16.8 22.1,16.9 22,17 C21.8,17.1 21.6,17.2 21.4,17.3 C21.1,17.5 20.1,18.5 20,18.8 C19.9,18.9 19.9,19.1 19.9,19.3 C19.8,19.6 19.7,19.8 19.6,20.1 C19.5,20.4 19.5,20.7 19.4,20.9 C19.1,21.4 18.4,21.8 17.9,21.9 C17.6,21.8 17.4,21.6 17.1,21.4 C16.9,21.2 16.8,21.1 16.6,20.9 C16.5,20.7 16.4,20.6 16.3,20.4 C16,19.8 15.8,19.3 15.7,18.6 C15.7,18.3 15.7,17.8 15.7,17.6 C15.7,17.5 15.8,17.4 15.9,17.3 C16.2,16.9 16.3,16.8 16.7,16.5 C16.9,16.4 17,16.2 17.2,16.1 C17.4,16 17.9,15.9 18.1,15.9 C18.3,15.9 18.5,15.9 18.7,15.8 C18.8,15.7 18.9,15.6 19,15.5 C19.2,15.3 19.2,15 19.4,14.7 C19.5,14.5 19.7,14.4 19.8,14.3 C20,14.1 20.2,13.8 20.3,13.6 C20.4,13.4 20.5,13.2 20.6,13 C20.8,12.6 21.1,12.2 21.3,11.8 C21.4,11.6 21.4,11.4 21.5,11.2 C21.6,11 21.7,10.8 21.7,10.5 C21.7,10.3 21.7,10.1 21.7,10 C21.3,10 21.1,10.3 20.7,10.3 C20.5,10.3 20.2,10.2 20,10.2 C19.8,10.2 19.6,10.2 19.4,10.1 C19,10 18.4,9.5 18.1,9.1 C17.7,8.6 17.3,7.9 17.2,7.3 C17.2,7 17.2,6.7 17.2,6.4 C17.5,6.6 17.7,6.9 18,7.1 C18.4,7.3 19.3,7.5 19.7,7.4 C19.9,7.4 20,7.3 20.2,7.2 C20.3,7.2 20.4,7.1 20.6,7.1 C20.8,7 20.9,6.9 21,6.9 C21.2,6.8 21.5,6.7 21.7,6.5 C21.8,6.4 22,6.3 22.1,6.2 C22.3,6 22.5,5.9 22.7,5.7 C23,5.4 23.3,5.1 23.7,4.7 L25.2,3.2 C25.5,2.9 25.8,2.6 26.1,2.3 C26.5,2.3 26.6,2.2 26.8,2.2 Z M27.3,23.1 C27.3,23.4 27.4,23.6 27.4,23.8 C27.4,24.3 27.4,24.9 27.4,25.4 C27.4,25.8 27.4,26.2 27.4,26.6 C27.7,26.6 27.9,26.7 28.2,26.7 C28.7,26.8 29.5,26.6 30,26.5 C30.4,26.4 30.8,26.1 31,25.7 C31.1,25.5 31.1,25.3 31,25.2 C31,25.1 30.9,24.9 30.8,24.8 C30.7,24.7 30.7,24.5 30.6,24.4 C30.3,23.8 29.4,23.4 28.9,23 C28.7,22.8 28.5,22.5 28.3,22.4 C28.2,22.4 28.2,22.4 28.1,22.4 C27.7,22.5 27.5,22.7 27.3,23.1 C27.3,23.1 27.3,23.1 27.3,23.1 Z M24.4,26.3 C24.8,26.4 25.2,26.6 25.6,26.6 C25.8,26.6 26.1,26.6 26.3,26.6 C26.3,26.3 26.4,26.1 26.4,25.8 C26.4,25.5 26.4,24.7 26.4,24.5 C26.4,24.4 26.4,24.4 26.3,24.3 C26.2,24.3 26.1,24.2 26.1,24.2 C25.9,24.2 25.7,24.3 25.5,24.5 C25.3,24.6 25.1,24.8 24.9,25 C24.7,25.1 24.5,25.3 24.4,25.4 C24.2,25.5 24.1,25.7 24,25.8 C23.9,25.9 23.8,26 23.7,26.1 L23.7,26.1 C23.9,26.2 24.2,26.2 24.4,26.3 Z" id="形状"></path>
                    <path d="M11.9,0.8 C12,0.8 12.1,0.8 12.2,0.8 C12.3,0.9 12.5,1 12.6,1.1 C13,1.5 13.5,1.8 13.7,2.3 C13.8,2.6 13.8,3 13.8,3.3 C13.8,3.6 13.8,4 13.8,4.3 C13.7,4.7 13.2,5.6 12.9,6 C12.8,6.2 12.7,6.3 12.5,6.5 C12.3,6.8 12.2,7.1 12,7.4 C11.8,7.7 11.4,7.9 11.2,8.3 C11,8.6 10.9,8.8 10.7,9.1 C10.6,9.3 10.4,9.5 10.3,9.7 C10,10.1 9.7,10.5 9.4,10.9 C9.3,11 9.2,11.2 9.1,11.4 C9,11.5 8.9,11.7 8.7,11.8 C8.6,11.9 8.5,12.1 8.4,12.2 C8.3,12.3 8.2,12.5 8,12.6 C7.9,12.8 7.7,13 7.6,13.1 C7.2,13.5 6.8,13.8 6.5,14.2 C6.3,14.4 6.1,14.6 6,14.8 C5.9,15 5.7,15.1 5.6,15.3 C5.4,15.6 5.3,15.9 5.1,16.1 C5,16.2 4.9,16.3 4.8,16.4 C4.7,16.5 4.6,16.7 4.5,16.8 C4.3,17 4.2,17.2 4.1,17.5 C4,17.7 4,17.8 3.9,18 C4.1,18 4.2,18 4.4,17.9 C4.7,17.8 4.9,17.7 5.1,17.6 C5.6,17.4 6.1,17.2 6.6,16.9 C6.8,16.8 7,16.5 7.3,16.4 C7.5,16.3 7.6,16.3 7.8,16.3 C8.2,16.3 8.5,16.1 8.8,15.8 C9.1,15.5 9.2,15.3 9.3,14.9 C9.4,14.6 9.7,14.4 10,14.2 C10.1,14.2 10.3,14.3 10.4,14.3 C11,14.6 11.6,15.3 11.8,15.9 C11.9,16.1 11.9,16.3 11.9,16.6 C11.9,17.3 11.8,17.8 11.4,18.4 C11.2,18.7 10.9,18.9 10.7,19.1 C10.6,19.3 10.5,19.5 10.4,19.6 C10.3,19.8 10.1,19.9 10,20.1 C9.8,20.4 9.8,20.7 9.6,20.9 C9.5,21 9.4,21.1 9.3,21.3 C9.2,21.5 9.1,21.7 9,21.9 C8.8,22.1 8.6,22.3 8.4,22.6 C8.4,22.7 8.3,22.8 8.4,22.9 C8.6,23.1 8.8,23.3 9,23.5 C9.2,23.7 9.5,23.8 9.7,24 C9.9,24.2 10.2,24.3 10.4,24.5 C10.5,24.5 10.6,24.6 10.7,24.6 C10.8,24.6 10.9,24.5 11,24.4 C11.2,24.2 11.3,24 11.4,23.8 C11.7,23.4 12,23.1 12.2,22.7 C12.4,22.3 12.6,21.8 12.9,21.4 L12.9,21.4 C13,21.4 13.1,21.3 13.2,21.3 C13.1,21.6 13.1,21.9 13.1,22.2 C13,22.6 13,22.9 12.9,23.3 C12.8,23.5 12.8,23.8 12.7,24 C12.6,24.2 12.6,24.5 12.5,24.7 C12.4,24.9 12.3,25.2 12.3,25.4 C12.2,25.9 12.1,26.3 12,26.8 C11.9,27 11.8,27.3 11.7,27.5 C11.6,27.8 11.6,28.1 11.5,28.4 C11.4,28.6 11.3,28.8 11.3,29 C11.2,29.3 11.2,29.5 11.1,29.8 C11,30 10.9,30.3 10.9,30.5 C10.8,30.9 10.8,31.2 10.7,31.6 C10.7,31.7 10.6,31.8 10.5,32 C10.3,32.3 10.1,32.6 9.7,32.8 C9.7,32.8 9.7,32.8 9.6,32.8 C9.5,32.7 9.4,32.7 9.3,32.6 C9.2,32.5 8.7,31.8 8.6,31.6 C8.5,31.4 8.4,31.2 8.3,31.1 C8.2,31 8.1,30.8 8,30.7 C7.8,29.9 8.4,29.2 8.8,28.5 C8.9,28.4 8.9,28.3 8.9,28.1 C8.9,27.7 8.9,27.3 8.9,27 C8.9,26.6 8.9,26.2 8.9,25.8 C8.9,25.7 8.9,25.6 8.9,25.5 C8.8,25.3 8.6,25 8.4,24.9 C8.2,24.8 8.1,24.8 7.9,24.8 C6.9,24.8 6.6,25.6 5.8,25.9 L5.8,25.9 C5.7,25.9 5.6,25.9 5.5,25.8 C5.1,25.6 5.2,25.1 5.1,24.7 C5.1,24.5 5,24.3 5,24.1 L5.1,24.1 C5.2,24.1 5.4,24.1 5.5,24 C5.6,23.9 5.6,23.9 5.7,23.8 C5.8,23.6 5.8,23.4 5.9,23.3 C6,23.1 6.1,22.9 6.2,22.7 C6.4,22.2 6.6,21.7 6.9,21.2 C7.1,20.9 7.3,20.6 7.5,20.3 C7.6,20.1 7.8,19.9 7.9,19.7 C8.1,19.4 8.3,19.2 8.4,18.9 C8.5,18.7 8.5,18.5 8.6,18.3 C8.7,18 8.8,17.7 8.8,17.4 C8.7,17.5 8.6,17.7 8.5,17.8 C8.2,18 7.8,18.1 7.5,18.3 C7.2,18.4 7,18.6 6.7,18.8 C6.4,18.9 6.1,19 5.8,19.2 C5.6,19.3 5.4,19.6 5.2,19.7 C5,19.9 4.8,20 4.6,20.1 C4.3,20.3 4,20.4 3.7,20.6 C3.1,21 2.5,21.6 1.9,22.2 C1.6,22.5 1.5,22.8 1.3,23.1 C1.2,23.1 1.1,23.1 1,23.1 C0.6,22.5 0.6,22.3 0.6,21.5 C0.6,21.2 0.6,20.9 0.6,20.7 C0.6,20.6 0.6,20.4 0.7,20.4 C0.8,20.2 1.1,20.2 1.3,20.1 C1.5,20 1.6,19.9 1.7,19.8 C2,19.6 2.1,19.2 2.4,19 C2.7,18.7 3.1,18.3 3.4,18 C3.6,17.8 3.8,17.7 3.9,17.5 C4,17.3 4.2,17.1 4.3,16.9 C4.4,16.7 4.6,16.6 4.7,16.4 C4.8,16.2 4.8,16 5,15.9 C5.1,15.8 5.2,15.6 5.3,15.5 C5.5,15.3 5.6,15.1 5.7,14.9 C6,14.5 6.2,14 6.5,13.6 C6.6,13.4 6.8,13.2 6.9,13 C7,12.8 7.1,12.7 7.2,12.5 C7.3,12.4 7.4,12.3 7.5,12.1 C7.7,11.8 7.9,11.5 8,11.3 C8.1,11.1 8.1,10.9 8.2,10.7 C8.3,10.5 8.4,10.3 8.4,10.1 C8.5,9.8 8.6,9.4 8.8,9.1 C9,8.7 9.2,8.4 9.4,8 C9.5,7.8 9.6,7.5 9.8,7.3 C9.9,7.1 10.1,6.9 10.2,6.6 C10.3,6.3 10.4,6 10.5,5.7 C10.6,5.4 10.7,5 10.9,4.7 C11.2,4 11.4,3.3 11.5,2.6 C11.5,2.1 11.5,1.7 11.5,1.2 C11.5,0.8 11.7,0.8 11.9,0.8 Z" id="路径"></path>
                </g>
                <g id="梁家鏗譯本" fill-rule="nonzero">
                    <use fill="#000000" xlink:href="#path-2"></use>
                    <use fill="#FFFFFF" xlink:href="#path-2"></use>
                </g>
            </g>
        </g>
    </g>
</svg>